<?xml version="1.0" encoding="UTF-8" standalone="no"?>
<!-- Created with Inkscape (http://www.inkscape.org/) -->

<svg
   xmlns:dc="http://purl.org/dc/elements/1.1/"
   xmlns:cc="http://creativecommons.org/ns#"
   xmlns:rdf="http://www.w3.org/1999/02/22-rdf-syntax-ns#"
   xmlns:svg="http://www.w3.org/2000/svg"
   xmlns="http://www.w3.org/2000/svg"
   xmlns:sodipodi="http://sodipodi.sourceforge.net/DTD/sodipodi-0.dtd"
   xmlns:inkscape="http://www.inkscape.org/namespaces/inkscape"
   width="300"
   height="300"
   viewBox="0 0 79.374998 79.375002"
   version="1.1"
   id="svg17343"
   inkscape:version="0.92.1 r15371"
   sodipodi:docname="furnace_day.svg">
  <defs
     id="defs17337" />
  <sodipodi:namedview
     id="base"
     pagecolor="#ffffff"
     bordercolor="#666666"
     borderopacity="1.0"
     inkscape:pageopacity="0.0"
     inkscape:pageshadow="2"
     inkscape:zoom="0.98994949"
     inkscape:cx="153.42592"
     inkscape:cy="330.09555"
     inkscape:document-units="mm"
     inkscape:current-layer="layer1"
     showgrid="false"
     inkscape:window-width="1920"
     inkscape:window-height="1017"
     inkscape:window-x="1912"
     inkscape:window-y="-8"
     inkscape:window-maximized="1"
     units="px" />
  <metadata
     id="metadata17340">
    <rdf:RDF>
      <cc:Work
         rdf:about="">
        <dc:format>image/svg+xml</dc:format>
        <dc:type
           rdf:resource="http://purl.org/dc/dcmitype/StillImage" />
        <dc:title></dc:title>
      </cc:Work>
    </rdf:RDF>
  </metadata>
  <g
     inkscape:label="Layer 1"
     inkscape:groupmode="layer"
     id="layer1"
     transform="translate(0,-217.62498)">
    <g
       id="g17206"
       transform="matrix(0.22508379,0,0,-0.18510966,-38.890496,309.73567)"
       style="opacity:0.672">
      <g
         transform="translate(327.361,282.0573)"
         id="g15666"
         style="">
        <path
           inkscape:connector-curvature="0"
           id="path15668"
           style="fill:#351a11;fill-opacity:1;fill-rule:nonzero;stroke:none"
           d="m 0,0 c -3.152,0.804 -6.07,1.691 -9.366,1.702 -3.202,0.011 -6.35,-0.503 -9.392,-1.502 -5.485,-1.8 -10.465,-5.092 -14.404,-9.297 -2.038,-2.174 -3.765,-4.603 -5.135,-7.251 -0.823,-1.59 -1.095,-3.232 -1.39,-4.989 -0.322,-1.919 -0.584,-3.848 -0.795,-5.782 -1.664,-15.178 -0.347,-30.45 -0.878,-45.671 19.516,-3.145 42.93,-5.045 66.65,-5.123 0.529,-0.001 1.066,-0.002 1.593,-0.002 3.783,0 7.491,0.049 11.134,0.137 0.07,2.038 0.118,4.076 0.127,6.114 0.042,9.667 -0.623,19.39 -2.63,28.86 -0.987,4.658 -2.297,9.254 -4.035,13.69 -0.886,2.26 -1.824,4.635 -3.074,6.723 -1.123,1.879 -2.852,3.579 -4.343,5.17 C 17.476,-10.19 9.368,-4.284 0.509,0.011 0.352,-0.03 0.185,-0.047 0,0" />
      </g>
      <g
         transform="translate(443.6335,203.9401)"
         id="g15670"
         style="">
        <path
           inkscape:connector-curvature="0"
           id="path15672"
           style="fill:#6b594d;fill-opacity:1;fill-rule:nonzero;stroke:none"
           d="m 0,0 c 1.63,-1.341 3.303,-2.631 5.036,-3.837 0.677,-0.47 1.361,-0.928 2.058,-1.368 0.369,-0.233 0.787,-0.452 1.174,-0.708 10.916,3.158 20.521,6.888 28.577,11.131 -0.586,0.338 -1.165,0.757 -1.623,1.01 -2.136,1.179 -4.255,2.388 -6.36,3.623 -4.445,2.608 -9.036,5.235 -12.951,8.622 C 9.152,13.936 0.689,10.4 -8.588,7.648 -5.808,5.017 -2.957,2.432 0,0" />
      </g>
      <g
         transform="translate(232.8923,209.3639)"
         id="g15674"
         style="">
        <path
           inkscape:connector-curvature="0"
           id="path15676"
           style="fill:#6b594d;fill-opacity:1;fill-rule:nonzero;stroke:none"
           d="m 0,0 c -0.943,-0.4 -1.971,-0.607 -2.107,-1.78 6.094,-3.408 13.856,-6.533 23.096,-9.286 0.813,0.693 1.747,1.308 2.501,1.925 1.585,1.297 3.169,2.594 4.754,3.892 2.577,2.108 5.092,4.468 7.809,6.429 C 28.405,2.93 21.755,4.897 16.442,7.033 12.929,5.529 9.414,4.026 5.899,2.523 3.933,1.683 1.969,0.837 0,0" />
      </g>
      <g
         transform="translate(370.8239,192.1628)"
         id="g15678"
         style="">
        <path
           inkscape:connector-curvature="0"
           id="path15680"
           style="fill:#6b594d;fill-opacity:1;fill-rule:nonzero;stroke:none"
           d="m 0,0 c 0.655,-1.808 1.546,-3.721 1.906,-5.665 6.083,0.238 12.119,0.593 18.058,1.072 8.088,0.653 15.876,1.518 23.333,2.577 0.057,0.222 0.118,0.444 0.164,0.666 0.238,1.163 -0.508,1.896 -1.172,2.742 -1.111,1.415 -2.225,2.827 -3.337,4.24 -1.923,2.444 -4.072,4.835 -5.782,7.44 C 19.676,11.268 6.411,10.473 -4.446,10.16 -2.638,6.928 -1.26,3.477 0,0" />
      </g>
      <g
         transform="translate(472.8972,134.8366)"
         id="g15682"
         style="">
        <path
           inkscape:connector-curvature="0"
           id="path15684"
           style="fill:#6b594d;fill-opacity:1;fill-rule:nonzero;stroke:none"
           d="m 0,0 c 0.382,0.098 0.626,-0.449 0.271,-0.643 -1.891,-1.029 -3.925,-1.803 -5.873,-2.721 -1.819,-0.857 -3.621,-1.751 -5.423,-2.642 -3.566,-1.761 -7.143,-3.501 -10.871,-4.895 -7.192,-2.69 -15.159,-4.115 -22.66,-1.855 -0.312,0.094 -0.18,0.578 0.135,0.489 7.663,-2.159 15.69,-0.428 22.903,2.501 3.756,1.526 7.387,3.358 11.021,5.151 C -7.134,-2.954 -3.655,-0.934 0,0 m -20.099,-33.859 c -0.226,-1.997 -0.374,-4.236 -1.083,-6.12 -0.089,-0.239 -0.461,-0.216 -0.46,0.061 0.008,1.774 0.553,3.578 0.797,5.335 0.274,1.973 0.44,3.974 0.376,5.966 -0.055,1.762 -0.302,3.52 -0.804,5.212 -0.513,1.726 -1.423,3.16 -2.213,4.75 -0.039,0.078 0.056,0.156 0.123,0.094 2.361,-2.218 3.179,-6.245 3.428,-9.343 0.161,-1.986 0.061,-3.979 -0.164,-5.955 m -28.792,27.936 c -0.049,-1.539 -0.181,-3.075 -0.39,-4.601 -0.203,-1.491 -0.373,-3.078 -1.037,-4.445 -0.112,-0.229 -0.48,-0.114 -0.473,0.128 0.036,1.41 0.446,2.805 0.66,4.195 0.24,1.564 0.391,3.142 0.458,4.723 0.133,3.088 -0.033,6.206 -0.498,9.262 -0.048,0.316 0.426,0.46 0.489,0.135 0.608,-3.103 0.893,-6.236 0.791,-9.397 M -82.326,4.665 c -4.54,-0.173 -9.095,-0.038 -13.612,0.464 -4.416,0.49 -9.015,1.106 -13.236,2.533 -0.145,0.05 -0.084,0.25 0.063,0.227 5.123,-0.813 10.134,-1.865 15.328,-2.215 8.898,-0.6 17.826,-0.084 26.57,1.707 4.309,0.883 8.559,2.058 12.707,3.521 4.259,1.503 8.305,3.435 12.415,5.287 0.495,0.223 0.92,-0.454 0.435,-0.742 -4.353,-2.585 -9.213,-4.439 -14.013,-6.013 -8.602,-2.824 -17.61,-4.423 -26.657,-4.769 m 22.604,-19.128 c -2.261,-1.775 -4.964,-2.953 -7.58,-4.124 -2.519,-1.127 -5.09,-2.143 -7.7,-3.04 -19.56,-6.719 -41.4,-6.823 -60.841,0.348 -0.139,0.05 -0.083,0.273 0.063,0.225 5.429,-1.771 11.016,-3.004 16.67,-3.803 10.186,-1.442 20.62,-1.155 30.719,0.791 4.921,0.948 9.766,2.263 14.475,3.98 2.504,0.913 4.967,1.937 7.379,3.071 2.177,1.025 4.248,2.243 6.492,3.108 0.302,0.116 0.581,-0.354 0.323,-0.556 m -35.632,-26.883 c -0.071,-1.279 -0.064,-2.823 -0.518,-4.033 -0.099,-0.262 -0.491,-0.23 -0.499,0.067 -0.032,1.353 0.349,2.761 0.442,4.12 0.092,1.329 0.114,2.663 0.064,3.994 -0.106,2.801 -0.537,5.573 -1.259,8.28 -0.059,0.219 0.277,0.311 0.339,0.093 0.768,-2.681 1.251,-5.435 1.419,-8.22 0.086,-1.432 0.091,-2.868 0.012,-4.301 m -41.346,29.315 c -0.368,-2.357 -0.776,-4.843 -1.641,-7.074 -0.116,-0.302 -0.556,-0.19 -0.489,0.135 0.476,2.284 1.166,4.51 1.572,6.815 0.417,2.365 0.675,4.755 0.793,7.152 0.014,0.275 0.44,0.277 0.43,0 -0.082,-2.354 -0.301,-4.7 -0.665,-7.028 m -47.208,22.599 c -0.167,0.054 -0.096,0.316 0.073,0.264 4.738,-1.461 9.527,-2.756 14.374,-3.805 8.534,-1.845 17.252,-3.034 25.997,-2.921 4.324,0.057 8.647,0.43 12.905,1.195 2.103,0.377 4.188,0.848 6.246,1.42 2.074,0.574 4.071,1.378 6.135,1.968 0.252,0.073 0.422,-0.31 0.181,-0.427 -2.129,-1.038 -4.519,-1.673 -6.801,-2.282 -2.419,-0.644 -4.873,-1.153 -7.347,-1.536 -17.441,-2.697 -35.169,0.736 -51.763,6.124 m 37.859,-30.794 c -3.752,-0.566 -7.636,-0.65 -11.422,-0.862 -3.782,-0.212 -7.568,-0.355 -11.357,-0.378 -5.777,-0.034 -11.609,0.131 -17.327,1.019 -4.65,0.721 -9.246,1.802 -13.782,3.042 -9.081,2.482 -18.477,5.468 -26.627,10.279 -0.217,0.128 -0.021,0.465 0.197,0.338 4.329,-2.524 9.03,-4.404 13.737,-6.091 9.03,-3.235 18.493,-5.917 28.026,-7.15 6.027,-0.781 12.176,-0.848 18.245,-0.725 3.295,0.067 6.587,0.217 9.876,0.415 3.441,0.208 6.911,0.66 10.356,0.689 0.323,0.003 0.408,-0.526 0.078,-0.576 m -21.04,-20.331 c 0.012,-1.9 0.024,-3.799 0.006,-5.699 -0.018,-1.89 0.087,-3.826 -0.161,-5.7 -0.024,-0.176 -0.251,-0.175 -0.274,0 -0.265,2.016 -0.144,4.105 -0.162,6.138 -0.016,1.973 0.005,3.946 0.019,5.919 0.02,3.258 -0.485,7.063 1.207,10.002 0.054,0.093 0.221,0.029 0.179,-0.076 -1.322,-3.256 -0.833,-7.15 -0.814,-10.584 m -36.206,31.984 c 0.016,-0.132 -0.208,-0.16 -0.229,-0.031 -0.954,5.574 -0.647,11.256 0.578,16.767 0.016,0.074 0.128,0.042 0.113,-0.031 -1.085,-5.507 -1.127,-11.142 -0.462,-16.705 m -27.021,30.594 c -0.08,0.059 -0.004,0.194 0.079,0.135 5.489,-3.887 11.749,-6.509 18.375,-7.676 3.595,-0.632 7.229,-0.829 10.873,-0.926 3.451,-0.094 6.932,0.168 10.371,-0.12 0.409,-0.035 0.393,-0.575 0,-0.625 -3.634,-0.465 -7.42,-0.355 -11.077,-0.209 -3.469,0.136 -6.951,0.51 -10.354,1.205 -6.628,1.351 -12.855,4.161 -18.267,8.216 m -0.111,-20.74 c 0.137,-1.193 0.444,-2.36 0.572,-3.552 0.022,-0.213 -0.281,-0.215 -0.346,-0.046 -0.433,1.127 -0.58,2.405 -0.73,3.598 -0.162,1.285 -0.254,2.588 -0.231,3.883 0.045,2.519 0.454,5.035 1.131,7.458 0.053,0.194 0.349,0.112 0.301,-0.083 -0.609,-2.468 -0.888,-4.974 -0.889,-7.514 -0.001,-1.252 0.05,-2.499 0.192,-3.744 m 43.821,19.49 c 0.135,1.226 0.407,2.43 0.791,3.602 0.176,0.541 0.378,1.073 0.6,1.596 0.212,0.499 0.401,1.078 0.803,1.454 0.113,0.105 0.351,0.04 0.333,-0.138 -0.057,-0.551 -0.357,-1.049 -0.55,-1.563 -0.189,-0.505 -0.357,-1.018 -0.504,-1.536 -0.325,-1.154 -0.54,-2.34 -0.671,-3.531 -0.128,-1.15 -0.152,-2.312 -0.074,-3.467 0.039,-0.581 0.104,-1.159 0.198,-1.733 0.092,-0.561 0.269,-1.12 0.287,-1.689 0.011,-0.32 -0.471,-0.465 -0.618,-0.167 -0.499,1.011 -0.568,2.36 -0.656,3.474 -0.097,1.231 -0.075,2.47 0.061,3.698 m 75.089,-1.253 c -0.017,0.228 0.327,0.219 0.352,0 0.326,-2.82 0.298,-5.648 -0.258,-8.434 -0.059,-0.302 -0.493,-0.166 -0.451,0.124 0.396,2.747 0.573,5.54 0.357,8.31 m 78.082,12.038 c 0.326,-1.211 0.533,-2.453 0.61,-3.705 0.076,-1.245 0.067,-2.518 -0.238,-3.731 -0.059,-0.235 -0.43,-0.184 -0.422,0.057 0.042,1.204 0.147,2.399 0.078,3.605 -0.071,1.225 -0.275,2.434 -0.593,3.617 -0.099,0.366 0.467,0.52 0.565,0.157 m 0.905,-14.223 c 4.757,-0.319 9.585,-0.211 14.3,0.525 4.678,0.732 8.952,2.263 13.411,3.763 0.337,0.113 0.555,-0.414 0.241,-0.57 -4.255,-2.118 -9.264,-3.198 -13.944,-3.844 -4.678,-0.645 -9.355,-0.704 -14.035,-0.065 -0.109,0.014 -0.082,0.198 0.027,0.191 m -200.924,5.806 c -3.185,4.549 -4.369,10.223 -3.568,15.7 0.015,0.108 0.205,0.082 0.192,-0.026 -0.657,-5.425 0.743,-10.909 3.68,-15.498 0.124,-0.192 -0.176,-0.36 -0.304,-0.176 m 210.707,16.409 c -0.224,-0.471 -0.785,-0.517 -1.175,-0.262 -31.975,-7.071 -68.273,-11.788 -104.542,-11.788 -42.575,0 -85.099,6.499 -120.524,23.302 0.023,-1.927 0.202,-3.856 0.408,-5.77 0.293,-2.724 0.689,-5.448 1.302,-8.121 0.435,-1.903 0.896,-4.386 2.28,-5.867 1.615,-1.727 3.59,-3.045 5.184,-4.804 0.579,-0.331 1.171,-0.638 1.78,-0.912 0.318,-0.143 0.648,-0.262 0.967,-0.405 0.302,-0.137 0.596,-0.292 0.9,-0.428 0.177,-0.079 0.037,-0.309 -0.12,-0.286 -0.358,0.055 -0.729,0.1 -1.075,0.199 -0.325,0.093 -0.645,0.209 -0.962,0.325 -0.156,0.057 -0.305,0.133 -0.459,0.195 0.854,-1.23 1.473,-2.575 1.736,-4.074 0.373,-2.137 0.285,-4.336 0.268,-6.495 -0.024,-3.023 0.197,-5.951 -0.956,-8.811 -1.103,-2.734 -2.847,-5.123 -4.411,-7.602 -0.166,-0.263 -0.333,-0.532 -0.499,-0.802 0.55,0.029 1.13,-0.149 1.672,-0.206 0.71,-0.077 1.425,-0.106 2.139,-0.088 1.417,0.035 2.803,0.287 4.207,0.418 0.1,0.008 0.13,-0.137 0.05,-0.182 -1.284,-0.715 -2.801,-0.975 -4.257,-1.056 -0.763,-0.043 -1.529,-0.032 -2.291,0.033 -0.345,0.029 -0.689,0.071 -1.032,0.12 -0.36,0.051 -0.607,0.116 -0.876,0.304 -1.135,-1.944 -2.089,-4.047 -2.053,-6.322 0.057,-3.638 3.003,-5.973 5.1,-8.601 2.259,-2.833 3.592,-6.297 5.453,-9.385 1.856,-3.081 4.222,-5.518 7.391,-7.239 1.842,-1 3.804,-1.749 5.806,-2.372 -0.24,1.143 -0.376,2.334 -0.519,3.412 -0.255,1.912 -0.359,3.845 -0.357,5.774 0.003,3.922 0.418,7.865 1.599,11.612 0.039,0.122 0.209,0.071 0.188,-0.051 -0.642,-3.828 -1.163,-7.672 -1.112,-11.561 0.024,-1.916 0.176,-3.824 0.406,-5.726 0.15,-1.241 0.471,-2.492 0.691,-3.74 0.877,-0.254 1.758,-0.489 2.642,-0.701 3.203,-0.771 6.456,-1.301 9.709,-1.808 3.729,-0.581 7.749,-0.621 11.322,-1.902 4.074,-1.461 8.086,-3.173 12.123,-4.739 3.87,-1.501 7.636,-3.316 11.548,-4.697 15.202,-5.365 31.689,-2.859 47.17,-0.231 7.85,1.333 15.696,2.782 23.629,3.526 3.838,0.36 7.777,0.687 11.624,0.293 3.836,-0.392 7.531,-1.449 11.229,-2.499 7.516,-2.135 15.326,-3.307 23.155,-2.716 7.161,0.54 13.919,2.958 20.355,6.035 3.85,1.841 7.684,3.63 11.679,5.139 4.054,1.533 8.174,2.877 12.291,4.224 1.987,0.649 3.975,1.3 5.955,1.972 1.697,0.575 3.469,1.061 4.992,2.03 2.497,1.587 4.174,4.169 5.4,6.804 1.327,2.85 2.162,5.931 2.856,8.989 0.768,3.382 1.472,6.78 1.074,10.266 C 8.101,-5.868 7.581,-4.003 6.71,-2.341 5.808,-0.621 4.483,0.715 3.228,2.171 1.19,4.534 0.515,7.064 0.104,10.099 c -0.379,2.806 -0.708,5.832 -0.285,8.653 0.464,3.093 2.386,5.276 4.119,7.744 4.296,6.117 3.528,14.193 4.835,21.247 -9.852,-2.948 -20.42,-5.713 -31.52,-8.195" />
      </g>
      <g
         transform="translate(286.9196,286.5612)"
         id="g15686"
         style="">
        <path
           inkscape:connector-curvature="0"
           id="path15688"
           style="fill:#492a1c;fill-opacity:1;fill-rule:nonzero;stroke:none"
           d="m 0,0 c -4.271,-2.248 -7.542,-5.848 -9.839,-10.055 -5.309,-9.726 -6.049,-21.626 -6.105,-32.478 -0.057,-10.744 0.863,-21.442 1.148,-32.173 4.172,-0.898 8.628,-1.731 13.306,-2.493 -0.436,9.009 -0.934,18.001 -0.957,27.025 -0.021,8.055 0.28,16.138 1.523,24.107 0.27,1.724 0.435,3.54 1.184,5.127 0.66,1.4 1.423,2.752 2.273,4.044 1.653,2.512 3.591,4.84 5.791,6.89 4.405,4.104 9.826,7.209 15.683,8.671 2.247,0.562 4.57,0.878 6.891,0.898 C 26.286,1.062 21.56,2.126 16.802,2.668 11.169,3.31 5.068,2.668 0,0" />
      </g>
      <g
         transform="translate(261.9655,203.6315)"
         id="g15690"
         style="">
        <path
           inkscape:connector-curvature="0"
           id="path15692"
           style="fill:#6b594d;fill-opacity:1;fill-rule:nonzero;stroke:none"
           d="m 0,0 -4.342,-3.612 c -0.825,-0.687 -1.741,-1.351 -2.591,-2.065 5.506,-1.601 11.521,-3.074 18.005,-4.399 4.491,-0.918 9.158,-1.751 13.964,-2.502 0.81,2.92 2.875,5.332 4.701,7.675 1.052,1.351 1.966,2.753 2.882,4.197 0.549,0.864 1.143,1.934 1.852,2.831 C 24.835,3.375 15.895,4.916 7.98,6.687 5.515,4.286 2.636,2.192 0,0" />
      </g>
      <g
         transform="translate(229.6315,208.2409)"
         id="g15694"
         style="">
        <path
           inkscape:connector-curvature="0"
           id="path15696"
           style="fill:#6b594d;fill-opacity:1;fill-rule:nonzero;stroke:none"
           d="M 0,0 C 0.212,0.823 0.692,1.413 1.698,1.854 3.704,2.737 5.781,3.48 7.82,4.285 l 10.878,4.292 c -2.566,1.077 -4.815,2.193 -6.666,3.345 l 0.235,0.376 c -0.107,0.987 -0.192,1.975 -0.286,2.963 -8.301,-0.159 -16.059,-1.824 -23.637,-5.115 0.02,-0.104 0.034,-0.216 0.054,-0.321 C -9.161,6.369 -5.25,3.074 0,0" />
      </g>
      <g
         transform="translate(271.3669,212.0231)"
         id="g15702"
         style="">
        <path
           inkscape:connector-curvature="0"
           id="path15704"
           style="fill:#724b30;fill-opacity:1;fill-rule:nonzero;stroke:none"
           d="m 0,0 c -0.077,0.905 -0.155,1.811 -0.24,2.715 -1.095,11.637 -2.171,23.333 -1.671,35.033 0.461,10.763 1.969,22.804 8.761,31.599 3.094,4.008 7.283,6.956 12.121,8.469 6.676,2.089 13.763,1.452 20.494,-0.011 4.938,-1.075 9.77,-2.655 14.429,-4.645 1.02,-0.3 2.005,-0.687 2.913,-1.198 0.129,-0.072 0.228,-0.161 0.307,-0.258 2.836,-1.355 5.603,-2.853 8.266,-4.506 3.913,-2.427 7.638,-5.178 11.088,-8.229 3.357,-2.97 6.846,-6.295 9.384,-10.017 1.291,-1.892 2.153,-4.25 3.024,-6.362 0.955,-2.315 1.79,-4.678 2.52,-7.073 1.442,-4.73 2.474,-9.58 3.201,-14.469 1.414,-9.508 1.719,-19.139 1.406,-28.737 47.272,1.361 82.185,10.163 97.237,24.696 -0.67,9.954 -0.936,19.911 -1.192,29.543 -0.587,22.138 -1.142,43.049 -6.163,64.719 -2.287,9.873 -8.236,20.733 -13.632,30.138 -4.045,7.049 -8.848,13.833 -13.491,20.394 -8.378,11.835 -17.041,24.074 -21.67,38.413 -4.744,14.699 7.701,23.158 17.474,28.243 5.241,2.725 14.262,8.358 15.811,15.461 0.691,3.171 -0.205,6.382 -2.667,9.543 -6.503,8.35 -24.478,14.217 -37.896,16.704 l -0.101,0.019 c -21.502,3.986 -45.873,8.505 -67.518,3.338 l -3.106,-0.738 C 50.699,270.796 42.025,268.74 33.76,265.783 25.864,262.958 17.508,259.846 9.769,255.61 8.685,255.017 7.607,254.477 6.543,253.943 3.901,252.618 1.405,251.366 -0.889,249.452 l -0.854,-0.707 c -3.603,-2.971 -5.983,-4.933 -4.754,-9.92 1.039,-4.215 4.456,-8.155 9.14,-10.538 1.959,-0.997 4.096,-1.864 6.163,-2.703 5.281,-2.143 10.742,-4.359 14.21,-9.036 3.585,-4.834 4.431,-11.983 2.264,-19.124 l -0.102,-0.229 C -16.988,127.769 -33.74,68.005 -27.523,9.182 -21.46,5.728 -11.895,2.604 0,0" />
      </g>
      <g
         transform="translate(466.3932,228.7956)"
         id="g15706"
         style="">
        <path
           inkscape:connector-curvature="0"
           id="path15708"
           style="fill:#6b594d;fill-opacity:1;fill-rule:nonzero;stroke:none"
           d="m 0,0 0.422,-0.412 c -1.943,-1.992 -4.174,-3.831 -6.638,-5.535 3.981,-3.018 8.461,-5.507 12.788,-7.963 2.108,-1.196 4.23,-2.366 6.366,-3.508 0.671,-0.357 1.342,-0.714 2.018,-1.061 0.178,-0.092 0.373,-0.174 0.546,-0.278 0.071,0.014 0.143,0.018 0.211,-10e-4 2.933,1.613 5.645,3.297 8.131,5.049 -0.083,1.404 -0.235,2.806 -0.454,4.194 -0.222,1.405 -0.473,2.441 -1.768,3.161 -2.114,1.178 -4.534,1.93 -6.841,2.625 -2.766,0.833 -5.582,1.487 -8.396,2.139 -2.045,0.475 -4.212,0.924 -6.244,1.6 z" />
      </g>
      <g
         transform="translate(292.7057,198.193)"
         id="g15710"
         style="">
        <path
           inkscape:connector-curvature="0"
           id="path15712"
           style="fill:#6b594d;fill-opacity:1;fill-rule:nonzero;stroke:none"
           d="m 0,0 c -1.653,-2.235 -3.638,-4.595 -4.364,-7.346 11.927,-1.817 24.693,-3.126 37.812,-3.894 0.232,2.552 0.775,5.132 1.341,7.6 0.62,2.703 1.225,5.696 2.516,8.214 C 26.033,5.153 15.099,6.123 4.904,7.414 4.57,6.939 4.195,6.481 3.885,6.016 3.415,5.313 2.968,4.598 2.539,3.87 1.751,2.532 0.924,1.25 0,0" />
      </g>
      <g
         transform="translate(404.7819,205.3434)"
         id="g15714"
         style="">
        <path
           inkscape:connector-curvature="0"
           id="path15716"
           style="fill:#6b594d;fill-opacity:1;fill-rule:nonzero;stroke:none"
           d="m 0,0 c 2.38,-2.472 4.456,-5.342 6.634,-7.977 1.126,-1.362 2.306,-2.695 3.381,-4.099 0.735,-0.962 0.834,-1.813 0.616,-2.934 12.546,1.832 24.13,4.228 34.555,7.138 C 39.45,-4.098 34.289,0.635 29.664,5.683 29.561,5.796 29.54,5.922 29.563,6.037 20.207,3.313 10.054,1.373 0,0" />
      </g>
      <g
         transform="translate(352.6442,202.1442)"
         id="g15718"
         style="">
        <path
           inkscape:connector-curvature="0"
           id="path15720"
           style="fill:#6b594d;fill-opacity:1;fill-rule:nonzero;stroke:none"
           d="m 0,0 c -7.335,0.024 -14.643,0.225 -21.819,0.581 -1.48,-3.062 -1.909,-6.816 -2.453,-10.106 -0.267,-1.616 -0.54,-3.228 -0.736,-4.853 -0.036,-0.296 -0.06,-0.594 -0.091,-0.891 14.479,-0.804 29.356,-0.959 43.975,-0.424 -0.25,1.251 -0.771,2.485 -1.163,3.663 -1.377,4.124 -2.779,8.313 -4.781,12.185 C 8.63,0.039 4.721,-0.002 1.351,-0.002 0.89,-0.002 0.441,-0.001 0,0" />
      </g>
      <g
         transform="translate(482.5544,209.1461)"
         id="g15722"
         style="">
        <path
           inkscape:connector-curvature="0"
           id="path15724"
           style="fill:#6b594d;fill-opacity:1;fill-rule:nonzero;stroke:none"
           d="m 0,0 c -0.041,-0.19 -0.161,-0.345 -0.336,-0.433 0.001,-0.191 -0.14,-0.504 -0.176,-0.672 -0.169,-0.796 -0.284,-1.606 -0.396,-2.412 -0.347,-2.498 -0.597,-5.01 -0.855,-7.519 -0.297,-2.899 -0.579,-5.799 -0.889,-8.696 -0.231,-2.154 -0.319,-4.46 -0.855,-6.571 1.028,0.302 2.051,0.605 3.065,0.91 0.041,0.025 0.072,0.058 0.121,0.076 4.057,1.529 5.822,5.546 6.64,9.53 0.772,3.755 0.834,7.618 0.984,11.435 0.074,1.909 0.244,3.801 0.372,5.706 0.076,1.13 0.079,2.264 0.048,3.397 C 5.346,3.106 2.771,1.521 0,0" />
      </g>
      <g
         transform="translate(480.1706,204.735)"
         id="g15726"
         style="">
        <path
           inkscape:connector-curvature="0"
           id="path15728"
           style="fill:#6b594d;fill-opacity:1;fill-rule:nonzero;stroke:none"
           d="m 0,0 c 0.138,1.11 0.238,2.279 0.486,3.391 -7.912,-4.137 -17.284,-7.785 -27.899,-10.889 0.858,-1.255 0.265,-3.566 0.149,-4.972 -0.159,-1.942 -0.348,-3.884 -0.606,-5.815 -0.493,-3.684 -1.119,-7.348 -1.885,-10.985 9.608,2.161 18.811,4.532 27.493,7.049 -0.038,0.076 -0.064,0.161 -0.059,0.265 0.108,2.394 0.557,4.811 0.802,7.2 C -1.015,-9.838 -0.609,-4.906 0,0" />
      </g>
      <g
         transform="translate(229.9733,183.985)"
         id="g15730"
         style="">
        <path
           inkscape:connector-curvature="0"
           id="path15732"
           style="fill:#6b594d;fill-opacity:1;fill-rule:nonzero;stroke:none"
           d="m 0,0 c -0.252,1.611 -0.188,3.294 -0.235,4.915 -0.058,2.029 -0.114,4.06 -0.162,6.089 -0.097,3.978 -0.132,7.963 -0.095,11.942 0.001,0.089 0.008,0.169 0.011,0.254 -4.786,2.762 -8.518,5.706 -11.106,8.79 0.559,-3.565 0.882,-7.389 1.184,-11.133 C -9.918,14.843 -9.412,8.631 -7.888,3.645 -5.298,2.373 -2.667,1.16 0,0" />
      </g>
      <g
         transform="translate(451.2673,192.0446)"
         id="g15734"
         style="">
        <path
           inkscape:connector-curvature="0"
           id="path15736"
           style="fill:#6b594d;fill-opacity:1;fill-rule:nonzero;stroke:none"
           d="M 0,0 C 0.09,0.871 0.172,1.742 0.244,2.614 0.272,2.959 0.4,3.549 0.333,3.891 0.262,4.248 0.047,4.497 -0.212,4.702 -10.995,1.646 -23.017,-0.861 -36.075,-2.755 c -1.505,-6.9 -2.682,-13.824 -3.158,-20.885 0,-0.007 -0.005,-0.013 -0.006,-0.022 12.633,1.835 24.901,4.1 36.593,6.683 0.79,3.693 1.434,7.417 1.933,11.162 C -0.454,-3.881 -0.202,-1.943 0,0" />
      </g>
      <g
         transform="translate(230.7487,205.029)"
         id="g15738"
         style="">
        <path
           inkscape:connector-curvature="0"
           id="path15740"
           style="fill:#6b594d;fill-opacity:1;fill-rule:nonzero;stroke:none"
           d="m 0,0 c -0.013,-3.726 0.026,-7.45 0.04,-11.176 0.007,-1.799 0.018,-3.597 0.03,-5.396 0.012,-1.589 0.131,-3.218 -0.097,-4.794 7.004,-3.013 14.256,-5.652 21.713,-7.936 -0.294,1.672 -0.124,3.59 -0.164,5.229 -0.047,1.98 -0.078,3.961 -0.122,5.942 -0.045,1.982 -0.09,3.963 -0.174,5.943 -0.057,1.365 -0.181,2.854 0.608,4.053 0.14,0.212 0.306,0.413 0.481,0.61 C 13.474,-4.854 5.974,-1.84 -0.006,1.448 -0.006,0.965 0.001,0.48 0,0" />
      </g>
      <g
         transform="translate(287.3718,167.6823)"
         id="g15742"
         style="">
        <path
           inkscape:connector-curvature="0"
           id="path15744"
           style="fill:#6b594d;fill-opacity:1;fill-rule:nonzero;stroke:none"
           d="m 0,0 c -0.07,4.009 -0.234,8.013 -0.403,12.018 -0.082,1.963 -0.162,3.928 -0.228,5.893 -0.05,1.485 -0.171,3.002 0.058,4.477 -4.806,0.752 -9.47,1.588 -13.961,2.506 -6.737,1.377 -12.968,2.916 -18.661,4.595 -0.153,-0.149 -0.316,-0.293 -0.456,-0.45 -1.241,-1.385 -0.722,-3.673 -0.653,-5.366 0.075,-1.816 0.107,-3.631 0.129,-5.447 0.023,-1.899 0.037,-3.797 0.071,-5.696 C -34.077,11.002 -33.821,9.304 -34,7.763 -23.037,4.454 -11.651,1.894 0,0" />
      </g>
      <g
         transform="translate(326.5749,163.7233)"
         id="g15746"
         style="">
        <path
           inkscape:connector-curvature="0"
           id="path15748"
           style="fill:#6b594d;fill-opacity:1;fill-rule:nonzero;stroke:none"
           d="m 0,0 c -0.399,2.749 -0.378,5.595 -0.453,8.359 -0.122,4.538 -0.286,9.155 -0.07,13.691 0.002,0.062 0.012,0.126 0.016,0.188 -13.162,0.773 -25.969,2.084 -37.934,3.909 -0.244,-1.678 -0.035,-3.48 0.012,-5.169 0.054,-1.974 0.121,-3.948 0.19,-5.92 0.129,-3.749 0.281,-7.498 0.368,-11.248 0.001,-0.026 -0.01,-0.043 -0.012,-0.067 C -25.48,1.784 -12.788,0.572 0,0" />
      </g>
      <g
         transform="translate(410.5886,168.4049)"
         id="g15750"
         style="">
        <path
           inkscape:connector-curvature="0"
           id="path15752"
           style="fill:#6b594d;fill-opacity:1;fill-rule:nonzero;stroke:none"
           d="m 0,0 c 0.454,6.731 1.437,13.398 3.063,19.948 0.062,0.25 0.132,0.499 0.201,0.749 -7.354,-1.037 -15.024,-1.885 -22.984,-2.528 -5.922,-0.478 -11.94,-0.833 -18.007,-1.072 0.024,-0.294 0.038,-0.588 0.028,-0.883 -0.057,-1.839 -0.185,-3.678 -0.318,-5.514 C -38.376,5.713 -38.775,0.586 -39.976,-4.285 -26.414,-3.479 -13,-2.081 0.04,-0.224 0.021,-0.154 -0.001,-0.085 0,0" />
      </g>
      <g
         transform="translate(369.1501,164.0387)"
         id="g15754"
         style="">
        <path
           inkscape:connector-curvature="0"
           id="path15756"
           style="fill:#6b594d;fill-opacity:1;fill-rule:nonzero;stroke:none"
           d="m 0,0 c -0.002,0.069 -0.009,0.138 0.012,0.215 1.52,5.939 1.913,12.271 2.357,18.37 0.058,0.793 0.135,1.592 0.148,2.387 0.003,0.151 -0.009,0.301 -0.018,0.453 -5.784,-0.213 -11.606,-0.327 -17.431,-0.327 -8.969,0 -17.94,0.25 -26.761,0.74 -0.013,-0.247 -0.026,-0.535 -0.027,-0.483 0.021,-1.59 0.057,-3.189 0.081,-4.782 0.048,-3.201 0.098,-6.402 0.162,-9.603 0.049,-2.418 -0.018,-4.93 0.348,-7.327 10e-4,-0.007 -0.002,-0.012 -0.001,-0.019 C -27.441,-0.937 -13.652,-0.769 0,0" />
      </g>
      <g
         transform="translate(236.7302,159.3297)"
         id="g16038"
         style="">
        <path
           inkscape:connector-curvature="0"
           id="path16040"
           style="fill:#000000;fill-opacity:1;fill-rule:nonzero;stroke:none"
           d="m 0,0 c -0.304,0.136 -0.598,0.291 -0.9,0.428 -0.319,0.143 -0.649,0.261 -0.967,0.405 -0.628,0.282 -1.241,0.598 -1.838,0.941 -0.462,0.267 -0.883,-0.479 -0.413,-0.706 0.639,-0.307 1.294,-0.587 1.961,-0.83 0.317,-0.116 0.636,-0.232 0.962,-0.325 0.346,-0.1 0.717,-0.144 1.075,-0.199 C 0.037,-0.311 0.177,-0.079 0,0" />
      </g>
      <g
         transform="translate(241.9157,220.3659)"
         id="g16042"
         style="">
        <path
           inkscape:connector-curvature="0"
           id="path16044"
           style="fill:#000000;fill-opacity:1;fill-rule:nonzero;stroke:none"
           d="m 0,0 c -6.449,59.454 10.343,119.757 52.854,189.782 1.939,6.497 1.197,12.931 -1.993,17.232 -3.134,4.226 -8.099,6.241 -13.356,8.374 -2.106,0.855 -4.283,1.738 -6.318,2.774 -5.195,2.643 -8.999,7.07 -10.174,11.842 -1.531,6.208 1.692,8.865 5.423,11.941 l 0.845,0.7 c 2.472,2.063 5.069,3.364 7.817,4.743 1.044,0.523 2.099,1.052 3.161,1.633 7.868,4.307 16.307,7.451 24.278,10.302 8.37,2.994 17.1,5.063 25.541,7.064 l 3.104,0.738 c 22.057,5.265 46.649,0.705 68.346,-3.317 l 0.103,-0.019 c 4.981,-0.924 30.279,-6.104 39.108,-17.442 2.844,-3.651 3.867,-7.419 3.043,-11.198 -1.636,-7.504 -10.061,-13.283 -16.841,-16.81 -14.71,-7.652 -19.796,-15.625 -16.495,-25.854 4.534,-14.047 13.108,-26.159 21.399,-37.871 4.672,-6.599 9.502,-13.423 13.593,-20.555 5.468,-9.528 11.499,-20.543 13.847,-30.682 5.066,-21.866 5.65,-43.854 6.213,-65.116 0.258,-9.727 0.525,-19.785 1.21,-29.816 l -1.996,-0.136 c -0.688,10.072 -0.954,20.151 -1.213,29.898 -0.587,22.139 -1.142,43.049 -6.163,64.719 -2.287,9.873 -8.235,20.734 -13.632,30.138 -4.045,7.049 -8.848,13.833 -13.491,20.394 -8.378,11.835 -17.041,24.074 -21.67,38.413 -4.744,14.699 7.701,23.158 17.475,28.243 5.24,2.725 14.261,8.358 15.81,15.461 0.692,3.172 -0.205,6.383 -2.667,9.543 -6.503,8.35 -24.477,14.217 -37.895,16.704 l -0.102,0.019 c -21.502,3.987 -45.872,8.505 -67.518,3.338 l -3.106,-0.738 c -8.39,-1.988 -17.063,-4.044 -25.329,-7.001 -7.896,-2.825 -16.252,-5.937 -23.991,-10.173 -1.084,-0.593 -2.161,-1.133 -3.226,-1.667 -2.641,-1.325 -5.138,-2.577 -7.432,-4.491 l -0.854,-0.707 c -3.603,-2.971 -5.982,-4.933 -4.754,-9.92 1.039,-4.215 4.456,-8.155 9.14,-10.538 1.959,-0.997 4.096,-1.864 6.163,-2.703 5.281,-2.143 10.742,-4.359 14.21,-9.035 3.585,-4.834 4.431,-11.983 2.264,-19.125 l -0.102,-0.228 C 12.313,119.18 -4.414,59.239 1.988,0.215 Z" />
      </g>
      <g
         transform="translate(272.1442,211.1833)"
         id="g16046"
         style="">
        <path
           inkscape:connector-curvature="0"
           id="path16048"
           style="fill:#000000;fill-opacity:1;fill-rule:nonzero;stroke:none"
           d="m 0,0 c -0.263,10.957 -1.227,21.877 -1.169,32.845 0.057,10.852 0.796,22.752 6.106,32.478 2.296,4.207 5.568,7.807 9.838,10.055 5.069,2.668 11.169,3.31 16.802,2.668 17.904,-2.039 35.429,-11.294 47.701,-24.393 1.492,-1.591 3.221,-3.291 4.344,-5.169 1.25,-2.088 2.188,-4.464 3.073,-6.724 1.739,-4.436 3.049,-9.031 4.035,-13.69 2.007,-9.47 2.672,-19.193 2.63,-28.86 -0.009,-2.331 -0.065,-4.661 -0.153,-6.99 -0.049,-1.283 1.945,-1.281 1.992,0 0.364,9.905 0.079,19.852 -1.38,29.668 -0.726,4.888 -1.758,9.739 -3.2,14.468 -0.73,2.396 -1.565,4.759 -2.52,7.074 -0.871,2.112 -1.734,4.469 -3.025,6.362 -2.537,3.722 -6.026,7.047 -9.384,10.017 -3.45,3.05 -7.174,5.801 -11.087,8.229 -7.953,4.935 -16.762,8.616 -25.915,10.607 -6.731,1.462 -13.818,2.1 -20.495,0.011 C 13.355,77.143 9.167,74.195 6.072,70.187 -0.72,61.391 -2.228,49.351 -2.688,38.588 -3.188,26.888 -2.112,15.191 -1.018,3.555 -0.906,2.37 -0.8,1.186 -0.703,0 -0.667,-0.444 0.011,-0.458 0,0" />
      </g>
      <g
         transform="translate(285.9929,209.0104)"
         id="g16050"
         style="">
        <path
           inkscape:connector-curvature="0"
           id="path16052"
           style="fill:#000000;fill-opacity:1;fill-rule:nonzero;stroke:none"
           d="m 0,0 c 0.556,15.306 -0.786,30.664 0.886,45.928 0.212,1.934 0.473,3.863 0.796,5.782 0.295,1.757 0.566,3.398 1.389,4.989 1.37,2.648 3.097,5.077 5.135,7.251 3.94,4.205 8.919,7.497 14.404,9.297 3.042,0.999 6.19,1.513 9.392,1.502 3.296,-0.011 6.214,-0.898 9.366,-1.702 1.14,-0.29 1.875,1.329 0.813,1.928 -2.528,1.423 -5.654,1.918 -8.52,2.102 -2.926,0.189 -5.888,-0.151 -8.727,-0.861 C 19.077,74.754 13.655,71.648 9.251,67.545 7.051,65.495 5.112,63.167 3.46,60.655 2.609,59.362 1.847,58.011 1.187,56.61 0.437,55.023 0.272,53.208 0.003,51.483 -1.24,43.515 -1.541,35.432 -1.521,27.377 -1.497,18.235 -0.985,9.126 -0.547,0 -0.53,-0.352 -0.013,-0.354 0,0" />
      </g>
      <g
         transform="translate(222.2634,185.817)"
         id="g16054"
         style="">
        <path
           inkscape:connector-curvature="0"
           id="path16056"
           style="fill:#000000;fill-opacity:1;fill-rule:nonzero;stroke:none"
           d="m 0,0 c 0.023,-4.828 0.676,-9.814 1.741,-14.517 0.464,-2.045 1.002,-4.344 2.256,-6.073 0.765,-1.055 1.941,-1.812 2.905,-2.674 0.953,-0.85 1.891,-1.728 2.732,-2.691 2.999,-3.434 2.506,-7.719 2.475,-11.992 -0.011,-1.58 0.136,-3.218 -0.193,-4.773 -0.316,-1.493 -0.943,-2.886 -1.68,-4.216 -1.466,-2.65 -3.358,-5.045 -4.759,-7.734 -1.256,-2.41 -2.047,-5.047 -1.549,-7.775 0.619,-3.401 3.42,-5.659 5.442,-8.251 2.341,-3.002 3.646,-6.724 5.704,-9.914 1.844,-2.86 4.21,-5.181 7.177,-6.855 5.807,-3.277 12.616,-4.417 19.117,-5.445 3.74,-0.591 7.728,-0.694 11.352,-1.807 2.098,-0.644 4.121,-1.628 6.168,-2.425 2.043,-0.795 4.093,-1.574 6.138,-2.367 4.024,-1.56 7.934,-3.451 12,-4.888 3.696,-1.307 7.528,-2.16 11.412,-2.667 7.919,-1.038 15.948,-0.566 23.848,0.42 8.131,1.016 16.178,2.576 24.269,3.854 4.055,0.641 8.125,1.208 12.216,1.573 4.046,0.361 8.201,0.68 12.242,0.113 3.854,-0.541 7.568,-1.749 11.309,-2.78 3.983,-1.096 7.999,-1.798 12.113,-2.175 7.108,-0.651 14.194,-0.154 21.024,1.995 7.815,2.459 14.915,6.679 22.595,9.508 4.141,1.527 8.344,2.875 12.539,4.247 2.064,0.676 4.128,1.358 6.181,2.068 1.548,0.536 3.057,1.078 4.402,2.037 4.998,3.565 7.089,9.964 8.437,15.679 1.584,6.713 2.677,14.18 -1.789,20.097 -1.154,1.531 -2.689,2.759 -3.738,4.368 -0.762,1.169 -1.08,2.494 -1.318,3.853 -0.508,2.894 -0.761,6.005 -0.516,8.942 0.284,3.411 2.647,5.646 4.459,8.331 2.016,2.988 2.761,6.607 3.243,10.121 0.515,3.749 0.659,7.549 1.373,11.269 0.235,1.229 -1.646,1.755 -1.884,0.52 -1.363,-7.104 -0.532,-15.283 -4.871,-21.46 -1.733,-2.468 -3.655,-4.652 -4.119,-7.745 -0.423,-2.821 -0.095,-5.846 0.285,-8.653 0.41,-3.034 1.086,-5.564 3.123,-7.928 1.256,-1.456 2.58,-2.792 3.483,-4.511 0.871,-1.662 1.39,-3.528 1.603,-5.389 0.398,-3.485 -0.306,-6.884 -1.074,-10.266 -0.694,-3.057 -1.529,-6.138 -2.856,-8.989 -1.226,-2.635 -2.903,-5.217 -5.4,-6.804 -1.523,-0.968 -3.296,-1.455 -4.992,-2.03 -1.98,-0.672 -3.968,-1.322 -5.955,-1.971 -4.117,-1.347 -8.237,-2.692 -12.291,-4.224 -3.995,-1.51 -7.829,-3.299 -11.679,-5.14 -6.436,-3.077 -13.195,-5.495 -20.355,-6.035 -7.829,-0.591 -15.639,0.581 -23.156,2.717 -3.697,1.05 -7.392,2.106 -11.229,2.499 -3.846,0.393 -7.785,0.066 -11.623,-0.293 -7.934,-0.744 -15.779,-2.193 -23.629,-3.526 -15.481,-2.628 -31.968,-5.134 -47.17,0.231 -3.912,1.38 -7.679,3.195 -11.548,4.696 -4.037,1.567 -8.05,3.279 -12.123,4.74 -3.573,1.281 -7.594,1.321 -11.322,1.902 -3.253,0.507 -6.506,1.037 -9.709,1.808 -3.218,0.773 -6.426,1.768 -9.344,3.353 -3.169,1.721 -5.535,4.157 -7.391,7.238 -1.861,3.088 -3.194,6.552 -5.454,9.385 -2.096,2.629 -5.043,4.964 -5.099,8.602 -0.045,2.854 1.465,5.443 2.94,7.781 1.564,2.478 3.308,4.867 4.41,7.601 1.154,2.861 0.933,5.789 0.956,8.812 0.018,2.158 0.106,4.358 -0.267,6.494 -0.312,1.779 -1.106,3.353 -2.226,4.758 -1.667,2.091 -3.923,3.505 -5.725,5.433 -1.384,1.481 -1.845,3.963 -2.281,5.867 C 2.743,-11.398 2.347,-8.675 2.054,-5.95 1.841,-3.977 1.654,-1.986 1.641,0 1.633,1.056 -0.006,1.058 0,0" />
      </g>
      <g
         transform="translate(220.238,186.8151)"
         id="g16058"
         style="">
        <path
           inkscape:connector-curvature="0"
           id="path16060"
           style="fill:#000000;fill-opacity:1;fill-rule:nonzero;stroke:none"
           d="m 0,0 c -1.643,5.235 -2.161,11.656 -2.661,17.866 -0.39,4.827 -0.792,9.819 -1.723,14.08 l -0.174,0.794 0.742,0.332 c 8.468,3.799 17.133,5.646 26.488,5.646 v -2 c -8.796,0 -16.962,-1.684 -24.935,-5.146 0.842,-4.201 1.224,-8.946 1.595,-13.545 0.492,-6.099 1,-12.407 2.576,-17.427 z" />
      </g>
      <g
         transform="translate(353.9948,202.1422)"
         id="g16062"
         style="">
        <path
           inkscape:connector-curvature="0"
           id="path16064"
           style="fill:#000000;fill-opacity:1;fill-rule:nonzero;stroke:none"
           d="m 0,0 c -0.461,0 -0.909,0.001 -1.351,0.002 -47.782,0.157 -94.456,7.734 -110.98,18.019 l 1.057,1.697 C -95.029,9.608 -48.797,2.158 -1.344,2.002 -0.814,2.001 -0.277,2 0.249,2 c 54.773,0 95.227,9.32 111.14,25.638 l 1.431,-1.397 C 89.856,2.695 27.318,0 0,0" />
      </g>
      <g
         transform="translate(464.9099,229.402)"
         id="g16066"
         style="">
        <path
           inkscape:connector-curvature="0"
           id="path16068"
           style="fill:#000000;fill-opacity:1;fill-rule:nonzero;stroke:none"
           d="m 0,0 c 2.461,-1.046 5.269,-1.594 7.868,-2.196 2.815,-0.653 5.63,-1.307 8.397,-2.14 2.306,-0.694 4.726,-1.446 6.84,-2.624 1.295,-0.721 1.546,-1.757 1.768,-3.161 0.458,-2.9 0.644,-5.85 0.446,-8.781 -0.128,-1.905 -0.298,-3.797 -0.372,-5.705 -0.149,-3.818 -0.212,-7.681 -0.983,-11.436 -0.818,-3.983 -2.583,-8.001 -6.641,-9.53 -0.955,-0.36 -0.543,-1.906 0.426,-1.544 8.081,3.024 8.47,13.172 8.772,20.466 0.213,5.108 0.884,10.203 0.164,15.296 -0.221,1.559 -0.319,3.49 -1.431,4.727 -1.183,1.316 -3.284,1.908 -4.883,2.493 -3.31,1.212 -6.749,2.038 -10.186,2.8 C 6.903,-0.609 3.516,0.264 0.178,0.655 -0.16,0.695 -0.314,0.134 0,0" />
      </g>
      <g
         transform="translate(344.4333,162.3346)"
         id="g16070"
         style="">
        <path
           inkscape:connector-curvature="0"
           id="path16072"
           style="fill:#000000;fill-opacity:1;fill-rule:nonzero;stroke:none"
           d="m 0,0 c -43.759,0 -87.466,6.861 -123.464,24.723 l 0.445,0.896 c 76.612,-38.016 188.362,-26.01 260.78,-4.176 l 0.289,-0.957 C 99.449,8.849 49.691,0 0,0" />
      </g>
      <g
         transform="translate(249.8522,217.4186)"
         id="g16074"
         style="">
        <path
           inkscape:connector-curvature="0"
           id="path16076"
           style="fill:#000000;fill-opacity:1;fill-rule:nonzero;stroke:none"
           d="m 0,0 c -4.134,-1.631 -8.268,-3.262 -12.4,-4.893 -2.039,-0.804 -4.117,-1.547 -6.122,-2.43 -1.474,-0.648 -1.834,-1.598 -1.849,-3.164 -0.037,-3.98 -0.002,-7.964 0.095,-11.943 0.048,-2.029 0.104,-4.059 0.162,-6.089 0.053,-1.879 -0.068,-3.846 0.361,-5.682 0.064,-0.273 0.51,-0.286 0.565,0 0.331,1.712 0.167,3.501 0.155,5.239 -0.013,1.799 -0.024,3.598 -0.03,5.397 -0.014,3.724 -0.053,7.45 -0.041,11.175 0.003,0.819 -0.039,1.651 0.02,2.467 0.091,1.258 1.155,1.457 2.124,1.868 1.969,0.837 3.933,1.683 5.899,2.524 3.783,1.618 7.565,3.235 11.347,4.852 C 0.668,-0.515 0.392,0.154 0,0" />
      </g>
      <g
         transform="translate(270.2038,211.4128)"
         id="g16078"
         style="">
        <path
           inkscape:connector-curvature="0"
           id="path16080"
           style="fill:#000000;fill-opacity:1;fill-rule:nonzero;stroke:none"
           d="m 0,0 c -3.211,-2.103 -6.098,-4.867 -9.067,-7.298 -1.585,-1.298 -3.169,-2.595 -4.754,-3.891 -1.223,-1.001 -2.919,-1.993 -3.8,-3.33 -0.789,-1.199 -0.665,-2.688 -0.608,-4.053 0.083,-1.98 0.129,-3.961 0.174,-5.943 0.044,-1.981 0.075,-3.962 0.122,-5.942 0.045,-1.909 -0.197,-4.199 0.347,-6.037 0.093,-0.313 0.609,-0.356 0.678,0 0.321,1.673 0.002,3.59 -0.029,5.294 -0.033,1.898 -0.047,3.797 -0.07,5.695 -0.022,1.817 -0.054,3.632 -0.129,5.447 -0.069,1.694 -0.588,3.982 0.653,5.367 1.111,1.239 2.625,2.234 3.903,3.297 l 4.342,3.613 c 2.859,2.378 6.027,4.623 8.617,7.291 C 0.619,-0.243 0.306,0.2 0,0" />
      </g>
      <g
         transform="translate(354.2184,185.1364)"
         id="g16082"
         style="">
        <path
           inkscape:connector-curvature="0"
           id="path16084"
           style="fill:#000000;fill-opacity:1;fill-rule:nonzero;stroke:none"
           d="m 0,0 c -28.76,0 -57.521,2.563 -81.381,7.439 -29.9,6.112 -49.943,15.395 -56.434,26.141 l 0.855,0.518 c 6.346,-10.505 26.155,-19.624 55.779,-25.679 34.016,-6.952 78.037,-9.19 117.75,-5.985 44.49,3.589 80.027,13.514 100.067,27.946 l 0.584,-0.811 C 117.035,15.031 81.318,5.041 36.65,1.437 24.694,0.473 12.346,0 0,0" />
      </g>
      <g
         transform="translate(297.7204,207.0153)"
         id="g16086"
         style="">
        <path
           inkscape:connector-curvature="0"
           id="path16088"
           style="fill:#000000;fill-opacity:1;fill-rule:nonzero;stroke:none"
           d="m 0,0 c -1.333,-0.913 -2.285,-2.75 -3.136,-4.09 -0.916,-1.444 -1.83,-2.846 -2.883,-4.197 -1.889,-2.426 -4.049,-4.92 -4.794,-7.982 -0.408,-1.681 -0.224,-3.441 -0.166,-5.153 0.064,-1.965 0.145,-3.93 0.227,-5.893 0.171,-4.055 0.338,-8.109 0.407,-12.167 0.015,-0.854 1.348,-0.856 1.328,0 -0.087,3.75 -0.239,7.499 -0.368,11.248 -0.068,1.972 -0.136,3.946 -0.189,5.92 -0.048,1.718 -0.269,3.555 -0.005,5.259 0.485,3.14 2.735,5.759 4.563,8.233 0.925,1.25 1.752,2.532 2.54,3.87 0.429,0.727 0.876,1.443 1.346,2.145 0.513,0.768 1.216,1.51 1.584,2.353 C 0.572,-0.184 0.306,0.21 0,0" />
      </g>
      <g
         transform="translate(330.4538,203.5797)"
         id="g16090"
         style="">
        <path
           inkscape:connector-curvature="0"
           id="path16092"
           style="fill:#000000;fill-opacity:1;fill-rule:nonzero;stroke:none"
           d="m 0,0 c -1.611,-2.666 -2.271,-6.029 -2.959,-9.026 -0.654,-2.85 -1.304,-5.849 -1.443,-8.781 -0.216,-4.536 -0.052,-9.152 0.07,-13.69 0.079,-2.906 0.037,-5.907 0.505,-8.785 0.15,-0.919 1.532,-0.525 1.394,0.384 -0.366,2.397 -0.298,4.909 -0.347,7.327 -0.065,3.201 -0.115,6.402 -0.162,9.603 -0.025,1.593 -0.061,3.192 -0.081,4.782 0.001,-0.077 0.028,0.586 0.042,0.768 0.038,0.536 0.099,1.07 0.164,1.605 0.196,1.625 0.468,3.237 0.735,4.852 0.574,3.468 1.005,7.462 2.689,10.607 C 0.82,0.044 0.234,0.389 0,0" />
      </g>
      <g
         transform="translate(365.3552,202.736)"
         id="g16094"
         style="">
        <path
           inkscape:connector-curvature="0"
           id="path16096"
           style="fill:#000000;fill-opacity:1;fill-rule:nonzero;stroke:none"
           d="m 0,0 c 2.125,-3.992 3.573,-8.344 5.002,-12.622 0.543,-1.627 1.338,-3.364 1.31,-5.104 -0.013,-0.795 -0.09,-1.593 -0.148,-2.386 -0.444,-6.099 -0.837,-12.431 -2.357,-18.37 -0.232,-0.903 1.165,-1.288 1.393,-0.385 1.249,4.946 1.651,10.163 2.017,15.236 0.133,1.836 0.261,3.675 0.317,5.514 0.081,2.584 -1.199,5.157 -2.065,7.544 C 4.11,-6.823 2.637,-3.091 0.607,0.354 0.377,0.746 -0.213,0.399 0,0" />
      </g>
      <g
         transform="translate(403.7263,205.6247)"
         id="g16098"
         style="">
        <path
           inkscape:connector-curvature="0"
           id="path16100"
           style="fill:#000000;fill-opacity:1;fill-rule:nonzero;stroke:none"
           d="m 0,0 c 1.745,-2.762 4.029,-5.263 6.05,-7.83 1.112,-1.413 2.225,-2.826 3.336,-4.24 0.665,-0.846 1.411,-1.578 1.173,-2.742 -0.169,-0.826 -0.431,-1.641 -0.634,-2.459 -1.626,-6.55 -2.609,-13.217 -3.063,-19.948 0.474,0.064 0.947,0.128 1.42,0.192 -0.116,0.394 -0.283,0.704 -0.483,1.062 -0.17,0.305 -0.665,0.244 -0.75,-0.098 -0.099,-0.4 -0.178,-0.744 -0.187,-1.156 -0.018,-0.938 1.384,-0.921 1.446,0 0.495,7.346 1.746,14.545 3.339,21.724 0.272,1.225 0.204,2.117 -0.577,3.138 C 9.996,-10.953 8.815,-9.62 7.689,-8.258 5.328,-5.4 3.103,-2.244 0.46,0.354 0.228,0.583 -0.182,0.287 0,0" />
      </g>
      <g
         transform="translate(434.446,211.026)"
         id="g16102"
         style="">
        <path
           inkscape:connector-curvature="0"
           id="path16104"
           style="fill:#000000;fill-opacity:1;fill-rule:nonzero;stroke:none"
           d="m 0,0 c 4.72,-5.15 9.992,-9.979 15.869,-13.79 0.502,-0.325 1.15,-0.62 1.285,-1.301 0.068,-0.342 -0.06,-0.931 -0.089,-1.276 -0.072,-0.872 -0.154,-1.743 -0.245,-2.614 -0.201,-1.944 -0.453,-3.881 -0.712,-5.818 -0.502,-3.762 -1.148,-7.505 -1.944,-11.216 -0.226,-1.053 1.39,-1.504 1.62,-0.446 0.856,3.932 1.536,7.898 2.07,11.885 0.258,1.931 0.448,3.873 0.607,5.815 0.116,1.419 0.725,3.764 -0.17,5.01 -0.479,0.669 -1.334,1.033 -2.01,1.46 -0.696,0.44 -1.382,0.898 -2.057,1.368 -1.734,1.206 -3.407,2.496 -5.036,3.837 C 6.224,-4.648 3.366,-2.058 0.58,0.58 0.195,0.944 -0.356,0.39 0,0" />
      </g>
      <g
         transform="translate(459.1179,222.7731)"
         id="g16106"
         style="">
        <path
           inkscape:connector-curvature="0"
           id="path16108"
           style="fill:#000000;fill-opacity:1;fill-rule:nonzero;stroke:none"
           d="m 0,0 c 4.005,-3.566 8.773,-6.28 13.378,-8.982 2.104,-1.235 4.224,-2.444 6.358,-3.623 0.798,-0.441 1.961,-1.391 2.894,-1.527 0.606,-0.088 0.997,0.423 0.756,0.985 -0.453,1.053 -1.441,-0.075 -1.622,-0.639 -0.435,-1.352 -0.537,-2.852 -0.711,-4.252 -0.61,-4.906 -1.015,-9.838 -1.519,-14.756 -0.245,-2.389 -0.694,-4.806 -0.803,-7.2 -0.03,-0.667 0.98,-0.787 1.151,-0.156 0.589,2.168 0.664,4.563 0.902,6.791 0.311,2.897 0.593,5.797 0.89,8.696 0.258,2.509 0.508,5.021 0.854,7.519 0.113,0.806 0.228,1.616 0.397,2.412 0.038,0.18 0.201,0.528 0.179,0.712 -0.016,0.132 0.08,0.108 0.058,0.139 0.008,-0.012 -0.759,-0.332 -0.933,0.058 0.193,0.336 0.385,0.671 0.579,1.007 0.352,-0.046 0.246,-0.091 0.029,0.051 -0.186,0.121 -0.408,0.206 -0.606,0.308 -0.675,0.348 -1.346,0.704 -2.017,1.061 -2.137,1.142 -4.259,2.312 -6.366,3.508 C 9.317,-5.316 4.613,-2.716 0.498,0.497 0.15,0.768 -0.346,0.308 0,0" />
      </g>
      <g
         transform="translate(242.5807,156.8581)"
         id="g16110"
         style="">
        <path
           inkscape:connector-curvature="0"
           id="path16112"
           style="fill:#000000;fill-opacity:1;fill-rule:nonzero;stroke:none"
           d="m 0,0 c 5.412,-4.056 11.64,-6.865 18.268,-8.217 3.402,-0.694 6.884,-1.068 10.353,-1.205 3.657,-0.145 7.443,-0.256 11.077,0.209 0.394,0.051 0.409,0.591 0,0.625 -3.438,0.288 -6.92,0.026 -10.371,0.12 C 25.684,-8.37 22.05,-8.174 18.454,-7.541 11.828,-6.374 5.568,-3.753 0.079,0.135 -0.004,0.193 -0.079,0.059 0,0" />
      </g>
      <g
         transform="translate(288.989,145.4049)"
         id="g16114"
         style="">
        <path
           inkscape:connector-curvature="0"
           id="path16116"
           style="fill:#000000;fill-opacity:1;fill-rule:nonzero;stroke:none"
           d="m 0,0 c 16.594,-5.389 34.322,-8.821 51.764,-6.124 2.473,0.383 4.927,0.892 7.346,1.536 2.283,0.609 4.672,1.243 6.801,2.281 0.241,0.118 0.071,0.5 -0.181,0.428 C 63.666,-2.47 61.669,-3.273 59.595,-3.849 57.537,-4.419 55.452,-4.891 53.35,-5.268 49.091,-6.032 44.769,-6.405 40.444,-6.462 31.699,-6.575 22.981,-5.386 14.447,-3.541 9.601,-2.492 4.812,-1.197 0.073,0.264 -0.096,0.315 -0.167,0.054 0,0" />
      </g>
      <g
         transform="translate(246.3327,127.7106)"
         id="g16118"
         style="">
        <path
           inkscape:connector-curvature="0"
           id="path16120"
           style="fill:#000000;fill-opacity:1;fill-rule:nonzero;stroke:none"
           d="m 0,0 c 8.15,-4.812 17.547,-7.797 26.627,-10.279 4.536,-1.241 9.133,-2.321 13.782,-3.042 5.718,-0.888 11.55,-1.053 17.327,-1.019 3.789,0.023 7.576,0.166 11.358,0.378 3.786,0.212 7.67,0.296 11.422,0.862 0.33,0.05 0.245,0.579 -0.078,0.576 -3.446,-0.029 -6.916,-0.481 -10.357,-0.689 -3.289,-0.198 -6.581,-0.349 -9.876,-0.415 -6.068,-0.123 -12.218,-0.056 -18.245,0.725 -9.532,1.233 -18.995,3.915 -28.025,7.15 C 9.228,-4.066 4.526,-2.186 0.197,0.338 -0.021,0.465 -0.217,0.128 0,0" />
      </g>
      <g
         transform="translate(269.9509,142.9997)"
         id="g16122"
         style="">
        <path
           inkscape:connector-curvature="0"
           id="path16124"
           style="fill:#000000;fill-opacity:1;fill-rule:nonzero;stroke:none"
           d="m 0,0 c -1.225,-5.511 -1.531,-11.193 -0.578,-16.768 0.021,-0.128 0.245,-0.1 0.229,0.032 -0.665,5.563 -0.623,11.198 0.462,16.705 C 0.128,0.042 0.017,0.074 0,0" />
      </g>
      <g
         transform="translate(235.8747,173.6754)"
         id="g16126"
         style="">
        <path
           inkscape:connector-curvature="0"
           id="path16128"
           style="fill:#000000;fill-opacity:1;fill-rule:nonzero;stroke:none"
           d="m 0,0 c -0.801,-5.477 0.384,-11.15 3.568,-15.7 0.128,-0.184 0.428,-0.016 0.304,0.177 -2.936,4.588 -4.337,10.072 -3.68,15.497 C 0.205,0.082 0.016,0.108 0,0" />
      </g>
      <g
         transform="translate(363.7233,142.4987)"
         id="g16130"
         style="">
        <path
           inkscape:connector-curvature="0"
           id="path16132"
           style="fill:#000000;fill-opacity:1;fill-rule:nonzero;stroke:none"
           d="m 0,0 c 4.221,-1.427 8.819,-2.043 13.235,-2.533 4.518,-0.502 9.073,-0.637 13.613,-0.464 9.047,0.346 18.054,1.945 26.657,4.768 4.8,1.575 9.66,3.429 14.013,6.014 0.485,0.288 0.06,0.965 -0.435,0.742 C 62.973,6.675 58.927,4.743 54.668,3.24 50.52,1.777 46.27,0.602 41.96,-0.281 33.217,-2.072 24.289,-2.588 15.391,-1.988 10.197,-1.638 5.185,-0.586 0.062,0.227 -0.084,0.249 -0.146,0.05 0,0" />
      </g>
      <g
         transform="translate(337.0544,113.5573)"
         id="g16134"
         style="">
        <path
           inkscape:connector-curvature="0"
           id="path16136"
           style="fill:#000000;fill-opacity:1;fill-rule:nonzero;stroke:none"
           d="m 0,0 c 19.439,-7.171 41.281,-7.066 60.841,-0.348 2.61,0.897 5.18,1.913 7.7,3.04 2.616,1.171 5.318,2.349 7.58,4.124 C 76.379,7.019 76.1,7.488 75.798,7.372 73.554,6.507 71.482,5.289 69.306,4.265 66.894,3.13 64.431,2.106 61.927,1.193 57.218,-0.523 52.373,-1.839 47.452,-2.787 37.353,-4.732 26.919,-5.02 16.732,-3.578 11.079,-2.778 5.492,-1.546 0.062,0.226 -0.083,0.273 -0.14,0.051 0,0" />
      </g>
      <g
         transform="translate(440.3405,151.9782)"
         id="g16138"
         style="">
        <path
           inkscape:connector-curvature="0"
           id="path16140"
           style="fill:#000000;fill-opacity:1;fill-rule:nonzero;stroke:none"
           d="m 0,0 c 4.68,-0.639 9.355,-0.579 14.034,0.065 4.681,0.646 9.69,1.726 13.945,3.844 0.314,0.156 0.095,0.684 -0.242,0.57 C 23.278,2.98 19.005,1.448 14.325,0.717 9.611,-0.02 4.782,-0.128 0.026,0.191 -0.082,0.198 -0.109,0.015 0,0" />
      </g>
      <g
         transform="translate(428.3415,122.0807)"
         id="g16142"
         style="">
        <path
           inkscape:connector-curvature="0"
           id="path16144"
           style="fill:#000000;fill-opacity:1;fill-rule:nonzero;stroke:none"
           d="m 0,0 c 7.5,-2.26 15.468,-0.835 22.659,1.854 3.729,1.395 7.306,3.135 10.871,4.896 1.803,0.891 3.605,1.785 5.424,2.642 1.947,0.918 3.982,1.692 5.873,2.721 0.355,0.194 0.111,0.741 -0.271,0.643 C 40.9,11.821 37.422,9.802 34.059,8.141 30.425,6.348 26.794,4.516 23.038,2.99 15.824,0.061 7.797,-1.67 0.135,0.489 -0.181,0.578 -0.312,0.094 0,0" />
      </g>
      <g
         transform="translate(361.3806,154.3542)"
         id="g16146"
         style="">
        <path
           inkscape:connector-curvature="0"
           id="path16148"
           style="fill:#000000;fill-opacity:1;fill-rule:nonzero;stroke:none"
           d="M 0,0 C 0.216,-2.77 0.039,-5.562 -0.357,-8.31 -0.399,-8.6 0.034,-8.735 0.094,-8.434 0.649,-5.647 0.678,-2.819 0.352,0 0.326,0.22 -0.018,0.229 0,0" />
      </g>
      <g
         transform="translate(336.4323,129.8336)"
         id="g16150"
         style="">
        <path
           inkscape:connector-curvature="0"
           id="path16152"
           style="fill:#000000;fill-opacity:1;fill-rule:nonzero;stroke:none"
           d="m 0,0 c -0.118,-2.398 -0.376,-4.787 -0.793,-7.152 -0.406,-2.305 -1.096,-4.531 -1.572,-6.815 -0.068,-0.325 0.372,-0.437 0.489,-0.136 0.865,2.232 1.272,4.718 1.641,7.075 C 0.129,-4.7 0.348,-2.354 0.43,0 0.439,0.277 0.014,0.275 0,0" />
      </g>
      <g
         transform="translate(422.7263,138.1754)"
         id="g16154"
         style="">
        <path
           inkscape:connector-curvature="0"
           id="path16156"
           style="fill:#000000;fill-opacity:1;fill-rule:nonzero;stroke:none"
           d="m 0,0 c 0.465,-3.056 0.631,-6.174 0.498,-9.262 -0.067,-1.581 -0.218,-3.159 -0.458,-4.723 -0.214,-1.39 -0.624,-2.785 -0.66,-4.195 -0.007,-0.242 0.361,-0.357 0.473,-0.128 0.664,1.368 0.834,2.954 1.037,4.445 0.209,1.526 0.34,3.062 0.39,4.601 C 1.382,-6.101 1.097,-2.968 0.489,0.135 0.426,0.459 -0.049,0.316 0,0" />
      </g>
      <g
         transform="translate(438.8972,166.236)"
         id="g16158"
         style="">
        <path
           inkscape:connector-curvature="0"
           id="path16160"
           style="fill:#000000;fill-opacity:1;fill-rule:nonzero;stroke:none"
           d="M 0,0 C 0.318,-1.184 0.521,-2.393 0.593,-3.617 0.661,-4.823 0.557,-6.019 0.515,-7.223 0.507,-7.464 0.878,-7.515 0.937,-7.279 1.242,-6.066 1.251,-4.793 1.175,-3.549 1.098,-2.297 0.891,-1.055 0.565,0.156 0.467,0.52 -0.099,0.365 0,0" />
      </g>
      <g
         transform="translate(238.2702,132.1022)"
         id="g16162"
         style="">
        <path
           inkscape:connector-curvature="0"
           id="path16164"
           style="fill:#000000;fill-opacity:1;fill-rule:nonzero;stroke:none"
           d="m 0,0 c -1.404,-0.131 -2.79,-0.383 -4.207,-0.418 -0.714,-0.018 -1.429,0.012 -2.139,0.087 -0.666,0.072 -1.393,0.344 -2.047,0.16 -0.21,-0.058 -0.325,-0.367 -0.137,-0.521 0.323,-0.268 0.586,-0.333 1,-0.393 0.343,-0.049 0.687,-0.091 1.032,-0.12 0.762,-0.065 1.528,-0.075 2.291,-0.032 1.456,0.081 2.973,0.341 4.257,1.055 C 0.13,-0.137 0.1,0.009 0,0" />
      </g>
      <g
         transform="translate(242.8659,147.4586)"
         id="g16166"
         style="">
        <path
           inkscape:connector-curvature="0"
           id="path16168"
           style="fill:#000000;fill-opacity:1;fill-rule:nonzero;stroke:none"
           d="m 0,0 c -0.677,-2.423 -1.086,-4.939 -1.131,-7.458 -0.022,-1.295 0.069,-2.598 0.232,-3.883 0.149,-1.193 0.296,-2.472 0.729,-3.598 0.066,-0.169 0.368,-0.167 0.346,0.046 -0.128,1.192 -0.435,2.359 -0.572,3.552 -0.142,1.245 -0.193,2.492 -0.192,3.744 0.001,2.54 0.28,5.046 0.889,7.514 C 0.35,0.112 0.054,0.194 0,0" />
      </g>
      <g
         transform="translate(375.7731,105.9186)"
         id="g16170"
         style="">
        <path
           inkscape:connector-curvature="0"
           id="path16172"
           style="fill:#000000;fill-opacity:1;fill-rule:nonzero;stroke:none"
           d="m 0,0 c 0.722,-2.707 1.153,-5.479 1.259,-8.28 0.05,-1.331 0.028,-2.665 -0.064,-3.994 -0.093,-1.359 -0.474,-2.767 -0.442,-4.12 0.008,-0.297 0.4,-0.329 0.499,-0.067 0.454,1.21 0.447,2.754 0.518,4.033 0.079,1.433 0.074,2.869 -0.012,4.301 C 1.59,-5.342 1.107,-2.588 0.339,0.093 0.277,0.311 -0.059,0.219 0,0" />
      </g>
      <g
         transform="translate(449.4108,116.1813)"
         id="g16174"
         style="">
        <path
           inkscape:connector-curvature="0"
           id="path16176"
           style="fill:#000000;fill-opacity:1;fill-rule:nonzero;stroke:none"
           d="m 0,0 c 0.79,-1.59 1.7,-3.023 2.213,-4.75 0.502,-1.691 0.749,-3.45 0.805,-5.212 0.063,-1.992 -0.103,-3.993 -0.377,-5.966 -0.245,-1.757 -0.788,-3.56 -0.796,-5.335 -10e-4,-0.277 0.371,-0.299 0.46,-0.061 0.709,1.885 0.856,4.123 1.083,6.12 0.224,1.976 0.324,3.97 0.164,5.955 C 3.303,-6.15 2.484,-2.124 0.123,0.094 0.057,0.156 -0.039,0.078 0,0" />
      </g>
      <g
         transform="translate(306.4431,104.9391)"
         id="g16178"
         style="">
        <path
           inkscape:connector-curvature="0"
           id="path16180"
           style="fill:#000000;fill-opacity:1;fill-rule:nonzero;stroke:none"
           d="m 0,0 c -1.691,-2.938 -1.187,-6.743 -1.207,-10.002 -0.014,-1.973 -0.035,-3.945 -0.019,-5.919 0.018,-2.032 -0.103,-4.122 0.163,-6.138 0.022,-0.175 0.25,-0.175 0.273,0 0.248,1.874 0.144,3.81 0.161,5.7 0.018,1.9 0.006,3.799 -0.006,5.7 -0.019,3.433 -0.508,7.328 0.814,10.584 C 0.221,0.029 0.054,0.094 0,0" />
      </g>
      <g
         transform="translate(252.2839,118.2009)"
         id="g16182"
         style="">
        <path
           inkscape:connector-curvature="0"
           id="path16184"
           style="fill:#000000;fill-opacity:1;fill-rule:nonzero;stroke:none"
           d="m 0,0 c -1.181,-3.747 -1.596,-7.69 -1.599,-11.612 -0.002,-1.929 0.102,-3.863 0.357,-5.775 0.236,-1.772 0.411,-3.872 1.154,-5.51 0.105,-0.232 0.485,-0.115 0.473,0.127 -0.093,1.802 -0.685,3.629 -0.903,5.432 -0.23,1.901 -0.381,3.81 -0.406,5.726 -0.051,3.888 0.47,7.733 1.112,11.56 C 0.209,0.07 0.039,0.122 0,0" />
      </g>
      <g
         transform="translate(288.485,162.2594)"
         id="g16186"
         style="">
        <path
           inkscape:connector-curvature="0"
           id="path16188"
           style="fill:#000000;fill-opacity:1;fill-rule:nonzero;stroke:none"
           d="m 0,0 c -0.402,-0.376 -0.591,-0.955 -0.803,-1.454 -0.222,-0.523 -0.424,-1.055 -0.6,-1.596 -0.384,-1.173 -0.656,-2.376 -0.791,-3.602 -0.136,-1.228 -0.158,-2.467 -0.061,-3.698 0.088,-1.114 0.157,-2.463 0.656,-3.474 0.147,-0.298 0.629,-0.153 0.619,0.167 -0.019,0.569 -0.196,1.128 -0.288,1.689 -0.094,0.574 -0.159,1.153 -0.198,1.734 -0.078,1.154 -0.054,2.316 0.074,3.466 0.131,1.191 0.346,2.377 0.671,3.531 0.147,0.518 0.315,1.031 0.504,1.536 0.194,0.514 0.493,1.013 0.55,1.563 C 0.352,0.04 0.113,0.105 0,0" />
      </g>
    </g>
  </g>
</svg>
