<?xml version="1.0" encoding="UTF-8" standalone="no"?>
<!-- Created with Inkscape (http://www.inkscape.org/) -->

<svg
   xmlns:dc="http://purl.org/dc/elements/1.1/"
   xmlns:cc="http://creativecommons.org/ns#"
   xmlns:rdf="http://www.w3.org/1999/02/22-rdf-syntax-ns#"
   xmlns:svg="http://www.w3.org/2000/svg"
   xmlns="http://www.w3.org/2000/svg"
   xmlns:sodipodi="http://sodipodi.sourceforge.net/DTD/sodipodi-0.dtd"
   xmlns:inkscape="http://www.inkscape.org/namespaces/inkscape"
   width="239"
   height="300"
   viewBox="0 0 63.235419 79.375002"
   version="1.1"
   id="svg17343"
   inkscape:version="0.92.1 r15371"
   sodipodi:docname="furnace_night.svg">
  <defs
     id="defs17337" />
  <sodipodi:namedview
     id="base"
     pagecolor="#ffffff"
     bordercolor="#666666"
     borderopacity="1.0"
     inkscape:pageopacity="0.0"
     inkscape:pageshadow="2"
     inkscape:zoom="1.4"
     inkscape:cx="268.35528"
     inkscape:cy="122.42512"
     inkscape:document-units="mm"
     inkscape:current-layer="layer1"
     showgrid="false"
     inkscape:window-width="1920"
     inkscape:window-height="1017"
     inkscape:window-x="1912"
     inkscape:window-y="-8"
     inkscape:window-maximized="1"
     units="px" />
  <metadata
     id="metadata17340">
    <rdf:RDF>
      <cc:Work
         rdf:about="">
        <dc:format>image/svg+xml</dc:format>
        <dc:type
           rdf:resource="http://purl.org/dc/dcmitype/StillImage" />
        <dc:title></dc:title>
      </cc:Work>
    </rdf:RDF>
  </metadata>
  <g
     inkscape:label="Layer 1"
     inkscape:groupmode="layer"
     id="layer1"
     transform="translate(0,-217.62498)">
    <g
       id="g15758"
       transform="matrix(0.22508348,0,0,-0.1851088,25.705551,258.05935)">
      <path
         d="m 0,0 c -3.152,0.804 -6.07,1.691 -9.366,1.702 -3.202,0.011 -6.35,-0.503 -9.392,-1.502 -5.485,-1.8 -10.465,-5.092 -14.405,-9.297 -2.037,-2.174 -3.764,-4.603 -5.134,-7.251 -0.823,-1.59 -1.095,-3.232 -1.39,-4.989 -0.322,-1.919 -0.584,-3.848 -0.795,-5.782 -1.664,-15.178 -0.347,-30.45 -0.878,-45.671 19.516,-3.145 42.93,-5.045 66.65,-5.123 0.529,-0.001 1.066,-0.002 1.593,-0.002 3.783,0 7.49,0.049 11.134,0.137 0.069,2.038 0.118,4.076 0.127,6.114 0.042,9.667 -0.623,19.39 -2.63,28.86 -0.988,4.658 -2.298,9.254 -4.035,13.69 -0.886,2.26 -1.824,4.635 -3.074,6.723 -1.123,1.879 -2.852,3.579 -4.343,5.17 C 17.475,-10.19 9.368,-4.284 0.509,0.011 0.352,-0.03 0.185,-0.047 0,0"
         style="fill:#49281a;fill-opacity:1;fill-rule:nonzero;stroke:none"
         id="path15760"
         inkscape:connector-curvature="0" />
    </g>
    <g
       id="g15762"
       transform="matrix(0.22508348,0,0,-0.1851088,51.876591,272.51953)">
      <path
         d="m 0,0 c 1.63,-1.341 3.303,-2.631 5.036,-3.837 0.676,-0.47 1.361,-0.928 2.057,-1.368 0.37,-0.233 0.788,-0.452 1.174,-0.708 10.916,3.158 20.522,6.888 28.578,11.131 -0.587,0.338 -1.165,0.757 -1.624,1.01 -2.136,1.179 -4.255,2.388 -6.359,3.623 -4.445,2.608 -9.036,5.235 -12.952,8.622 C 9.152,13.936 0.689,10.4 -8.588,7.648 -5.808,5.017 -2.957,2.432 0,0"
         style="fill:#9e8c7d;fill-opacity:1;fill-rule:nonzero;stroke:none"
         id="path15764"
         inkscape:connector-curvature="0" />
    </g>
    <g
       id="g15766"
       transform="matrix(0.22508348,0,0,-0.1851088,4.4422005,271.51554)">
      <path
         d="m 0,0 c -0.943,-0.4 -1.971,-0.607 -2.107,-1.78 6.094,-3.408 13.856,-6.533 23.096,-9.286 0.813,0.693 1.746,1.308 2.501,1.925 1.584,1.297 3.169,2.594 4.754,3.892 2.576,2.108 5.091,4.468 7.809,6.429 C 28.405,2.93 21.755,4.897 16.442,7.033 12.928,5.529 9.414,4.026 5.899,2.523 3.933,1.683 1.968,0.837 0,0"
         style="fill:#9e8c7d;fill-opacity:1;fill-rule:nonzero;stroke:none"
         id="path15768"
         inkscape:connector-curvature="0" />
    </g>
    <g
       id="g15770"
       transform="matrix(0.22508348,0,0,-0.1851088,35.488331,274.69961)">
      <path
         d="m 0,0 c 0.655,-1.808 1.546,-3.721 1.906,-5.665 6.083,0.238 12.119,0.593 18.058,1.072 8.088,0.653 15.876,1.518 23.333,2.577 0.056,0.222 0.118,0.444 0.164,0.666 0.238,1.163 -0.508,1.896 -1.173,2.742 -1.11,1.415 -2.224,2.827 -3.336,4.24 -1.924,2.444 -4.073,4.835 -5.782,7.44 C 19.675,11.268 6.411,10.473 -4.446,10.16 -2.638,6.928 -1.26,3.477 0,0"
         style="fill:#9e8c7d;fill-opacity:1;fill-rule:nonzero;stroke:none"
         id="path15772"
         inkscape:connector-curvature="0" />
    </g>
    <g
       id="g15774"
       transform="matrix(0.22508348,0,0,-0.1851088,58.463361,285.31119)">
      <path
         d="m 0,0 c 0.382,0.098 0.626,-0.449 0.271,-0.643 -1.891,-1.029 -3.925,-1.803 -5.874,-2.721 -1.818,-0.857 -3.62,-1.751 -5.422,-2.642 -3.567,-1.761 -7.143,-3.501 -10.872,-4.895 -7.192,-2.69 -15.159,-4.115 -22.66,-1.855 -0.311,0.094 -0.179,0.578 0.136,0.489 7.662,-2.159 15.689,-0.428 22.902,2.501 3.757,1.526 7.388,3.358 11.021,5.151 C -7.135,-2.954 -3.655,-0.934 0,0 m -20.099,-33.859 c -0.226,-1.997 -0.374,-4.236 -1.083,-6.12 -0.089,-0.239 -0.461,-0.216 -0.46,0.061 0.008,1.774 0.552,3.578 0.796,5.335 0.275,1.973 0.441,3.974 0.377,5.966 -0.055,1.762 -0.302,3.52 -0.804,5.212 -0.513,1.726 -1.423,3.16 -2.213,4.75 -0.039,0.078 0.056,0.156 0.122,0.094 2.362,-2.218 3.179,-6.245 3.429,-9.343 0.161,-1.986 0.061,-3.979 -0.164,-5.955 m -28.792,27.936 c -0.049,-1.539 -0.181,-3.075 -0.39,-4.601 -0.203,-1.491 -0.374,-3.078 -1.037,-4.445 -0.112,-0.229 -0.48,-0.114 -0.474,0.128 0.037,1.41 0.447,2.805 0.661,4.195 0.24,1.564 0.391,3.142 0.458,4.723 0.133,3.088 -0.033,6.206 -0.498,9.262 -0.049,0.316 0.426,0.46 0.489,0.135 0.608,-3.103 0.893,-6.236 0.791,-9.397 M -82.326,4.665 c -4.541,-0.173 -9.095,-0.038 -13.613,0.464 -4.417,0.49 -9.014,1.106 -13.235,2.533 -0.145,0.05 -0.084,0.25 0.063,0.227 5.122,-0.813 10.133,-1.865 15.327,-2.215 8.899,-0.6 17.827,-0.084 26.57,1.707 4.31,0.883 8.56,2.058 12.708,3.521 4.259,1.503 8.305,3.435 12.415,5.287 0.495,0.223 0.919,-0.454 0.434,-0.742 -4.352,-2.585 -9.212,-4.439 -14.012,-6.013 -8.604,-2.824 -17.61,-4.423 -26.657,-4.769 m 22.604,-19.128 c -2.261,-1.775 -4.965,-2.953 -7.581,-4.124 -2.519,-1.127 -5.089,-2.143 -7.699,-3.04 -19.56,-6.719 -41.401,-6.823 -60.841,0.348 -0.139,0.05 -0.083,0.273 0.063,0.225 5.428,-1.771 11.016,-3.004 16.67,-3.803 10.186,-1.442 20.619,-1.155 30.718,0.791 4.922,0.948 9.767,2.263 14.476,3.98 2.504,0.913 4.967,1.937 7.378,3.071 2.177,1.025 4.248,2.243 6.493,3.108 0.302,0.116 0.58,-0.354 0.323,-0.556 m -35.633,-26.883 c -0.07,-1.279 -0.063,-2.823 -0.517,-4.033 -0.099,-0.262 -0.492,-0.23 -0.499,0.067 -0.032,1.353 0.348,2.761 0.442,4.12 0.092,1.329 0.114,2.663 0.063,3.994 -0.105,2.801 -0.536,5.573 -1.258,8.28 -0.059,0.219 0.276,0.311 0.339,0.093 0.768,-2.681 1.251,-5.435 1.419,-8.22 0.086,-1.432 0.09,-2.868 0.011,-4.301 m -41.345,29.315 c -0.368,-2.357 -0.777,-4.843 -1.641,-7.074 -0.117,-0.302 -0.557,-0.19 -0.489,0.135 0.476,2.284 1.165,4.51 1.572,6.815 0.417,2.365 0.675,4.755 0.793,7.152 0.014,0.275 0.44,0.277 0.43,0 -0.082,-2.354 -0.301,-4.7 -0.665,-7.028 m -47.208,22.599 c -0.167,0.054 -0.097,0.316 0.072,0.264 4.738,-1.461 9.528,-2.756 14.375,-3.805 8.534,-1.845 17.252,-3.034 25.996,-2.921 4.325,0.057 8.648,0.43 12.906,1.195 2.102,0.377 4.188,0.848 6.245,1.42 2.074,0.574 4.072,1.378 6.136,1.968 0.252,0.073 0.421,-0.31 0.181,-0.427 -2.13,-1.038 -4.519,-1.673 -6.801,-2.282 -2.419,-0.644 -4.873,-1.153 -7.347,-1.536 -17.441,-2.697 -35.17,0.736 -51.763,6.124 m 37.858,-30.794 c -3.751,-0.566 -7.635,-0.65 -11.421,-0.862 -3.782,-0.212 -7.568,-0.355 -11.357,-0.378 -5.778,-0.034 -11.61,0.131 -17.328,1.019 -4.65,0.721 -9.245,1.802 -13.782,3.042 -9.08,2.482 -18.476,5.468 -26.627,10.279 -0.216,0.128 -0.02,0.465 0.198,0.338 4.329,-2.524 9.03,-4.404 13.736,-6.091 9.031,-3.235 18.494,-5.917 28.026,-7.15 6.028,-0.781 12.177,-0.848 18.246,-0.725 3.294,0.067 6.586,0.217 9.876,0.415 3.441,0.208 6.911,0.66 10.356,0.689 0.322,0.003 0.408,-0.526 0.077,-0.576 m -21.039,-20.331 c 0.011,-1.9 0.024,-3.799 0.006,-5.699 -0.018,-1.89 0.087,-3.826 -0.161,-5.7 -0.024,-0.176 -0.251,-0.175 -0.274,0 -0.266,2.016 -0.144,4.105 -0.162,6.138 -0.016,1.973 0.005,3.946 0.018,5.919 0.021,3.258 -0.484,7.063 1.208,10.002 0.054,0.093 0.221,0.029 0.179,-0.076 -1.322,-3.256 -0.834,-7.15 -0.814,-10.584 m -36.206,31.984 c 0.016,-0.132 -0.208,-0.16 -0.23,-0.031 -0.953,5.574 -0.646,11.256 0.579,16.767 0.016,0.074 0.127,0.042 0.113,-0.031 -1.085,-5.507 -1.127,-11.142 -0.462,-16.705 m -27.021,30.594 c -0.08,0.059 -0.004,0.194 0.079,0.135 5.489,-3.887 11.748,-6.509 18.375,-7.676 3.595,-0.632 7.228,-0.829 10.873,-0.926 3.451,-0.094 6.932,0.168 10.371,-0.12 0.409,-0.035 0.393,-0.575 0,-0.625 -3.634,-0.465 -7.42,-0.355 -11.077,-0.209 -3.469,0.136 -6.952,0.51 -10.354,1.205 -6.628,1.351 -12.856,4.161 -18.267,8.216 m -0.111,-20.74 c 0.137,-1.193 0.444,-2.36 0.571,-3.552 0.023,-0.213 -0.281,-0.215 -0.345,-0.046 -0.433,1.127 -0.58,2.405 -0.731,3.598 -0.161,1.285 -0.254,2.588 -0.23,3.883 0.045,2.519 0.453,5.035 1.131,7.458 0.053,0.194 0.348,0.112 0.3,-0.083 -0.608,-2.468 -0.888,-4.974 -0.889,-7.514 0,-1.252 0.051,-2.499 0.193,-3.744 m 43.82,19.49 c 0.135,1.226 0.408,2.43 0.792,3.602 0.176,0.541 0.377,1.073 0.6,1.596 0.212,0.499 0.4,1.078 0.803,1.454 0.112,0.105 0.351,0.04 0.333,-0.138 -0.057,-0.551 -0.358,-1.049 -0.55,-1.563 -0.189,-0.505 -0.357,-1.018 -0.504,-1.536 -0.325,-1.154 -0.54,-2.34 -0.672,-3.531 -0.127,-1.15 -0.151,-2.312 -0.074,-3.467 0.039,-0.581 0.105,-1.159 0.199,-1.733 0.092,-0.561 0.269,-1.12 0.287,-1.689 0.011,-0.32 -0.471,-0.465 -0.619,-0.167 -0.498,1.011 -0.568,2.36 -0.655,3.474 -0.097,1.231 -0.075,2.47 0.06,3.698 m 75.09,-1.253 c -0.018,0.228 0.327,0.219 0.352,0 0.326,-2.82 0.298,-5.648 -0.258,-8.434 -0.059,-0.302 -0.494,-0.166 -0.452,0.124 0.396,2.747 0.574,5.54 0.358,8.31 m 78.081,12.038 c 0.327,-1.211 0.534,-2.453 0.61,-3.705 0.076,-1.245 0.068,-2.518 -0.237,-3.731 -0.059,-0.235 -0.431,-0.184 -0.422,0.057 0.041,1.204 0.146,2.399 0.077,3.605 -0.071,1.225 -0.274,2.434 -0.592,3.617 -0.099,0.366 0.467,0.52 0.564,0.157 m 0.905,-14.223 c 4.757,-0.319 9.586,-0.211 14.3,0.525 4.678,0.732 8.952,2.263 13.412,3.763 0.336,0.113 0.555,-0.414 0.241,-0.57 -4.255,-2.118 -9.265,-3.198 -13.945,-3.844 -4.678,-0.645 -9.354,-0.704 -14.034,-0.065 -0.11,0.014 -0.082,0.198 0.026,0.191 m -200.923,5.806 c -3.186,4.549 -4.369,10.223 -3.569,15.7 0.016,0.108 0.206,0.082 0.192,-0.026 -0.657,-5.425 0.744,-10.909 3.681,-15.498 0.123,-0.192 -0.176,-0.36 -0.304,-0.176 m 210.707,16.409 c -0.224,-0.471 -0.785,-0.517 -1.175,-0.262 -31.976,-7.071 -68.273,-11.788 -104.542,-11.788 -42.576,0 -85.1,6.499 -120.524,23.302 0.023,-1.927 0.201,-3.856 0.407,-5.77 0.294,-2.724 0.69,-5.448 1.303,-8.121 0.435,-1.903 0.895,-4.386 2.28,-5.867 1.615,-1.727 3.59,-3.045 5.183,-4.804 0.58,-0.331 1.172,-0.638 1.781,-0.912 0.318,-0.143 0.648,-0.262 0.967,-0.405 0.302,-0.137 0.596,-0.292 0.9,-0.428 0.177,-0.079 0.037,-0.309 -0.121,-0.286 -0.357,0.055 -0.728,0.1 -1.075,0.199 -0.325,0.093 -0.645,0.209 -0.961,0.325 -0.157,0.057 -0.305,0.133 -0.459,0.195 0.853,-1.23 1.473,-2.575 1.736,-4.074 0.373,-2.137 0.285,-4.336 0.268,-6.495 -0.025,-3.023 0.197,-5.951 -0.956,-8.811 -1.103,-2.734 -2.847,-5.123 -4.412,-7.602 -0.166,-0.263 -0.333,-0.532 -0.498,-0.802 0.55,0.029 1.13,-0.149 1.672,-0.206 0.71,-0.077 1.425,-0.106 2.139,-0.088 1.416,0.035 2.803,0.287 4.207,0.418 0.099,0.008 0.13,-0.137 0.05,-0.182 -1.284,-0.715 -2.801,-0.975 -4.257,-1.056 -0.763,-0.043 -1.529,-0.032 -2.291,0.033 -0.345,0.029 -0.69,0.071 -1.032,0.12 -0.36,0.051 -0.607,0.116 -0.876,0.304 -1.135,-1.944 -2.089,-4.047 -2.053,-6.322 0.057,-3.638 3.003,-5.973 5.1,-8.601 2.259,-2.833 3.591,-6.297 5.453,-9.385 1.856,-3.081 4.222,-5.518 7.391,-7.239 1.842,-1 3.804,-1.749 5.806,-2.372 -0.24,1.143 -0.376,2.334 -0.52,3.412 -0.254,1.912 -0.358,3.845 -0.356,5.774 0.003,3.922 0.418,7.865 1.599,11.612 0.039,0.122 0.209,0.071 0.188,-0.051 -0.642,-3.828 -1.163,-7.672 -1.113,-11.561 0.025,-1.916 0.177,-3.824 0.406,-5.726 0.15,-1.241 0.471,-2.492 0.692,-3.74 0.875,-0.254 1.757,-0.489 2.642,-0.701 3.202,-0.771 6.456,-1.301 9.709,-1.808 3.728,-0.581 7.749,-0.621 11.322,-1.902 4.074,-1.461 8.086,-3.173 12.122,-4.739 3.871,-1.501 7.637,-3.316 11.549,-4.697 15.202,-5.365 31.688,-2.859 47.169,-0.231 7.851,1.333 15.696,2.782 23.63,3.526 3.838,0.36 7.777,0.687 11.623,0.293 3.837,-0.392 7.532,-1.449 11.229,-2.499 7.517,-2.135 15.327,-3.307 23.156,-2.716 7.16,0.54 13.918,2.958 20.354,6.035 3.851,1.841 7.684,3.63 11.68,5.139 4.054,1.533 8.173,2.877 12.291,4.224 1.987,0.649 3.975,1.3 5.955,1.972 1.697,0.575 3.469,1.061 4.992,2.03 2.497,1.587 4.174,4.169 5.4,6.804 1.327,2.85 2.162,5.931 2.856,8.989 0.768,3.382 1.472,6.78 1.074,10.266 C 8.101,-5.868 7.581,-4.003 6.71,-2.341 5.808,-0.621 4.482,0.715 3.228,2.171 1.19,4.534 0.515,7.064 0.104,10.099 c -0.379,2.806 -0.708,5.832 -0.285,8.653 0.463,3.093 2.386,5.276 4.119,7.744 4.296,6.117 3.528,14.193 4.834,21.247 -9.851,-2.948 -20.419,-5.713 -31.519,-8.195"
         style="fill:#9e8c7d;fill-opacity:1;fill-rule:nonzero;stroke:none"
         id="path15776"
         inkscape:connector-curvature="0" />
    </g>
    <g
       id="g15778"
       transform="matrix(0.22508348,0,0,-0.1851088,16.602861,257.22564)">
      <path
         d="m 0,0 c -4.271,-2.248 -7.542,-5.848 -9.839,-10.055 -5.309,-9.726 -6.049,-21.626 -6.105,-32.478 -0.057,-10.744 0.862,-21.442 1.148,-32.173 4.172,-0.898 8.627,-1.731 13.305,-2.493 -0.435,9.009 -0.933,18.001 -0.956,27.025 -0.021,8.055 0.28,16.138 1.523,24.107 0.269,1.724 0.434,3.54 1.183,5.127 0.661,1.4 1.423,2.752 2.274,4.044 1.653,2.512 3.59,4.84 5.79,6.89 4.406,4.104 9.827,7.209 15.684,8.671 2.247,0.562 4.57,0.878 6.89,0.898 C 26.286,1.062 21.559,2.126 16.802,2.668 11.169,3.31 5.068,2.668 0,0"
         style="fill:#68402c;fill-opacity:1;fill-rule:nonzero;stroke:none"
         id="path15780"
         inkscape:connector-curvature="0" />
    </g>
    <g
       id="g15782"
       transform="matrix(0.22508348,0,0,-0.1851088,10.986101,272.57665)">
      <path
         d="m 0,0 -4.342,-3.612 c -0.825,-0.687 -1.741,-1.351 -2.592,-2.065 5.507,-1.601 11.521,-3.074 18.006,-4.399 4.49,-0.918 9.158,-1.751 13.964,-2.502 0.81,2.92 2.875,5.332 4.7,7.675 1.053,1.351 1.967,2.753 2.883,4.197 0.549,0.864 1.143,1.934 1.852,2.831 C 24.835,3.375 15.895,4.916 7.98,6.687 5.515,4.286 2.636,2.192 0,0"
         style="fill:#9e8c7d;fill-opacity:1;fill-rule:nonzero;stroke:none"
         id="path15784"
         inkscape:connector-curvature="0" />
    </g>
    <g
       id="g15786"
       transform="matrix(0.22508348,0,0,-0.1851088,3.7080505,271.72341)">
      <path
         d="M 0,0 C 0.213,0.823 0.693,1.413 1.699,1.854 3.705,2.737 5.782,3.48 7.821,4.285 l 10.878,4.292 c -2.567,1.077 -4.815,2.193 -6.666,3.345 l 0.235,0.376 c -0.107,0.987 -0.192,1.975 -0.286,2.963 -8.301,-0.159 -16.059,-1.824 -23.637,-5.115 0.02,-0.104 0.034,-0.216 0.054,-0.321 C -9.16,6.369 -5.249,3.074 0,0"
         style="fill:#9e8c7d;fill-opacity:1;fill-rule:nonzero;stroke:none"
         id="path15788"
         inkscape:connector-curvature="0" />
    </g>
    <g
       id="g15794"
       transform="matrix(0.22508348,0,0,-0.1851088,13.102211,271.02329)">
      <path
         d="m 0,0 c -0.077,0.905 -0.155,1.811 -0.24,2.715 -1.095,11.637 -2.171,23.333 -1.671,35.033 0.46,10.763 1.969,22.804 8.761,31.599 3.094,4.008 7.283,6.956 12.121,8.469 6.676,2.089 13.763,1.452 20.494,-0.011 4.938,-1.075 9.77,-2.655 14.429,-4.645 1.02,-0.3 2.005,-0.687 2.913,-1.198 0.129,-0.072 0.228,-0.161 0.307,-0.258 2.836,-1.355 5.603,-2.853 8.266,-4.506 3.913,-2.427 7.638,-5.178 11.088,-8.229 3.357,-2.97 6.846,-6.295 9.384,-10.017 1.291,-1.892 2.152,-4.25 3.024,-6.362 0.955,-2.315 1.79,-4.678 2.52,-7.073 1.442,-4.73 2.473,-9.58 3.201,-14.469 1.413,-9.508 1.718,-19.139 1.406,-28.737 47.271,1.361 82.186,10.163 97.236,24.696 -0.669,9.954 -0.935,19.911 -1.191,29.543 -0.587,22.138 -1.142,43.049 -6.163,64.719 -2.287,9.873 -8.236,20.733 -13.632,30.138 -4.045,7.049 -8.848,13.833 -13.491,20.394 -8.378,11.835 -17.041,24.074 -21.67,38.413 -4.744,14.699 7.701,23.158 17.474,28.243 5.241,2.725 14.262,8.358 15.811,15.461 0.691,3.171 -0.205,6.382 -2.667,9.543 -6.503,8.35 -24.478,14.217 -37.896,16.704 l -0.101,0.019 c -21.502,3.986 -45.873,8.505 -67.518,3.338 l -3.106,-0.738 C 50.699,270.796 42.025,268.74 33.76,265.783 25.864,262.958 17.508,259.846 9.769,255.61 8.685,255.017 7.607,254.477 6.543,253.943 3.901,252.618 1.405,251.366 -0.889,249.452 l -0.854,-0.707 c -3.603,-2.971 -5.983,-4.933 -4.754,-9.92 1.039,-4.215 4.456,-8.155 9.14,-10.538 1.959,-0.997 4.096,-1.864 6.163,-2.703 5.281,-2.143 10.742,-4.359 14.21,-9.036 3.585,-4.834 4.431,-11.983 2.264,-19.124 l -0.102,-0.229 C -16.988,127.769 -33.74,68.005 -27.524,9.182 -21.46,5.728 -11.895,2.604 0,0"
         style="fill:#916443;fill-opacity:1;fill-rule:nonzero;stroke:none"
         id="path15796"
         inkscape:connector-curvature="0" />
    </g>
    <g
       id="g15798"
       transform="matrix(0.22508348,0,0,-0.1851088,56.999231,267.91856)">
      <path
         d="m 0,0 0.423,-0.412 c -1.943,-1.992 -4.174,-3.831 -6.638,-5.535 3.981,-3.018 8.461,-5.507 12.788,-7.963 2.108,-1.196 4.23,-2.366 6.366,-3.508 0.67,-0.357 1.342,-0.714 2.017,-1.061 0.179,-0.092 0.373,-0.174 0.547,-0.278 0.071,0.014 0.142,0.018 0.21,-10e-4 2.933,1.613 5.646,3.297 8.131,5.049 -0.082,1.404 -0.235,2.806 -0.453,4.194 -0.223,1.405 -0.473,2.441 -1.769,3.161 -2.114,1.178 -4.533,1.93 -6.84,2.625 -2.766,0.833 -5.582,1.487 -8.396,2.139 -2.045,0.475 -4.213,0.924 -6.245,1.6 z"
         style="fill:#9e8c7d;fill-opacity:1;fill-rule:nonzero;stroke:none"
         id="path15800"
         inkscape:connector-curvature="0" />
    </g>
    <g
       id="g15802"
       transform="matrix(0.22508348,0,0,-0.1851088,17.905011,273.58337)">
      <path
         d="m 0,0 c -1.652,-2.235 -3.637,-4.595 -4.363,-7.346 11.927,-1.817 24.693,-3.126 37.812,-3.894 0.231,2.552 0.774,5.132 1.341,7.6 0.62,2.703 1.224,5.696 2.516,8.214 C 26.034,5.153 15.1,6.123 4.904,7.414 4.571,6.939 4.196,6.481 3.885,6.016 3.416,5.313 2.969,4.598 2.54,3.87 1.752,2.532 0.924,1.25 0,0"
         style="fill:#9e8c7d;fill-opacity:1;fill-rule:nonzero;stroke:none"
         id="path15804"
         inkscape:connector-curvature="0" />
    </g>
    <g
       id="g15806"
       transform="matrix(0.22508348,0,0,-0.1851088,43.131721,272.25976)">
      <path
         d="m 0,0 c 2.38,-2.472 4.456,-5.342 6.633,-7.977 1.126,-1.362 2.307,-2.695 3.382,-4.099 0.735,-0.962 0.834,-1.813 0.615,-2.934 12.546,1.832 24.131,4.228 34.556,7.138 C 39.45,-4.098 34.289,0.635 29.664,5.683 29.561,5.796 29.54,5.922 29.564,6.037 20.207,3.313 10.054,1.373 0,0"
         style="fill:#9e8c7d;fill-opacity:1;fill-rule:nonzero;stroke:none"
         id="path15808"
         inkscape:connector-curvature="0" />
    </g>
    <g
       id="g15810"
       transform="matrix(0.22508348,0,0,-0.1851088,31.396381,272.85197)">
      <path
         d="m 0,0 c -7.335,0.024 -14.643,0.225 -21.82,0.581 -1.479,-3.062 -1.909,-6.816 -2.452,-10.106 -0.267,-1.616 -0.54,-3.228 -0.736,-4.853 -0.036,-0.296 -0.06,-0.594 -0.092,-0.891 14.48,-0.804 29.357,-0.959 43.976,-0.424 -0.25,1.251 -0.771,2.485 -1.164,3.663 -1.377,4.124 -2.778,8.313 -4.78,12.185 C 8.629,0.039 4.721,-0.002 1.351,-0.002 0.89,-0.002 0.441,-0.001 0,0"
         style="fill:#9e8c7d;fill-opacity:1;fill-rule:nonzero;stroke:none"
         id="path15812"
         inkscape:connector-curvature="0" />
    </g>
    <g
       id="g15814"
       transform="matrix(0.22508348,0,0,-0.1851088,60.637051,271.55585)">
      <path
         d="m 0,0 c -0.042,-0.19 -0.161,-0.345 -0.336,-0.433 0,-0.191 -0.14,-0.504 -0.176,-0.672 -0.169,-0.796 -0.285,-1.606 -0.396,-2.412 -0.347,-2.498 -0.598,-5.01 -0.855,-7.519 -0.298,-2.899 -0.579,-5.799 -0.889,-8.696 -0.231,-2.154 -0.319,-4.46 -0.856,-6.571 1.029,0.302 2.052,0.605 3.065,0.91 0.042,0.025 0.072,0.058 0.121,0.076 4.058,1.529 5.823,5.546 6.641,9.53 0.772,3.755 0.834,7.618 0.983,11.435 0.075,1.909 0.245,3.801 0.373,5.706 C 7.75,2.484 7.754,3.618 7.723,4.751 5.346,3.106 2.771,1.521 0,0"
         style="fill:#9e8c7d;fill-opacity:1;fill-rule:nonzero;stroke:none"
         id="path15816"
         inkscape:connector-curvature="0" />
    </g>
    <g
       id="g15818"
       transform="matrix(0.22508348,0,0,-0.1851088,60.100501,272.37238)">
      <path
         d="m 0,0 c 0.138,1.11 0.237,2.279 0.486,3.391 -7.912,-4.137 -17.284,-7.785 -27.899,-10.889 0.858,-1.255 0.264,-3.566 0.148,-4.972 -0.159,-1.942 -0.347,-3.884 -0.606,-5.815 -0.493,-3.684 -1.118,-7.348 -1.884,-10.985 9.607,2.161 18.811,4.532 27.493,7.049 -0.038,0.076 -0.064,0.161 -0.06,0.265 0.108,2.394 0.558,4.811 0.803,7.2 C -1.015,-9.838 -0.609,-4.906 0,0"
         style="fill:#9e8c7d;fill-opacity:1;fill-rule:nonzero;stroke:none"
         id="path15820"
         inkscape:connector-curvature="0" />
    </g>
    <g
       id="g15822"
       transform="matrix(0.22508348,0,0,-0.1851088,3.7851905,276.21339)">
      <path
         d="m 0,0 c -0.252,1.611 -0.189,3.294 -0.235,4.915 -0.058,2.029 -0.114,4.06 -0.162,6.089 -0.097,3.978 -0.133,7.963 -0.095,11.942 0.001,0.089 0.007,0.169 0.011,0.254 -4.787,2.762 -8.518,5.706 -11.106,8.79 0.559,-3.565 0.882,-7.389 1.184,-11.133 C -9.918,14.843 -9.413,8.631 -7.888,3.645 -5.298,2.373 -2.667,1.16 0,0"
         style="fill:#9e8c7d;fill-opacity:1;fill-rule:nonzero;stroke:none"
         id="path15824"
         inkscape:connector-curvature="0" />
    </g>
    <g
       id="g15826"
       transform="matrix(0.22508348,0,0,-0.1851088,53.594611,274.72149)">
      <path
         d="m 0,0 c 0.091,0.871 0.173,1.742 0.245,2.614 0.028,0.345 0.156,0.935 0.088,1.277 -0.07,0.357 -0.285,0.606 -0.544,0.811 -10.783,-3.056 -22.805,-5.563 -35.863,-7.457 -1.505,-6.9 -2.683,-13.824 -3.158,-20.885 -10e-4,-0.007 -0.005,-0.013 -0.006,-0.022 12.632,1.835 24.901,4.1 36.592,6.683 0.791,3.693 1.434,7.417 1.934,11.162 C -0.454,-3.881 -0.201,-1.943 0,0"
         style="fill:#9e8c7d;fill-opacity:1;fill-rule:nonzero;stroke:none"
         id="path15828"
         inkscape:connector-curvature="0" />
    </g>
    <g
       id="g15830"
       transform="matrix(0.22508348,0,0,-0.1851088,3.9597205,272.31797)">
      <path
         d="m 0,0 c -0.013,-3.726 0.026,-7.45 0.04,-11.176 0.007,-1.799 0.018,-3.597 0.03,-5.396 0.011,-1.589 0.131,-3.218 -0.098,-4.794 7.005,-3.013 14.257,-5.652 21.714,-7.936 -0.294,1.672 -0.124,3.59 -0.164,5.229 -0.047,1.98 -0.078,3.961 -0.123,5.942 -0.044,1.982 -0.09,3.963 -0.173,5.943 -0.058,1.365 -0.182,2.854 0.608,4.053 0.14,0.212 0.306,0.413 0.481,0.61 C 13.474,-4.854 5.974,-1.84 -0.006,1.448 -0.006,0.965 0.001,0.48 0,0"
         style="fill:#9e8c7d;fill-opacity:1;fill-rule:nonzero;stroke:none"
         id="path15832"
         inkscape:connector-curvature="0" />
    </g>
    <g
       id="g15834"
       transform="matrix(0.22508348,0,0,-0.1851088,16.704651,279.23117)">
      <path
         d="m 0,0 c -0.071,4.009 -0.235,8.013 -0.403,12.018 -0.083,1.963 -0.163,3.928 -0.229,5.893 -0.049,1.485 -0.171,3.002 0.059,4.477 -4.806,0.752 -9.471,1.588 -13.961,2.506 -6.737,1.377 -12.968,2.916 -18.662,4.595 -0.153,-0.149 -0.315,-0.293 -0.455,-0.45 -1.241,-1.385 -0.722,-3.673 -0.653,-5.366 0.075,-1.816 0.107,-3.631 0.128,-5.447 0.024,-1.899 0.038,-3.797 0.072,-5.696 C -34.078,11.002 -33.822,9.304 -34,7.763 -23.037,4.454 -11.651,1.894 0,0"
         style="fill:#9e8c7d;fill-opacity:1;fill-rule:nonzero;stroke:none"
         id="path15836"
         inkscape:connector-curvature="0" />
    </g>
    <g
       id="g15838"
       transform="matrix(0.22508348,0,0,-0.1851088,25.528621,279.96401)">
      <path
         d="m 0,0 c -0.399,2.749 -0.378,5.595 -0.453,8.359 -0.122,4.538 -0.286,9.155 -0.07,13.691 0.002,0.062 0.012,0.126 0.016,0.188 -13.162,0.773 -25.969,2.084 -37.935,3.909 -0.243,-1.678 -0.034,-3.48 0.013,-5.169 0.054,-1.974 0.121,-3.948 0.189,-5.92 0.13,-3.749 0.282,-7.498 0.369,-11.248 C -37.87,3.784 -37.882,3.767 -37.883,3.743 -25.481,1.784 -12.788,0.572 0,0"
         style="fill:#9e8c7d;fill-opacity:1;fill-rule:nonzero;stroke:none"
         id="path15840"
         inkscape:connector-curvature="0" />
    </g>
    <g
       id="g15842"
       transform="matrix(0.22508348,0,0,-0.1851088,44.438711,279.09741)">
      <path
         d="m 0,0 c 0.454,6.731 1.437,13.398 3.063,19.948 0.061,0.25 0.132,0.499 0.201,0.749 -7.355,-1.037 -15.024,-1.885 -22.984,-2.528 -5.922,-0.478 -11.94,-0.833 -18.007,-1.072 0.024,-0.294 0.038,-0.588 0.028,-0.883 -0.057,-1.839 -0.185,-3.678 -0.318,-5.514 C -38.376,5.713 -38.775,0.586 -39.976,-4.285 -26.415,-3.479 -13,-2.081 0.04,-0.224 0.02,-0.154 -0.002,-0.085 0,0"
         style="fill:#9e8c7d;fill-opacity:1;fill-rule:nonzero;stroke:none"
         id="path15844"
         inkscape:connector-curvature="0" />
    </g>
    <g
       id="g15846"
       transform="matrix(0.22508348,0,0,-0.1851088,35.111591,279.90563)">
      <path
         d="m 0,0 c -0.002,0.069 -0.009,0.138 0.011,0.215 1.521,5.939 1.913,12.271 2.358,18.37 0.058,0.793 0.135,1.592 0.148,2.387 0.002,0.151 -0.009,0.301 -0.019,0.453 -5.783,-0.213 -11.605,-0.327 -17.43,-0.327 -8.97,0 -17.94,0.25 -26.761,0.74 -0.013,-0.247 -0.026,-0.535 -0.027,-0.483 0.021,-1.59 0.057,-3.189 0.08,-4.782 0.048,-3.201 0.099,-6.402 0.163,-9.603 0.049,-2.418 -0.018,-4.93 0.347,-7.327 0.001,-0.007 -10e-4,-0.012 0,-0.019 C -27.441,-0.937 -13.653,-0.769 0,0"
         style="fill:#9e8c7d;fill-opacity:1;fill-rule:nonzero;stroke:none"
         id="path15848"
         inkscape:connector-curvature="0" />
    </g>
    <g
       id="g15850"
       transform="matrix(0.22508348,0,0,-0.1851088,19.634021,271.89532)">
      <path
         d="m 0,0 c -1.004,2.731 -1.849,6.167 -2.214,9.031 -0.389,3.055 0.724,6.157 0.059,9.212 -0.96,4.413 -5.008,7.973 -5.736,12.204 4.189,-0.12 9.767,-4.539 13.719,-6.386 -4.067,3.7 -4.512,12.41 -3.139,17.299 1.117,3.978 1.967,7.042 1.915,11.248 -0.024,1.819 -1.663,7.4 -0.692,8.842 1.001,1.488 3.458,-1.217 4.65,-2.098 3.148,-2.331 6.584,-5.147 6.069,-9.505 1.474,4.625 0.598,9.677 2.252,14.187 1.319,3.597 4.088,7.455 6.556,10.37 1.111,1.312 1.545,1.988 3.123,1.795 2.957,-0.361 6.002,-3.81 8.592,-5.267 3.954,-2.226 7.513,-5.256 10.922,-8.227 4.469,-3.893 8.29,-7.39 10.949,-12.657 5.692,-11.272 8.235,-21.181 8.094,-33.797 -0.05,-4.476 -0.635,-8.939 -0.481,-13.419 0.04,-1.167 1.129,-5.179 0.381,-6.005 -0.625,-0.689 -5.649,0.434 -6.708,0.481 C 48.557,-2.264 38.882,-4.184 29.132,-4.049 19.478,-3.915 9.977,-1.781 0.559,0.343"
         style="fill:#ffde17;fill-opacity:1;fill-rule:nonzero;stroke:none"
         id="path15852"
         inkscape:connector-curvature="0" />
    </g>
    <g
       id="g15854"
       transform="matrix(0.22508348,0,0,-0.1851088,19.648301,271.89208)">
      <path
         d="m 0,0 c -0.739,2.058 -1.304,4.176 -1.736,6.318 -0.233,1.151 -0.46,2.326 -0.519,3.498 -0.057,1.156 0.06,2.309 0.171,3.457 0.209,2.157 0.311,4.26 -0.435,6.331 -0.643,1.788 -1.676,3.399 -2.67,5.006 -1.13,1.826 -2.275,3.705 -2.666,5.847 -0.033,-0.043 -0.066,-0.086 -0.099,-0.13 2.524,-0.102 4.912,-1.415 7.062,-2.63 2.202,-1.243 4.313,-2.668 6.601,-3.751 0.107,-0.05 0.233,0.084 0.135,0.176 -2.654,2.464 -3.528,6.423 -3.746,9.899 -0.113,1.788 -0.05,3.597 0.234,5.367 0.324,2.015 1.021,3.956 1.489,5.94 0.519,2.193 0.837,4.42 0.856,6.675 0.011,1.442 -0.314,2.846 -0.565,4.26 -0.153,0.868 -0.299,1.738 -0.38,2.616 -0.06,0.668 -0.126,1.405 0.057,2.059 0.543,1.95 2.945,-0.3 3.687,-0.939 1.524,-1.311 3.212,-2.41 4.588,-3.891 1.621,-1.743 2.612,-3.864 2.355,-6.279 -0.019,-0.173 0.245,-0.193 0.293,-0.039 0.976,3.13 0.931,6.417 1.286,9.647 0.186,1.678 0.508,3.337 1.128,4.915 0.601,1.525 1.398,2.972 2.27,4.358 0.894,1.422 1.877,2.788 2.92,4.105 0.469,0.592 0.954,1.171 1.44,1.749 0.371,0.44 0.746,0.948 1.259,1.234 1.159,0.645 2.736,-0.049 3.778,-0.628 1.271,-0.707 2.407,-1.636 3.55,-2.529 2.357,-1.845 5.012,-3.227 7.41,-5.023 2.683,-2.01 5.213,-4.227 7.715,-6.455 2.196,-1.955 4.342,-3.99 6.171,-6.3 1.967,-2.485 3.388,-5.267 4.709,-8.134 2.529,-5.491 4.467,-11.244 5.508,-17.206 1.138,-6.517 1.103,-13.051 0.707,-19.631 -0.173,-2.861 -0.459,-5.808 0.039,-8.647 0.187,-1.07 0.416,-2.16 0.419,-3.251 0.001,-0.296 0.029,-0.868 -0.239,-1.077 -0.223,-0.176 -0.669,-0.137 -0.934,-0.136 -1.83,0.009 -3.608,0.518 -5.42,0.688 -1.586,0.148 -3.219,0.091 -4.809,0.057 -1.785,-0.038 -3.567,-0.131 -5.348,-0.254 -7.125,-0.486 -14.235,-1.404 -21.39,-1.09 -7.124,0.311 -14.153,1.636 -21.106,3.15 C 4.029,-0.287 2.279,0.083 0.536,0.476 0.34,0.521 0.257,0.219 0.453,0.175 7.674,-1.453 14.9,-3.104 22.278,-3.849 c 3.634,-0.366 7.28,-0.482 10.93,-0.349 3.733,0.136 7.454,0.483 11.177,0.792 3.719,0.308 7.447,0.581 11.181,0.566 1.233,-0.006 2.466,-0.002 3.686,-0.192 0.977,-0.154 1.953,-0.322 2.936,-0.444 0.784,-0.097 1.741,-0.276 2.521,-0.054 0.621,0.176 0.689,0.84 0.702,1.402 0.024,1.068 -0.198,2.149 -0.382,3.198 -0.217,1.247 -0.292,2.426 -0.281,3.698 0.029,3.665 0.428,7.314 0.498,10.978 0.065,3.326 -0.074,6.664 -0.451,9.971 -0.699,6.132 -2.3,12.103 -4.641,17.81 -1.225,2.989 -2.545,6.031 -4.254,8.779 -1.591,2.558 -3.594,4.822 -5.762,6.904 -2.332,2.24 -4.797,4.359 -7.287,6.42 -1.306,1.081 -2.64,2.131 -4.023,3.112 -1.361,0.966 -2.809,1.767 -4.208,2.669 -2.328,1.502 -4.3,3.733 -6.963,4.673 -0.92,0.325 -2.061,0.515 -2.931,-0.046 -0.435,-0.28 -0.771,-0.69 -1.102,-1.081 -0.528,-0.623 -1.051,-1.251 -1.558,-1.892 -2.002,-2.53 -3.87,-5.251 -5.111,-8.243 -1.309,-3.152 -1.352,-6.536 -1.638,-9.885 -0.146,-1.717 -0.383,-3.418 -0.893,-5.068 0.097,-0.014 0.195,-0.026 0.293,-0.04 0.462,4.454 -3.056,7.238 -6.217,9.683 C 7.868,60 7.292,60.556 6.658,61.042 6.115,61.459 5.44,61.973 4.725,62.009 3.389,62.076 3.37,60.359 3.415,59.435 3.499,57.704 3.895,55.999 4.189,54.297 4.56,52.155 4.401,49.971 4.056,47.832 3.671,45.459 2.93,43.188 2.368,40.857 1.942,39.095 1.788,37.262 1.805,35.451 c 0.036,-3.957 0.839,-8.67 3.882,-11.487 0.044,0.058 0.089,0.117 0.134,0.175 -2.405,1.135 -4.619,2.642 -6.942,3.93 -2.087,1.159 -4.398,2.367 -6.833,2.463 -0.071,0.003 -0.11,-0.067 -0.099,-0.13 0.687,-3.74 3.51,-6.593 5.004,-9.996 0.952,-2.167 1.037,-4.343 0.821,-6.671 -0.106,-1.15 -0.241,-2.301 -0.225,-3.459 0.015,-1.058 0.189,-2.109 0.378,-3.148 0.442,-2.435 1.092,-4.841 1.947,-7.163 C -0.099,-0.114 0.029,-0.08 0,0"
         style="fill:#ffde17;fill-opacity:1;fill-rule:nonzero;stroke:none"
         id="path15856"
         inkscape:connector-curvature="0" />
    </g>
    <g
       id="g15858"
       transform="matrix(0.22508348,0,0,-0.1851088,17.363851,265.00111)">
      <path
         d="M 0,0 C 0.162,-0.389 0.378,-0.8 0.766,-0.965 1.153,-1.131 1.721,-0.863 1.675,-0.444 1.617,0.077 0.87,0.104 0.361,-0.022"
         style="fill:#ffde17;fill-opacity:1;fill-rule:nonzero;stroke:none"
         id="path15860"
         inkscape:connector-curvature="0" />
    </g>
    <g
       id="g15862"
       transform="matrix(0.22508348,0,0,-0.1851088,17.342521,265.00581)">
      <path
         d="M 0,0 C 0.118,-0.321 0.265,-0.673 0.532,-0.9 0.784,-1.114 1.111,-1.201 1.429,-1.088 1.712,-0.986 1.96,-0.74 1.935,-0.419 1.909,-0.106 1.682,0.101 1.394,0.187 1.086,0.281 0.667,0.297 0.398,0.101 0.33,0.051 0.318,-0.09 0.426,-0.106 c 0.124,-0.02 0.243,-0.027 0.369,-0.019 0.121,0.008 0.239,0.013 0.36,0.002 0.032,-0.003 0.084,-0.012 0.136,-0.025 0.026,-0.007 0.053,-0.016 0.079,-0.025 0.004,-0.001 0.038,-0.014 0.022,-0.008 -0.015,0.007 0.023,-0.01 0.027,-0.012 0.086,-0.044 0.133,-0.081 0.17,-0.171 C 1.582,-0.348 1.598,-0.396 1.6,-0.407 1.607,-0.438 1.607,-0.438 1.607,-0.467 1.606,-0.511 1.599,-0.554 1.581,-0.588 1.537,-0.673 1.464,-0.732 1.373,-0.778 1.16,-0.883 0.933,-0.845 0.742,-0.708 0.476,-0.517 0.315,-0.215 0.179,0.075 0.132,0.174 -0.038,0.104 0,0"
         style="fill:#ffde17;fill-opacity:1;fill-rule:nonzero;stroke:none"
         id="path15864"
         inkscape:connector-curvature="0" />
    </g>
    <g
       id="g15866"
       transform="matrix(0.22508348,0,0,-0.1851088,14.796701,263.55025)">
      <path
         d="M 0,0 C 0.521,-0.087 1.043,-0.175 1.564,-0.262"
         style="fill:#ffde17;fill-opacity:1;fill-rule:nonzero;stroke:none"
         id="path15868"
         inkscape:connector-curvature="0" />
    </g>
    <g
       id="g15870"
       transform="matrix(0.22508348,0,0,-0.1851088,14.789001,263.5732)">
      <path
         d="M 0,0 C 0.268,-0.039 0.535,-0.078 0.802,-0.117 1.066,-0.155 1.332,-0.205 1.599,-0.22 1.693,-0.225 1.708,-0.083 1.621,-0.059 1.367,0.013 1.104,0.052 0.847,0.101 0.587,0.15 0.327,0.199 0.068,0.248 0,0.261 -0.071,0.229 -0.091,0.158 -0.107,0.098 -0.069,0.01 0,0"
         style="fill:#ffde17;fill-opacity:1;fill-rule:nonzero;stroke:none"
         id="path15872"
         inkscape:connector-curvature="0" />
    </g>
    <g
       id="g15874"
       transform="matrix(0.22508348,0,0,-0.1851088,15.326431,265.81964)">
      <path
         d="M 0,0 C 0.359,0.104 0.769,0.009 1.045,-0.241"
         style="fill:#ffde17;fill-opacity:1;fill-rule:nonzero;stroke:none"
         id="path15876"
         inkscape:connector-curvature="0" />
    </g>
    <g
       id="g15878"
       transform="matrix(0.22508348,0,0,-0.1851088,15.337211,265.85163)">
      <path
         d="m 0,0 c 0.042,0.012 0.084,0.021 0.127,0.029 0.017,0.003 0.018,0.002 0,0 C 0.141,0.031 0.154,0.032 0.168,0.033 0.189,0.035 0.211,0.036 0.232,0.037 0.275,0.038 0.318,0.036 0.361,0.032 0.365,0.032 0.398,0.028 0.379,0.031 0.358,0.033 0.392,0.028 0.396,0.028 0.419,0.024 0.443,0.021 0.468,0.017 0.511,0.01 0.553,0 0.595,-0.012 c 0.02,-0.006 0.041,-0.012 0.061,-0.019 0.01,-0.004 0.02,-0.008 0.031,-0.011 0.004,-0.002 0.022,-0.01 0.007,-0.003 0.083,-0.035 0.163,-0.084 0.243,-0.128 0.046,-0.026 0.108,-0.019 0.146,0.019 0.035,0.035 0.05,0.103 0.02,0.146 C 1.034,0.086 0.954,0.155 0.855,0.216 0.764,0.272 0.663,0.317 0.56,0.35 0.353,0.415 0.111,0.402 -0.096,0.347 -0.186,0.322 -0.251,0.218 -0.221,0.125 -0.191,0.033 -0.097,-0.028 0,0"
         style="fill:#ffde17;fill-opacity:1;fill-rule:nonzero;stroke:none"
         id="path15880"
         inkscape:connector-curvature="0" />
    </g>
    <g
       id="g15882"
       transform="matrix(0.22508348,0,0,-0.1851088,13.509061,264.69814)">
      <path
         d="M 0,0 C -0.791,0.275 -1.43,0.954 -1.657,1.76"
         style="fill:#ffde17;fill-opacity:1;fill-rule:nonzero;stroke:none"
         id="path15884"
         inkscape:connector-curvature="0" />
    </g>
    <g
       id="g15886"
       transform="matrix(0.22508348,0,0,-0.1851088,13.514131,264.68278)">
      <path
         d="m 0,0 c -0.719,0.294 -1.295,0.952 -1.51,1.696 -0.015,0.053 -0.061,0.108 -0.118,0.117 -0.066,0.012 -0.111,0.002 -0.163,-0.042 -0.043,-0.039 -0.06,-0.11 -0.043,-0.164 0.13,-0.423 0.356,-0.814 0.678,-1.121 0.314,-0.3 0.694,-0.526 1.11,-0.652 C 0.062,-0.198 0.1,-0.04 0,0"
         style="fill:#ffde17;fill-opacity:1;fill-rule:nonzero;stroke:none"
         id="path15888"
         inkscape:connector-curvature="0" />
    </g>
    <g
       id="g15890"
       transform="matrix(0.22508348,0,0,-0.1851088,11.802701,262.53341)">
      <path
         d="M 0,0 1.304,-0.261"
         style="fill:#ffde17;fill-opacity:1;fill-rule:nonzero;stroke:none"
         id="path15892"
         inkscape:connector-curvature="0" />
    </g>
    <g
       id="g15894"
       transform="matrix(0.22508348,0,0,-0.1851088,11.794131,262.55854)">
      <path
         d="M 0,0 C 0.223,-0.042 0.445,-0.084 0.667,-0.126 0.889,-0.167 1.115,-0.223 1.342,-0.219 1.428,-0.218 1.479,-0.083 1.39,-0.045 1.182,0.045 0.958,0.084 0.738,0.131 0.517,0.178 0.296,0.225 0.075,0.271 0.001,0.287 -0.077,0.249 -0.098,0.173 -0.117,0.104 -0.074,0.014 0,0"
         style="fill:#ffde17;fill-opacity:1;fill-rule:nonzero;stroke:none"
         id="path15896"
         inkscape:connector-curvature="0" />
    </g>
    <g
       id="g15898"
       transform="matrix(0.22508348,0,0,-0.1851088,18.370581,261.33998)">
      <path
         d="M 0,0 C -0.681,0.337 -1.096,1.145 -0.974,1.895"
         style="fill:#ffde17;fill-opacity:1;fill-rule:nonzero;stroke:none"
         id="path15900"
         inkscape:connector-curvature="0" />
    </g>
    <g
       id="g15902"
       transform="matrix(0.22508348,0,0,-0.1851088,18.422891,261.29712)">
      <path
         d="M 0,0 C -0.14,0.11 -0.256,0.246 -0.374,0.377 -0.387,0.391 -0.398,0.404 -0.41,0.418 -0.416,0.424 -0.47,0.495 -0.429,0.438 -0.388,0.383 -0.435,0.447 -0.443,0.46 -0.457,0.478 -0.469,0.496 -0.481,0.516 -0.531,0.591 -0.575,0.67 -0.614,0.751 -0.627,0.779 -0.647,0.846 -0.606,0.73 -0.612,0.747 -0.62,0.764 -0.627,0.78 -0.643,0.822 -0.657,0.865 -0.67,0.908 -0.695,0.994 -0.726,1.08 -0.747,1.167 c -0.011,0.044 -0.02,0.088 -0.027,0.132 -0.013,0.062 0.003,-0.023 0.003,-0.04 0,0.027 -0.005,0.054 -0.007,0.081 C -0.78,1.357 -0.78,1.376 -0.782,1.394 -0.799,1.522 -0.803,1.552 -0.794,1.48 -0.789,1.443 -0.788,1.437 -0.791,1.461 -0.796,1.511 -0.801,1.56 -0.802,1.609 -0.81,1.815 -0.953,1.986 -1.159,2.014 -1.36,2.041 -1.555,1.918 -1.61,1.719 -1.745,1.243 -1.649,0.729 -1.396,0.311 c 0.117,-0.193 0.262,-0.375 0.431,-0.524 0.188,-0.166 0.404,-0.269 0.646,-0.335 0.134,-0.037 0.303,0.023 0.371,0.151 C 0.114,-0.278 0.116,-0.091 0,0"
         style="fill:#ffde17;fill-opacity:1;fill-rule:nonzero;stroke:none"
         id="path15904"
         inkscape:connector-curvature="0" />
    </g>
    <g
       id="g15906"
       transform="matrix(0.22508348,0,0,-0.1851088,19.788111,259.39471)">
      <path
         d="M 0,0 H -0.261"
         style="fill:#ffde17;fill-opacity:1;fill-rule:nonzero;stroke:none"
         id="path15908"
         inkscape:connector-curvature="0" />
    </g>
    <g
       id="g15910"
       transform="matrix(0.22508348,0,0,-0.1851088,19.788111,259.33397)">
      <path
         d="m 0,0 c -0.041,-0.002 -0.083,-0.004 -0.125,-0.006 l -0.062,-0.003 c -0.046,-0.002 -0.096,-0.003 -0.142,-0.015 -0.025,-0.01 -0.05,-0.021 -0.075,-0.032 -0.037,-0.019 -0.067,-0.047 -0.089,-0.081 -0.02,-0.019 -0.032,-0.043 -0.04,-0.069 -0.02,-0.038 -0.029,-0.078 -0.028,-0.122 0.004,-0.027 0.008,-0.056 0.012,-0.084 0.01,-0.025 0.021,-0.05 0.031,-0.075 0.02,-0.036 0.047,-0.067 0.081,-0.088 0.032,-0.029 0.067,-0.047 0.108,-0.057 0.045,-0.013 0.094,-0.013 0.141,-0.015 0.02,-0.001 0.042,-0.002 0.063,-0.003 0.042,-0.002 0.084,-0.004 0.125,-0.006 0.046,-0.002 0.088,0.008 0.127,0.028 0.04,0.014 0.076,0.036 0.105,0.068 0.033,0.03 0.055,0.065 0.068,0.106 0.02,0.039 0.03,0.081 0.028,0.126 C 0.324,-0.299 0.32,-0.27 0.316,-0.241 0.301,-0.186 0.273,-0.137 0.232,-0.096 0.21,-0.079 0.188,-0.062 0.166,-0.045 0.115,-0.015 0.06,0 0,0"
         style="fill:#ffde17;fill-opacity:1;fill-rule:nonzero;stroke:none"
         id="path15912"
         inkscape:connector-curvature="0" />
    </g>
    <g
       id="g15914"
       transform="matrix(0.22508348,0,0,-0.1851088,20.080661,257.60815)">
      <path
         d="M 0,0 C -0.087,0.521 -0.175,1.044 -0.262,1.565"
         style="fill:#ffde17;fill-opacity:1;fill-rule:nonzero;stroke:none"
         id="path15916"
         inkscape:connector-curvature="0" />
    </g>
    <g
       id="g15918"
       transform="matrix(0.22508348,0,0,-0.1851088,20.151891,257.59206)">
      <path
         d="M 0,0 C -0.044,0.262 -0.087,0.522 -0.131,0.783 -0.152,0.911 -0.2,1.031 -0.243,1.153 L -0.375,1.534 C -0.451,1.753 -0.789,1.726 -0.789,1.479 -0.79,1.195 -0.813,0.903 -0.767,0.624 c 0.045,-0.267 0.089,-0.532 0.134,-0.798 0.029,-0.17 0.247,-0.28 0.404,-0.229 C -0.046,-0.344 0.03,-0.182 0,0"
         style="fill:#ffde17;fill-opacity:1;fill-rule:nonzero;stroke:none"
         id="path15920"
         inkscape:connector-curvature="0" />
    </g>
    <g
       id="g15922"
       transform="matrix(0.22508348,0,0,-0.1851088,16.382621,259.71485)">
      <path
         d="M 0,0 C 0.211,0 0.211,0.328 0,0.328 -0.211,0.328 -0.212,0 0,0"
         style="fill:#ffde17;fill-opacity:1;fill-rule:nonzero;stroke:none"
         id="path15924"
         inkscape:connector-curvature="0" />
    </g>
    <g
       id="g15926"
       transform="matrix(0.22508348,0,0,-0.1851088,17.204711,267.465)">
      <path
         d="M 0,0 C 0.377,0 0.377,0.586 0,0.586 -0.377,0.586 -0.378,0 0,0"
         style="fill:#ffde17;fill-opacity:1;fill-rule:nonzero;stroke:none"
         id="path15928"
         inkscape:connector-curvature="0" />
    </g>
    <g
       id="g15930"
       transform="matrix(0.22508348,0,0,-0.1851088,17.674451,268.8593)">
      <path
         d="M 0,0 H -0.261"
         style="fill:#ffde17;fill-opacity:1;fill-rule:nonzero;stroke:none"
         id="path15932"
         inkscape:connector-curvature="0" />
    </g>
    <g
       id="g15934"
       transform="matrix(0.22508348,0,0,-0.1851088,17.626521,268.79186)">
      <path
         d="M 0,0 C -0.03,-0.016 -0.061,-0.031 -0.092,-0.046 -0.105,-0.054 -0.12,-0.061 -0.135,-0.067 -0.15,-0.075 -0.168,-0.082 -0.182,-0.092 -0.229,-0.12 -0.268,-0.158 -0.295,-0.205 c -0.028,-0.05 -0.043,-0.103 -0.043,-0.159 0,-0.058 0.015,-0.111 0.043,-0.159 0.027,-0.048 0.066,-0.086 0.113,-0.114 0.013,-0.009 0.031,-0.016 0.045,-0.023 0.015,-0.008 0.031,-0.016 0.045,-0.024 0.031,-0.014 0.062,-0.03 0.092,-0.045 0.065,-0.039 0.137,-0.057 0.213,-0.057 0.076,0 0.146,0.018 0.213,0.057 0.128,0.075 0.209,0.215 0.209,0.365 C 0.635,-0.216 0.554,-0.075 0.426,0 0.359,0.038 0.289,0.057 0.213,0.058 0.137,0.057 0.065,0.038 0,0"
         style="fill:#ffde17;fill-opacity:1;fill-rule:nonzero;stroke:none"
         id="path15936"
         inkscape:connector-curvature="0" />
    </g>
    <g
       id="g15938"
       transform="matrix(0.22508348,0,0,-0.1851088,17.791821,270.16319)">
      <path
         d="M 0,0 -0.261,-0.261"
         style="fill:#ffde17;fill-opacity:1;fill-rule:nonzero;stroke:none"
         id="path15940"
         inkscape:connector-curvature="0" />
    </g>
    <g
       id="g15942"
       transform="matrix(0.22508348,0,0,-0.1851088,17.734001,270.11565)">
      <path
         d="m 0,0 c -0.032,-0.041 -0.065,-0.082 -0.098,-0.123 -0.016,-0.021 -0.032,-0.041 -0.048,-0.062 -0.008,-0.009 -0.015,-0.018 -0.023,-0.028 -0.004,-0.006 -0.009,-0.011 -0.013,-0.016 -0.002,-0.002 -0.004,-0.004 -0.005,-0.006 -0.018,-0.024 -0.036,-0.046 -0.053,-0.07 -0.011,-0.025 -0.022,-0.051 -0.032,-0.078 -0.002,-0.014 -0.004,-0.029 -0.006,-0.043 -0.005,-0.015 -0.007,-0.032 -0.006,-0.048 0,-0.005 0.01,-0.082 0.012,-0.088 0.001,-10e-4 0.001,-0.004 0.002,-0.007 0.002,-0.007 0.003,-0.014 0.006,-0.02 0.004,-0.011 0.009,-0.021 0.014,-0.032 0.011,-0.034 0.029,-0.063 0.056,-0.087 0.008,-0.007 0.017,-0.015 0.027,-0.021 0.017,-0.017 0.036,-0.029 0.059,-0.035 0.014,-0.007 0.026,-0.011 0.04,-0.016 0.006,-0.002 0.012,-0.004 0.019,-0.006 0.062,-0.018 0.082,-0.014 0.136,-0.006 l 0.044,0.006 c 0.043,0.01 0.08,0.029 0.111,0.058 0.013,0.01 0.026,0.019 0.038,0.029 l 0.032,0.026 c 0.021,0.017 0.042,0.032 0.062,0.049 0.047,0.037 0.093,0.073 0.14,0.11 0.035,0.034 0.06,0.073 0.075,0.118 0.022,0.042 0.033,0.089 0.031,0.139 0.002,0.05 -0.009,0.097 -0.031,0.14 C 0.574,-0.072 0.549,-0.033 0.514,0 0.489,0.019 0.465,0.038 0.44,0.057 0.384,0.09 0.322,0.106 0.257,0.106 0.225,0.103 0.192,0.098 0.16,0.094 0.099,0.076 0.045,0.045 0,0"
         style="fill:#ffde17;fill-opacity:1;fill-rule:nonzero;stroke:none"
         id="path15944"
         inkscape:connector-curvature="0" />
    </g>
    <g
       id="g15946"
       transform="matrix(0.22508348,0,0,-0.1851088,15.496361,269.41172)">
      <path
         d="M 0,0 C -2.045,0.439 -3.909,1.667 -5.121,3.371"
         style="fill:#ffde17;fill-opacity:1;fill-rule:nonzero;stroke:none"
         id="path15948"
         inkscape:connector-curvature="0" />
    </g>
    <g
       id="g15950"
       transform="matrix(0.22508348,0,0,-0.1851088,15.528231,269.36672)">
      <path
         d="M 0,0 C -0.788,0.382 -1.58,0.725 -2.336,1.174 -3.07,1.61 -3.727,2.159 -4.29,2.802 c -0.249,0.283 -0.756,0.889 -1.172,0.525 -0.41,-0.36 0.099,-1.004 0.355,-1.286 0.604,-0.668 1.32,-1.245 2.095,-1.705 0.85,-0.504 1.873,-0.879 2.87,-0.86 C 0.121,-0.52 0.262,-0.127 0,0"
         style="fill:#ffde17;fill-opacity:1;fill-rule:nonzero;stroke:none"
         id="path15952"
         inkscape:connector-curvature="0" />
    </g>
    <g
       id="g15954"
       transform="matrix(0.22508348,0,0,-0.1851088,14.621061,268.05739)">
      <path
         d="M 0,0 C 0.468,0 0.468,0.727 0,0.727 -0.468,0.727 -0.469,0 0,0"
         style="fill:#ffde17;fill-opacity:1;fill-rule:nonzero;stroke:none"
         id="path15956"
         inkscape:connector-curvature="0" />
    </g>
    <g
       id="g15958"
       transform="matrix(0.22508348,0,0,-0.1851088,11.737411,266.01307)">
      <path
         d="M 0,0 C 0.089,-0.173 0.177,-0.346 0.265,-0.52"
         style="fill:#ffde17;fill-opacity:1;fill-rule:nonzero;stroke:none"
         id="path15960"
         inkscape:connector-curvature="0" />
    </g>
    <g
       id="g15962"
       transform="matrix(0.22508348,0,0,-0.1851088,11.662911,266.07434)">
      <path
         d="M 0,0 C 0.069,-0.065 0.14,-0.131 0.209,-0.196 0.243,-0.229 0.277,-0.261 0.312,-0.293 0.36,-0.339 0.415,-0.383 0.481,-0.396 0.5,-0.399 0.519,-0.4 0.537,-0.403 c 0.02,-0.002 0.039,-0.005 0.059,-0.008 0.031,-0.001 0.059,0.005 0.086,0.019 0.044,0.018 0.083,0.049 0.106,0.091 0.04,0.072 0.075,0.146 0.064,0.232 C 0.846,-0.025 0.841,0.019 0.835,0.062 0.823,0.152 0.812,0.242 0.8,0.331 0.8,0.416 0.778,0.495 0.736,0.568 0.694,0.639 0.639,0.694 0.567,0.736 0.495,0.778 0.416,0.8 0.331,0.8 0.267,0.803 0.206,0.789 0.15,0.76 0.093,0.741 0.042,0.709 0,0.663 -0.059,0.604 -0.099,0.535 -0.121,0.456 -0.164,0.299 -0.121,0.113 0,0"
         style="fill:#ffde17;fill-opacity:1;fill-rule:nonzero;stroke:none"
         id="path15964"
         inkscape:connector-curvature="0" />
    </g>
    <g
       id="g15966"
       transform="matrix(0.22508348,0,0,-0.1851088,15.560541,266.54146)">
      <path
         d="M 0,0 V -0.261"
         style="fill:#ffde17;fill-opacity:1;fill-rule:nonzero;stroke:none"
         id="path15968"
         inkscape:connector-curvature="0" />
    </g>
    <g
       id="g15970"
       transform="matrix(0.22508348,0,0,-0.1851088,15.474151,266.56116)">
      <path
         d="m 0,0 c 0.019,-0.081 0.037,-0.163 0.056,-0.245 0.011,-0.027 0.023,-0.054 0.034,-0.081 0.021,-0.04 0.051,-0.071 0.088,-0.096 0.021,-0.02 0.046,-0.035 0.075,-0.043 0.04,-0.021 0.084,-0.031 0.131,-0.029 0.03,0.004 0.06,0.008 0.09,0.012 0.027,0.011 0.054,0.023 0.082,0.034 0.039,0.021 0.071,0.051 0.094,0.088 0.031,0.032 0.051,0.071 0.062,0.115 0.018,0.082 0.037,0.164 0.056,0.245 0.019,0.071 0.019,0.142 0,0.212 C 0.749,0.279 0.715,0.338 0.665,0.388 0.639,0.409 0.611,0.43 0.585,0.45 0.522,0.486 0.456,0.505 0.384,0.505 0.329,0.507 0.277,0.495 0.23,0.471 0.181,0.454 0.138,0.427 0.102,0.388 0.053,0.338 0.019,0.279 0,0.212 -0.02,0.142 -0.02,0.071 0,0"
         style="fill:#ffde17;fill-opacity:1;fill-rule:nonzero;stroke:none"
         id="path15972"
         inkscape:connector-curvature="0" />
    </g>
    <g
       id="g15974"
       transform="matrix(0.22508348,0,0,-0.1851088,18.789961,264.47435)">
      <path
         d="M 0,0 C 0.064,0 0.064,0.101 0,0.101 -0.064,0.101 -0.064,0 0,0"
         style="fill:#ffde17;fill-opacity:1;fill-rule:nonzero;stroke:none"
         id="path15976"
         inkscape:connector-curvature="0" />
    </g>
    <g
       id="g15978"
       transform="matrix(0.22508348,0,0,-0.1851088,22.719681,258.76869)">
      <path
         d="M 0,0 C -0.34,0.7 -0.68,1.399 -1.02,2.099"
         style="fill:#ffde17;fill-opacity:1;fill-rule:nonzero;stroke:none"
         id="path15980"
         inkscape:connector-curvature="0" />
    </g>
    <g
       id="g15982"
       transform="matrix(0.22508348,0,0,-0.1851088,22.790241,258.73472)">
      <path
         d="m 0,0 c -0.155,0.366 -0.311,0.732 -0.467,1.099 l -0.228,0.539 c -0.038,0.09 -0.072,0.183 -0.117,0.269 -0.054,0.107 -0.159,0.2 -0.239,0.29 -0.112,0.126 -0.341,0.154 -0.482,0.063 -0.159,-0.103 -0.216,-0.269 -0.184,-0.45 0.022,-0.123 0.037,-0.241 0.09,-0.355 0.041,-0.088 0.092,-0.172 0.139,-0.256 0.096,-0.177 0.193,-0.352 0.29,-0.528 0.19,-0.346 0.381,-0.692 0.571,-1.038 0.092,-0.166 0.335,-0.235 0.497,-0.13 C 0.053,-0.379 0.08,-0.187 0,0"
         style="fill:#ffde17;fill-opacity:1;fill-rule:nonzero;stroke:none"
         id="path15984"
         inkscape:connector-curvature="0" />
    </g>
    <g
       id="g15986"
       transform="matrix(0.22508348,0,0,-0.1851088,22.371721,259.82384)">
      <path
         d="M 0,0 C 0.634,0 0.635,0.984 0,0.984 -0.634,0.984 -0.635,0 0,0"
         style="fill:#ffde17;fill-opacity:1;fill-rule:nonzero;stroke:none"
         id="path15988"
         inkscape:connector-curvature="0" />
    </g>
    <g
       id="g15990"
       transform="matrix(0.22508348,0,0,-0.1851088,19.612041,262.58168)">
      <path
         d="M 0,0 V -0.262"
         style="fill:#ffde17;fill-opacity:1;fill-rule:nonzero;stroke:none"
         id="path15992"
         inkscape:connector-curvature="0" />
    </g>
    <g
       id="g15994"
       transform="matrix(0.22508348,0,0,-0.1851088,19.507851,262.60536)">
      <path
         d="M 0,0 C 0.006,-0.021 0.013,-0.043 0.02,-0.063 0.022,-0.074 0.025,-0.084 0.028,-0.095 0.03,-0.1 0.031,-0.104 0.033,-0.108 0.054,-0.185 0.092,-0.25 0.147,-0.306 0.178,-0.33 0.209,-0.354 0.24,-0.377 c 0.069,-0.04 0.143,-0.06 0.223,-0.06 0.08,0 0.154,0.02 0.223,0.06 0.031,0.023 0.062,0.047 0.092,0.071 0.055,0.056 0.094,0.121 0.115,0.198 0.002,0.004 0.003,0.008 0.004,0.013 0.003,0.011 0.006,0.021 0.009,0.032 0.007,0.02 0.014,0.042 0.02,0.063 0.023,0.085 0.023,0.17 0,0.255 C 0.903,0.337 0.862,0.407 0.803,0.467 0.771,0.492 0.737,0.518 0.705,0.542 0.631,0.586 0.55,0.607 0.463,0.608 0.396,0.61 0.335,0.597 0.277,0.566 0.218,0.547 0.167,0.514 0.123,0.467 0.005,0.349 -0.05,0.162 0,0"
         style="fill:#ffde17;fill-opacity:1;fill-rule:nonzero;stroke:none"
         id="path15996"
         inkscape:connector-curvature="0" />
    </g>
    <g
       id="g15998"
       transform="matrix(0.22508348,0,0,-0.1851088,18.555201,264.15746)">
      <path
         d="M 0,0 C 0.211,0 0.211,0.328 0,0.328 -0.212,0.328 -0.212,0 0,0"
         style="fill:#ffde17;fill-opacity:1;fill-rule:nonzero;stroke:none"
         id="path16000"
         inkscape:connector-curvature="0" />
    </g>
    <g
       id="g16002"
       transform="matrix(0.22508348,0,0,-0.1851088,14.638211,261.85517)">
      <path
         d="M 0,0 C -0.051,0.021 -0.164,0.073 -0.243,0.115 -0.328,0.16 -0.404,0.212 -0.481,0.268 -0.427,0.229 -0.499,0.282 -0.504,0.286 -0.522,0.301 -0.54,0.315 -0.558,0.33 -0.596,0.363 -0.634,0.397 -0.672,0.433 -0.743,0.5 -0.81,0.572 -0.877,0.644 c -0.138,0.144 -0.281,0.276 -0.409,0.43 -0.033,0.039 0.051,-0.069 0.005,-0.007 -0.017,0.023 -0.033,0.046 -0.05,0.069 -0.043,0.06 -0.089,0.115 -0.141,0.168 -0.07,0.072 -0.136,0.148 -0.2,0.227 -0.092,0.115 -0.306,0.132 -0.426,0.055 -0.127,-0.082 -0.211,-0.245 -0.161,-0.397 0.04,-0.125 0.09,-0.246 0.142,-0.366 0.054,-0.124 0.142,-0.226 0.229,-0.331 0.149,-0.177 0.323,-0.362 0.518,-0.488 0.192,-0.124 0.406,-0.221 0.62,-0.303 0.2,-0.077 0.404,-0.148 0.613,-0.198 0.135,-0.031 0.28,0.043 0.317,0.181 C 0.221,-0.17 0.13,-0.052 0,0"
         style="fill:#ffde17;fill-opacity:1;fill-rule:nonzero;stroke:none"
         id="path16004"
         inkscape:connector-curvature="0" />
    </g>
    <g
       id="g16006"
       transform="matrix(0.22508348,0,0,-0.1851088,14.797151,260.88135)">
      <path
         d="m 0,0 c -0.042,-0.004 -0.083,-0.008 -0.125,-0.012 l -0.062,-0.006 c -0.043,-0.004 -0.094,-0.005 -0.136,-0.017 -0.023,-0.01 -0.046,-0.02 -0.07,-0.029 -0.034,-0.019 -0.061,-0.043 -0.082,-0.076 -0.018,-0.017 -0.03,-0.039 -0.037,-0.064 -0.018,-0.034 -0.027,-0.072 -0.025,-0.112 0.003,-0.027 0.007,-0.052 0.01,-0.079 0.01,-0.022 0.02,-0.045 0.03,-0.069 0.018,-0.034 0.043,-0.061 0.075,-0.082 0.028,-0.025 0.061,-0.043 0.099,-0.052 0.041,-0.011 0.091,-0.012 0.134,-0.017 l 0.064,-0.006 c 0.042,-0.004 0.083,-0.008 0.125,-0.012 0.044,-0.002 0.084,0.008 0.122,0.028 0.039,0.012 0.073,0.034 0.102,0.065 0.031,0.028 0.052,0.062 0.065,0.102 C 0.31,-0.4 0.318,-0.36 0.316,-0.316 0.312,-0.288 0.31,-0.261 0.306,-0.232 0.29,-0.179 0.264,-0.132 0.224,-0.093 0.203,-0.076 0.182,-0.06 0.16,-0.043 0.11,-0.015 0.058,0 0,0"
         style="fill:#ffde17;fill-opacity:1;fill-rule:nonzero;stroke:none"
         id="path16008"
         inkscape:connector-curvature="0" />
    </g>
    <g
       id="g16010"
       transform="matrix(0.22508348,0,0,-0.1851088,11.802701,260.50915)">
      <path
         d="M 0,0 C 0.361,0 0.362,0.562 0,0.562 -0.362,0.562 -0.363,0 0,0"
         style="fill:#ffde17;fill-opacity:1;fill-rule:nonzero;stroke:none"
         id="path16012"
         inkscape:connector-curvature="0" />
    </g>
    <g
       id="g16014"
       transform="matrix(0.22508348,0,0,-0.1851088,10.247331,264.94236)">
      <path
         d="M 0,0 C 0.027,0.041 0.055,0.082 0.083,0.124 0.097,0.145 0.11,0.165 0.125,0.187 0.126,0.188 0.127,0.19 0.129,0.192 0.143,0.226 0.156,0.258 0.17,0.291 l 0.015,0.108 c 0,0.013 -0.012,0.101 -0.016,0.113 0,0.001 -0.04,0.095 -0.041,0.096 C 0.126,0.611 0.124,0.614 0.122,0.616 0.118,0.622 0.114,0.627 0.11,0.633 0.095,0.651 0.078,0.679 0.065,0.69 0.059,0.697 0.015,0.729 0.008,0.734 0.007,0.735 0.005,0.736 0.004,0.737 0.001,0.74 -0.002,0.742 -0.005,0.744 -0.007,0.746 -0.01,0.748 -0.012,0.75 -0.062,0.788 -0.113,0.795 -0.171,0.803 -0.189,0.805 -0.207,0.808 -0.226,0.81 -0.282,0.812 -0.335,0.801 -0.384,0.774 -0.419,0.76 -0.419,0.763 -0.437,0.751 -0.441,0.748 -0.446,0.745 -0.451,0.741 -0.463,0.734 -0.474,0.727 -0.485,0.719 -0.532,0.687 -0.578,0.656 -0.625,0.625 -0.694,0.585 -0.749,0.53 -0.789,0.461 -0.83,0.39 -0.852,0.313 -0.852,0.23 c 0.006,-0.04 0.011,-0.081 0.017,-0.121 0.022,-0.077 0.061,-0.144 0.117,-0.202 0.041,-0.044 0.091,-0.076 0.148,-0.094 0.053,-0.029 0.113,-0.042 0.175,-0.04 0.083,0.001 0.16,0.022 0.231,0.063 C -0.096,-0.123 -0.041,-0.068 0,0"
         style="fill:#ffde17;fill-opacity:1;fill-rule:nonzero;stroke:none"
         id="path16016"
         inkscape:connector-curvature="0" />
    </g>
    <g
       id="g16018"
       transform="matrix(0.22508348,0,0,-0.1851088,18.731281,270.57498)">
      <path
         d="M 0,0 C 0.513,0 0.514,0.797 0,0.797 -0.513,0.797 -0.514,0 0,0"
         style="fill:#ffde17;fill-opacity:1;fill-rule:nonzero;stroke:none"
         id="path16020"
         inkscape:connector-curvature="0" />
    </g>
    <g
       id="g16022"
       transform="matrix(0.22508348,0,0,-0.1851088,50.453331,223.63653)">
      <path
         d="m 0,0 c -4.395,-9.448 -16.413,-14.246 -26.378,-17.294 -8.503,-2.601 -17.125,-5.197 -26.01,-5.574 -9.979,-0.423 -19.84,1.971 -29.777,2.983 -9.161,0.933 -18.395,0.691 -27.602,0.867 -7.63,0.146 -15.254,0.581 -22.85,1.304 -7.913,0.752 -15.796,1.815 -23.626,3.186 -3.915,0.686 -7.816,1.448 -11.7,2.288 -0.96,0.207 -4.5,1.559 -5.245,0.978 -1.002,-0.782 -0.297,-4.271 -0.194,-5.323 0.241,-2.435 0.693,-4.521 2.273,-6.483 1.285,-1.596 3.016,-3.169 4.591,-4.473 1.042,-0.863 2.471,-1.041 3.713,-1.492 1.142,-0.415 2.279,-0.87 3.4,-1.341 3.242,-1.36 7.039,-1.781 9.967,-3.822 1.257,-0.876 2.261,-2.102 3.178,-3.321 1.055,-1.401 1.673,-3.084 2.664,-4.529 0.943,-1.375 1.509,-2.723 1.856,-4.366 0.56,-2.654 0.466,-5.246 0.563,-7.923 0.044,-1.233 0.711,-1.415 1.777,-0.999 1.443,0.563 2.881,1.191 4.371,1.705 14.504,5.007 29.633,9.665 45.162,8.826 7.97,-0.43 15.784,-2.309 23.545,-4.179 13.872,-3.345 25.576,-6.688 39.448,-10.032 -3.64,4.238 -2.395,10.427 -0.853,15.796 1.542,5.369 6.199,8.112 10.781,11.306 5.481,3.821 12.782,7.455 17.598,12.086 4.817,4.631 6.339,14.207 0.979,18.196"
         style="fill:#724b30;fill-opacity:1;fill-rule:nonzero;stroke:none"
         id="path16024"
         inkscape:connector-curvature="0" />
    </g>
    <g
       id="g16026"
       transform="matrix(0.22508348,0,0,-0.1851088,50.439711,223.62992)">
      <path
         d="m 0,0 c -4.183,-8.806 -14.161,-13.175 -22.882,-16.119 -11.668,-3.94 -23.81,-7.371 -36.233,-6.568 -6.467,0.419 -12.848,1.618 -19.266,2.457 -6.497,0.849 -13.032,1.119 -19.58,1.199 -6.575,0.079 -13.147,0.083 -19.719,0.385 -6.577,0.302 -13.145,0.819 -19.689,1.548 -6.621,0.739 -13.218,1.697 -19.777,2.869 -3.185,0.57 -6.362,1.191 -9.528,1.863 -1.781,0.378 -3.521,1.123 -5.329,1.342 -0.517,0.062 -1.077,0.102 -1.424,-0.35 -0.404,-0.525 -0.404,-1.345 -0.398,-1.973 0.019,-1.89 0.302,-3.987 0.726,-5.823 0.607,-2.626 2.206,-4.572 4.117,-6.4 0.94,-0.9 1.948,-1.977 3.105,-2.598 1.057,-0.568 2.278,-0.77 3.398,-1.181 1.444,-0.53 2.842,-1.179 4.293,-1.686 1.284,-0.448 2.598,-0.797 3.897,-1.198 1.41,-0.436 2.818,-0.931 4.096,-1.684 1.249,-0.735 2.255,-1.73 3.164,-2.849 0.955,-1.177 1.664,-2.44 2.377,-3.77 0.63,-1.179 1.454,-2.246 2.005,-3.466 1.319,-2.919 1.249,-6.233 1.324,-9.369 0.016,-0.688 -0.138,-1.902 0.644,-2.28 0.83,-0.401 2.048,0.372 2.779,0.667 2.923,1.184 5.921,2.17 8.918,3.153 5.98,1.963 12.031,3.745 18.199,5.014 6.239,1.284 12.606,2.028 18.982,1.873 6.503,-0.16 12.917,-1.344 19.245,-2.782 12.24,-2.783 24.341,-6.13 36.501,-9.235 3.058,-0.782 6.119,-1.546 9.187,-2.287 0.21,-0.051 0.328,0.189 0.2,0.343 -3.626,4.349 -2.267,10.521 -0.839,15.467 1.512,5.243 6.15,8.151 10.383,11.085 4.527,3.138 9.405,5.741 13.868,8.974 1.904,1.379 3.869,2.862 5.321,4.73 1.249,1.606 2.145,3.486 2.675,5.447 1.108,4.091 0.632,8.978 -2.944,11.715 -0.212,0.162 -0.418,-0.198 -0.209,-0.358 3.582,-2.741 3.841,-7.781 2.607,-11.788 -0.647,-2.102 -1.729,-4.111 -3.25,-5.711 -1.842,-1.939 -4.087,-3.528 -6.298,-5.016 -4.497,-3.026 -9.19,-5.731 -13.655,-8.81 -1.985,-1.369 -3.981,-2.779 -5.64,-4.544 -1.627,-1.731 -2.721,-3.725 -3.361,-6.007 -1.409,-5.025 -2.603,-11.097 1.051,-15.474 0.066,0.114 0.134,0.229 0.2,0.343 -12.021,2.897 -23.938,6.202 -35.943,9.164 -6.188,1.527 -12.393,3.087 -18.689,4.101 -6.133,0.987 -12.312,1.28 -18.506,0.75 -6.057,-0.518 -12.039,-1.715 -17.911,-3.268 -6.014,-1.592 -12.003,-3.47 -17.843,-5.615 -0.736,-0.27 -1.462,-0.564 -2.189,-0.858 -0.637,-0.258 -1.305,-0.623 -1.978,-0.761 -1.138,-0.233 -1.12,0.804 -1.142,1.636 -0.022,0.772 -0.031,1.544 -0.053,2.316 -0.077,2.739 -0.295,5.579 -1.569,8.056 -0.616,1.198 -1.41,2.296 -2.042,3.489 -0.604,1.141 -1.261,2.202 -2.068,3.21 -1.655,2.067 -3.636,3.394 -6.123,4.278 -1.283,0.458 -2.599,0.809 -3.901,1.207 -1.409,0.43 -2.753,0.99 -4.12,1.534 -1.294,0.515 -2.612,0.887 -3.922,1.344 -1.444,0.505 -2.541,1.593 -3.642,2.619 -2.164,2.018 -3.913,4.134 -4.486,7.106 -0.188,0.976 -0.27,1.97 -0.403,2.955 -0.131,0.96 -0.269,1.952 -0.182,2.922 0.039,0.429 0.113,1.082 0.553,1.294 0.352,0.169 0.964,0.014 1.316,-0.052 0.911,-0.17 1.798,-0.458 2.683,-0.728 2.541,-0.774 5.229,-1.177 7.835,-1.676 6.269,-1.202 12.577,-2.206 18.911,-3.01 12.901,-1.638 25.858,-2.342 38.857,-2.434 6.5,-0.045 13.012,-0.056 19.493,-0.615 6.354,-0.548 12.629,-1.723 18.957,-2.488 6.236,-0.754 12.462,-0.961 18.692,-0.046 6.225,0.914 12.283,2.674 18.289,4.505 8.689,2.647 18.199,5.774 24.512,12.673 1.414,1.546 2.602,3.277 3.494,5.173 C 0.16,0.01 0.039,0.082 0,0"
         style="fill:#724b30;fill-opacity:1;fill-rule:nonzero;stroke:none"
         id="path16028"
         inkscape:connector-curvature="0" />
    </g>
    <g
       id="g16030"
       transform="matrix(0.22508348,0,0,-0.1851088,31.251541,231.03067)">
      <path
         d="m 0,0 c 11.176,-6.022 22.035,-12.761 31.865,-20.824 9.606,-7.881 16.709,-17.19 24.452,-26.724 4.245,-5.225 7.472,-10.733 10.562,-16.705 5.7,-11.015 9.986,-23 13.377,-34.912 2.708,-9.514 5.806,-19.399 6.886,-29.266 0.827,-7.567 3.308,-15.062 3.199,-22.651 -0.123,-8.567 -1.9,-17.012 -3.694,-25.355 -1.016,-4.721 -2.046,-9.472 -3.915,-13.923 -5.756,-13.71 -18.622,-22.914 -31.112,-30.982 20.721,2.146 40.941,9.001 58.695,19.897 0.868,0.532 1.779,1.129 2.183,2.064 0.378,0.876 0.236,1.878 0.097,2.821 -0.872,34.201 0.615,69.73 -10.655,101.505 -4.174,11.772 -10.691,21.378 -17.841,31.619 -3.077,4.407 -11.259,15.662 -13.985,20.294 -7.361,12.508 -8.773,15.449 -15.747,31.191 -10.84,0.017 -21.675,2.013 -31.808,5.861"
         style="fill:#724b30;fill-opacity:1;fill-rule:nonzero;stroke:none"
         id="path16032"
         inkscape:connector-curvature="0" />
    </g>
    <g
       id="g16034"
       transform="matrix(0.22508348,0,0,-0.1851088,31.244291,231.0407)">
      <path
         d="m 0,0 c 15.397,-8.405 30.443,-17.981 42.374,-30.995 2.909,-3.173 5.667,-6.48 8.384,-9.818 2.788,-3.426 5.678,-6.809 8.241,-10.408 5.056,-7.097 9.046,-15.013 12.461,-23.01 3.599,-8.424 6.448,-17.127 8.955,-25.931 2.546,-8.945 5.302,-17.913 6.446,-27.172 0.542,-4.385 1.395,-8.686 2.196,-13.027 0.852,-4.623 1.288,-9.173 1.007,-13.873 -0.558,-9.33 -2.607,-18.699 -4.844,-27.757 -1.025,-4.147 -2.368,-8.199 -4.418,-11.96 -1.858,-3.408 -4.179,-6.542 -6.783,-9.414 -5.182,-5.712 -11.403,-10.379 -17.777,-14.673 -1.551,-1.045 -3.116,-2.068 -4.687,-3.083 -0.148,-0.095 -0.107,-0.382 0.097,-0.36 18.748,1.96 37.05,7.697 53.539,16.84 2.01,1.116 4.098,2.215 5.981,3.537 1.613,1.131 1.891,2.41 1.706,4.297 -0.245,2.513 -0.154,5.096 -0.199,7.62 -0.044,2.449 -0.081,4.898 -0.117,7.347 -0.146,9.891 -0.273,19.785 -0.741,29.668 -0.915,19.338 -3.127,38.89 -9.649,57.226 -5.571,15.661 -15.983,28.884 -25.423,42.354 -3.88,5.536 -7.431,11.186 -10.747,17.078 -3.168,5.63 -5.935,11.441 -8.58,17.332 -0.955,2.126 -1.901,4.257 -2.847,6.388 -0.027,0.063 -0.109,0.1 -0.176,0.101 -10.827,0.037 -21.628,1.999 -31.764,5.819 -0.202,0.077 -0.29,-0.248 -0.089,-0.324 5.146,-1.94 10.424,-3.444 15.837,-4.431 2.547,-0.465 5.114,-0.821 7.691,-1.066 1.383,-0.132 2.77,-0.232 4.158,-0.3 0.624,-0.03 1.249,-0.054 1.874,-0.071 0.622,-0.017 1.85,0.189 2.293,-0.331 0.39,-0.457 0.607,-1.369 0.846,-1.909 0.212,-0.478 0.425,-0.957 0.637,-1.435 0.508,-1.142 1.016,-2.283 1.53,-3.423 0.798,-1.773 1.605,-3.544 2.432,-5.305 1.39,-2.96 2.855,-5.885 4.419,-8.759 3.439,-6.321 7.149,-12.428 11.261,-18.332 4.577,-6.57 9.32,-13.024 13.752,-19.693 5.714,-8.596 10.538,-17.548 13.713,-27.398 3.254,-10.093 5.294,-20.541 6.592,-31.056 2.616,-21.21 2.303,-42.63 2.772,-63.957 0.029,-1.315 0.126,-2.61 0.198,-3.918 0.098,-1.812 -0.879,-2.742 -2.308,-3.63 -2.224,-1.383 -4.507,-2.679 -6.813,-3.919 -4.599,-2.474 -9.337,-4.69 -14.185,-6.634 -9.606,-3.85 -19.637,-6.647 -29.853,-8.301 -2.571,-0.416 -5.152,-0.755 -7.74,-1.029 0.033,-0.12 0.065,-0.24 0.098,-0.36 12.584,8.143 25.922,17.559 31.582,32.058 1.686,4.315 2.647,8.865 3.617,13.381 0.99,4.601 1.961,9.21 2.648,13.868 0.67,4.545 1.172,9.209 0.903,13.807 -0.266,4.532 -1.262,8.977 -2.105,13.425 -0.861,4.539 -1.248,9.141 -2.126,13.675 -0.906,4.673 -2.125,9.276 -3.422,13.853 -2.529,8.918 -5.087,17.83 -8.38,26.501 -3.176,8.365 -6.944,16.55 -11.56,24.224 -4.442,7.387 -10.139,14.019 -15.691,20.588 -5.664,6.702 -11.787,12.832 -18.748,18.189 C 21.34,-12.402 13.745,-7.549 5.93,-3.108 3.991,-2.006 2.031,-0.942 0.063,0.108 -0.008,0.146 -0.07,0.039 0,0"
         style="fill:#724b30;fill-opacity:1;fill-rule:nonzero;stroke:none"
         id="path16036"
         inkscape:connector-curvature="0" />
    </g>
    <g
       id="g16194"
       transform="matrix(0.22508348,0,0,-0.1851088,5.3060505,280.77731)">
      <path
         d="m 0,0 c -0.304,0.136 -0.598,0.291 -0.9,0.428 -0.319,0.143 -0.649,0.261 -0.967,0.405 -0.628,0.282 -1.241,0.598 -1.838,0.941 -0.462,0.267 -0.883,-0.479 -0.413,-0.706 0.639,-0.307 1.294,-0.587 1.961,-0.83 0.317,-0.116 0.636,-0.232 0.962,-0.325 0.346,-0.1 0.717,-0.144 1.075,-0.199 C 0.037,-0.311 0.177,-0.079 0,0"
         style="fill:#000000;fill-opacity:1;fill-rule:nonzero;stroke:none"
         id="path16196"
         inkscape:connector-curvature="0" />
    </g>
    <g
       id="g16198"
       transform="matrix(0.22508348,0,0,-0.1851088,6.4730205,269.47897)">
      <path
         d="m 0,0 c -6.448,59.455 10.345,119.758 52.854,189.782 1.939,6.497 1.197,12.931 -1.993,17.232 -3.133,4.226 -8.098,6.241 -13.355,8.374 -2.106,0.855 -4.283,1.738 -6.318,2.774 -5.195,2.643 -8.999,7.07 -10.174,11.842 -1.531,6.209 1.692,8.866 5.424,11.942 l 0.844,0.699 c 2.472,2.063 5.069,3.364 7.817,4.743 1.044,0.523 2.099,1.052 3.161,1.633 7.868,4.307 16.307,7.451 24.278,10.302 8.37,2.994 17.1,5.063 25.541,7.064 l 3.104,0.738 c 22.057,5.265 46.649,0.705 68.346,-3.317 l 0.103,-0.019 c 4.981,-0.924 30.279,-6.104 39.108,-17.442 2.844,-3.651 3.867,-7.419 3.043,-11.198 -1.636,-7.504 -10.061,-13.283 -16.841,-16.81 -14.71,-7.652 -19.797,-15.625 -16.496,-25.854 4.535,-14.047 13.109,-26.159 21.4,-37.872 4.672,-6.598 9.502,-13.422 13.594,-20.554 5.467,-9.528 11.498,-20.543 13.846,-30.682 5.066,-21.866 5.65,-43.854 6.213,-65.116 0.258,-9.727 0.525,-19.785 1.21,-29.816 l -1.996,-0.136 c -0.688,10.072 -0.954,20.151 -1.213,29.898 -0.587,22.139 -1.142,43.049 -6.163,64.719 -2.287,9.873 -8.235,20.734 -13.632,30.138 -4.045,7.049 -8.848,13.833 -13.491,20.394 -8.379,11.835 -17.042,24.074 -21.67,38.413 -4.745,14.698 7.7,23.158 17.475,28.243 5.24,2.725 14.261,8.358 15.81,15.461 0.692,3.172 -0.205,6.383 -2.667,9.543 -6.503,8.35 -24.477,14.217 -37.895,16.704 l -0.102,0.019 c -21.502,3.987 -45.873,8.505 -67.518,3.338 l -3.106,-0.738 c -8.39,-1.988 -17.063,-4.044 -25.329,-7.001 -7.896,-2.825 -16.252,-5.937 -23.991,-10.173 -1.084,-0.593 -2.161,-1.133 -3.226,-1.667 -2.641,-1.325 -5.138,-2.577 -7.432,-4.491 l -0.853,-0.706 c -3.604,-2.97 -5.983,-4.933 -4.755,-9.921 1.039,-4.215 4.456,-8.155 9.14,-10.538 1.959,-0.997 4.096,-1.864 6.163,-2.703 5.281,-2.143 10.742,-4.359 14.21,-9.035 3.585,-4.835 4.431,-11.984 2.264,-19.125 L 54.63,188.853 C 12.314,119.18 -4.413,59.239 1.988,0.215 Z"
         style="fill:#000000;fill-opacity:1;fill-rule:nonzero;stroke:none"
         id="path16200"
         inkscape:connector-curvature="0" />
    </g>
    <g
       id="g16202"
       transform="matrix(0.22508348,0,0,-0.1851088,13.277161,271.17875)">
      <path
         d="m 0,0 c -0.264,10.957 -1.227,21.877 -1.169,32.845 0.057,10.852 0.796,22.752 6.106,32.478 2.296,4.207 5.568,7.807 9.838,10.055 5.069,2.668 11.169,3.31 16.802,2.668 17.904,-2.039 35.429,-11.294 47.701,-24.393 1.492,-1.591 3.221,-3.291 4.344,-5.169 1.25,-2.088 2.188,-4.464 3.073,-6.724 1.739,-4.436 3.048,-9.031 4.035,-13.69 2.007,-9.47 2.672,-19.193 2.63,-28.86 -0.01,-2.331 -0.065,-4.661 -0.153,-6.99 -0.049,-1.283 1.944,-1.281 1.992,0 0.364,9.905 0.079,19.852 -1.38,29.668 -0.727,4.888 -1.758,9.739 -3.2,14.468 -0.73,2.396 -1.565,4.759 -2.52,7.074 -0.871,2.112 -1.734,4.469 -3.025,6.362 -2.537,3.722 -6.026,7.047 -9.384,10.017 -3.45,3.05 -7.174,5.801 -11.087,8.229 -7.954,4.935 -16.762,8.616 -25.915,10.607 -6.731,1.462 -13.818,2.1 -20.495,0.011 C 13.355,77.143 9.167,74.195 6.072,70.187 -0.72,61.391 -2.228,49.351 -2.688,38.588 -3.188,26.888 -2.112,15.191 -1.018,3.555 -0.906,2.37 -0.8,1.186 -0.703,0 -0.667,-0.444 0.011,-0.458 0,0"
         style="fill:#000000;fill-opacity:1;fill-rule:nonzero;stroke:none"
         id="path16204"
         inkscape:connector-curvature="0" />
    </g>
    <g
       id="g16206"
       transform="matrix(0.22508348,0,0,-0.1851088,16.394271,271.58097)">
      <path
         d="m 0,0 c 0.556,15.306 -0.786,30.664 0.886,45.928 0.212,1.934 0.473,3.863 0.796,5.782 0.295,1.757 0.566,3.398 1.389,4.989 1.37,2.648 3.097,5.077 5.134,7.251 3.941,4.205 8.92,7.497 14.405,9.297 3.042,0.999 6.19,1.513 9.392,1.502 3.296,-0.011 6.214,-0.898 9.366,-1.702 1.14,-0.29 1.875,1.329 0.813,1.928 -2.529,1.423 -5.654,1.918 -8.52,2.102 -2.926,0.189 -5.888,-0.151 -8.727,-0.861 C 19.077,74.754 13.655,71.648 9.25,67.545 7.05,65.495 5.112,63.167 3.46,60.655 2.609,59.362 1.847,58.011 1.186,56.61 0.437,55.023 0.271,53.208 0.003,51.483 -1.24,43.515 -1.541,35.432 -1.521,27.377 -1.497,18.235 -0.985,9.126 -0.547,0 -0.53,-0.352 -0.013,-0.354 0,0"
         style="fill:#000000;fill-opacity:1;fill-rule:nonzero;stroke:none"
         id="path16208"
         inkscape:connector-curvature="0" />
    </g>
    <g
       id="g16210"
       transform="matrix(0.22508348,0,0,-0.1851088,2.0498205,275.87427)">
      <path
         d="m 0,0 c 0.023,-4.828 0.676,-9.814 1.741,-14.517 0.464,-2.045 1.002,-4.344 2.256,-6.073 0.765,-1.055 1.941,-1.812 2.905,-2.674 0.953,-0.85 1.891,-1.728 2.732,-2.691 2.999,-3.434 2.506,-7.719 2.475,-11.992 -0.011,-1.58 0.136,-3.218 -0.193,-4.773 -0.316,-1.493 -0.943,-2.886 -1.68,-4.216 -1.467,-2.65 -3.358,-5.045 -4.759,-7.734 -1.256,-2.41 -2.047,-5.047 -1.549,-7.775 0.619,-3.401 3.42,-5.659 5.441,-8.251 2.342,-3.002 3.647,-6.724 5.704,-9.914 1.845,-2.86 4.21,-5.181 7.177,-6.855 5.808,-3.277 12.617,-4.417 19.118,-5.445 3.74,-0.591 7.728,-0.694 11.352,-1.807 2.098,-0.644 4.121,-1.628 6.167,-2.425 2.044,-0.795 4.094,-1.574 6.139,-2.367 4.023,-1.56 7.934,-3.451 12,-4.888 3.696,-1.307 7.528,-2.16 11.412,-2.667 7.919,-1.038 15.948,-0.566 23.847,0.42 8.131,1.016 16.179,2.576 24.27,3.854 4.055,0.641 8.125,1.208 12.216,1.573 4.045,0.361 8.201,0.68 12.241,0.113 3.854,-0.541 7.569,-1.749 11.309,-2.78 3.984,-1.096 8,-1.798 12.114,-2.175 7.108,-0.651 14.194,-0.154 21.024,1.995 7.814,2.459 14.915,6.679 22.595,9.508 4.14,1.527 8.344,2.875 12.539,4.247 2.064,0.676 4.128,1.358 6.181,2.068 1.548,0.536 3.057,1.078 4.402,2.037 4.998,3.565 7.089,9.964 8.437,15.679 1.584,6.713 2.677,14.18 -1.789,20.097 -1.155,1.531 -2.69,2.759 -3.738,4.368 -0.762,1.169 -1.08,2.494 -1.318,3.853 -0.508,2.894 -0.761,6.005 -0.516,8.942 0.284,3.411 2.647,5.646 4.459,8.331 2.016,2.988 2.761,6.607 3.243,10.121 0.515,3.749 0.659,7.549 1.373,11.269 0.236,1.229 -1.646,1.755 -1.884,0.52 -1.363,-7.104 -0.532,-15.283 -4.871,-21.46 -1.733,-2.468 -3.656,-4.652 -4.119,-7.745 -0.423,-2.821 -0.095,-5.846 0.285,-8.653 0.41,-3.034 1.086,-5.564 3.123,-7.928 1.256,-1.456 2.58,-2.792 3.483,-4.511 0.871,-1.662 1.39,-3.528 1.603,-5.389 0.398,-3.485 -0.306,-6.884 -1.074,-10.266 -0.694,-3.057 -1.529,-6.138 -2.856,-8.989 -1.226,-2.635 -2.903,-5.217 -5.4,-6.804 -1.523,-0.968 -3.296,-1.455 -4.992,-2.03 -1.98,-0.672 -3.968,-1.322 -5.955,-1.971 -4.117,-1.347 -8.237,-2.692 -12.291,-4.224 -3.995,-1.51 -7.829,-3.299 -11.679,-5.14 -6.437,-3.077 -13.195,-5.495 -20.355,-6.035 -7.829,-0.591 -15.639,0.581 -23.156,2.717 -3.697,1.05 -7.392,2.106 -11.229,2.499 -3.846,0.393 -7.785,0.066 -11.623,-0.293 -7.934,-0.744 -15.779,-2.193 -23.629,-3.526 -15.481,-2.628 -31.968,-5.134 -47.17,0.231 -3.912,1.38 -7.679,3.195 -11.549,4.696 -4.036,1.567 -8.049,3.279 -12.122,4.74 -3.573,1.281 -7.594,1.321 -11.322,1.902 -3.253,0.507 -6.507,1.037 -9.709,1.808 -3.218,0.773 -6.426,1.768 -9.344,3.353 -3.169,1.721 -5.535,4.157 -7.391,7.238 -1.862,3.088 -3.194,6.552 -5.454,9.385 -2.096,2.629 -5.043,4.964 -5.099,8.602 -0.045,2.854 1.465,5.443 2.939,7.781 1.565,2.478 3.309,4.867 4.411,7.601 1.154,2.861 0.933,5.789 0.956,8.812 0.018,2.158 0.106,4.358 -0.267,6.494 -0.312,1.779 -1.106,3.353 -2.226,4.758 -1.667,2.091 -3.923,3.505 -5.725,5.433 -1.385,1.481 -1.845,3.963 -2.281,5.867 C 2.743,-11.398 2.347,-8.675 2.053,-5.95 1.841,-3.977 1.654,-1.986 1.641,0 1.633,1.056 -0.006,1.058 0,0"
         style="fill:#000000;fill-opacity:1;fill-rule:nonzero;stroke:none"
         id="path16212"
         inkscape:connector-curvature="0" />
    </g>
    <g
       id="g16214"
       transform="matrix(0.22508348,0,0,-0.1851088,1.5939305,275.68951)">
      <path
         d="m 0,0 c -1.643,5.235 -2.161,11.656 -2.661,17.866 -0.39,4.827 -0.792,9.819 -1.723,14.08 l -0.174,0.794 0.742,0.332 c 8.468,3.799 17.132,5.646 26.487,5.646 v -2 c -8.796,0 -16.961,-1.684 -24.934,-5.146 0.842,-4.201 1.224,-8.946 1.595,-13.545 0.492,-6.099 1,-12.407 2.576,-17.427 z"
         style="fill:#000000;fill-opacity:1;fill-rule:nonzero;stroke:none"
         id="path16216"
         inkscape:connector-curvature="0" />
    </g>
    <g
       id="g16218"
       transform="matrix(0.22508348,0,0,-0.1851088,31.700371,272.85233)">
      <path
         d="m 0,0 c -0.461,0 -0.909,0.001 -1.351,0.002 -47.782,0.157 -94.456,7.734 -110.98,18.019 l 1.057,1.697 C -95.029,9.608 -48.797,2.158 -1.344,2.002 -0.814,2.001 -0.277,2 0.249,2 c 54.773,0 95.227,9.32 111.14,25.638 l 1.431,-1.397 C 89.857,2.695 27.318,0 0,0"
         style="fill:#000000;fill-opacity:1;fill-rule:nonzero;stroke:none"
         id="path16220"
         inkscape:connector-curvature="0" />
    </g>
    <g
       id="g16222"
       transform="matrix(0.22508348,0,0,-0.1851088,56.665531,267.80631)">
      <path
         d="m 0,0 c 2.461,-1.046 5.269,-1.594 7.868,-2.196 2.815,-0.653 5.63,-1.307 8.397,-2.14 2.306,-0.694 4.725,-1.446 6.84,-2.624 1.295,-0.721 1.545,-1.757 1.768,-3.161 0.458,-2.9 0.644,-5.85 0.446,-8.781 -0.128,-1.905 -0.298,-3.797 -0.372,-5.705 -0.149,-3.818 -0.212,-7.681 -0.983,-11.436 -0.818,-3.983 -2.583,-8.001 -6.641,-9.53 -0.955,-0.36 -0.543,-1.906 0.426,-1.544 8.081,3.024 8.47,13.172 8.772,20.466 0.213,5.108 0.884,10.203 0.164,15.296 -0.221,1.559 -0.319,3.49 -1.431,4.727 -1.183,1.316 -3.284,1.908 -4.883,2.493 -3.31,1.212 -6.749,2.038 -10.186,2.8 C 6.903,-0.609 3.515,0.264 0.178,0.655 -0.16,0.695 -0.314,0.134 0,0"
         style="fill:#000000;fill-opacity:1;fill-rule:nonzero;stroke:none"
         id="path16224"
         inkscape:connector-curvature="0" />
    </g>
    <g
       id="g16226"
       transform="matrix(0.22508348,0,0,-0.1851088,29.548251,280.22107)">
      <path
         d="m 0,0 c -43.759,0 -87.466,6.861 -123.464,24.723 l 0.445,0.896 c 76.611,-38.016 188.362,-26.01 260.78,-4.176 l 0.289,-0.957 C 99.449,8.849 49.691,0 0,0"
         style="fill:#000000;fill-opacity:1;fill-rule:nonzero;stroke:none"
         id="path16228"
         inkscape:connector-curvature="0" />
    </g>
    <g
       id="g16230"
       transform="matrix(0.22508348,0,0,-0.1851088,8.2596305,270.02454)">
      <path
         d="m 0,0 c -4.134,-1.631 -8.268,-3.262 -12.4,-4.893 -2.039,-0.804 -4.117,-1.547 -6.122,-2.43 -1.474,-0.648 -1.834,-1.598 -1.849,-3.164 -0.038,-3.98 -0.002,-7.964 0.095,-11.943 0.048,-2.029 0.104,-4.059 0.162,-6.089 0.053,-1.879 -0.068,-3.846 0.361,-5.682 0.064,-0.273 0.51,-0.286 0.565,0 0.331,1.712 0.167,3.501 0.155,5.239 -0.013,1.799 -0.024,3.598 -0.03,5.397 -0.014,3.724 -0.053,7.45 -0.041,11.175 0.002,0.819 -0.039,1.651 0.02,2.467 0.091,1.258 1.155,1.457 2.124,1.868 1.968,0.837 3.933,1.683 5.899,2.524 3.783,1.618 7.565,3.235 11.346,4.852 C 0.668,-0.515 0.392,0.154 0,0"
         style="fill:#000000;fill-opacity:1;fill-rule:nonzero;stroke:none"
         id="path16232"
         inkscape:connector-curvature="0" />
    </g>
    <g
       id="g16234"
       transform="matrix(0.22508348,0,0,-0.1851088,12.840411,271.13626)">
      <path
         d="m 0,0 c -3.211,-2.103 -6.098,-4.867 -9.067,-7.298 -1.585,-1.298 -3.169,-2.595 -4.754,-3.891 -1.223,-1.001 -2.92,-1.993 -3.8,-3.33 -0.789,-1.199 -0.666,-2.688 -0.608,-4.053 0.083,-1.98 0.129,-3.961 0.173,-5.943 0.045,-1.981 0.076,-3.962 0.123,-5.942 0.045,-1.909 -0.197,-4.199 0.347,-6.037 0.093,-0.313 0.609,-0.356 0.678,0 0.321,1.673 0.002,3.59 -0.029,5.294 -0.033,1.898 -0.047,3.797 -0.071,5.695 -0.021,1.817 -0.053,3.632 -0.128,5.447 -0.069,1.694 -0.588,3.982 0.653,5.367 1.111,1.239 2.625,2.234 3.903,3.297 l 4.342,3.613 c 2.859,2.378 6.027,4.623 8.617,7.291 C 0.619,-0.243 0.306,0.2 0,0"
         style="fill:#000000;fill-opacity:1;fill-rule:nonzero;stroke:none"
         id="path16236"
         inkscape:connector-curvature="0" />
    </g>
    <g
       id="g16238"
       transform="matrix(0.22508348,0,0,-0.1851088,31.750731,276.00026)">
      <path
         d="m 0,0 c -28.76,0 -57.521,2.563 -81.381,7.439 -29.901,6.112 -49.943,15.395 -56.434,26.141 l 0.855,0.518 c 6.346,-10.505 26.155,-19.624 55.779,-25.679 34.016,-6.952 78.037,-9.19 117.75,-5.985 44.49,3.589 80.027,13.514 100.067,27.946 l 0.584,-0.811 C 117.035,15.031 81.318,5.041 36.65,1.437 24.694,0.473 12.346,0 0,0"
         style="fill:#000000;fill-opacity:1;fill-rule:nonzero;stroke:none"
         id="path16240"
         inkscape:connector-curvature="0" />
    </g>
    <g
       id="g16242"
       transform="matrix(0.22508348,0,0,-0.1851088,19.033951,271.95028)">
      <path
         d="m 0,0 c -1.333,-0.913 -2.285,-2.75 -3.136,-4.09 -0.916,-1.444 -1.83,-2.846 -2.883,-4.197 -1.889,-2.426 -4.049,-4.92 -4.794,-7.982 -0.408,-1.681 -0.224,-3.441 -0.167,-5.153 0.065,-1.965 0.146,-3.93 0.228,-5.893 0.171,-4.055 0.338,-8.109 0.407,-12.167 0.015,-0.854 1.348,-0.856 1.328,0 -0.087,3.75 -0.239,7.499 -0.368,11.248 -0.068,1.972 -0.136,3.946 -0.189,5.92 -0.048,1.718 -0.269,3.555 -0.005,5.259 0.485,3.14 2.735,5.759 4.563,8.233 0.924,1.25 1.752,2.532 2.54,3.87 0.429,0.727 0.876,1.443 1.345,2.145 0.514,0.768 1.217,1.51 1.585,2.353 C 0.572,-0.184 0.306,0.21 0,0"
         style="fill:#000000;fill-opacity:1;fill-rule:nonzero;stroke:none"
         id="path16244"
         inkscape:connector-curvature="0" />
    </g>
    <g
       id="g16246"
       transform="matrix(0.22508348,0,0,-0.1851088,26.401681,272.58624)">
      <path
         d="m 0,0 c -1.611,-2.666 -2.271,-6.029 -2.959,-9.026 -0.654,-2.85 -1.305,-5.849 -1.443,-8.781 -0.216,-4.536 -0.052,-9.152 0.07,-13.69 0.079,-2.906 0.037,-5.907 0.505,-8.785 0.149,-0.919 1.532,-0.525 1.393,0.384 -0.365,2.397 -0.297,4.909 -0.346,7.327 -0.065,3.201 -0.115,6.402 -0.163,9.603 -0.024,1.593 -0.06,3.192 -0.08,4.782 0.001,-0.077 0.028,0.586 0.042,0.768 0.038,0.536 0.099,1.07 0.164,1.605 0.196,1.625 0.468,3.237 0.735,4.852 0.574,3.468 1.005,7.462 2.688,10.607 C 0.82,0.044 0.234,0.389 0,0"
         style="fill:#000000;fill-opacity:1;fill-rule:nonzero;stroke:none"
         id="path16248"
         inkscape:connector-curvature="0" />
    </g>
    <g
       id="g16250"
       transform="matrix(0.22508348,0,0,-0.1851088,34.257411,272.74242)">
      <path
         d="m 0,0 c 2.125,-3.992 3.573,-8.344 5.001,-12.622 0.544,-1.627 1.339,-3.364 1.311,-5.104 -0.013,-0.795 -0.09,-1.593 -0.148,-2.386 -0.444,-6.099 -0.837,-12.431 -2.358,-18.37 -0.231,-0.903 1.166,-1.288 1.394,-0.385 1.249,4.946 1.651,10.163 2.017,15.236 0.133,1.836 0.261,3.675 0.317,5.514 0.08,2.584 -1.2,5.157 -2.065,7.544 C 4.11,-6.823 2.636,-3.091 0.606,0.354 0.377,0.746 -0.213,0.399 0,0"
         style="fill:#000000;fill-opacity:1;fill-rule:nonzero;stroke:none"
         id="path16252"
         inkscape:connector-curvature="0" />
    </g>
    <g
       id="g16254"
       transform="matrix(0.22508348,0,0,-0.1851088,42.894121,272.20769)">
      <path
         d="m 0,0 c 1.745,-2.762 4.029,-5.263 6.05,-7.83 1.112,-1.413 2.225,-2.826 3.336,-4.24 0.665,-0.846 1.411,-1.578 1.173,-2.742 -0.169,-0.826 -0.431,-1.641 -0.634,-2.459 -1.626,-6.55 -2.609,-13.217 -3.063,-19.948 0.474,0.064 0.947,0.128 1.42,0.192 -0.116,0.394 -0.283,0.704 -0.483,1.062 -0.17,0.305 -0.665,0.244 -0.75,-0.098 -0.099,-0.4 -0.179,-0.744 -0.187,-1.156 -0.018,-0.938 1.384,-0.921 1.446,0 0.495,7.346 1.746,14.545 3.338,21.724 0.273,1.225 0.205,2.117 -0.576,3.138 C 9.996,-10.953 8.814,-9.62 7.688,-8.258 5.328,-5.4 3.102,-2.244 0.46,0.354 0.228,0.583 -0.182,0.287 0,0"
         style="fill:#000000;fill-opacity:1;fill-rule:nonzero;stroke:none"
         id="path16256"
         inkscape:connector-curvature="0" />
    </g>
    <g
       id="g16258"
       transform="matrix(0.22508348,0,0,-0.1851088,49.808641,271.20787)">
      <path
         d="m 0,0 c 4.72,-5.15 9.992,-9.979 15.868,-13.79 0.503,-0.325 1.151,-0.62 1.286,-1.301 0.068,-0.342 -0.06,-0.931 -0.089,-1.276 -0.072,-0.872 -0.154,-1.743 -0.245,-2.614 -0.201,-1.944 -0.453,-3.881 -0.712,-5.818 -0.502,-3.762 -1.148,-7.505 -1.944,-11.216 -0.226,-1.053 1.39,-1.504 1.62,-0.446 0.856,3.932 1.536,7.898 2.07,11.885 0.258,1.931 0.448,3.873 0.607,5.815 0.116,1.419 0.725,3.764 -0.17,5.01 -0.479,0.669 -1.334,1.033 -2.011,1.46 -0.695,0.44 -1.381,0.898 -2.056,1.368 -1.734,1.206 -3.407,2.496 -5.036,3.837 C 6.224,-4.648 3.366,-2.058 0.58,0.58 0.195,0.944 -0.356,0.39 0,0"
         style="fill:#000000;fill-opacity:1;fill-rule:nonzero;stroke:none"
         id="path16260"
         inkscape:connector-curvature="0" />
    </g>
    <g
       id="g16262"
       transform="matrix(0.22508348,0,0,-0.1851088,55.361861,269.03337)">
      <path
         d="m 0,0 c 4.005,-3.566 8.773,-6.28 13.378,-8.982 2.103,-1.235 4.224,-2.444 6.358,-3.623 0.798,-0.441 1.96,-1.391 2.893,-1.527 0.607,-0.088 0.998,0.423 0.757,0.985 -0.453,1.053 -1.442,-0.075 -1.622,-0.639 -0.435,-1.352 -0.537,-2.852 -0.711,-4.252 -0.61,-4.906 -1.015,-9.838 -1.519,-14.756 -0.245,-2.389 -0.694,-4.806 -0.804,-7.2 -0.029,-0.667 0.981,-0.787 1.152,-0.156 0.589,2.168 0.664,4.563 0.902,6.791 0.311,2.897 0.592,5.797 0.89,8.696 0.257,2.509 0.508,5.021 0.854,7.519 0.113,0.806 0.228,1.616 0.397,2.412 0.038,0.18 0.201,0.528 0.179,0.712 -0.016,0.132 0.08,0.108 0.058,0.139 0.008,-0.012 -0.759,-0.332 -0.933,0.058 0.193,0.336 0.385,0.671 0.579,1.007 0.351,-0.046 0.246,-0.091 0.029,0.051 -0.186,0.121 -0.408,0.206 -0.606,0.308 -0.675,0.348 -1.346,0.704 -2.017,1.061 -2.137,1.142 -4.259,2.312 -6.366,3.508 C 9.317,-5.316 4.613,-2.716 0.497,0.497 0.15,0.768 -0.346,0.308 0,0"
         style="fill:#000000;fill-opacity:1;fill-rule:nonzero;stroke:none"
         id="path16264"
         inkscape:connector-curvature="0" />
    </g>
    <g
       id="g16266"
       transform="matrix(0.22508348,0,0,-0.1851088,6.6229205,281.23482)">
      <path
         d="m 0,0 c 5.411,-4.056 11.64,-6.865 18.268,-8.217 3.402,-0.694 6.884,-1.068 10.353,-1.205 3.657,-0.145 7.443,-0.256 11.077,0.209 0.394,0.051 0.409,0.591 0,0.625 -3.438,0.288 -6.92,0.026 -10.371,0.12 C 25.683,-8.37 22.05,-8.174 18.454,-7.541 11.827,-6.374 5.568,-3.753 0.079,0.135 -0.004,0.193 -0.079,0.059 0,0"
         style="fill:#000000;fill-opacity:1;fill-rule:nonzero;stroke:none"
         id="path16268"
         inkscape:connector-curvature="0" />
    </g>
    <g
       id="g16270"
       transform="matrix(0.22508348,0,0,-0.1851088,17.068641,283.35491)">
      <path
         d="m 0,0 c 16.594,-5.389 34.322,-8.821 51.764,-6.124 2.473,0.383 4.927,0.892 7.346,1.536 2.283,0.609 4.671,1.243 6.801,2.281 0.24,0.118 0.071,0.5 -0.181,0.428 C 63.666,-2.47 61.668,-3.273 59.595,-3.849 57.537,-4.419 55.451,-4.891 53.35,-5.268 49.091,-6.032 44.769,-6.405 40.443,-6.462 31.699,-6.575 22.981,-5.386 14.447,-3.541 9.601,-2.492 4.812,-1.197 0.072,0.264 -0.097,0.315 -0.167,0.054 0,0"
         style="fill:#000000;fill-opacity:1;fill-rule:nonzero;stroke:none"
         id="path16272"
         inkscape:connector-curvature="0" />
    </g>
    <g
       id="g16274"
       transform="matrix(0.22508348,0,0,-0.1851088,7.4674305,286.63028)">
      <path
         d="m 0,0 c 8.15,-4.812 17.547,-7.797 26.627,-10.279 4.536,-1.241 9.132,-2.321 13.781,-3.042 5.719,-0.888 11.551,-1.053 17.328,-1.019 3.789,0.023 7.576,0.166 11.358,0.378 3.786,0.212 7.67,0.296 11.421,0.862 0.331,0.05 0.245,0.579 -0.077,0.576 -3.446,-0.029 -6.916,-0.481 -10.357,-0.689 -3.289,-0.198 -6.581,-0.349 -9.876,-0.415 -6.068,-0.123 -12.218,-0.056 -18.245,0.725 -9.532,1.233 -18.995,3.915 -28.025,7.15 C 9.228,-4.066 4.526,-2.186 0.197,0.338 -0.021,0.465 -0.217,0.128 0,0"
         style="fill:#000000;fill-opacity:1;fill-rule:nonzero;stroke:none"
         id="path16276"
         inkscape:connector-curvature="0" />
    </g>
    <g
       id="g16278"
       transform="matrix(0.22508348,0,0,-0.1851088,12.783481,283.80013)">
      <path
         d="m 0,0 c -1.225,-5.511 -1.531,-11.193 -0.578,-16.768 0.021,-0.128 0.245,-0.1 0.229,0.032 -0.665,5.563 -0.623,11.198 0.462,16.705 C 0.128,0.042 0.017,0.074 0,0"
         style="fill:#000000;fill-opacity:1;fill-rule:nonzero;stroke:none"
         id="path16280"
         inkscape:connector-curvature="0" />
    </g>
    <g
       id="g16282"
       transform="matrix(0.22508348,0,0,-0.1851088,5.1135105,278.12179)">
      <path
         d="m 0,0 c -0.801,-5.477 0.384,-11.15 3.568,-15.7 0.128,-0.184 0.427,-0.016 0.304,0.177 C 0.936,-10.935 -0.466,-5.451 0.191,-0.026 0.205,0.082 0.016,0.108 0,0"
         style="fill:#000000;fill-opacity:1;fill-rule:nonzero;stroke:none"
         id="path16284"
         inkscape:connector-curvature="0" />
    </g>
    <g
       id="g16286"
       transform="matrix(0.22508348,0,0,-0.1851088,33.890111,283.89287)">
      <path
         d="m 0,0 c 4.221,-1.427 8.818,-2.043 13.235,-2.533 4.518,-0.502 9.073,-0.637 13.613,-0.464 9.047,0.346 18.053,1.945 26.657,4.768 4.8,1.575 9.66,3.429 14.012,6.014 0.486,0.288 0.061,0.965 -0.434,0.742 C 62.973,6.675 58.927,4.743 54.668,3.24 50.52,1.777 46.27,0.602 41.96,-0.281 33.217,-2.072 24.289,-2.588 15.391,-1.988 10.196,-1.638 5.185,-0.586 0.062,0.227 -0.084,0.249 -0.146,0.05 0,0"
         style="fill:#000000;fill-opacity:1;fill-rule:nonzero;stroke:none"
         id="path16288"
         inkscape:connector-curvature="0" />
    </g>
    <g
       id="g16290"
       transform="matrix(0.22508348,0,0,-0.1851088,27.887371,289.25018)">
      <path
         d="m 0,0 c 19.439,-7.171 41.281,-7.066 60.841,-0.348 2.61,0.897 5.18,1.913 7.699,3.04 2.616,1.171 5.319,2.349 7.581,4.124 C 76.379,7.019 76.1,7.488 75.798,7.372 73.553,6.507 71.481,5.289 69.306,4.265 66.894,3.13 64.431,2.106 61.927,1.193 57.218,-0.523 52.373,-1.839 47.452,-2.787 37.352,-4.732 26.919,-5.02 16.732,-3.578 11.079,-2.778 5.492,-1.546 0.062,0.226 -0.083,0.273 -0.14,0.051 0,0"
         style="fill:#000000;fill-opacity:1;fill-rule:nonzero;stroke:none"
         id="path16292"
         inkscape:connector-curvature="0" />
    </g>
    <g
       id="g16294"
       transform="matrix(0.22508348,0,0,-0.1851088,51.135401,282.13813)">
      <path
         d="m 0,0 c 4.68,-0.639 9.355,-0.579 14.033,0.065 4.682,0.646 9.691,1.726 13.946,3.844 0.314,0.156 0.095,0.684 -0.242,0.57 C 23.278,2.98 19.004,1.448 14.325,0.717 9.611,-0.02 4.782,-0.128 0.025,0.191 -0.082,0.198 -0.109,0.015 0,0"
         style="fill:#000000;fill-opacity:1;fill-rule:nonzero;stroke:none"
         id="path16296"
         inkscape:connector-curvature="0" />
    </g>
    <g
       id="g16298"
       transform="matrix(0.22508348,0,0,-0.1851088,48.434601,287.67242)">
      <path
         d="m 0,0 c 7.5,-2.26 15.468,-0.835 22.659,1.854 3.729,1.395 7.306,3.135 10.871,4.896 1.803,0.891 3.605,1.785 5.424,2.642 1.947,0.918 3.982,1.692 5.873,2.721 0.355,0.194 0.111,0.741 -0.271,0.643 C 40.9,11.821 37.421,9.802 34.058,8.141 30.425,6.348 26.794,4.516 23.037,2.99 15.823,0.061 7.797,-1.67 0.135,0.489 -0.181,0.578 -0.312,0.094 0,0"
         style="fill:#000000;fill-opacity:1;fill-rule:nonzero;stroke:none"
         id="path16300"
         inkscape:connector-curvature="0" />
    </g>
    <g
       id="g16302"
       transform="matrix(0.22508348,0,0,-0.1851088,33.362811,281.69832)">
      <path
         d="M 0,0 C 0.216,-2.77 0.039,-5.562 -0.357,-8.31 -0.399,-8.6 0.034,-8.735 0.094,-8.434 0.649,-5.647 0.678,-2.819 0.352,0 0.326,0.22 -0.019,0.229 0,0"
         style="fill:#000000;fill-opacity:1;fill-rule:nonzero;stroke:none"
         id="path16304"
         inkscape:connector-curvature="0" />
    </g>
    <g
       id="g16306"
       transform="matrix(0.22508348,0,0,-0.1851088,27.747361,286.23729)">
      <path
         d="m 0,0 c -0.118,-2.398 -0.376,-4.787 -0.793,-7.152 -0.406,-2.305 -1.096,-4.531 -1.572,-6.815 -0.069,-0.325 0.372,-0.437 0.489,-0.136 0.864,2.232 1.272,4.718 1.641,7.075 C 0.129,-4.7 0.348,-2.354 0.43,0 0.439,0.277 0.014,0.275 0,0"
         style="fill:#000000;fill-opacity:1;fill-rule:nonzero;stroke:none"
         id="path16308"
         inkscape:connector-curvature="0" />
    </g>
    <g
       id="g16310"
       transform="matrix(0.22508348,0,0,-0.1851088,47.170701,284.69315)">
      <path
         d="m 0,0 c 0.465,-3.056 0.631,-6.174 0.498,-9.262 -0.067,-1.581 -0.218,-3.159 -0.458,-4.723 -0.214,-1.39 -0.624,-2.785 -0.66,-4.195 -0.007,-0.242 0.361,-0.357 0.473,-0.128 0.663,1.368 0.834,2.954 1.037,4.445 0.209,1.526 0.34,3.062 0.39,4.601 C 1.382,-6.101 1.097,-2.968 0.489,0.135 0.426,0.459 -0.049,0.316 0,0"
         style="fill:#000000;fill-opacity:1;fill-rule:nonzero;stroke:none"
         id="path16312"
         inkscape:connector-curvature="0" />
    </g>
    <g
       id="g16314"
       transform="matrix(0.22508348,0,0,-0.1851088,50.810501,279.49889)">
      <path
         d="M 0,0 C 0.318,-1.184 0.521,-2.393 0.592,-3.617 0.661,-4.823 0.556,-6.019 0.515,-7.223 0.507,-7.464 0.878,-7.515 0.937,-7.279 1.242,-6.066 1.25,-4.793 1.174,-3.549 1.098,-2.297 0.891,-1.055 0.564,0.156 0.467,0.52 -0.099,0.365 0,0"
         style="fill:#000000;fill-opacity:1;fill-rule:nonzero;stroke:none"
         id="path16316"
         inkscape:connector-curvature="0" />
    </g>
    <g
       id="g16318"
       transform="matrix(0.22508348,0,0,-0.1851088,5.6526905,285.81736)">
      <path
         d="m 0,0 c -1.404,-0.131 -2.79,-0.383 -4.207,-0.418 -0.714,-0.018 -1.429,0.012 -2.139,0.087 -0.667,0.072 -1.393,0.344 -2.047,0.16 -0.21,-0.058 -0.325,-0.367 -0.137,-0.521 0.323,-0.268 0.586,-0.333 1,-0.393 0.343,-0.049 0.687,-0.091 1.032,-0.12 0.762,-0.065 1.528,-0.075 2.291,-0.032 1.456,0.081 2.973,0.341 4.257,1.055 C 0.13,-0.137 0.099,0.009 0,0"
         style="fill:#000000;fill-opacity:1;fill-rule:nonzero;stroke:none"
         id="path16320"
         inkscape:connector-curvature="0" />
    </g>
    <g
       id="g16322"
       transform="matrix(0.22508348,0,0,-0.1851088,6.6871105,282.97475)">
      <path
         d="m 0,0 c -0.678,-2.423 -1.086,-4.939 -1.131,-7.458 -0.023,-1.295 0.069,-2.598 0.231,-3.883 0.15,-1.193 0.297,-2.472 0.73,-3.598 0.066,-0.169 0.368,-0.167 0.346,0.046 -0.128,1.192 -0.435,2.359 -0.572,3.552 -0.142,1.245 -0.193,2.492 -0.193,3.744 0.001,2.54 0.281,5.046 0.89,7.514 C 0.35,0.112 0.054,0.194 0,0"
         style="fill:#000000;fill-opacity:1;fill-rule:nonzero;stroke:none"
         id="path16324"
         inkscape:connector-curvature="0" />
    </g>
    <g
       id="g16326"
       transform="matrix(0.22508348,0,0,-0.1851088,36.602341,290.66417)">
      <path
         d="m 0,0 c 0.722,-2.707 1.153,-5.479 1.259,-8.28 0.05,-1.331 0.028,-2.665 -0.064,-3.994 -0.093,-1.359 -0.474,-2.767 -0.442,-4.12 0.007,-0.297 0.4,-0.329 0.499,-0.067 0.454,1.21 0.447,2.754 0.518,4.033 0.078,1.433 0.074,2.869 -0.012,4.301 C 1.59,-5.342 1.107,-2.588 0.339,0.093 0.276,0.311 -0.059,0.219 0,0"
         style="fill:#000000;fill-opacity:1;fill-rule:nonzero;stroke:none"
         id="path16328"
         inkscape:connector-curvature="0" />
    </g>
    <g
       id="g16330"
       transform="matrix(0.22508348,0,0,-0.1851088,53.176971,288.76446)">
      <path
         d="m 0,0 c 0.79,-1.59 1.7,-3.023 2.213,-4.75 0.502,-1.691 0.749,-3.45 0.805,-5.212 0.063,-1.992 -0.103,-3.993 -0.377,-5.966 -0.245,-1.757 -0.788,-3.56 -0.796,-5.335 -10e-4,-0.277 0.371,-0.299 0.46,-0.061 0.709,1.885 0.856,4.123 1.083,6.12 0.224,1.976 0.324,3.97 0.164,5.955 C 3.302,-6.15 2.484,-2.124 0.123,0.094 0.057,0.156 -0.039,0.078 0,0"
         style="fill:#000000;fill-opacity:1;fill-rule:nonzero;stroke:none"
         id="path16332"
         inkscape:connector-curvature="0" />
    </g>
    <g
       id="g16334"
       transform="matrix(0.22508348,0,0,-0.1851088,20.997281,290.84549)">
      <path
         d="m 0,0 c -1.691,-2.938 -1.187,-6.743 -1.208,-10.002 -0.013,-1.973 -0.034,-3.945 -0.018,-5.919 0.018,-2.032 -0.104,-4.122 0.163,-6.138 0.022,-0.175 0.25,-0.175 0.273,0 0.248,1.874 0.144,3.81 0.161,5.7 0.018,1.9 0.005,3.799 -0.006,5.7 -0.02,3.433 -0.508,7.328 0.814,10.584 C 0.221,0.029 0.054,0.094 0,0"
         style="fill:#000000;fill-opacity:1;fill-rule:nonzero;stroke:none"
         id="path16336"
         inkscape:connector-curvature="0" />
    </g>
    <g
       id="g16338"
       transform="matrix(0.22508348,0,0,-0.1851088,8.8069405,288.39061)">
      <path
         d="m 0,0 c -1.181,-3.747 -1.596,-7.69 -1.599,-11.612 -0.002,-1.929 0.102,-3.863 0.357,-5.775 0.236,-1.772 0.411,-3.872 1.154,-5.51 0.105,-0.232 0.485,-0.115 0.473,0.127 -0.093,1.802 -0.685,3.629 -0.904,5.432 -0.229,1.901 -0.38,3.81 -0.406,5.726 -0.05,3.888 0.471,7.733 1.113,11.56 C 0.209,0.07 0.039,0.122 0,0"
         style="fill:#000000;fill-opacity:1;fill-rule:nonzero;stroke:none"
         id="path16340"
         inkscape:connector-curvature="0" />
    </g>
    <g
       id="g16342"
       transform="matrix(0.22508348,0,0,-0.1851088,16.955241,280.23499)">
      <path
         d="m 0,0 c -0.402,-0.376 -0.591,-0.955 -0.803,-1.454 -0.222,-0.523 -0.424,-1.055 -0.6,-1.596 -0.384,-1.173 -0.656,-2.376 -0.791,-3.602 -0.136,-1.228 -0.158,-2.467 -0.061,-3.698 0.087,-1.114 0.157,-2.463 0.656,-3.474 0.147,-0.298 0.629,-0.153 0.619,0.167 -0.019,0.569 -0.196,1.128 -0.288,1.689 -0.094,0.574 -0.16,1.153 -0.198,1.734 -0.078,1.154 -0.054,2.316 0.073,3.466 0.132,1.191 0.347,2.377 0.672,3.531 0.147,0.518 0.315,1.031 0.504,1.536 0.193,0.514 0.493,1.013 0.55,1.563 C 0.352,0.04 0.112,0.105 0,0"
         style="fill:#000000;fill-opacity:1;fill-rule:nonzero;stroke:none"
         id="path16344"
         inkscape:connector-curvature="0" />
    </g>
  </g>
</svg>
