<?xml version="1.0" encoding="UTF-8" standalone="no"?>
<!-- Created with Inkscape (http://www.inkscape.org/) -->

<svg
   xmlns:dc="http://purl.org/dc/elements/1.1/"
   xmlns:cc="http://creativecommons.org/ns#"
   xmlns:rdf="http://www.w3.org/1999/02/22-rdf-syntax-ns#"
   xmlns:svg="http://www.w3.org/2000/svg"
   xmlns="http://www.w3.org/2000/svg"
   xmlns:sodipodi="http://sodipodi.sourceforge.net/DTD/sodipodi-0.dtd"
   xmlns:inkscape="http://www.inkscape.org/namespaces/inkscape"
   width="74"
   height="74"
   viewBox="0 0 19.579166 19.579167"
   version="1.1"
   id="svg13558"
   inkscape:version="0.92.1 r15371"
   sodipodi:docname="mine_cart_night.svg">
  <defs
     id="defs13552">
    <clipPath
       clipPathUnits="userSpaceOnUse"
       id="clipPath10404">
      <path
         d="M 210.781,425.112 H 250.3 v -45.416 h -39.519 z"
         id="path10402"
         inkscape:connector-curvature="0" />
    </clipPath>
    <clipPath
       clipPathUnits="userSpaceOnUse"
       id="clipPath10404-5">
      <path
         d="M 210.781,425.112 H 250.3 v -45.416 h -39.519 z"
         id="path10402-9"
         inkscape:connector-curvature="0" />
    </clipPath>
    <clipPath
       clipPathUnits="userSpaceOnUse"
       id="clipPath10668">
      <path
         d="M 803.411,425.112 H 842.93 V 379.696 H 803.411 Z"
         id="path10666"
         inkscape:connector-curvature="0" />
    </clipPath>
  </defs>
  <sodipodi:namedview
     id="base"
     pagecolor="#ffffff"
     bordercolor="#666666"
     borderopacity="1.0"
     inkscape:pageopacity="0.0"
     inkscape:pageshadow="2"
     inkscape:zoom="44.8"
     inkscape:cx="10.561105"
     inkscape:cy="59.857996"
     inkscape:document-units="mm"
     inkscape:current-layer="layer1"
     showgrid="false"
     units="px"
     inkscape:window-width="1920"
     inkscape:window-height="1057"
     inkscape:window-x="-8"
     inkscape:window-y="-8"
     inkscape:window-maximized="1" />
  <metadata
     id="metadata13555">
    <rdf:RDF>
      <cc:Work
         rdf:about="">
        <dc:format>image/svg+xml</dc:format>
        <dc:type
           rdf:resource="http://purl.org/dc/dcmitype/StillImage" />
        <dc:title></dc:title>
      </cc:Work>
    </rdf:RDF>
  </metadata>
  <g
     inkscape:label="Layer 1"
     inkscape:groupmode="layer"
     id="layer1"
     transform="translate(0,-277.42082)">
    <g
       id="g10496"
       transform="matrix(0.05405782,0,0,-0.05386553,14.81199,288.44106)">
      <path
         d="m 0,0 v -0.25 h -0.065 c -5.523,-21.003 -10.414,-42.967 -12.873,-63.699 6.188,-3.254 11.57,-7.835 15.759,-13.372 h 9.616 c 2.059,34.277 12.035,72.263 22.609,108.326 H 8.685 C 5.783,21.117 2.813,10.684 0,0"
         style="fill:#8e542d;fill-opacity:1;fill-rule:nonzero;stroke:none"
         id="path10498"
         inkscape:connector-curvature="0" />
    </g>
    <g
       id="g10500"
       transform="matrix(0.05405782,0,0,-0.05386553,15.480112,294.13593)">
      <path
         d="m 0,0 c 0,-5.988 -1.134,-11.714 -3.178,-16.989 h 8.699 c 4.333,0 7.859,3.525 7.859,7.859 v 28.174 c 0,4.333 -3.526,7.858 -7.859,7.858 H -8.456 C -3.133,19.266 0,9.994 0,0"
         style="fill:#3a3c3f;fill-opacity:1;fill-rule:nonzero;stroke:none"
         id="path10502"
         inkscape:connector-curvature="0" />
    </g>
    <path
       d="m 17.409133,293.21627 h -1.124674 v 0.92041 h 1.124674 z"
       style="fill:#3a3c3f;fill-opacity:1;fill-rule:nonzero;stroke:none;stroke-width:0.0539616"
       id="path10504"
       inkscape:connector-curvature="0" />
    <g
       id="g10506"
       transform="matrix(0.05405782,0,0,-0.05386553,14.173376,293.85365)">
      <path
         d="m 0,0 c 0.219,-1.425 0.789,-5.829 0.04,-8.896 l 11.544,-3.909 c 0.565,1.413 2.246,6.689 0.473,15.979 z"
         style="fill:#363636;fill-opacity:1;fill-rule:nonzero;stroke:none"
         id="path10508"
         inkscape:connector-curvature="0" />
    </g>
    <g
       id="g10514"
       transform="matrix(0.05405782,0,0,-0.05386553,14.827564,294.60967)">
      <path
         d="m 0,0 -13.288,4.498 0.141,0.465 c 1.029,3.365 -0.002,9.294 -0.013,9.353 l -0.08,0.454 13.969,3.676 0.104,-0.519 C 3.188,6.245 0.321,0.611 0.198,0.378 Z m -3.236,-10.158 c -6.594,-9.926 -12.605,-11.883 -12.858,-11.961 l -0.407,-0.127 -6.215,12.578 0.429,0.228 c 3.109,1.654 6.569,6.574 6.603,6.624 l 0.264,0.378 12.478,-7.279 z m -31.868,4.638 c -7.892,0 -14.314,6.421 -14.314,14.315 0,7.893 6.422,14.315 14.314,14.315 7.894,0 14.316,-6.422 14.316,-14.315 0,-7.894 -6.422,-14.315 -14.316,-14.315 m 9.132,-21.621 c -3.38,-0.681 -6.255,-0.925 -8.637,-0.925 -5.853,0 -8.746,1.472 -8.912,1.56 l -0.377,0.198 4.499,13.288 0.464,-0.141 c 3.364,-1.029 9.293,0.004 9.354,0.014 l 0.453,0.08 3.676,-13.969 z m -27.643,3.775 -0.442,0.294 c -9.925,6.594 -11.882,12.605 -11.96,12.857 l -0.126,0.407 12.577,6.215 0.227,-0.428 c 1.654,-3.109 6.575,-6.57 6.624,-6.604 l 0.378,-0.264 z m -17.32,22.511 -0.104,0.519 c -2.356,11.681 0.512,17.315 0.635,17.548 l 0.198,0.378 13.288,-4.498 -0.142,-0.465 c -1.028,-3.364 0.003,-9.294 0.014,-9.354 l 0.08,-0.453 z m 3.965,28.603 c 6.594,9.926 12.605,11.883 12.858,11.961 l 0.407,0.127 6.215,-12.578 -0.429,-0.228 c -3.106,-1.652 -6.569,-6.574 -6.604,-6.623 l -0.264,-0.378 -12.477,7.278 z m 22.736,16.982 c 11.677,2.355 17.314,-0.51 17.549,-0.634 l 0.377,-0.199 -4.499,-13.288 -0.465,0.142 c -3.365,1.031 -9.293,-0.003 -9.353,-0.014 l -0.453,-0.08 -3.676,13.969 z m 27.643,-3.774 0.442,-0.294 c 9.925,-6.594 11.881,-12.605 11.96,-12.857 l 0.126,-0.409 -12.577,-6.213 -0.227,0.428 c -1.655,3.109 -6.575,6.57 -6.624,6.604 l -0.378,0.264 z m -18.513,13.013 c -24.909,0 -45.173,-20.265 -45.173,-45.174 0,-24.909 20.264,-45.174 45.173,-45.174 24.91,0 45.175,20.265 45.175,45.174 0,24.909 -20.265,45.174 -45.175,45.174"
         style="fill:#6d6d6c;fill-opacity:1;fill-rule:nonzero;stroke:none"
         id="path10516"
         inkscape:connector-curvature="0" />
    </g>
    <g
       id="g10518"
       transform="matrix(0.05405782,0,0,-0.05386553,10.596054,283.82346)">
      <path
         d="M 0,0 C -4.973,0 -12.673,-6.384 -16.236,-15.655 H 30.609 C 25.052,-6.7 6.418,0 0,0"
         style="fill:#db942c;fill-opacity:1;fill-rule:nonzero;stroke:none"
         id="path10520"
         inkscape:connector-curvature="0" />
    </g>
    <g
       id="g10522"
       transform="matrix(0.05405782,0,0,-0.05386553,12.796588,283.72327)">
      <path
         d="m 0,0 -0.017,-0.004 c -2.251,9.463 -9.117,16.844 -20.991,22.565 -5.573,2.685 -11.991,2.536 -17.166,-0.403 -4.198,-2.384 -7.903,-6.203 -10.753,-11.044 3.418,-3.501 6.029,-7.616 7.739,-11.51 0.159,0.011 0.325,0.036 0.481,0.036 6.075,0 26.763,-6.725 32.337,-17.155 h 3.162 C -5.081,-11.556 -3.108,-5.427 0,0"
         style="fill:#db942c;fill-opacity:1;fill-rule:nonzero;stroke:none"
         id="path10524"
         inkscape:connector-curvature="0" />
    </g>
    <g
       id="g10526"
       transform="matrix(0.05405782,0,0,-0.05386553,10.487042,283.75721)">
      <path
         d="m 0,0 c -4.05,8.947 -12.98,18.985 -25.521,18.985 -14.545,0 -26.66,-13.291 -29.506,-26.241 1.053,0.227 2.068,0.35 3.027,0.35 6.051,0 13.73,-3.911 19.647,-9.979 h 16.53 C -12.512,-7.762 -5.509,-1.333 0,0"
         style="fill:#db942c;fill-opacity:1;fill-rule:nonzero;stroke:none"
         id="path10528"
         inkscape:connector-curvature="0" />
    </g>
    <g
       id="g10530"
       transform="matrix(0.05405782,0,0,-0.05386553,12.596142,284.66672)">
      <path
         d="M 0,0 H 54.574 C 53.755,19.018 34.741,31.63 27.305,33.326 14.43,33.253 0.353,15.975 0,0"
         style="fill:#db942c;fill-opacity:1;fill-rule:nonzero;stroke:none"
         id="path10532"
         inkscape:connector-curvature="0" />
    </g>
    <g
       id="g10534"
       transform="matrix(0.05405782,0,0,-0.05386553,8.6227838,284.66672)">
      <path
         d="M 0,0 C -5.476,5.191 -12.196,8.479 -17.514,8.479 -22.172,8.479 -28.536,5.263 -34.429,0 Z"
         style="fill:#db942c;fill-opacity:1;fill-rule:nonzero;stroke:none"
         id="path10536"
         inkscape:connector-curvature="0" />
    </g>
    <g
       id="g10538"
       transform="matrix(0.05405782,0,0,-0.05386553,12.732343,295.37704)">
      <path
         d="m 0,0 -3.909,-11.544 c 1.414,-0.565 6.687,-2.246 15.978,-0.473 L 8.896,0.04 C 7.472,-0.18 3.07,-0.751 0,0"
         style="fill:#363636;fill-opacity:1;fill-rule:nonzero;stroke:none"
         id="path10540"
         inkscape:connector-curvature="0" />
    </g>
    <g
       id="g10542"
       transform="matrix(0.05405782,0,0,-0.05386553,11.684393,293.93898)">
      <path
         d="M 0,0 -11.544,3.908 C -12.109,2.495 -13.79,-2.78 -12.017,-12.069 L 0.04,-8.896 C -0.179,-7.472 -0.748,-3.067 0,0"
         style="fill:#363636;fill-opacity:1;fill-rule:nonzero;stroke:none"
         id="path10544"
         inkscape:connector-curvature="0" />
    </g>
    <g
       id="g10546"
       transform="matrix(0.05405782,0,0,-0.05386553,13.670962,295.15279)">
      <path
         d="m 0,0 5.398,-10.927 c 1.4,0.6 6.319,3.142 11.633,10.965 L 6.263,6.319 C 5.409,5.157 2.698,1.64 0,0"
         style="fill:#363636;fill-opacity:1;fill-rule:nonzero;stroke:none"
         id="path10548"
         inkscape:connector-curvature="0" />
    </g>
    <g
       id="g10550"
       transform="matrix(0.05405782,0,0,-0.05386553,12.188967,293.11905)">
      <path
         d="m 0,0 -5.398,10.927 c -1.4,-0.6 -6.319,-3.142 -11.633,-10.965 l 10.768,-6.28 C -5.409,-5.157 -2.698,-1.64 0,0"
         style="fill:#363636;fill-opacity:1;fill-rule:nonzero;stroke:none"
         id="path10552"
         inkscape:connector-curvature="0" />
    </g>
    <g
       id="g10554"
       transform="matrix(0.05405782,0,0,-0.05386553,11.909441,294.8743)">
      <path
         d="m 0,0 -10.926,-5.398 c 0.6,-1.4 3.141,-6.318 10.964,-11.633 L 6.319,-6.263 C 5.157,-5.409 1.64,-2.697 0,0"
         style="fill:#363636;fill-opacity:1;fill-rule:nonzero;stroke:none"
         id="path10556"
         inkscape:connector-curvature="0" />
    </g>
    <g
       id="g10558"
       transform="matrix(0.05405782,0,0,-0.05386553,12.929939,293.44561)">
      <path
         d="m 0,0 c -7.065,0 -12.814,-5.749 -12.814,-12.815 0,-7.067 5.749,-12.816 12.814,-12.816 7.066,0 12.815,5.749 12.815,12.816 C 12.815,-5.749 7.066,0 0,0"
         style="fill:#6d6d6c;fill-opacity:1;fill-rule:nonzero;stroke:none"
         id="path10560"
         inkscape:connector-curvature="0" />
    </g>
    <g
       id="g10562"
       transform="matrix(0.05405782,0,0,-0.05386553,11.036012,282.33911)">
      <path
         d="m 0,0 c 4.048,0.674 8.32,0.089 12.211,-1.784 11.714,-5.644 18.728,-12.905 21.415,-22.154 4.255,6.689 10.208,12.077 16.388,14.362 -2.262,10.297 -9.28,17.97 -23.3,25.493 -4.502,2.415 -9.901,2.691 -14.443,0.741 C 5.398,13.704 1.07,7.804 0,0"
         style="fill:#db942c;fill-opacity:1;fill-rule:nonzero;stroke:none"
         id="path10564"
         inkscape:connector-curvature="0" />
    </g>
    <g
       id="g10566"
       transform="matrix(0.05405782,0,0,-0.05386553,17.725359,286.25546)">
      <path
         d="m 0,0 h -291.549 c 0.198,-4.482 3.897,-8.07 8.427,-8.07 H -8.426 c 4.53,0 8.228,3.588 8.426,8.07"
         style="fill:#3a3c3f;fill-opacity:1;fill-rule:nonzero;stroke:none"
         id="path10568"
         inkscape:connector-curvature="0" />
    </g>
    <g
       id="g10570"
       transform="matrix(0.05405782,0,0,-0.05386553,3.7842646,281.98417)">
      <path
         d="m 0,0 c 6.191,1.845 11.269,4.942 16.641,8.219 1.546,0.944 3.142,1.918 4.788,2.874 -0.795,1.367 -2.512,2.129 -3.942,2.393 L 17.478,13.392 9.73,9.513 C 8.796,9.174 7.914,8.761 6.98,8.323 5.124,7.453 3.205,6.552 1.237,6.446 1.067,6.437 0.898,6.433 0.729,6.433 c -2.32,0 -4.621,0.825 -6.85,1.625 -0.888,0.317 -1.805,0.647 -2.687,0.907 l -10.457,3.092 -0.011,0.075 C -21.19,11.49 -22.248,10.737 -22.244,9.996 -22.227,6.696 -6.796,2.051 -1.726,0.525 -1.023,0.313 -0.437,0.137 0,0"
         style="fill:#3a3c3f;fill-opacity:1;fill-rule:nonzero;stroke:none"
         id="path10572"
         inkscape:connector-curvature="0" />
    </g>
    <g
       id="g10574"
       transform="matrix(0.05405782,0,0,-0.05386553,1.5220225,294.68095)">
      <path
         d="m 0,0 c 0.927,-0.6 2.082,-0.687 3.087,-0.235 l 8.131,3.654 C 12.38,3.94 13.13,5.1 13.13,6.373 v 23.423 c 0,1.184 -0.646,2.273 -1.686,2.842 l -8.131,4.444 c -0.49,0.268 -1.023,0.401 -1.554,0.401 -0.57,0 -1.138,-0.152 -1.652,-0.457 -0.994,-0.589 -1.586,-1.63 -1.586,-2.786 V 2.719 C -1.479,1.615 -0.927,0.599 0,0"
         style="fill:#3a3c3f;fill-opacity:1;fill-rule:nonzero;stroke:none"
         id="path10576"
         inkscape:connector-curvature="0" />
    </g>
    <g
       id="g10578"
       transform="matrix(0.05405782,0,0,-0.05386553,3.3234567,281.44959)">
      <path
         d="m 0,0 c 0.91,-0.269 1.841,-0.603 2.74,-0.925 2.299,-0.825 4.683,-1.681 6.967,-1.554 1.774,0.095 3.604,0.953 5.373,1.783 0.914,0.428 1.858,0.871 2.782,1.202 L 25.061,4.114 29.657,51.5 26.586,51.216 26.889,51.187 22.838,9.133 10.324,4.522 -8.139,9.301 l -6.573,40.769 -2.311,0.051 7.175,-47.21 z"
         style="fill:#3a3c3f;fill-opacity:1;fill-rule:nonzero;stroke:none"
         id="path10580"
         inkscape:connector-curvature="0" />
    </g>
    <g
       id="g10582"
       transform="matrix(0.05405782,0,0,-0.05386553,3.8157835,278.72425)">
      <path
         d="M 0,0 0.674,18.396 -23.568,18.336 -32.287,0.66 -0.432,-0.04 Z"
         style="fill:#3a3c3f;fill-opacity:1;fill-rule:nonzero;stroke:none"
         id="path10584"
         inkscape:connector-curvature="0" />
    </g>
    <g
       id="g10586"
       transform="matrix(0.05405782,0,0,-0.05386553,3.9046305,295.05106)">
      <path
         d="M 0,0 H 10.265 C 8.221,5.275 7.087,11.001 7.087,16.989 c 0,9.994 3.133,19.266 8.455,26.903 L 0,43.892 c -4.333,0 -7.858,-3.526 -7.858,-7.859 V 7.859 C -7.858,3.525 -4.333,0 0,0"
         style="fill:#3a3c3f;fill-opacity:1;fill-rule:nonzero;stroke:none"
         id="path10588"
         inkscape:connector-curvature="0" />
    </g>
    <g
       id="g10590"
       transform="matrix(0.05405782,0,0,-0.05386553,5.7297151,291.84764)">
      <path
         d="m 0,0 c -3.774,31.172 -12.969,65.07 -21.532,94.247 h -26.361 c 10.575,-36.059 20.549,-74.042 22.61,-108.326 h 8.146 C -12.639,-8.134 -6.77,-3.28 0,0"
         style="fill:#8e542d;fill-opacity:1;fill-rule:nonzero;stroke:none"
         id="path10592"
         inkscape:connector-curvature="0" />
    </g>
    <g
       id="g10594"
       transform="matrix(0.05405782,0,0,-0.05386553,17.726414,286.21506)">
      <path
         d="m 0,0 v 18.799 c 0,4.657 -3.788,8.446 -8.445,8.446 h -246.723 l -0.011,-0.004 c -0.001,0.001 -0.001,0.002 -0.001,0.004 h -27.961 c -4.657,0 -8.446,-3.789 -8.446,-8.446 V 0 Z"
         style="fill:#3a3c3f;fill-opacity:1;fill-rule:nonzero;stroke:none"
         id="path10596"
         inkscape:connector-curvature="0" />
    </g>
    <g
       id="g10598"
       transform="matrix(0.05405782,0,0,-0.05386553,3.8824561,284.42969)">
      <path
         d="m 0,0 c 0,3.711 1.552,7.562 3.995,11.228 v 17.256 c -2.022,-1.386 -4.007,-1.881 -5.796,-1.881 -2.73,0 -4.998,1.13 -6.261,1.928 V -4.4 H 0.496 C 0.169,-3.003 0,-1.531 0,0"
         style="fill:#3a3c3f;fill-opacity:1;fill-rule:nonzero;stroke:none"
         id="path10600"
         inkscape:connector-curvature="0" />
    </g>
    <g
       id="g10602"
       transform="matrix(0.05405782,0,0,-0.05386553,3.7650225,278.77954)"
       style="fill:#ff6600">
      <path
         d="m 0,0 c -0.639,0.014 -1.279,0.028 -1.918,0.042 -1.044,0.023 -2.087,0.046 -3.131,0.069 -0.282,0.006 -0.556,0.001 -0.827,0.059 -0.186,0.04 -0.382,0.017 -0.572,0.055 -0.36,0.071 -0.72,0.073 -1.084,0.103 -0.151,0.012 -0.535,0.078 -0.656,-0.049 -0.146,-0.154 0.105,-0.642 0.213,-0.815 0.118,-0.185 0.238,-0.36 0.288,-0.579 0.075,-0.324 0.012,-0.663 0.126,-0.98 0.105,-0.292 0.273,-0.545 0.409,-0.82 0.075,-0.152 0.048,-0.324 0.262,-0.338 0.088,-0.007 0.182,0.015 0.274,0.01 0.152,-0.008 0.304,-0.019 0.456,-0.028 0.451,-0.029 0.902,-0.057 1.353,-0.085 1.085,-0.069 2.17,-0.137 3.255,-0.206 0.096,-0.005 1.684,-0.08 1.685,-0.105 C 0.133,-3.667 0,0 0,0"
         style="fill:#ff6600;fill-opacity:1;fill-rule:nonzero;stroke:none"
         id="path10604"
         inkscape:connector-curvature="0" />
    </g>
    <g
       id="g10606"
       transform="matrix(0.05405782,0,0,-0.05386553,4.0984226,282.14522)">
      <path
         d="M 0,0 V 4.102 C -1.807,3.298 -3.677,2.575 -5.676,1.987 L -5.822,1.944 -5.968,1.99 c -0.444,0.142 -1.079,0.333 -1.857,0.567 -1.415,0.426 -2.834,0.862 -4.232,1.307 V 0.003 C -10.574,-1.089 -5.442,-4.214 0,0"
         style="fill:#a8a19e;fill-opacity:1;fill-rule:nonzero;stroke:none"
         id="path10608"
         inkscape:connector-curvature="0" />
    </g>
    <g
       id="g10610"
       transform="matrix(0.05405782,0,0,-0.05386553,4.0984226,282.82892)">
      <path
         d="M 0,0 V 5.614 C -2.022,4.229 -4.007,3.733 -5.796,3.733 c -2.73,0 -4.998,1.131 -6.261,1.928 V 0.003 C -10.574,-1.089 -5.442,-4.214 0,0"
         style="fill:#a8a19e;fill-opacity:1;fill-rule:nonzero;stroke:none"
         id="path10612"
         inkscape:connector-curvature="0" />
    </g>
    <g
       id="g10614"
       transform="matrix(0.05405782,0,0,-0.05386553,3.4466678,282.20918)">
      <path
         d="m 0,0 v -4.654 c 1.483,-1.092 6.614,-4.218 12.057,-0.003 v 4.611 C 10.035,-1.432 8.05,-1.928 6.261,-1.928 3.531,-1.928 1.263,-0.797 0,0"
         style="fill:#a8a19e;fill-opacity:1;fill-rule:nonzero;stroke:none"
         id="path10616"
         inkscape:connector-curvature="0" />
    </g>
    <g
       id="g10618"
       transform="matrix(0.05405782,0,0,-0.05386553,7.2749528,284.22743)">
      <path
         d="M 0,0 C 0.944,0.42 1.872,0.773 2.775,1.05 5.341,14.271 17.343,28.07 32.07,29.14 29.78,41.734 11.868,54.308 4.891,55.682 -8.152,55.626 -22.442,40.518 -22.442,26.756 c 0,-0.501 0.037,-0.985 0.074,-1.466 C -10.755,21.525 -2.072,10.642 0,0"
         style="fill:#db942c;fill-opacity:1;fill-rule:nonzero;stroke:none"
         id="path10620"
         inkscape:connector-curvature="0" />
    </g>
    <g
       id="g10622"
       transform="matrix(0.05405782,0,0,-0.05386553,3.8701028,278.71923)">
      <path
         d="M 0,0 25.336,2.354 17.539,18.347 0.67,18.306 Z"
         style="fill:#3a3c3f;fill-opacity:1;fill-rule:nonzero;stroke:none"
         id="path10624"
         inkscape:connector-curvature="0" />
    </g>
    <g
       id="g10626"
       transform="matrix(0.05405782,0,0,-0.05386553,4.1745767,283.85707)">
      <path
         d="m 0,0 c -2.383,-3.499 -3.904,-7.154 -3.904,-10.63 0,-1.543 0.189,-3.016 0.546,-4.401 h 49.004 c 3.39,3.225 6.928,5.773 10.306,7.489 C 53.689,5.123 41.545,18.295 26.343,18.295 20.083,18.295 6.768,9.836 0.091,0.133 V 0 Z"
         style="fill:#db942c;fill-opacity:1;fill-rule:nonzero;stroke:none"
         id="path10628"
         inkscape:connector-curvature="0" />
    </g>
    <g
       id="g10630"
       transform="matrix(0.05405782,0,0,-0.05386553,3.9624617,278.76463)"
       style="fill:#ff6600">
      <path
         d="m 0,0 -2.625,-0.244 0.133,-3.652 2.517,0.313 C -0.336,-2.417 -0.324,-1.201 0,0"
         style="fill:#ff6600;fill-opacity:1;fill-rule:nonzero;stroke:none"
         id="path10632"
         inkscape:connector-curvature="0" />
    </g>
    <g
       id="g10634"
       transform="matrix(0.05405782,0,0,-0.05386553,3.1744028,279.50846)"
       style="fill:#ff6600">
      <path
         d="m 0,0 c -0.158,-0.669 -0.263,-1.348 -0.297,-2.035 -0.057,-1.172 0.09,-2.328 0.505,-3.428 1.334,-3.537 5.204,-5.535 8.821,-5.737 0.934,-0.052 1.869,0.022 2.787,0.186 L 11.115,8.316 4,8.763 C 3.75,6.555 2.648,4.346 1.443,2.541 0.884,1.704 0.234,0.995 0,0"
         style="fill:#ff6600;fill-opacity:1;fill-rule:nonzero;stroke:none"
         id="path10636"
         inkscape:connector-curvature="0" />
    </g>
    <g
       id="g10638"
       transform="matrix(0.05405782,0,0,-0.05386553,9.0901928,282.65427)">
      <path
         d="m 0,0 c 0.106,0.001 0.211,0.009 0.318,0.009 7.327,0 13.472,-3.211 18.221,-7.662 2.958,4.916 6.777,8.809 11.11,11.27 1.513,0.859 3.124,1.49 4.789,1.909 0.755,6.41 3.545,11.66 8.035,15.258 C 37.446,36.042 31.655,44.912 25.711,46.444 13.194,46.378 -8.203,32.929 -10.512,16.909 -5.361,12.042 -1.028,6.072 0,0"
         style="fill:#db942c;fill-opacity:1;fill-rule:nonzero;stroke:none"
         id="path10640"
         inkscape:connector-curvature="0" />
    </g>
    <g
       id="g10642"
       transform="matrix(0.05405782,0,0,-0.05386553,4.2343373,279.82764)"
       style="fill:#ff6600">
      <path
         d="m 0,0 c 1.165,1.858 2.321,4.239 1.861,6.487 -0.378,1.845 -1.675,3.304 -2.974,4.588 -1.134,1.12 -2.35,2.238 -3.195,3.608 L -7.465,14.291 -6.771,-4.851 C -4.021,-4.113 -1.533,-2.446 0,0"
         style="fill:#ff6600;fill-opacity:1;fill-rule:nonzero;stroke:none"
         id="path10644"
         inkscape:connector-curvature="0" />
    </g>
    <g
       id="g10646"
       transform="matrix(0.05405782,0,0,-0.05386553,4.0152766,278.95131)">
      <path
         d="M 0,0 12.748,1.581 13.054,4.768 0.11,3.566 C -0.369,2.229 -0.343,1.062 0,0"
         style="fill:#ffffff;fill-opacity:1;fill-rule:nonzero;stroke:none"
         id="path10648"
         inkscape:connector-curvature="0" />
    </g>
    <g
       id="g10650"
       transform="matrix(0.05405782,0,0,-0.05386553,3.3066437,278.76952)">
      <path
         d="M 0,0 -13.356,0.292 -12.905,-2.5 0.817,-3.363 C 0.749,-2.38 0.516,-1.4 0.162,-0.395 0.088,-0.273 0.036,-0.14 0,0"
         style="fill:#ffffff;fill-opacity:1;fill-rule:nonzero;stroke:none"
         id="path10652"
         inkscape:connector-curvature="0" />
    </g>
    <g
       id="g10654"
       transform="matrix(0.05405782,0,0,-0.05386553,3.8510243,281.14086)">
      <path
         d="m 0,0 -0.642,17.699 c -1.51,-0.254 -3.074,-0.255 -4.602,0.008 -3.954,0.683 -7.522,3.375 -8.444,7.413 -0.45,1.97 0.119,5 1.168,6.789 0.575,0.978 0.822,1.647 1.427,2.619 0.545,0.874 1.029,1.793 1.376,2.764 0.222,0.62 0.615,1.478 0.687,2.077 l -13.694,0.593 5.734,-35.565 z"
         style="fill:#ffffff;fill-opacity:1;fill-rule:nonzero;stroke:none"
         id="path10656"
         inkscape:connector-curvature="0" />
    </g>
    <g
       id="g10658"
       transform="matrix(0.05405782,0,0,-0.05386553,4.6961747,278.95095)">
      <path
         d="m 0,0 -11.909,-1.476 c 1.253,-2.043 3.459,-3.773 4.84,-5.808 1.108,-1.63 1.481,-3.516 1.01,-5.439 -0.291,-1.193 -0.86,-2.338 -1.363,-3.453 -0.48,-1.064 -1.111,-2.047 -1.867,-2.937 -1.576,-1.857 -3.684,-3.037 -5.967,-3.615 l 0.649,-17.871 11.09,4.086 z"
         style="fill:#ffffff;fill-opacity:1;fill-rule:nonzero;stroke:none"
         id="path10660"
         inkscape:connector-curvature="0" />
    </g>
    <g
       transform="matrix(0.05405782,0,0,-0.05386553,-40.846019,301.59339)"
       id="g10662"
       style="fill:#ffff00">
      <g
         id="g10664"
         style="fill:#ffff00" />
      <g
         id="g10688"
         style="fill:#ffff00">
        <g
           clip-path="url(#clipPath10668)"
           id="g10686"
           style="opacity:0.78999299;fill:#ffff00">
          <g
             transform="translate(829.876,420.3444)"
             id="g10672"
             style="fill:#ffff00">
            <path
               d="M 0,0 12.748,1.581 13.054,4.768 0.11,3.566 C -0.369,2.229 -0.343,1.062 0,0"
               style="fill:#ffff00;fill-opacity:1;fill-rule:nonzero;stroke:none"
               id="path10670"
               inkscape:connector-curvature="0" />
          </g>
          <g
             transform="translate(816.7672,423.7194)"
             id="g10676"
             style="fill:#ffff00">
            <path
               d="M 0,0 -13.356,0.292 -12.905,-2.5 0.817,-3.363 C 0.749,-2.38 0.516,-1.4 0.162,-0.395 0.088,-0.273 0.036,-0.14 0,0"
               style="fill:#ffff00;fill-opacity:1;fill-rule:nonzero;stroke:none"
               id="path10674"
               inkscape:connector-curvature="0" />
          </g>
          <g
             transform="translate(826.8375,379.696)"
             id="g10680"
             style="fill:#ffff00">
            <path
               d="m 0,0 -0.642,17.699 c -1.51,-0.254 -3.074,-0.255 -4.602,0.008 -3.954,0.683 -7.522,3.375 -8.444,7.413 -0.45,1.97 0.119,5 1.168,6.789 0.575,0.978 0.822,1.647 1.427,2.619 0.545,0.874 1.029,1.793 1.376,2.764 0.222,0.62 0.615,1.478 0.687,2.077 l -13.694,0.593 5.734,-35.565 z"
               style="fill:#ffff00;fill-opacity:1;fill-rule:nonzero;stroke:none"
               id="path10678"
               inkscape:connector-curvature="0" />
          </g>
          <g
             transform="translate(842.4717,420.3512)"
             id="g10684"
             style="fill:#ffff00">
            <path
               d="m 0,0 -11.909,-1.476 c 1.253,-2.043 3.459,-3.773 4.84,-5.808 1.108,-1.63 1.481,-3.516 1.01,-5.439 -0.291,-1.193 -0.86,-2.338 -1.363,-3.453 -0.48,-1.064 -1.111,-2.047 -1.867,-2.937 -1.576,-1.857 -3.684,-3.037 -5.967,-3.615 l 0.649,-17.871 11.09,4.086 z"
               style="fill:#ffff00;fill-opacity:1;fill-rule:nonzero;stroke:none"
               id="path10682"
               inkscape:connector-curvature="0" />
          </g>
        </g>
      </g>
    </g>
    <g
       id="g10690"
       transform="matrix(0.05405782,0,0,-0.05386553,17.593542,294.46064)">
      <path
         d="m 0,0 8.131,-3.654 c 1.007,-0.453 2.161,-0.366 3.087,0.235 0.927,0.599 1.479,1.615 1.479,2.719 v 31.521 c 0,1.156 -0.593,2.198 -1.587,2.786 -0.992,0.589 -2.19,0.61 -3.205,0.056 L -0.227,29.219 C -1.266,28.65 -1.911,27.562 -1.911,26.377 V 2.954 C -1.911,1.681 -1.161,0.521 0,0"
         style="fill:#3a3c3f;fill-opacity:1;fill-rule:nonzero;stroke:none"
         id="path10692"
         inkscape:connector-curvature="0" />
    </g>
    <g
       id="g10694"
       transform="matrix(0.05405782,0,0,-0.05386553,7.8583468,293.39754)">
      <path
         d="m 0,0 10.927,5.398 c -0.6,1.4 -3.142,6.319 -10.965,11.633 L -6.318,6.263 C -5.157,5.409 -1.64,2.697 0,0"
         style="fill:#363636;fill-opacity:1;fill-rule:nonzero;stroke:none"
         id="path10696"
         inkscape:connector-curvature="0" />
    </g>
    <path
       d="M 3.3987483,293.25242 H 2.3128874 v 0.9204 h 1.0858609 z"
       style="fill:#3a3c3f;fill-opacity:1;fill-rule:nonzero;stroke:none;stroke-width:0.0539616"
       id="path10698"
       inkscape:connector-curvature="0" />
    <g
       id="g10700"
       transform="matrix(0.05405782,0,0,-0.05386553,7.0354988,292.8948)">
      <path
         d="m 0,0 3.908,11.544 c -1.413,0.565 -6.688,2.243 -15.977,0.473 L -8.896,-0.04 C -7.471,0.179 -3.066,0.747 0,0"
         style="fill:#363636;fill-opacity:1;fill-rule:nonzero;stroke:none"
         id="path10702"
         inkscape:connector-curvature="0" />
    </g>
    <g
       id="g10704"
       transform="matrix(0.05405782,0,0,-0.05386553,5.5923014,293.93898)">
      <path
         d="M 0,0 -11.544,3.908 C -12.109,2.495 -13.79,-2.78 -12.017,-12.069 L 0.04,-8.896 C -0.179,-7.472 -0.748,-3.067 0,0"
         style="fill:#363636;fill-opacity:1;fill-rule:nonzero;stroke:none"
         id="path10706"
         inkscape:connector-curvature="0" />
    </g>
    <g
       id="g10708"
       transform="matrix(0.05405782,0,0,-0.05386553,6.0968232,293.11905)">
      <path
         d="m 0,0 -5.398,10.927 c -1.4,-0.6 -6.318,-3.142 -11.633,-10.965 l 10.768,-6.28 C -5.409,-5.157 -2.697,-1.64 0,0"
         style="fill:#363636;fill-opacity:1;fill-rule:nonzero;stroke:none"
         id="path10710"
         inkscape:connector-curvature="0" />
    </g>
    <g
       id="g10712"
       transform="matrix(0.05405782,0,0,-0.05386553,5.8173493,294.8743)">
      <path
         d="m 0,0 -10.927,-5.398 c 0.6,-1.4 3.142,-6.318 10.965,-11.633 L 6.319,-6.263 C 5.157,-5.409 1.64,-2.697 0,0"
         style="fill:#363636;fill-opacity:1;fill-rule:nonzero;stroke:none"
         id="path10714"
         inkscape:connector-curvature="0" />
    </g>
    <g
       id="g10716"
       transform="matrix(0.05405782,0,0,-0.05386553,13.950491,293.39754)">
      <path
         d="m 0,0 10.926,5.398 c -0.6,1.4 -3.141,6.319 -10.964,11.633 L -6.319,6.263 C -5.157,5.409 -1.64,2.697 0,0"
         style="fill:#363636;fill-opacity:1;fill-rule:nonzero;stroke:none"
         id="path10718"
         inkscape:connector-curvature="0" />
    </g>
    <g
       id="g10720"
       transform="matrix(0.05405782,0,0,-0.05386553,8.0812308,293.85365)">
      <path
         d="m 0,0 c 0.219,-1.425 0.789,-5.829 0.04,-8.896 l 11.544,-3.909 c 0.566,1.413 2.248,6.689 0.473,15.979 z"
         style="fill:#363636;fill-opacity:1;fill-rule:nonzero;stroke:none"
         id="path10722"
         inkscape:connector-curvature="0" />
    </g>
    <g
       id="g10724"
       transform="matrix(0.05405782,0,0,-0.05386553,10.83689,292.68681)">
      <path
         d="m 0,0 h -35.259 c 5.323,-7.637 8.456,-16.908 8.456,-26.902 0,-5.989 -1.134,-11.714 -3.177,-16.99 h 24.703 c -2.045,5.276 -3.178,11.001 -3.178,16.99 0,9.994 3.133,19.265 8.455,26.902"
         style="fill:#3a3c3f;fill-opacity:1;fill-rule:nonzero;stroke:none"
         id="path10726"
         inkscape:connector-curvature="0" />
    </g>
    <g
       id="g10728"
       transform="matrix(0.05405782,0,0,-0.05386553,6.8378468,291.59488)">
      <path
         d="M 0,0 C 15.355,0 29.017,-7.378 37.636,-18.771 H 75.059 C 83.679,-7.378 97.34,0 112.696,0 c 7.325,0 14.266,-1.679 20.458,-4.672 0.971,8.051 2.303,16.28 3.891,24.564 H -22.879 C -21.333,11.823 -20.034,3.81 -19.07,-4.041 -13.234,-1.451 -6.785,0 0,0"
         style="fill:#8e542d;fill-opacity:1;fill-rule:nonzero;stroke:none"
         id="path10730"
         inkscape:connector-curvature="0" />
    </g>
    <g
       id="g10732"
       transform="matrix(0.05405782,0,0,-0.05386553,8.7354378,294.60967)">
      <path
         d="m 0,0 -13.289,4.498 0.142,0.465 c 1.028,3.365 -0.003,9.294 -0.014,9.353 l -0.08,0.454 13.97,3.676 0.104,-0.519 C 3.189,6.245 0.321,0.611 0.198,0.377 Z M -3.236,-10.158 C -9.83,-20.084 -15.84,-22.041 -16.093,-22.119 l -0.407,-0.127 -6.215,12.578 0.428,0.228 c 3.109,1.654 6.57,6.575 6.604,6.624 l 0.264,0.378 12.477,-7.279 z m -31.867,4.638 c -7.894,0 -14.315,6.421 -14.315,14.315 0,7.893 6.421,14.315 14.315,14.315 7.894,0 14.315,-6.422 14.315,-14.315 0,-7.894 -6.421,-14.315 -14.315,-14.315 m 9.132,-21.621 c -3.38,-0.681 -6.255,-0.925 -8.638,-0.925 -5.852,0 -8.745,1.472 -8.911,1.56 l -0.378,0.198 4.498,13.288 0.465,-0.141 c 3.365,-1.029 9.294,0.004 9.353,0.014 l 0.454,0.08 3.676,-13.969 z m -27.644,3.775 -0.441,0.294 c -9.926,6.594 -11.883,12.604 -11.961,12.857 l -0.127,0.407 12.578,6.215 0.228,-0.428 c 1.654,-3.109 6.575,-6.57 6.624,-6.604 l 0.378,-0.264 z m -17.319,22.511 -0.105,0.519 c -2.355,11.681 0.512,17.315 0.635,17.548 l 0.198,0.378 13.289,-4.498 -0.142,-0.465 c -1.028,-3.364 0.003,-9.294 0.014,-9.354 l 0.08,-0.453 z m 3.964,28.603 c 6.595,9.926 12.604,11.883 12.857,11.961 l 0.407,0.127 6.215,-12.578 -0.428,-0.228 c -3.106,-1.652 -6.57,-6.574 -6.604,-6.623 l -0.265,-0.378 -12.476,7.278 z m 22.736,16.982 c 11.681,2.358 17.314,-0.51 17.549,-0.634 l 0.377,-0.199 -4.498,-13.288 -0.465,0.142 c -3.364,1.031 -9.294,-0.003 -9.354,-0.014 l -0.453,-0.08 -3.675,13.969 z m 27.643,-3.774 0.441,-0.294 C -6.224,34.068 -4.267,28.058 -4.189,27.805 l 0.127,-0.408 -12.578,-6.214 -0.228,0.428 c -1.652,3.106 -6.574,6.57 -6.623,6.604 l -0.378,0.264 z m -18.512,13.013 c -24.909,0 -45.174,-20.265 -45.174,-45.174 0,-24.909 20.265,-45.174 45.174,-45.174 24.909,0 45.174,20.265 45.174,45.174 0,24.909 -20.265,45.174 -45.174,45.174"
         style="fill:#6d6d6c;fill-opacity:1;fill-rule:nonzero;stroke:none"
         id="path10734"
         inkscape:connector-curvature="0" />
    </g>
    <g
       id="g10736"
       transform="matrix(0.05405782,0,0,-0.05386553,4.6502184,286.77097)">
      <path
         d="m 0,0 c 2.833,-9.661 5.728,-19.835 8.477,-30.255 h 178.148 c 2.749,10.42 5.644,20.594 8.477,30.255 z"
         style="fill:#8e542d;fill-opacity:1;fill-rule:nonzero;stroke:none"
         id="path10738"
         inkscape:connector-curvature="0" />
    </g>
    <g
       id="g10740"
       transform="matrix(0.05405782,0,0,-0.05386553,14.256839,290.46954)">
      <path
         d="m 0,0 c 2.429,12.509 5.428,25.119 8.652,37.408 h -177.623 c 3.225,-12.289 6.224,-24.899 8.653,-37.408 z"
         style="fill:#8e542d;fill-opacity:1;fill-rule:nonzero;stroke:none"
         id="path10742"
         inkscape:connector-curvature="0" />
    </g>
    <g
       id="g10744"
       transform="matrix(0.05405782,0,0,-0.05386553,13.127591,292.8948)">
      <path
         d="m 0,0 3.909,11.544 c -1.414,0.564 -6.69,2.245 -15.978,0.473 L -8.896,-0.04 C -7.472,0.179 -3.069,0.749 0,0"
         style="fill:#363636;fill-opacity:1;fill-rule:nonzero;stroke:none"
         id="path10746"
         inkscape:connector-curvature="0" />
    </g>
    <g
       id="g10748"
       transform="matrix(0.05405782,0,0,-0.05386553,6.6402008,295.37704)">
      <path
         d="m 0,0 -3.908,-11.544 c 1.414,-0.565 6.687,-2.246 15.978,-0.473 L 8.896,0.04 C 7.474,-0.18 3.069,-0.748 0,0"
         style="fill:#363636;fill-opacity:1;fill-rule:nonzero;stroke:none"
         id="path10750"
         inkscape:connector-curvature="0" />
    </g>
    <g
       id="g10752"
       transform="matrix(0.05405782,0,0,-0.05386553,7.5788728,295.15279)">
      <path
         d="m 0,0 5.398,-10.927 c 1.4,0.6 6.319,3.142 11.633,10.965 L 6.263,6.319 C 5.409,5.157 2.697,1.64 0,0"
         style="fill:#363636;fill-opacity:1;fill-rule:nonzero;stroke:none"
         id="path10754"
         inkscape:connector-curvature="0" />
    </g>
    <g
       id="g10756"
       transform="matrix(0.05405782,0,0,-0.05386553,6.8378468,293.44561)">
      <path
         d="m 0,0 c -7.066,0 -12.815,-5.749 -12.815,-12.815 0,-7.067 5.749,-12.816 12.815,-12.816 7.066,0 12.815,5.749 12.815,12.816 C 12.815,-5.749 7.066,0 0,0"
         style="fill:#6d6d6c;fill-opacity:1;fill-rule:nonzero;stroke:none"
         id="path10758"
         inkscape:connector-curvature="0" />
    </g>
    <g
       id="g10818"
       transform="matrix(0.05405782,0,0,-0.05386553,6.8337028,283.45046)">
      <path
         d="m 0,0 c 1.287,-4.218 1.102,-8.871 -0.515,-12.974 -1.617,-4.103 -4.656,-7.63 -8.476,-9.835 1.699,-0.567 3.476,-0.899 5.264,-0.983 0.238,-0.01 0.483,-0.016 0.707,0.063 0.292,0.103 0.516,0.337 0.729,0.562 2.604,2.727 5.566,5.112 8.785,7.075 0.392,0.239 0.814,0.501 0.984,0.928 0.156,0.394 0.06,0.839 -0.045,1.25 -0.918,3.585 -2.405,7.023 -4.387,10.148"
         style="fill:#aa5821;fill-opacity:1;fill-rule:nonzero;stroke:none"
         id="path10820"
         inkscape:connector-curvature="0" />
    </g>
    <g
       id="g10822"
       transform="matrix(0.05405782,0,0,-0.05386553,6.8316668,283.45101)">
      <path
         d="m 0,0 c 1.284,-4.5 0.991,-9.423 -0.939,-13.698 -1.69,-3.743 -4.556,-6.886 -8.105,-8.944 -0.141,-0.082 -0.102,-0.284 0.043,-0.332 1.11,-0.367 2.244,-0.646 3.401,-0.817 0.821,-0.121 2.015,-0.425 2.8,-0.057 0.4,0.187 0.69,0.562 0.992,0.873 0.387,0.397 0.782,0.787 1.183,1.169 0.831,0.789 1.692,1.546 2.583,2.268 0.906,0.734 1.843,1.431 2.807,2.089 0.799,0.546 1.75,0.988 2.476,1.627 0.721,0.634 0.551,1.453 0.327,2.291 -0.286,1.073 -0.622,2.132 -1.013,3.171 -0.865,2.297 -1.915,4.679 -3.404,6.644 -0.059,0.078 -0.182,0.013 -0.134,-0.079 0.944,-1.836 1.971,-3.602 2.747,-5.523 0.375,-0.926 0.709,-1.868 1.008,-2.821 0.272,-0.866 1.061,-2.534 0.327,-3.299 -0.287,-0.299 -0.692,-0.495 -1.04,-0.712 -0.44,-0.274 -0.874,-0.556 -1.303,-0.846 -0.804,-0.541 -1.589,-1.111 -2.355,-1.705 -1.554,-1.206 -3.028,-2.515 -4.405,-3.921 -0.449,-0.457 -0.812,-0.943 -1.506,-0.97 -0.556,-0.023 -1.14,0.067 -1.691,0.136 -1.26,0.159 -2.495,0.441 -3.704,0.832 0.015,-0.11 0.029,-0.221 0.044,-0.331 5.923,3.489 9.726,9.876 9.843,16.766 C 1.019,-4.08 0.704,-1.992 0.075,0.021 0.06,0.068 -0.014,0.048 0,0"
         style="fill:#aa5821;fill-opacity:1;fill-rule:nonzero;stroke:none"
         id="path10824"
         inkscape:connector-curvature="0" />
    </g>
    <g
       id="g10826"
       transform="matrix(0.05405782,0,0,-0.05386553,10.056058,283.12865)">
      <path
         d="m 0,0 c 0.948,-3.498 0.807,-7.282 -0.401,-10.699 -2.33,-6.592 -8.4,-11.612 -9.618,-18.497 0.695,0.059 1.398,0.006 2.076,-0.155 2.032,4.823 5.001,9.25 8.692,12.961 2.3,2.313 5.186,4.46 8.446,4.367 -2.42,3.542 -4.839,7.084 -7.258,10.625"
         style="fill:#aa5821;fill-opacity:1;fill-rule:nonzero;stroke:none"
         id="path10828"
         inkscape:connector-curvature="0" />
    </g>
    <g
       id="g10830"
       transform="matrix(0.05405782,0,0,-0.05386553,10.055478,283.12882)">
      <path
         d="m 0,0 c 1.074,-4.563 0.418,-9.236 -1.738,-13.381 -1.789,-3.44 -4.28,-6.451 -6.166,-9.833 -1.039,-1.861 -1.868,-3.834 -2.255,-5.937 -0.018,-0.094 0.042,-0.207 0.151,-0.2 0.69,0.046 1.358,-0.001 2.033,-0.149 0.062,-0.014 0.151,0.007 0.179,0.072 1.664,3.917 3.917,7.572 6.698,10.795 2.606,3.018 6.008,6.506 10.304,6.437 0.127,-0.002 0.228,0.154 0.151,0.265 -1.229,1.807 -2.455,3.617 -3.688,5.42 -1.192,1.743 -2.332,3.542 -3.624,5.213 -0.096,0.124 -0.293,-0.035 -0.215,-0.166 1.099,-1.834 2.379,-3.573 3.585,-5.338 1.21,-1.771 2.426,-3.538 3.639,-5.307 l 0.152,0.265 c -3.479,0.044 -6.39,-2.213 -8.715,-4.579 -2.596,-2.643 -4.834,-5.643 -6.632,-8.883 -0.505,-0.908 -0.974,-1.837 -1.408,-2.781 -0.105,-0.228 -0.208,-0.457 -0.307,-0.687 -0.137,-0.313 -0.153,-0.36 -0.49,-0.33 -0.562,0.048 -1.094,0.106 -1.662,0.068 l 0.153,-0.199 c 1.488,8.119 9.167,13.435 10.393,21.683 0.377,2.535 0.205,5.099 -0.516,7.558 C 0.019,0.021 -0.004,0.015 0,0"
         style="fill:#aa5821;fill-opacity:1;fill-rule:nonzero;stroke:none"
         id="path10832"
         inkscape:connector-curvature="0" />
    </g>
    <g
       id="g10834"
       transform="matrix(0.05405782,0,0,-0.05386553,8.2303648,284.31275)">
      <path
         d="m 0,0 c 1.896,-1.913 2.123,-5.243 0.502,-7.395 2.712,0.087 5.424,0.173 8.135,0.26 0.163,0.41 -0.122,0.852 -0.403,1.192 -1.654,1.999 -4.407,3.459 -6.711,4.65"
         style="fill:#aa5821;fill-opacity:1;fill-rule:nonzero;stroke:none"
         id="path10836"
         inkscape:connector-curvature="0" />
    </g>
    <g
       id="g10838"
       transform="matrix(0.05405782,0,0,-0.05386553,8.2270898,284.31603)">
      <path
         d="m 0,0 c 0.848,-1.052 1.408,-2.242 1.479,-3.606 0.067,-1.301 -0.292,-2.589 -1.067,-3.639 -0.079,-0.108 0.027,-0.267 0.15,-0.263 2.712,0.081 5.424,0.162 8.136,0.242 0.086,0.003 0.161,0.058 0.184,0.141 0.217,0.74 -0.417,1.378 -0.885,1.87 C 7.422,-4.65 6.773,-4.12 6.096,-3.633 4.727,-2.647 3.194,-1.73 1.605,-1.153 1.513,-1.12 1.47,-1.253 1.542,-1.303 2.768,-2.154 4.13,-2.793 5.375,-3.622 6.012,-4.046 6.627,-4.505 7.194,-5.02 7.676,-5.459 8.724,-6.292 8.513,-7.023 l 0.185,0.14 C 5.986,-6.975 3.274,-7.067 0.562,-7.159 0.613,-7.246 0.663,-7.334 0.713,-7.421 2.284,-5.274 2.223,-1.687 0.122,0.122 0.037,0.195 -0.069,0.086 0,0"
         style="fill:#aa5821;fill-opacity:1;fill-rule:nonzero;stroke:none"
         id="path10840"
         inkscape:connector-curvature="0" />
    </g>
    <g
       id="g10842"
       transform="matrix(0.05405782,0,0,-0.05386553,12.588753,283.1593)">
      <path
         d="m 0,0 c 1.468,-7.638 -0.751,-15.685 -4.96,-22.227 -0.711,-1.105 -1.504,-2.2 -2.604,-2.918 1.191,-0.737 2.085,-1.94 2.448,-3.294 1.442,-0.201 2.904,-0.262 4.358,-0.183 0.303,5.57 1.777,11.074 4.297,16.05 0.335,0.661 0.693,1.326 0.829,2.055 0.164,0.885 -0.011,1.795 -0.22,2.67 -0.351,1.47 -0.798,2.916 -1.337,4.327"
         style="fill:#aa5821;fill-opacity:1;fill-rule:nonzero;stroke:none"
         id="path10844"
         inkscape:connector-curvature="0" />
    </g>
    <g
       id="g10846"
       transform="matrix(0.05405782,0,0,-0.05386553,12.586273,283.15995)">
      <path
         d="m 0,0 c 0.75,-4.458 0.376,-9.021 -0.931,-13.341 -0.65,-2.151 -1.521,-4.233 -2.578,-6.216 -1.038,-1.947 -2.214,-4.189 -4.078,-5.458 -0.086,-0.058 -0.09,-0.177 0,-0.235 1.172,-0.754 2.002,-1.874 2.389,-3.212 0.017,-0.062 0.068,-0.09 0.128,-0.098 1.447,-0.192 2.9,-0.252 4.358,-0.179 0.073,0.003 0.126,0.056 0.13,0.13 0.25,4.431 1.191,8.819 2.867,12.934 0.423,1.038 0.893,2.057 1.4,3.057 0.45,0.888 0.897,1.762 0.916,2.781 0.018,1.004 -0.272,1.997 -0.539,2.956 -0.32,1.153 -0.703,2.28 -1.165,3.385 -0.02,0.049 -0.1,0.031 -0.083,-0.023 0.371,-1.09 0.72,-2.19 1.012,-3.304 0.304,-1.158 0.689,-2.444 0.471,-3.649 -0.193,-1.08 -0.845,-2.064 -1.306,-3.047 -0.419,-0.896 -0.805,-1.807 -1.159,-2.731 -1.514,-3.96 -2.429,-8.126 -2.674,-12.359 0.044,0.043 0.087,0.086 0.13,0.13 -0.809,-0.04 -1.617,-0.044 -2.426,-0.001 -0.401,0.022 -0.812,0.037 -1.21,0.097 -0.156,-0.001 -0.303,0.032 -0.444,0.101 -0.172,0.003 -0.26,0.088 -0.262,0.256 -0.062,0.1 -0.099,0.268 -0.143,0.372 -0.464,1.095 -1.258,1.997 -2.252,2.639 v -0.235 c 1.417,0.961 2.349,2.435 3.218,3.878 0.929,1.545 1.743,3.159 2.43,4.827 1.376,3.338 2.238,6.901 2.382,10.516 0.082,2.037 -0.076,4.057 -0.49,6.054 C 0.078,0.084 -0.01,0.059 0,0"
         style="fill:#aa5821;fill-opacity:1;fill-rule:nonzero;stroke:none"
         id="path10848"
         inkscape:connector-curvature="0" />
    </g>
    <g
       id="g10850"
       transform="matrix(0.05405782,0,0,-0.05386553,13.122418,281.86168)">
      <path
         d="m 0,0 c 4.504,-6.243 5.69,-14.239 6.258,-21.916 1.619,0.924 3.237,1.848 4.856,2.771 0.211,0.12 0.429,0.248 0.562,0.45 0.208,0.32 0.152,0.737 0.081,1.112 -1.079,5.674 -3.923,11 -8.036,15.055"
         style="fill:#aa5821;fill-opacity:1;fill-rule:nonzero;stroke:none"
         id="path10852"
         inkscape:connector-curvature="0" />
    </g>
    <g
       id="g10854"
       transform="matrix(0.05405782,0,0,-0.05386553,13.120935,281.86253)">
      <path
         d="m 0,0 c 2.082,-3.235 3.557,-6.71 4.464,-10.451 0.91,-3.75 1.324,-7.608 1.612,-11.449 0.012,-0.156 0.169,-0.263 0.314,-0.181 1.126,0.644 2.254,1.285 3.378,1.93 0.541,0.311 1.114,0.595 1.632,0.943 0.251,0.168 0.468,0.351 0.576,0.644 0.145,0.398 0.034,0.849 -0.045,1.248 -0.107,0.533 -0.232,1.062 -0.369,1.587 -0.268,1.019 -0.594,2.022 -0.97,3.006 -1.479,3.869 -3.766,7.426 -6.756,10.299 -0.116,0.111 -0.289,-0.062 -0.177,-0.177 2.711,-2.781 4.915,-6.041 6.372,-9.646 0.696,-1.722 1.259,-3.538 1.568,-5.372 0.059,-0.358 0.083,-0.744 -0.15,-1.059 -0.165,-0.224 -0.595,-0.384 -0.831,-0.518 C 10.124,-19.475 9.63,-19.754 9.137,-20.035 8.15,-20.596 7.165,-21.158 6.18,-21.72 l 0.313,-0.18 c -0.29,3.917 -0.736,7.832 -1.719,11.643 C 3.834,-6.609 2.405,-2.94 0.05,0.038 0.027,0.066 -0.019,0.03 0,0"
         style="fill:#aa5821;fill-opacity:1;fill-rule:nonzero;stroke:none"
         id="path10856"
         inkscape:connector-curvature="0" />
    </g>
    <g
       id="g10858"
       transform="matrix(0.05405782,0,0,-0.05386553,10.977256,280.56296)">
      <path
         d="m 0,0 c 2.854,-7.21 3.832,-15.382 1.432,-22.756 -1.596,-4.905 -4.579,-9.219 -7.524,-13.454 1.861,1.392 4.089,2.286 6.396,2.564 -0.147,2.938 0.959,5.815 2.478,8.334 1.52,2.52 3.451,4.76 5.18,7.141 0.132,0.183 0.267,0.377 0.293,0.601 0.023,0.201 -0.046,0.401 -0.114,0.591 -1.695,4.706 -3.755,9.279 -6.16,13.666"
         style="fill:#aa5821;fill-opacity:1;fill-rule:nonzero;stroke:none"
         id="path10860"
         inkscape:connector-curvature="0" />
    </g>
    <g
       id="g10862"
       transform="matrix(0.05405782,0,0,-0.05386553,10.97546,280.56346)">
      <path
         d="m 0,0 c 1.694,-4.717 2.771,-9.619 2.643,-14.653 -0.132,-5.157 -1.697,-9.946 -4.256,-14.396 -1.403,-2.438 -3.011,-4.746 -4.614,-7.054 -0.108,-0.155 0.111,-0.382 0.267,-0.267 1.856,1.367 4.011,2.245 6.297,2.547 0.097,0.012 0.19,0.075 0.186,0.186 -0.196,4.636 2.468,8.609 5.161,12.139 0.686,0.9 1.385,1.791 2.061,2.7 0.227,0.306 0.564,0.654 0.676,1.028 0.132,0.444 -0.086,0.877 -0.236,1.289 -0.77,2.106 -1.613,4.186 -2.526,6.233 -1.054,2.364 -2.146,4.822 -3.607,6.965 -0.031,0.047 -0.096,0.007 -0.074,-0.043 0.887,-2.084 1.99,-4.082 2.936,-6.141 0.956,-2.081 1.839,-4.196 2.644,-6.339 0.198,-0.527 0.529,-1.13 0.491,-1.693 -0.038,-0.555 -0.552,-1.047 -0.879,-1.483 -0.658,-0.875 -1.333,-1.737 -1.994,-2.61 -1.287,-1.7 -2.531,-3.45 -3.463,-5.374 -1.007,-2.082 -1.647,-4.344 -1.563,-6.671 0.062,0.062 0.124,0.125 0.187,0.187 -2.361,-0.297 -4.576,-1.171 -6.494,-2.582 0.09,-0.09 0.178,-0.178 0.267,-0.268 2.898,4.17 5.839,8.435 7.457,13.293 1.591,4.779 1.752,9.909 0.899,14.849 C 1.98,-5.347 1.184,-2.597 0.063,0.027 0.049,0.063 -0.014,0.037 0,0"
         style="fill:#aa5821;fill-opacity:1;fill-rule:nonzero;stroke:none"
         id="path10864"
         inkscape:connector-curvature="0" />
    </g>
    <g
       id="g10866"
       transform="matrix(0.05405782,0,0,-0.05386553,14.484257,283.03294)">
      <path
         d="m 0,0 c 5.114,-4.771 9.414,-10.415 12.656,-16.613 2.356,-4.505 4.189,-9.564 3.452,-14.594 1.332,0.643 2.815,0.972 4.293,0.951 -0.384,4.106 -1.761,8.045 -3.128,11.936 -0.693,1.977 -1.396,3.972 -2.508,5.747 -1.252,1.997 -2.978,3.645 -4.685,5.27 C 7.782,-5.115 4.285,-2.188 1.986,0"
         style="fill:#aa5821;fill-opacity:1;fill-rule:nonzero;stroke:none"
         id="path10868"
         inkscape:connector-curvature="0" />
    </g>
    <g
       id="g10870"
       transform="matrix(0.05405782,0,0,-0.05386553,14.483044,283.03416)">
      <path
         d="m 0,0 c 1.529,-1.633 3.124,-3.195 4.584,-4.894 1.521,-1.769 2.941,-3.624 4.254,-5.553 2.596,-3.817 4.98,-7.971 6.339,-12.404 0.82,-2.679 1.178,-5.498 0.772,-8.283 -0.025,-0.168 0.119,-0.286 0.278,-0.214 1.328,0.611 2.736,0.922 4.197,0.918 0.099,-0.001 0.208,0.09 0.197,0.197 -0.25,2.546 -0.85,5.031 -1.608,7.471 -0.757,2.44 -1.572,4.893 -2.533,7.26 -0.907,2.231 -2.165,4.18 -3.813,5.934 C 11.118,-7.921 9.426,-6.402 7.737,-4.9 5.857,-3.229 3.963,-1.574 2.07,0.083 1.987,0.155 1.87,0.042 1.948,-0.039 4.943,-3.12 8.371,-5.75 11.413,-8.788 c 1.735,-1.732 3.235,-3.595 4.254,-5.839 1.039,-2.287 1.814,-4.721 2.597,-7.105 0.91,-2.769 1.676,-5.594 1.964,-8.501 0.065,0.065 0.13,0.13 0.196,0.196 -1.529,0.003 -3.007,-0.325 -4.388,-0.984 0.095,-0.055 0.19,-0.109 0.284,-0.164 0.634,4.82 -0.973,9.592 -3.108,13.851 -2.079,4.147 -4.658,8.05 -7.62,11.619 C 3.898,-3.675 2.098,-1.64 0.044,0.044 0.014,0.069 -0.028,0.03 0,0"
         style="fill:#aa5821;fill-opacity:1;fill-rule:nonzero;stroke:none"
         id="path10872"
         inkscape:connector-curvature="0" />
    </g>
    <g
       id="g10874"
       transform="matrix(0.05405782,0,0,-0.05386553,7.9606308,281.37681)">
      <path
         d="m 0,0 c 7.076,-6.631 13.623,-14.557 15.419,-24.086 0.056,-0.298 0.128,-0.63 0.38,-0.798 0.19,-0.128 0.436,-0.126 0.666,-0.12 1.347,0.034 2.693,0.068 4.04,0.103 -2.627,8.417 -7.985,15.959 -15.068,21.212"
         style="fill:#aa5821;fill-opacity:1;fill-rule:nonzero;stroke:none"
         id="path10876"
         inkscape:connector-curvature="0" />
    </g>
    <g
       id="g10878"
       transform="matrix(0.05405782,0,0,-0.05386553,7.9596008,281.37786)">
      <path
         d="m 0,0 c 3.245,-3.332 6.487,-6.605 9.163,-10.433 2.612,-3.736 4.738,-7.839 5.8,-12.295 0.188,-0.787 0.141,-2.283 1.173,-2.434 0.643,-0.093 1.364,0.018 2.012,0.037 l 2.376,0.067 c 0.11,0.003 0.206,0.11 0.17,0.223 -2.099,6.595 -5.823,12.668 -10.756,17.523 -1.375,1.353 -2.839,2.643 -4.416,3.757 -0.121,0.086 -0.279,-0.115 -0.16,-0.209 2.672,-2.099 5.152,-4.357 7.319,-6.983 2.183,-2.645 4.062,-5.564 5.53,-8.664 0.847,-1.786 1.556,-3.631 2.143,-5.518 l 0.17,0.223 c -1.268,-0.029 -2.535,-0.06 -3.802,-0.086 -0.459,-0.01 -0.901,0.074 -1.068,0.593 -0.079,0.248 -0.104,0.525 -0.157,0.779 -0.12,0.561 -0.255,1.117 -0.407,1.67 -0.562,2.051 -1.346,4.039 -2.296,5.941 -1.933,3.878 -4.546,7.372 -7.444,10.578 -1.667,1.844 -3.425,3.65 -5.311,5.27 C 0.012,0.062 -0.025,0.026 0,0"
         style="fill:#aa5821;fill-opacity:1;fill-rule:nonzero;stroke:none"
         id="path10880"
         inkscape:connector-curvature="0" />
    </g>
    <g
       id="g10882"
       transform="matrix(0.05405782,0,0,-0.05386553,5.7089153,282.87006)">
      <path
         d="m 0,0 c -7.153,-4.569 -13.903,-9.768 -20.146,-15.518 -2.583,-2.379 -5.12,-4.905 -6.771,-8.005 -1.649,-3.101 -2.318,-6.892 -1.023,-10.157 -1.149,0.358 -2.538,-0.707 -3.519,-0.011 -0.412,0.292 -0.591,0.809 -0.708,1.299 -0.702,2.922 -0.093,6.042 1.167,8.769 1.259,2.728 1.852,5.901 3.783,8.204 6.641,7.916 16.146,14.688 26.361,16.243"
         style="fill:#ffec7b;fill-opacity:1;fill-rule:nonzero;stroke:none"
         id="path10884"
         inkscape:connector-curvature="0" />
    </g>
    <g
       id="g10886"
       transform="matrix(0.05405782,0,0,-0.05386553,5.706143,282.86532)">
      <path
         d="m 0,0 c -5.413,-3.318 -10.532,-7.166 -15.389,-11.247 -2.406,-2.021 -4.79,-4.097 -7.01,-6.323 -2.069,-2.074 -3.999,-4.384 -5.175,-7.093 -1.249,-2.877 -1.643,-6.181 -0.508,-9.158 l 0.246,0.245 c -0.657,0.169 -1.282,0.008 -1.929,-0.129 -0.375,-0.079 -0.786,-0.171 -1.167,-0.072 -0.586,0.152 -0.825,0.728 -0.964,1.259 -0.499,1.904 -0.372,3.953 0.106,5.846 0.443,1.758 1.284,3.368 1.905,5.064 0.606,1.655 1.153,3.356 2.082,4.866 0.907,1.472 2.202,2.761 3.4,3.999 1.206,1.246 2.47,2.436 3.789,3.561 2.713,2.315 5.667,4.36 8.83,6.012 3.496,1.825 7.162,2.987 11.017,3.771 0.153,0.031 0.121,0.293 -0.038,0.276 -3.534,-0.385 -7,-1.651 -10.18,-3.203 -3.358,-1.638 -6.488,-3.729 -9.362,-6.111 -1.442,-1.195 -2.819,-2.466 -4.129,-3.804 -1.232,-1.259 -2.546,-2.567 -3.516,-4.046 -0.989,-1.509 -1.569,-3.24 -2.18,-4.925 -0.663,-1.828 -1.573,-3.564 -2.036,-5.459 -0.487,-1.993 -0.679,-4.354 0.031,-6.322 0.248,-0.688 0.738,-1.184 1.493,-1.228 0.932,-0.054 1.809,0.497 2.742,0.261 0.135,-0.035 0.302,0.097 0.245,0.245 -2.261,5.872 1.387,11.683 5.388,15.749 4.271,4.341 9.067,8.249 13.943,11.885 2.762,2.059 5.604,3.994 8.469,5.906 C 0.21,-0.104 0.112,0.069 0,0"
         style="fill:#ffec7b;fill-opacity:1;fill-rule:nonzero;stroke:none"
         id="path10888"
         inkscape:connector-curvature="0" />
    </g>
    <g
       id="g10890"
       transform="matrix(0.05405782,0,0,-0.05386553,7.5560928,281.24617)">
      <path
         d="m 0,0 c 0.098,-0.037 0.145,0.149 0.057,0.205 -0.088,0.056 -0.204,0.015 -0.3,-0.027 -7.094,-3.142 -12.673,-8.984 -17.104,-15.353 -0.766,-1.101 -1.505,-2.223 -2.162,-3.392 -2.413,-4.292 -3.698,-9.203 -3.765,-14.126 -1.664,0.722 -3.328,1.444 -4.992,2.166 -0.11,6.323 1.454,12.775 5.08,17.955 2.639,3.769 6.281,6.762 10.269,9.056 3.989,2.294 8.327,3.918 12.717,5.292"
         style="fill:#ffec7b;fill-opacity:1;fill-rule:nonzero;stroke:none"
         id="path10892"
         inkscape:connector-curvature="0" />
    </g>
    <g
       id="g10894"
       transform="matrix(0.05405782,0,0,-0.05386553,7.5572268,281.25023)">
      <path
         d="m 0,0 c 0.164,0.042 0.225,0.204 0.101,0.345 -0.216,0.246 -0.969,-0.227 -1.164,-0.319 -1.277,-0.597 -2.513,-1.281 -3.694,-2.05 -2.38,-1.55 -4.56,-3.397 -6.551,-5.419 -2.008,-2.04 -3.829,-4.26 -5.505,-6.578 -1.848,-2.555 -3.511,-5.214 -4.654,-8.164 -1.289,-3.326 -1.957,-6.869 -2.024,-10.433 0.098,0.056 0.197,0.113 0.295,0.169 -0.831,0.363 -1.663,0.724 -2.494,1.087 -0.454,0.197 -0.907,0.395 -1.361,0.592 -0.151,0.066 -0.302,0.132 -0.453,0.197 -0.365,0.159 -0.515,0.164 -0.585,0.548 -0.133,0.721 0.016,1.623 0.059,2.348 0.047,0.782 0.119,1.564 0.218,2.341 0.42,3.275 1.334,6.503 2.801,9.466 2.907,5.874 8.029,10.187 13.765,13.178 3.534,1.842 7.286,3.169 11.057,4.431 0.142,0.047 0.083,0.269 -0.063,0.226 -6.007,-1.765 -11.989,-4.23 -16.979,-8.078 -4.735,-3.652 -8.208,-8.524 -9.917,-14.27 -0.969,-3.257 -1.394,-6.674 -1.342,-10.069 10e-4,-0.065 0.037,-0.147 0.101,-0.174 1.665,-0.721 3.33,-1.441 4.995,-2.161 0.134,-0.057 0.292,0.008 0.295,0.169 0.096,5.923 1.938,11.535 5.214,16.452 2.865,4.302 6.224,8.355 10.235,11.637 2.268,1.856 4.851,3.664 7.608,4.679 C -0.135,0.116 -0.099,-0.026 0,0"
         style="fill:#ffec7b;fill-opacity:1;fill-rule:nonzero;stroke:none"
         id="path10896"
         inkscape:connector-curvature="0" />
    </g>
    <g
       id="g10898"
       transform="matrix(0.05405782,0,0,-0.05386553,7.7338148,284.18896)">
      <path
         d="m 0,0 c -4.769,-1.958 -8.904,-5.427 -11.662,-9.783 l -7.755,-0.411 c -0.291,0.42 0.018,0.986 0.336,1.385 3.757,4.703 9.665,7.031 15.295,9.16"
         style="fill:#ffec7b;fill-opacity:1;fill-rule:nonzero;stroke:none"
         id="path10900"
         inkscape:connector-curvature="0" />
    </g>
    <g
       id="g10902"
       transform="matrix(0.05405782,0,0,-0.05386553,7.7331818,284.18671)">
      <path
         d="m 0,0 c -2.372,-0.692 -4.628,-2.255 -6.517,-3.811 -1.02,-0.84 -1.976,-1.759 -2.853,-2.748 -0.395,-0.444 -0.774,-0.903 -1.136,-1.375 -0.168,-0.219 -0.334,-0.441 -0.495,-0.666 -0.192,-0.267 -0.418,-0.788 -0.67,-0.982 -0.271,-0.209 -0.748,-0.132 -1.07,-0.148 -0.363,-0.019 -0.727,-0.037 -1.09,-0.055 l -2.544,-0.127 c -0.768,-0.039 -1.535,-0.077 -2.303,-0.117 -0.08,-0.005 -0.161,-0.009 -0.242,-0.013 -0.221,-0.091 -0.326,-0.016 -0.313,0.224 -0.135,0.297 0.026,0.483 0.191,0.726 0.211,0.312 0.478,0.597 0.73,0.877 1.789,1.998 4.008,3.548 6.359,4.814 2.647,1.427 5.471,2.442 8.226,3.63 0.098,0.042 0.028,0.204 -0.072,0.171 -3.283,-1.074 -6.557,-2.429 -9.529,-4.198 -1.417,-0.844 -2.767,-1.806 -3.981,-2.925 -0.626,-0.576 -1.218,-1.194 -1.753,-1.855 -0.414,-0.51 -0.815,-1.089 -0.487,-1.742 0.025,-0.05 0.089,-0.087 0.144,-0.084 2.262,0.12 4.524,0.25 6.785,0.377 0.306,0.017 0.808,-0.063 1.075,0.098 0.241,0.145 0.511,0.776 0.682,1.02 0.562,0.802 1.173,1.568 1.826,2.297 1.271,1.419 2.702,2.695 4.26,3.792 1.528,1.076 3.183,1.845 4.81,2.741 C 0.076,-0.055 0.047,0.014 0,0"
         style="fill:#ffec7b;fill-opacity:1;fill-rule:nonzero;stroke:none"
         id="path10904"
         inkscape:connector-curvature="0" />
    </g>
    <g
       id="g10906"
       transform="matrix(0.05405782,0,0,-0.05386553,8.9669818,282.7193)">
      <path
         d="m 0,0 c -5.623,-1.975 -10.711,-5.446 -14.601,-9.96 -3.89,-4.515 -6.571,-10.061 -7.693,-15.913 -0.061,-0.315 -0.149,-0.677 -0.438,-0.818 -0.126,-0.063 -0.272,-0.07 -0.413,-0.077 -1.595,-0.07 -3.189,-0.142 -4.784,-0.212 2.067,5.975 5.111,11.652 9.271,16.412 4.16,4.761 9.466,8.583 15.447,10.631"
         style="fill:#ffec7b;fill-opacity:1;fill-rule:nonzero;stroke:none"
         id="path10908"
         inkscape:connector-curvature="0" />
    </g>
    <g
       id="g10910"
       transform="matrix(0.05405782,0,0,-0.05386553,8.9661368,282.71625)">
      <path
         d="m 0,0 c -2.506,-0.7 -4.881,-1.94 -7.071,-3.326 -2.211,-1.399 -4.265,-3.048 -6.105,-4.907 -3.711,-3.753 -6.517,-8.367 -8.177,-13.374 -0.242,-0.732 -0.46,-1.473 -0.652,-2.219 -0.183,-0.711 -0.24,-1.528 -0.495,-2.212 -0.324,-0.87 -1.998,-0.651 -2.782,-0.686 -0.877,-0.039 -1.754,-0.078 -2.631,-0.117 0.063,-0.082 0.126,-0.165 0.189,-0.248 3.259,9.352 8.969,18.027 17.418,23.435 2.267,1.451 4.699,2.506 7.153,3.59 0.087,0.038 0.023,0.172 -0.064,0.15 -2.334,-0.596 -4.529,-1.734 -6.58,-2.979 -2.072,-1.255 -4.015,-2.723 -5.807,-4.353 -3.71,-3.376 -6.74,-7.461 -9.095,-11.881 -1.343,-2.522 -2.466,-5.159 -3.404,-7.858 -0.041,-0.118 0.068,-0.254 0.19,-0.248 1.593,0.071 3.194,0.099 4.784,0.214 1.179,0.085 1.11,1.47 1.322,2.375 0.643,2.75 1.631,5.414 2.925,7.923 2.548,4.94 6.291,9.212 10.859,12.381 2.526,1.752 5.258,3.015 8.068,4.233 C 0.106,-0.081 0.062,0.017 0,0"
         style="fill:#ffec7b;fill-opacity:1;fill-rule:nonzero;stroke:none"
         id="path10912"
         inkscape:connector-curvature="0" />
    </g>
    <g
       id="g10914"
       transform="matrix(0.05405782,0,0,-0.05386553,10.479966,280.1484)">
      <path
         d="m 0,0 c -8.237,-3.103 -15.588,-8.331 -21.702,-14.663 -1.57,-1.627 -3.068,-3.331 -4.361,-5.185 -3.113,-4.457 -4.972,-9.646 -6.795,-14.767 -0.76,1.152 -2.126,1.798 -2.876,2.956 -1.2,1.854 -0.453,4.314 0.473,6.319 3.243,7.022 8.345,13.175 14.645,17.663 6.3,4.488 13.782,7.299 21.478,8.07"
         style="fill:#ffec7b;fill-opacity:1;fill-rule:nonzero;stroke:none"
         id="path10916"
         inkscape:connector-curvature="0" />
    </g>
    <g
       id="g10918"
       transform="matrix(0.05405782,0,0,-0.05386553,10.479123,280.14535)">
      <path
         d="m 0,0 c -5.931,-2.076 -11.383,-5.451 -16.218,-9.435 -5.023,-4.139 -9.633,-8.935 -12.594,-14.783 -1.693,-3.344 -2.963,-6.878 -4.226,-10.4 l 0.369,0.049 c -0.959,1.384 -2.714,2.117 -3.264,3.79 -0.605,1.844 0.218,3.893 0.998,5.552 1.538,3.269 3.476,6.349 5.755,9.149 4.705,5.781 10.832,10.332 17.74,13.139 1.942,0.788 3.939,1.442 5.971,1.954 2.107,0.529 4.248,0.806 6.378,1.208 0.131,0.025 0.1,0.233 -0.031,0.23 -1.962,-0.035 -3.919,-0.434 -5.825,-0.885 -1.935,-0.456 -3.838,-1.042 -5.696,-1.75 -3.69,-1.406 -7.198,-3.288 -10.393,-5.609 -5.985,-4.348 -10.875,-10.19 -14.087,-16.855 -0.824,-1.712 -1.668,-3.646 -1.368,-5.59 0.141,-0.911 0.574,-1.697 1.218,-2.349 0.739,-0.748 1.646,-1.315 2.255,-2.188 0.103,-0.146 0.31,-0.121 0.37,0.048 1.114,3.146 2.231,6.301 3.662,9.321 1.424,3.005 3.185,5.792 5.358,8.313 4.09,4.746 8.965,8.916 14.283,12.226 2.982,1.857 6.125,3.424 9.376,4.752 C 0.099,-0.085 0.072,0.025 0,0"
         style="fill:#ffec7b;fill-opacity:1;fill-rule:nonzero;stroke:none"
         id="path10920"
         inkscape:connector-curvature="0" />
    </g>
    <g
       id="g10922"
       transform="matrix(0.05405782,0,0,-0.05386553,11.207166,282.4065)">
      <path
         d="m 0,0 c -3.908,-1.512 -7.224,-4.313 -9.843,-7.584 -2.62,-3.271 -4.59,-7.01 -6.367,-10.805 -0.817,1.723 -1.973,3.286 -3.381,4.573 -0.152,0.139 -0.316,0.292 -0.353,0.495 -0.035,0.195 0.058,0.388 0.15,0.564 3.791,7.246 10.998,12.611 19.028,14.163"
         style="fill:#ffec7b;fill-opacity:1;fill-rule:nonzero;stroke:none"
         id="path10924"
         inkscape:connector-curvature="0" />
    </g>
    <g
       id="g10926"
       transform="matrix(0.05405782,0,0,-0.05386553,11.206001,282.40223)">
      <path
         d="m 0,0 c -3.758,-1.185 -7.013,-4.013 -9.505,-6.98 -2.866,-3.412 -4.967,-7.375 -6.852,-11.39 h 0.338 c -0.465,0.965 -1.021,1.877 -1.675,2.725 -0.307,0.398 -0.633,0.782 -0.979,1.147 -0.17,0.18 -0.345,0.355 -0.523,0.526 -0.073,0.069 -0.173,0.139 -0.233,0.218 -0.168,0.225 -0.221,0.622 -0.128,0.9 0.142,0.421 0.466,0.852 0.695,1.233 0.258,0.431 0.529,0.855 0.812,1.27 0.556,0.818 1.157,1.603 1.8,2.354 2.527,2.949 5.674,5.355 9.18,7.026 1.033,0.493 2.098,0.919 3.186,1.276 1.047,0.343 2.124,0.572 3.162,0.939 0.086,0.03 0.079,0.174 -0.022,0.169 -1.969,-0.098 -3.968,-0.901 -5.756,-1.687 -1.929,-0.847 -3.76,-1.915 -5.448,-3.173 -3.261,-2.429 -6.178,-5.628 -7.996,-9.289 -0.184,-0.368 -0.263,-0.705 -0.001,-1.056 0.353,-0.475 0.881,-0.854 1.278,-1.298 0.935,-1.043 1.7,-2.218 2.31,-3.477 0.061,-0.127 0.277,-0.13 0.338,0 1.853,3.954 3.91,7.87 6.717,11.241 1.256,1.509 2.66,2.9 4.205,4.112 1.592,1.25 3.338,2.199 5.16,3.064 C 0.147,-0.11 0.088,0.028 0,0"
         style="fill:#ffec7b;fill-opacity:1;fill-rule:nonzero;stroke:none"
         id="path10928"
         inkscape:connector-curvature="0" />
    </g>
    <g
       id="g10930"
       transform="matrix(0.05405782,0,0,-0.05386553,10.627994,283.81021)">
      <path
         d="m 0,0 c -3.262,-1.37 -5.878,-3.984 -7.83,-6.935 -1.952,-2.951 -3.304,-6.249 -4.643,-9.524 -1.6,-0.123 -3.197,-0.306 -4.784,-0.548 0.718,2.414 1.612,4.775 2.676,7.058 0.539,1.157 1.124,2.299 1.868,3.335 2.656,3.697 7.027,5.685 11.195,7.513"
         style="fill:#ffec7b;fill-opacity:1;fill-rule:nonzero;stroke:none"
         id="path10932"
         inkscape:connector-curvature="0" />
    </g>
    <g
       id="g10934"
       transform="matrix(0.05405782,0,0,-0.05386553,10.627041,283.80676)">
      <path
         d="m 0,0 c -6.909,-2.555 -10.063,-10.185 -12.641,-16.472 0.062,0.048 0.123,0.095 0.186,0.141 -1.619,-0.125 -3.231,-0.31 -4.836,-0.553 0.08,-0.08 0.159,-0.159 0.239,-0.239 0.672,2.247 1.486,4.449 2.455,6.585 0.874,1.927 1.87,3.774 3.359,5.303 2.743,2.816 6.353,4.25 9.819,5.932 0.161,0.078 0.047,0.36 -0.123,0.293 -3.575,-1.409 -7.331,-3.232 -10.028,-6.032 -1.477,-1.533 -2.479,-3.381 -3.355,-5.304 -0.985,-2.165 -1.817,-4.396 -2.501,-6.674 -0.047,-0.155 0.101,-0.259 0.239,-0.239 1.571,0.237 3.148,0.417 4.732,0.544 0.094,0.007 0.15,0.056 0.185,0.141 1.403,3.438 2.823,6.916 4.953,9.981 1.896,2.73 4.373,5.003 7.369,6.472 C 0.118,-0.088 0.071,0.026 0,0"
         style="fill:#ffec7b;fill-opacity:1;fill-rule:nonzero;stroke:none"
         id="path10936"
         inkscape:connector-curvature="0" />
    </g>
    <g
       id="g10938"
       transform="matrix(0.05405782,0,0,-0.05386553,11.869421,281.3819)">
      <path
         d="m 0,0 c -6.425,-3.808 -10.093,-11.004 -12.116,-18.192 -1.224,0.359 -2.535,0.416 -3.786,0.162 1.254,7.726 7.332,14.27 14.097,18.206"
         style="fill:#ffec7b;fill-opacity:1;fill-rule:nonzero;stroke:none"
         id="path10940"
         inkscape:connector-curvature="0" />
    </g>
    <g
       id="g10942"
       transform="matrix(0.05405782,0,0,-0.05386553,11.867523,281.37863)">
      <path
         d="m 0,0 c -1.674,-0.723 -3.155,-2.076 -4.414,-3.368 -1.282,-1.316 -2.403,-2.784 -3.381,-4.339 -2.032,-3.234 -3.452,-6.824 -4.498,-10.488 0.091,0.051 0.181,0.103 0.271,0.153 -1.285,0.36 -2.594,0.414 -3.905,0.169 l 0.279,-0.278 c 0.659,3.891 2.494,7.464 4.983,10.501 1.23,1.502 2.611,2.879 4.096,4.129 1.539,1.295 3.209,2.397 4.843,3.562 0.09,0.064 0.014,0.196 -0.086,0.148 -3.591,-1.689 -6.811,-4.611 -9.292,-7.672 -2.48,-3.059 -4.334,-6.64 -4.981,-10.548 -0.029,-0.176 0.099,-0.312 0.278,-0.278 1.235,0.234 2.457,0.179 3.668,-0.156 0.115,-0.032 0.238,0.039 0.27,0.153 1.015,3.604 2.391,7.13 4.368,10.322 0.967,1.56 2.076,3.035 3.348,4.361 1.292,1.346 2.788,2.364 4.238,3.519 C 0.152,-0.056 0.065,0.029 0,0"
         style="fill:#ffec7b;fill-opacity:1;fill-rule:nonzero;stroke:none"
         id="path10944"
         inkscape:connector-curvature="0" />
    </g>
    <g
       id="g10946"
       transform="matrix(0.05405782,0,0,-0.05386553,13.981796,282.8821)">
      <path
         d="m 0,0 c -6.942,-1.847 -12.639,-7.131 -16.122,-13.414 -3.482,-6.283 -4.95,-13.501 -5.509,-20.662 -1.638,0.148 -3.276,0.296 -4.914,0.444 0.342,3.049 1.087,6.052 2.21,8.908 0.869,2.207 1.858,5.649 2.998,7.73 2.212,4.035 4.75,6.676 7.992,9.939 3.471,3.493 7.826,6.1 12.545,7.508"
         style="fill:#ffec7b;fill-opacity:1;fill-rule:nonzero;stroke:none"
         id="path10948"
         inkscape:connector-curvature="0" />
    </g>
    <g
       id="g10950"
       transform="matrix(0.05405782,0,0,-0.05386553,13.980422,282.87724)">
      <path
         d="m 0,0 c -5.111,-1.32 -9.514,-4.463 -12.875,-8.484 -3.727,-4.458 -6.048,-9.894 -7.395,-15.509 -0.8,-3.34 -1.267,-6.752 -1.542,-10.174 0.069,0.069 0.138,0.138 0.207,0.207 -1.638,0.149 -3.277,0.293 -4.915,0.44 0.068,-0.068 0.135,-0.135 0.203,-0.203 0.374,3.265 1.263,6.336 2.403,9.407 0.935,2.522 1.643,5.163 2.975,7.518 1.377,2.438 3.095,4.636 4.997,6.686 1.966,2.122 3.996,4.217 6.346,5.919 2.714,1.965 5.698,3.351 8.851,4.45 0.132,0.046 0.08,0.246 -0.058,0.211 -2.851,-0.733 -5.588,-2.075 -8.032,-3.703 -2.495,-1.661 -4.61,-3.728 -6.674,-5.888 -1.938,-2.028 -3.747,-4.173 -5.213,-6.572 -1.451,-2.375 -2.299,-4.972 -3.223,-7.581 -0.572,-1.613 -1.216,-3.191 -1.681,-4.841 -0.518,-1.837 -0.875,-3.711 -1.097,-5.606 -0.012,-0.115 0.105,-0.194 0.203,-0.202 1.638,-0.15 3.277,-0.302 4.915,-0.448 0.117,-0.01 0.198,0.103 0.207,0.206 0.877,11.211 4.244,23.151 13.713,30.134 2.331,1.719 4.945,3.061 7.735,3.852 C 0.166,-0.148 0.117,0.03 0,0"
         style="fill:#ffec7b;fill-opacity:1;fill-rule:nonzero;stroke:none"
         id="path10952"
         inkscape:connector-curvature="0" />
    </g>
    <g
       id="g10954"
       transform="matrix(0.05405782,0,0,-0.05386553,2.0516687,284.91785)">
      <path
         d="M 0,0 208.799,3.337 4.934,3.717 Z"
         style="fill:#ffec7b;fill-opacity:1;fill-rule:nonzero;stroke:none"
         id="path10956"
         inkscape:connector-curvature="0" />
    </g>
    <g
       id="g10958"
       transform="matrix(0.05405782,0,0,-0.05386553,2.3273959,284.7446)">
      <path
         d="m 0,0 -3.574,-2.692 151.23,2.418 z M -6.628,-3.741 -0.334,1.001 -0.166,1 203.7,0.621 l 0.007,-1 z"
         style="fill:#ffec7b;fill-opacity:1;fill-rule:nonzero;stroke:none"
         id="path10960"
         inkscape:connector-curvature="0" />
    </g>
    <g
       id="g11188"
       transform="matrix(0.05405782,0,0,-0.05386553,3.8236735,281.63767)">
      <path
         d="m 0,0 c -2.32,0 -4.621,0.825 -6.851,1.625 -0.886,0.318 -1.803,0.647 -2.685,0.908 l -10.458,3.092 -0.048,0.313 -7.224,47.534 0.988,0.15 7.177,-47.219 9.848,-2.911 c 0.91,-0.269 1.84,-0.603 2.74,-0.926 2.299,-0.824 4.677,-1.681 6.967,-1.554 1.775,0.095 3.605,0.954 5.375,1.784 0.912,0.429 1.856,0.871 2.78,1.202 L 15.807,7.606 20.435,55.305 21.43,55.208 16.749,6.959 9.001,3.08 C 8.067,2.742 7.186,2.329 6.253,1.891 4.396,1.02 2.477,0.12 0.508,0.013 0.338,0.004 0.169,0 0,0"
         style="fill:#000000;fill-opacity:1;fill-rule:nonzero;stroke:none"
         id="path11190"
         inkscape:connector-curvature="0" />
    </g>
    <g
       id="g11192"
       transform="matrix(0.05405782,0,0,-0.05386553,2.0704112,278.68869)">
      <path
         d="M 0,0 31.856,-0.7 58.629,1.787 50.832,17.78 8.719,17.676 Z m 31.892,-1.698 -33.483,0.733 9.688,19.639 43.359,0.108 8.706,-17.857 z"
         style="fill:#000000;fill-opacity:1;fill-rule:nonzero;stroke:none"
         id="path11194"
         inkscape:connector-curvature="0" />
    </g>
    <g
       id="g11196"
       transform="matrix(0.05405782,0,0,-0.05386553,3.8523935,281.17801)">
      <path
         d="M 0,0 -1.633,44.995 -0.605,45.032 1.027,0.037 Z"
         style="fill:#000000;fill-opacity:1;fill-rule:nonzero;stroke:none"
         id="path11198"
         inkscape:connector-curvature="0" />
    </g>
    <g
       id="g11200"
       transform="matrix(0.05405782,0,0,-0.05386553,3.8816132,281.20599)">
      <path
         d="m 0,0 -18.464,4.779 -6.612,41.006 1.015,0.164 6.505,-40.343 17.502,-4.53 11.606,4.276 3.989,41.411 1.023,-0.099 -4.05,-42.054 z"
         style="fill:#000000;fill-opacity:1;fill-rule:nonzero;stroke:none"
         id="path11202"
         inkscape:connector-curvature="0" />
    </g>
    <g
       id="g11204"
       transform="matrix(0.05405782,0,0,-0.05386553,3.8690483,278.74769)">
      <path
         d="m 0,0 -0.999,0.036 0.705,19.253 0.999,-0.037 z"
         style="fill:#000000;fill-opacity:1;fill-rule:nonzero;stroke:none"
         id="path11206"
         inkscape:connector-curvature="0" />
    </g>
    <g
       id="g11208"
       transform="matrix(0.05405782,0,0,-0.05386553,3.2971693,278.75584)">
      <path
         d="m 0,0 c 0.655,-1.747 1.26,-3.344 0.966,-5.263 -0.328,-2.144 -1.475,-4.086 -2.721,-5.821 -0.478,-0.666 -1.111,-1.251 -1.361,-2.039 -0.208,-0.652 -0.359,-1.322 -0.46,-1.999 -0.163,-1.099 -0.177,-2.209 -0.014,-3.308 0.62,-4.195 4.034,-7.159 8.058,-8.035 4.234,-0.921 8.882,0.185 11.851,3.438 1.606,1.759 2.82,4.184 3.446,6.476 0.525,1.921 0.223,3.842 -0.863,5.507 -2.361,3.618 -7.425,6.218 -5.429,11.224 0.238,0.599 -0.756,0.886 -0.976,0.27 -0.642,-1.798 -0.616,-3.649 0.314,-5.339 0.87,-1.583 2.271,-2.8 3.535,-4.057 1.294,-1.287 2.567,-2.772 2.885,-4.629 0.396,-2.303 -0.864,-4.829 -2.12,-6.686 -2.346,-3.47 -6.692,-5.264 -10.81,-4.879 -3.731,0.348 -7.526,2.637 -8.575,6.399 -0.331,1.19 -0.371,2.432 -0.203,3.652 0.102,0.729 0.219,1.578 0.624,2.199 0.594,0.909 1.263,1.755 1.81,2.696 1.894,3.263 2.687,7.082 0.307,10.305 C 0.176,0.231 -0.062,0.167 0,0"
         style="fill:#000000;fill-opacity:1;fill-rule:nonzero;stroke:none"
         id="path11210"
         inkscape:connector-curvature="0" />
    </g>
    <g
       id="g11212"
       transform="matrix(0.05405782,0,0,-0.05386553,3.7836618,282.04051)">
      <path
         d="m 0,0 -0.146,0.046 c -0.444,0.142 -1.08,0.333 -1.859,0.568 -10.486,3.157 -21.209,6.864 -21.227,10.422 -0.007,1.316 1.3,2.365 3.998,3.208 l 0.298,-0.954 c -2.13,-0.666 -3.3,-1.464 -3.296,-2.248 0.017,-3.3 15.445,-7.944 20.515,-9.471 0.703,-0.211 1.291,-0.388 1.728,-0.525 6.192,1.845 11.268,4.942 16.64,8.219 1.547,0.943 3.143,1.917 4.789,2.874 -0.797,1.37 -2.52,2.132 -3.951,2.395 l 0.18,0.983 c 1.82,-0.333 4.06,-1.397 4.888,-3.384 l 0.17,-0.406 -0.382,-0.22 C 20.567,10.482 18.841,9.429 17.172,8.411 11.7,5.073 6.531,1.92 0.147,0.043 Z"
         style="fill:#000000;fill-opacity:1;fill-rule:nonzero;stroke:none"
         id="path11214"
         inkscape:connector-curvature="0" />
    </g>
    <g
       id="g11216"
       transform="matrix(0.05405782,0,0,-0.05386553,3.797571,279.06193)">
      <path
         d="m 0,0 -0.072,0.005 -22.426,1.411 0.097,1.539 22.354,-1.406 16.995,2.107 0.19,-1.531 z"
         style="fill:#000000;fill-opacity:1;fill-rule:nonzero;stroke:none"
         id="path11218"
         inkscape:connector-curvature="0" />
    </g>
    <g
       id="g11220"
       transform="matrix(0.05405782,0,0,-0.05386553,2.4203861,284.74751)">
      <path
         d="M 0,0 C -4.657,0 -8.445,-3.789 -8.445,-8.445 V -27.62 c 0,-4.657 3.788,-8.445 8.445,-8.445 h 274.696 c 4.658,0 8.446,3.788 8.446,8.445 v 19.175 c 0,4.656 -3.788,8.445 -8.446,8.445 z M 274.696,-37.565 H 0 c -5.484,0 -9.945,4.462 -9.945,9.945 V -8.445 C -9.945,-2.961 -5.484,1.5 0,1.5 h 274.696 c 5.484,0 9.946,-4.461 9.946,-9.945 V -27.62 c 0,-5.483 -4.462,-9.945 -9.946,-9.945"
         style="fill:#000000;fill-opacity:1;fill-rule:nonzero;stroke:none"
         id="path11222"
         inkscape:connector-curvature="0" />
    </g>
    <g
       id="g11224"
       transform="matrix(0.05405782,0,0,-0.05386553,6.8378748,291.70261)">
      <path
         d="m 0,0 c -24.909,0 -45.174,-20.265 -45.174,-45.174 0,-24.909 20.265,-45.174 45.174,-45.174 24.909,0 45.174,20.265 45.174,45.174 C 45.174,-20.265 24.909,0 0,0 m 0,-92.348 c -26.012,0 -47.174,21.162 -47.174,47.174 C -47.174,-19.162 -26.012,2 0,2 26.012,2 47.174,-19.162 47.174,-45.174 47.174,-71.186 26.012,-92.348 0,-92.348"
         style="fill:#000000;fill-opacity:1;fill-rule:nonzero;stroke:none"
         id="path11226"
         inkscape:connector-curvature="0" />
    </g>
    <g
       id="g11228"
       transform="matrix(0.05405782,0,0,-0.05386553,6.8378748,293.44561)">
      <path
         d="m 0,0 c -7.066,0 -12.815,-5.749 -12.815,-12.815 0,-7.067 5.749,-12.816 12.815,-12.816 7.066,0 12.815,5.749 12.815,12.816 C 12.815,-5.749 7.066,0 0,0 m 0,-27.131 c -7.894,0 -14.315,6.422 -14.315,14.316 0,7.893 6.421,14.315 14.315,14.315 7.893,0 14.315,-6.422 14.315,-14.315 0,-7.894 -6.422,-14.316 -14.315,-14.316"
         style="fill:#000000;fill-opacity:1;fill-rule:nonzero;stroke:none"
         id="path11230"
         inkscape:connector-curvature="0" />
    </g>
    <g
       id="g11232"
       transform="matrix(0.05405782,0,0,-0.05386553,4.2865156,292.67613)">
      <path
         d="m 0,0 c -1.902,34.748 -12.137,73.483 -22.915,110.167 l 1.44,0.422 C -10.673,73.819 -0.413,34.982 1.498,0.082 Z"
         style="fill:#000000;fill-opacity:1;fill-rule:nonzero;stroke:none"
         id="path11234"
         inkscape:connector-curvature="0" />
    </g>
    <g
       id="g11236"
       transform="matrix(0.05405782,0,0,-0.05386553,5.7351547,291.88946)">
      <path
         d="m 0,0 c -3.737,31.569 -13.112,66.023 -21.79,95.563 l 1.44,0.421 C -11.655,66.386 -2.26,31.856 1.489,0.176 Z"
         style="fill:#000000;fill-opacity:1;fill-rule:nonzero;stroke:none"
         id="path11238"
         inkscape:connector-curvature="0" />
    </g>
    <g
       id="g11240"
       transform="matrix(0.05405782,0,0,-0.05386553,15.56072,292.67613)">
      <path
         d="M 0,0 -1.498,0.082 C 0.413,34.984 10.673,73.82 21.476,110.589 l 1.439,-0.422 C 12.138,73.484 1.902,34.749 0,0"
         style="fill:#000000;fill-opacity:1;fill-rule:nonzero;stroke:none"
         id="path11242"
         inkscape:connector-curvature="0" />
    </g>
    <g
       id="g11244"
       transform="matrix(0.05405782,0,0,-0.05386553,14.112135,291.88946)">
      <path
         d="M 0,0 -1.49,0.176 C 2.261,31.86 11.654,66.389 20.35,95.984 l 1.439,-0.421 C 13.111,66.025 3.737,31.574 0,0"
         style="fill:#000000;fill-opacity:1;fill-rule:nonzero;stroke:none"
         id="path11246"
         inkscape:connector-curvature="0" />
    </g>
    <g
       id="g11248"
       transform="matrix(0.05405782,0,0,-0.05386553,4.5327599,295.13185)">
      <path
         d="m 0,0 h -11.62 c -5.16,0 -9.358,4.198 -9.358,9.359 v 28.174 c 0,5.16 4.198,9.359 9.358,9.359 H 5.66 v -1.5 h -17.28 c -4.333,0 -7.858,-3.526 -7.858,-7.859 V 9.359 c 0,-4.334 3.525,-7.859 7.858,-7.859 H 0 Z"
         style="fill:#000000;fill-opacity:1;fill-rule:nonzero;stroke:none"
         id="path11250"
         inkscape:connector-curvature="0" />
    </g>
    <path
       d="M 10.624767,295.13184 H 9.1429868 v -0.0808 h 1.4817802 z"
       style="fill:#000000;fill-opacity:1;fill-rule:nonzero;stroke:none;stroke-width:0.0539616"
       id="path11252"
       inkscape:connector-curvature="0" />
    <g
       id="g11254"
       transform="matrix(0.05405782,0,0,-0.05386553,15.778593,295.13185)">
      <path
         d="M 0,0 H -10.054 V 1.5 H 0 c 4.333,0 7.858,3.525 7.858,7.859 v 28.174 c 0,4.333 -3.525,7.859 -7.858,7.859 h -15.716 v 1.5 H 0 c 5.16,0 9.358,-4.199 9.358,-9.359 V 9.359 C 9.358,4.198 5.16,0 0,0"
         style="fill:#000000;fill-opacity:1;fill-rule:nonzero;stroke:none"
         id="path11256"
         inkscape:connector-curvature="0" />
    </g>
    <path
       d="M 10.930843,292.68684 H 8.8369118 v -0.0808 h 2.0939312 z"
       style="fill:#000000;fill-opacity:1;fill-rule:nonzero;stroke:none;stroke-width:0.0539616"
       id="path11258"
       inkscape:connector-curvature="0" />
    <path
       d="M 3.4392917,293.25242 H 2.272344 v -0.0808 h 1.1669477 z"
       style="fill:#000000;fill-opacity:1;fill-rule:nonzero;stroke:none;stroke-width:0.0539616"
       id="path11260"
       inkscape:connector-curvature="0" />
    <path
       d="M 3.4392917,294.25362 H 2.272344 v -0.0808 h 1.1669477 z"
       style="fill:#000000;fill-opacity:1;fill-rule:nonzero;stroke:none;stroke-width:0.0539616"
       id="path11262"
       inkscape:connector-curvature="0" />
    <g
       id="g11264"
       transform="matrix(0.05405782,0,0,-0.05386553,1.6170719,292.66188)">
      <path
         d="m 0,0 c -0.569,0 -1.137,-0.152 -1.65,-0.457 -0.994,-0.59 -1.587,-1.631 -1.587,-2.786 v -31.522 c 0,-1.103 0.553,-2.12 1.479,-2.719 0.925,-0.597 2.079,-0.687 3.087,-0.235 l 8.131,3.655 c 1.162,0.521 1.912,1.68 1.912,2.954 v 23.423 c 0,1.184 -0.646,2.273 -1.685,2.841 H 9.686 L 1.555,-0.401 C 1.065,-0.134 0.532,0 0,0 m -0.001,-39.506 c -0.898,0 -1.79,0.257 -2.572,0.763 -1.355,0.877 -2.164,2.364 -2.164,3.978 v 31.522 c 0,1.69 0.867,3.214 2.321,4.076 1.454,0.862 3.207,0.892 4.69,0.082 l 8.132,-4.444 c 1.521,-0.831 2.466,-2.425 2.466,-4.158 V -31.11 c 0,-1.864 -1.098,-3.56 -2.797,-4.324 l -8.131,-3.654 c -0.624,-0.279 -1.286,-0.418 -1.945,-0.418"
         style="fill:#000000;fill-opacity:1;fill-rule:nonzero;stroke:none"
         id="path11266"
         inkscape:connector-curvature="0" />
    </g>
    <path
       d="m 17.449622,293.21627 h -1.166948 v -0.0808 h 1.166948 z"
       style="fill:#000000;fill-opacity:1;fill-rule:nonzero;stroke:none;stroke-width:0.0539616"
       id="path11268"
       inkscape:connector-curvature="0" />
    <path
       d="m 17.449622,294.21747 h -1.166948 v -0.0808 h 1.166948 z"
       style="fill:#000000;fill-opacity:1;fill-rule:nonzero;stroke:none;stroke-width:0.0539616"
       id="path11270"
       inkscape:connector-curvature="0" />
    <g
       id="g11272"
       transform="matrix(0.05405782,0,0,-0.05386553,18.104874,292.62575)">
      <path
         d="m 0,0 c -0.531,0 -1.064,-0.134 -1.555,-0.401 l -8.131,-4.445 c -1.04,-0.568 -1.685,-1.657 -1.685,-2.841 V -31.11 c 0,-1.274 0.75,-2.433 1.912,-2.954 l 8.131,-3.655 c 1.006,-0.453 2.161,-0.365 3.087,0.236 0.927,0.598 1.479,1.615 1.479,2.718 v 31.522 c 0,1.155 -0.592,2.196 -1.587,2.786 C 1.138,-0.152 0.569,0 0,0 m 0.002,-39.506 c -0.659,0 -1.321,0.139 -1.945,0.418 l -8.131,3.654 c -1.699,0.764 -2.797,2.461 -2.797,4.324 v 23.423 c 0,1.733 0.945,3.326 2.467,4.158 l 8.131,4.444 c 1.482,0.811 3.236,0.779 4.69,-0.082 1.453,-0.862 2.321,-2.386 2.321,-4.076 v -31.522 c 0,-1.614 -0.809,-3.101 -2.164,-3.978 -0.782,-0.506 -1.675,-0.763 -2.572,-0.763"
         style="fill:#000000;fill-opacity:1;fill-rule:nonzero;stroke:none"
         id="path11274"
         inkscape:connector-curvature="0" />
    </g>
    <g
       id="g11276"
       transform="matrix(0.05405782,0,0,-0.05386553,6.3830543,292.24752)">
      <path
         d="m 0,0 3.173,-12.057 c 1.424,0.22 5.829,0.79 8.896,0.04 l 3.909,11.544 C 14.565,0.093 9.289,1.772 0,0 m 12.709,-13.243 -0.463,0.141 c -3.365,1.029 -9.294,-0.003 -9.354,-0.013 l -0.454,-0.08 -3.676,13.968 0.52,0.105 C 10.962,3.233 16.597,0.367 16.831,0.243 l 0.377,-0.198 z"
         style="fill:#000000;fill-opacity:1;fill-rule:nonzero;stroke:none"
         id="path11278"
         inkscape:connector-curvature="0" />
    </g>
    <g
       id="g11280"
       transform="matrix(0.05405782,0,0,-0.05386553,5.1761749,293.1211)">
      <path
         d="m 0,0 10.769,-6.28 c 0.853,1.161 3.564,4.678 6.263,6.318 l -5.4,10.927 C 10.234,10.365 5.315,7.823 0,0 m 11.055,-7.605 -12.477,7.277 0.294,0.441 c 6.594,9.926 12.605,11.883 12.857,11.961 l 0.408,0.127 6.215,-12.578 -0.429,-0.227 c -3.109,-1.655 -6.569,-6.575 -6.604,-6.624 z"
         style="fill:#000000;fill-opacity:1;fill-rule:nonzero;stroke:none"
         id="path11282"
         inkscape:connector-curvature="0" />
    </g>
    <g
       id="g11284"
       transform="matrix(0.05405782,0,0,-0.05386553,4.9682566,293.72846)">
      <path
         d="m 0,0 c -0.565,-1.413 -2.246,-6.688 -0.472,-15.978 l 12.056,3.173 c -0.218,1.425 -0.789,5.829 -0.04,8.897 z m -1.246,-17.215 -0.105,0.52 c -2.355,11.68 0.512,17.314 0.635,17.548 l 0.199,0.377 13.288,-4.498 -0.143,-0.464 c -1.027,-3.365 0.004,-9.294 0.015,-9.354 l 0.08,-0.453 z"
         style="fill:#000000;fill-opacity:1;fill-rule:nonzero;stroke:none"
         id="path11286"
         inkscape:connector-curvature="0" />
    </g>
    <g
       id="g11288"
       transform="matrix(0.05405782,0,0,-0.05386553,5.2266959,295.1651)">
      <path
         d="m 0,0 c 0.6,-1.399 3.141,-6.317 10.964,-11.633 l 6.282,10.769 c -1.162,0.853 -4.68,3.565 -6.319,6.262 z m 11.292,-13.055 -0.441,0.294 C 0.925,-6.166 -1.031,-0.155 -1.109,0.097 L -1.236,0.504 11.341,6.719 11.569,6.29 c 1.654,-3.108 6.575,-6.569 6.624,-6.603 l 0.378,-0.264 z"
         style="fill:#000000;fill-opacity:1;fill-rule:nonzero;stroke:none"
         id="path11290"
         inkscape:connector-curvature="0" />
    </g>
    <g
       id="g11292"
       transform="matrix(0.05405782,0,0,-0.05386553,6.4289538,295.99886)">
      <path
         d="M 0,0 C 1.413,-0.564 6.688,-2.244 15.978,-0.473 L 12.805,11.584 C 11.38,11.364 6.976,10.796 3.909,11.544 Z m 8.058,-2.276 c -5.852,0 -8.745,1.472 -8.912,1.56 l -0.377,0.198 4.499,13.289 0.464,-0.142 c 3.364,-1.029 9.294,0.004 9.353,0.014 l 0.454,0.08 3.676,-13.969 -0.52,-0.105 c -3.38,-0.681 -6.254,-0.925 -8.637,-0.925"
         style="fill:#000000;fill-opacity:1;fill-rule:nonzero;stroke:none"
         id="path11294"
         inkscape:connector-curvature="0" />
    </g>
    <g
       id="g11296"
       transform="matrix(0.05405782,0,0,-0.05386553,7.5788728,295.15279)">
      <path
         d="m 0,0 5.399,-10.927 c 1.399,0.6 6.318,3.142 11.632,10.965 L 6.262,6.319 C 5.409,5.157 2.698,1.64 0,0 M 4.895,-12.163 -1.32,0.415 -0.892,0.643 c 3.106,1.652 6.57,6.575 6.604,6.624 L 5.976,7.645 18.453,0.366 18.16,-0.075 C 11.566,-10.001 5.555,-11.958 5.302,-12.036 Z"
         style="fill:#000000;fill-opacity:1;fill-rule:nonzero;stroke:none"
         id="path11298"
         inkscape:connector-curvature="0" />
    </g>
    <g
       id="g11300"
       transform="matrix(0.05405782,0,0,-0.05386553,8.0834198,294.33287)">
      <path
         d="m 0,0 11.544,-3.908 c 0.565,1.413 2.246,6.688 0.473,15.978 L -0.04,8.896 C 0.178,7.472 0.749,3.067 0,0 m 12.062,-5.139 -13.289,4.498 0.143,0.465 c 1.027,3.365 -0.004,9.294 -0.015,9.354 l -0.08,0.453 13.969,3.677 0.105,-0.52 C 15.25,1.106 12.383,-4.527 12.26,-4.761 Z"
         style="fill:#000000;fill-opacity:1;fill-rule:nonzero;stroke:none"
         id="path11302"
         inkscape:connector-curvature="0" />
    </g>
    <g
       id="g11304"
       transform="matrix(0.05405782,0,0,-0.05386553,7.5167368,293.06019)">
      <path
         d="m 0,0 c 1.162,-0.854 4.68,-3.565 6.319,-6.263 l 10.927,5.399 c -0.6,1.399 -3.141,6.318 -10.964,11.633 z m 5.905,-7.583 -0.228,0.429 c -1.654,3.108 -6.574,6.569 -6.624,6.603 L -1.325,-0.287 5.954,12.19 6.396,11.896 C 16.321,5.303 18.277,-0.709 18.355,-0.961 l 0.127,-0.407 z"
         style="fill:#000000;fill-opacity:1;fill-rule:nonzero;stroke:none"
         id="path11306"
         inkscape:connector-curvature="0" />
    </g>
    <g
       id="g11308"
       transform="matrix(0.05405782,0,0,-0.05386553,12.929939,291.70261)">
      <path
         d="m 0,0 c -24.909,0 -45.174,-20.265 -45.174,-45.174 0,-24.909 20.265,-45.174 45.174,-45.174 24.909,0 45.174,20.265 45.174,45.174 C 45.174,-20.265 24.909,0 0,0 m 0,-92.348 c -26.012,0 -47.174,21.162 -47.174,47.174 C -47.174,-19.162 -26.012,2 0,2 26.012,2 47.174,-19.162 47.174,-45.174 47.174,-71.186 26.012,-92.348 0,-92.348"
         style="fill:#000000;fill-opacity:1;fill-rule:nonzero;stroke:none"
         id="path11310"
         inkscape:connector-curvature="0" />
    </g>
    <g
       id="g11312"
       transform="matrix(0.05405782,0,0,-0.05386553,12.929939,293.44561)">
      <path
         d="m 0,0 c -7.066,0 -12.815,-5.749 -12.815,-12.815 0,-7.067 5.749,-12.816 12.815,-12.816 7.066,0 12.815,5.749 12.815,12.816 C 12.815,-5.749 7.066,0 0,0 m 0,-27.131 c -7.894,0 -14.315,6.422 -14.315,14.316 0,7.893 6.421,14.315 14.315,14.315 7.894,0 14.315,-6.422 14.315,-14.315 0,-7.894 -6.421,-14.316 -14.315,-14.316"
         style="fill:#000000;fill-opacity:1;fill-rule:nonzero;stroke:none"
         id="path11314"
         inkscape:connector-curvature="0" />
    </g>
    <g
       id="g11316"
       transform="matrix(0.05405782,0,0,-0.05386553,12.475143,292.24752)">
      <path
         d="m 0,0 3.173,-12.057 c 1.426,0.219 5.83,0.787 8.896,0.04 l 3.909,11.544 C 14.564,0.093 9.29,1.771 0,0 m 12.71,-13.243 -0.465,0.141 C 8.882,-12.07 2.95,-13.104 2.892,-13.115 l -0.454,-0.08 -3.675,13.968 0.519,0.105 C 10.964,3.235 16.596,0.367 16.831,0.243 l 0.377,-0.198 z"
         style="fill:#000000;fill-opacity:1;fill-rule:nonzero;stroke:none"
         id="path11318"
         inkscape:connector-curvature="0" />
    </g>
    <g
       id="g11320"
       transform="matrix(0.05405782,0,0,-0.05386553,11.26824,293.1211)">
      <path
         d="m 0,0 10.77,-6.28 c 0.853,1.161 3.564,4.678 6.261,6.318 L 11.633,10.965 C 10.233,10.365 5.315,7.823 0,0 m 11.056,-7.605 -12.478,7.277 0.294,0.441 c 6.595,9.926 12.605,11.883 12.857,11.961 l 0.408,0.127 6.215,-12.578 -0.429,-0.227 C 14.817,-2.257 11.354,-7.179 11.32,-7.228 Z"
         style="fill:#000000;fill-opacity:1;fill-rule:nonzero;stroke:none"
         id="path11322"
         inkscape:connector-curvature="0" />
    </g>
    <g
       id="g11324"
       transform="matrix(0.05405782,0,0,-0.05386553,11.06035,293.72846)">
      <path
         d="m 0,0 c -0.565,-1.413 -2.246,-6.688 -0.473,-15.978 l 12.057,3.173 c -0.219,1.425 -0.788,5.829 -0.04,8.897 z m -1.246,-17.215 -0.105,0.52 c -2.355,11.68 0.512,17.314 0.635,17.548 l 0.198,0.377 13.289,-4.498 -0.142,-0.464 c -1.028,-3.365 0.003,-9.294 0.014,-9.354 l 0.08,-0.453 z"
         style="fill:#000000;fill-opacity:1;fill-rule:nonzero;stroke:none"
         id="path11326"
         inkscape:connector-curvature="0" />
    </g>
    <g
       id="g11328"
       transform="matrix(0.05405782,0,0,-0.05386553,11.31876,295.1651)">
      <path
         d="m 0,0 c 0.6,-1.399 3.142,-6.317 10.965,-11.633 l 6.281,10.769 c -1.162,0.853 -4.68,3.565 -6.319,6.262 z m 11.293,-13.055 -0.441,0.294 C 0.926,-6.166 -1.031,-0.156 -1.109,0.097 L -1.236,0.504 11.342,6.719 11.569,6.29 c 1.655,-3.108 6.576,-6.569 6.624,-6.603 l 0.378,-0.264 z"
         style="fill:#000000;fill-opacity:1;fill-rule:nonzero;stroke:none"
         id="path11330"
         inkscape:connector-curvature="0" />
    </g>
    <g
       id="g11332"
       transform="matrix(0.05405782,0,0,-0.05386553,12.521023,295.99886)">
      <path
         d="m 0,0 c 1.414,-0.565 6.687,-2.246 15.979,-0.473 l -3.174,12.057 c -1.423,-0.22 -5.827,-0.788 -8.897,-0.04 z m 8.059,-2.276 c -5.853,0 -8.746,1.472 -8.912,1.56 l -0.377,0.198 4.498,13.289 0.464,-0.142 c 3.366,-1.029 9.294,0.004 9.354,0.014 l 0.453,0.08 3.677,-13.969 -0.52,-0.105 c -3.38,-0.681 -6.255,-0.925 -8.637,-0.925"
         style="fill:#000000;fill-opacity:1;fill-rule:nonzero;stroke:none"
         id="path11334"
         inkscape:connector-curvature="0" />
    </g>
    <g
       id="g11336"
       transform="matrix(0.05405782,0,0,-0.05386553,13.670962,295.15279)">
      <path
         d="m 0,0 5.398,-10.927 c 1.4,0.6 6.319,3.142 11.633,10.965 L 6.263,6.319 C 5.409,5.157 2.697,1.64 0,0 M 4.895,-12.163 -1.32,0.415 -0.892,0.643 c 3.109,1.654 6.57,6.575 6.604,6.624 L 5.976,7.645 18.453,0.366 18.159,-0.075 C 11.565,-10.001 5.555,-11.958 5.302,-12.036 Z"
         style="fill:#000000;fill-opacity:1;fill-rule:nonzero;stroke:none"
         id="path11338"
         inkscape:connector-curvature="0" />
    </g>
    <g
       id="g11340"
       transform="matrix(0.05405782,0,0,-0.05386553,14.175484,294.33287)">
      <path
         d="m 0,0 11.544,-3.908 c 0.565,1.413 2.247,6.688 0.474,15.978 L -0.04,8.896 C 0.179,7.472 0.749,3.067 0,0 m 12.062,-5.139 -13.289,4.498 0.142,0.465 c 1.028,3.365 -0.003,9.294 -0.014,9.354 l -0.08,0.453 13.97,3.677 0.105,-0.52 C 15.251,1.106 12.383,-4.527 12.26,-4.762 Z"
         style="fill:#000000;fill-opacity:1;fill-rule:nonzero;stroke:none"
         id="path11342"
         inkscape:connector-curvature="0" />
    </g>
    <g
       id="g11344"
       transform="matrix(0.05405782,0,0,-0.05386553,13.608882,293.06019)">
      <path
         d="m 0,0 c 1.161,-0.854 4.679,-3.565 6.318,-6.263 l 10.927,5.399 C 16.646,0.535 14.104,5.454 6.28,10.769 Z m 5.903,-7.583 -0.227,0.429 c -1.653,3.105 -6.574,6.569 -6.623,6.603 L -1.325,-0.286 5.952,12.19 6.394,11.896 C 16.319,5.303 18.276,-0.708 18.355,-0.961 l 0.127,-0.407 z"
         style="fill:#000000;fill-opacity:1;fill-rule:nonzero;stroke:none"
         id="path11346"
         inkscape:connector-curvature="0" />
    </g>
    <path
       d="M 14.811924,288.45451 H 5.0732978 v -0.0538 h 9.7386262 z"
       style="fill:#000000;fill-opacity:1;fill-rule:nonzero;stroke:none;stroke-width:0.0539616"
       id="path11348"
       inkscape:connector-curvature="0" />
    <path
       d="M 14.292537,290.52343 H 5.5698727 v -0.0538 h 8.7226643 z"
       style="fill:#000000;fill-opacity:1;fill-rule:nonzero;stroke:none;stroke-width:0.0539616"
       id="path11350"
       inkscape:connector-curvature="0" />
    <g
       id="g11352"
       transform="matrix(0.05405782,0,0,-0.05386553,3.9320293,284.74772)">
      <path
         d="m 0,0 c -0.608,1.826 -0.917,3.813 -0.917,5.904 0,14.185 22.535,30.426 31.747,30.426 16.386,0 29.392,-14.55 31.258,-28.14 L 60.602,7.986 C 58.822,20.95 46.434,34.83 30.83,34.83 22.287,34.83 0.583,19.076 0.583,5.904 c 0,-1.93 0.283,-3.757 0.84,-5.43 z"
         style="fill:#000000;fill-opacity:1;fill-rule:nonzero;stroke:none"
         id="path11354"
         inkscape:connector-curvature="0" />
    </g>
    <g
       id="g11356"
       transform="matrix(0.05405782,0,0,-0.05386553,5.9864349,282.89922)">
      <path
         d="m 0,0 c -0.071,0.682 -0.106,1.388 -0.106,2.098 0,14.502 15.127,30.426 28.903,30.426 l 0.139,-0.013 C 36.516,31.083 55.688,17.687 57.518,3.954 L 56.032,3.755 C 54.321,16.588 35.837,29.625 28.726,31.024 15.684,30.968 1.394,15.86 1.394,2.098 1.394,1.439 1.427,0.785 1.492,0.154 Z"
         style="fill:#000000;fill-opacity:1;fill-rule:nonzero;stroke:none"
         id="path11358"
         inkscape:connector-curvature="0" />
    </g>
    <g
       id="g11360"
       transform="matrix(0.05405782,0,0,-0.05386553,15.62956,284.73496)">
      <path
         d="m 0,0 h -1.5 c 0,19.726 -19.708,32.859 -27.31,34.593 C -41.849,34.52 -56.131,16.798 -56.131,0.656 h -1.5 c 0,16.891 15.127,35.437 28.903,35.437 l 0.162,-0.017 C -20.699,34.344 0,20.629 0,0"
         style="fill:#000000;fill-opacity:1;fill-rule:nonzero;stroke:none"
         id="path11362"
         inkscape:connector-curvature="0" />
    </g>
    <g
       id="g11364"
       transform="matrix(0.05405782,0,0,-0.05386553,8.5184168,281.76537)">
      <path
         d="M 0,0 -1.488,0.184 C 0.604,17.137 23.26,31.442 36.379,31.442 L 36.558,31.42 C 44.81,29.393 50.894,15.687 54.545,4.545 L 53.119,4.079 C 48.077,19.463 42.259,28.402 36.287,29.941 23.665,29.875 2,16.199 0,0"
         style="fill:#000000;fill-opacity:1;fill-rule:nonzero;stroke:none"
         id="path11366"
         inkscape:connector-curvature="0" />
    </g>
    <g
       id="g11368"
       transform="matrix(0.05405782,0,0,-0.05386553,7.4963108,284.23022)">
      <path
         d="m 0,0 -1.48,0.241 c 2.288,14.017 15.404,29.025 31.283,29.025 13.671,0 23.236,-11.174 27.273,-20.743 L 55.693,7.94 C 51.834,17.086 42.74,27.766 29.803,27.766 14.687,27.766 2.189,13.409 0,0"
         style="fill:#000000;fill-opacity:1;fill-rule:nonzero;stroke:none"
         id="path11370"
         inkscape:connector-curvature="0" />
    </g>
    <g
       id="g11372"
       transform="matrix(0.05405782,0,0,-0.05386553,12.795692,283.72349)">
      <path
         d="m 0,0 c -2.251,9.463 -9.117,16.844 -20.992,22.565 -5.575,2.685 -11.991,2.536 -17.165,-0.403 -4.33,-2.459 -8.145,-6.435 -11.029,-11.497 l -1.302,0.742 c 3.017,5.297 7.025,9.467 11.591,12.06 5.6,3.182 12.54,3.349 18.555,0.45 12.309,-5.93 19.44,-13.64 21.801,-23.57 z"
         style="fill:#000000;fill-opacity:1;fill-rule:nonzero;stroke:none"
         id="path11374"
         inkscape:connector-curvature="0" />
    </g>
    <g
       id="g11376"
       transform="matrix(0.05405782,0,0,-0.05386553,13.750363,282.90262)">
      <path
         d="m 0,0 c -2.047,10.75 -9.074,18.638 -23.498,26.378 -4.501,2.416 -9.9,2.694 -14.442,0.741 -7.108,-3.054 -11.504,-9.254 -12.38,-17.457 l -1.493,0.159 c 0.937,8.766 5.653,15.399 13.281,18.676 4.957,2.13 10.844,1.833 15.743,-0.797 C -8.121,19.829 -0.639,11.373 1.473,0.28 Z"
         style="fill:#000000;fill-opacity:1;fill-rule:nonzero;stroke:none"
         id="path11378"
         inkscape:connector-curvature="0" />
    </g>
    <g
       id="g11380"
       transform="matrix(0.05405782,0,0,-0.05386553,6.6862298,284.73616)">
      <path
         d="m 0,0 -1.04,1.081 c 6.634,6.378 13.867,10.187 19.35,10.187 6.129,0 13.932,-4.008 19.878,-10.21 L 37.106,0.02 C 31.428,5.941 24.05,9.768 18.31,9.768 13.282,9.768 6.266,6.025 0,0"
         style="fill:#000000;fill-opacity:1;fill-rule:nonzero;stroke:none"
         id="path11382"
         inkscape:connector-curvature="0" />
    </g>
    <g
       id="g11384"
       transform="matrix(0.05405782,0,0,-0.05386553,12.283625,284.72493)">
      <path
         d="m 0,0 c -4.652,9.492 -24.544,16.735 -31.218,16.735 -5.15,0 -13.239,-6.837 -16.613,-16.647 l -1.418,0.488 c 3.632,10.563 12.256,17.659 18.031,17.659 6.157,0 27.334,-6.904 32.566,-17.575 z"
         style="fill:#000000;fill-opacity:1;fill-rule:nonzero;stroke:none"
         id="path11386"
         inkscape:connector-curvature="0" />
    </g>
    <path
       d="m 3.4466963,284.70714 h -0.081087 v -2.81076 h 0.081087 z"
       style="fill:#000000;fill-opacity:1;fill-rule:nonzero;stroke:none;stroke-width:0.0539616"
       id="path11388"
       inkscape:connector-curvature="0" />
    <path
       d="m 4.1795592,283.85709 h -0.081087 v -1.98015 h 0.081087 z"
       style="fill:#000000;fill-opacity:1;fill-rule:nonzero;stroke:none;stroke-width:0.0539616"
       id="path11390"
       inkscape:connector-curvature="0" />
    <g
       id="g11392"
       transform="matrix(0.05405782,0,0,-0.05386553,3.7851644,282.62785)">
      <path
         d="M 0,0 C -4.181,0 -7.293,2.656 -7.34,2.697 L -6.683,3.45 C -6.424,3.225 -0.25,-2.012 6.223,3.455 L 6.868,2.691 C 4.479,0.673 2.104,0 0,0"
         style="fill:#000000;fill-opacity:1;fill-rule:nonzero;stroke:none"
         id="path11394"
         inkscape:connector-curvature="0" />
    </g>
    <g
       id="g11396"
       transform="matrix(0.05405782,0,0,-0.05386553,3.7851644,282.99672)">
      <path
         d="M 0,0 C -4.181,0 -7.293,2.656 -7.34,2.697 L -6.683,3.45 C -6.424,3.225 -0.25,-2.011 6.223,3.455 L 6.868,2.691 C 4.479,0.673 2.104,0 0,0"
         style="fill:#000000;fill-opacity:1;fill-rule:nonzero;stroke:none"
         id="path11398"
         inkscape:connector-curvature="0" />
    </g>
    <g
       id="g11400"
       transform="matrix(0.05405782,0,0,-0.05386553,3.7851644,282.31302)">
      <path
         d="M 0,0 C -4.181,0 -7.293,2.656 -7.34,2.697 L -6.683,3.45 C -6.424,3.225 -0.25,-2.009 6.223,3.455 L 6.868,2.691 C 4.479,0.673 2.104,0 0,0"
         style="fill:#000000;fill-opacity:1;fill-rule:nonzero;stroke:none"
         id="path11402"
         inkscape:connector-curvature="0" />
    </g>
    <path
       d="M 17.766941,286.25545 H 1.9232937 v -0.0404 H 17.766941 Z"
       style="fill:#000000;fill-opacity:1;fill-rule:nonzero;stroke:none;stroke-width:0.0539616"
       id="path11404"
       inkscape:connector-curvature="0" />
  </g>
</svg>
