<?xml version="1.0" encoding="UTF-8" standalone="no"?>
<!-- Created with Inkscape (http://www.inkscape.org/) -->

<svg
   xmlns:dc="http://purl.org/dc/elements/1.1/"
   xmlns:cc="http://creativecommons.org/ns#"
   xmlns:rdf="http://www.w3.org/1999/02/22-rdf-syntax-ns#"
   xmlns:svg="http://www.w3.org/2000/svg"
   xmlns="http://www.w3.org/2000/svg"
   xmlns:sodipodi="http://sodipodi.sourceforge.net/DTD/sodipodi-0.dtd"
   xmlns:inkscape="http://www.inkscape.org/namespaces/inkscape"
   width="74"
   height="74"
   viewBox="0 0 19.579166 19.579167"
   version="1.1"
   id="svg13558"
   inkscape:version="0.92.1 r15371"
   sodipodi:docname="mine_cart_day.svg">
  <defs
     id="defs13552">
    <clipPath
       clipPathUnits="userSpaceOnUse"
       id="clipPath10404">
      <path
         d="M 210.781,425.112 H 250.3 v -45.416 h -39.519 z"
         id="path10402"
         inkscape:connector-curvature="0" />
    </clipPath>
    <clipPath
       clipPathUnits="userSpaceOnUse"
       id="clipPath10404-5">
      <path
         d="M 210.781,425.112 H 250.3 v -45.416 h -39.519 z"
         id="path10402-9"
         inkscape:connector-curvature="0" />
    </clipPath>
  </defs>
  <sodipodi:namedview
     id="base"
     pagecolor="#ffffff"
     bordercolor="#666666"
     borderopacity="1.0"
     inkscape:pageopacity="0.0"
     inkscape:pageshadow="2"
     inkscape:zoom="7.9195959"
     inkscape:cx="68.933977"
     inkscape:cy="26.498533"
     inkscape:document-units="mm"
     inkscape:current-layer="layer1"
     showgrid="false"
     units="px"
     inkscape:window-width="1920"
     inkscape:window-height="1017"
     inkscape:window-x="1912"
     inkscape:window-y="-8"
     inkscape:window-maximized="1" />
  <metadata
     id="metadata13555">
    <rdf:RDF>
      <cc:Work
         rdf:about="">
        <dc:format>image/svg+xml</dc:format>
        <dc:type
           rdf:resource="http://purl.org/dc/dcmitype/StillImage" />
        <dc:title></dc:title>
      </cc:Work>
    </rdf:RDF>
  </metadata>
  <g
     inkscape:label="Layer 1"
     inkscape:groupmode="layer"
     id="layer1"
     transform="translate(0,-277.42082)">
    <g
       id="g14911"
       transform="matrix(0.05384595,0,0,-0.05384595,-8.7698031,301.59125)">
      <g
         id="g14671">
        <g
           id="g10232"
           transform="translate(436.9703,244.1696)">
          <path
             d="m 0,0 v -0.25 h -0.065 c -5.523,-21.003 -10.413,-42.967 -12.873,-63.699 6.188,-3.254 11.571,-7.835 15.76,-13.372 h 9.615 c 2.06,34.277 12.035,72.263 22.609,108.326 H 8.686 C 5.784,21.117 2.813,10.684 0,0"
             style="fill:#6d3c1b;fill-opacity:1;fill-rule:nonzero;stroke:none"
             id="path10234"
             inkscape:connector-curvature="0" />
        </g>
        <g
           id="g10236"
           transform="translate(449.3297,138.446)">
          <path
             d="m 0,0 c 0,-5.988 -1.133,-11.714 -3.178,-16.989 h 8.699 c 4.333,0 7.859,3.525 7.859,7.859 v 28.174 c 0,4.333 -3.526,7.858 -7.859,7.858 H -8.456 C -3.133,19.266 0,9.994 0,0"
             style="fill:#3a3c3f;fill-opacity:1;fill-rule:nonzero;stroke:none"
             id="path10238"
             inkscape:connector-curvature="0" />
        </g>
        <path
           d="m 485.014,155.519 h -20.805 v -17.087 h 20.805 z"
           style="fill:#3a3c3f;fill-opacity:1;fill-rule:nonzero;stroke:none"
           id="path10240"
           inkscape:connector-curvature="0" />
        <g
           id="g10242"
           transform="translate(425.1568,143.6862)">
          <path
             d="m 0,0 c 0.219,-1.425 0.789,-5.829 0.04,-8.896 l 11.544,-3.909 c 0.565,1.413 2.246,6.689 0.473,15.979 z"
             style="fill:#363636;fill-opacity:1;fill-rule:nonzero;stroke:none"
             id="path10244"
             inkscape:connector-curvature="0" />
        </g>
        <g
           id="g10250"
           transform="translate(437.2584,129.651)">
          <path
             d="m 0,0 -13.288,4.498 0.142,0.465 c 1.028,3.365 -0.003,9.294 -0.014,9.353 l -0.08,0.454 13.969,3.676 0.104,-0.519 C 3.188,6.245 0.321,0.611 0.198,0.378 Z m -3.236,-10.158 c -6.594,-9.926 -12.605,-11.883 -12.858,-11.961 l -0.407,-0.127 -6.215,12.578 0.429,0.228 c 3.109,1.654 6.569,6.574 6.603,6.624 l 0.264,0.378 12.478,-7.279 z m -31.868,4.638 c -7.892,0 -14.314,6.421 -14.314,14.315 0,7.893 6.422,14.315 14.314,14.315 7.894,0 14.316,-6.422 14.316,-14.315 0,-7.894 -6.422,-14.315 -14.316,-14.315 m 9.132,-21.621 c -3.38,-0.681 -6.255,-0.925 -8.637,-0.925 -5.853,0 -8.745,1.472 -8.912,1.56 l -0.377,0.198 4.499,13.288 0.464,-0.141 c 3.364,-1.029 9.293,0.004 9.354,0.014 l 0.453,0.08 3.676,-13.969 z m -27.643,3.775 -0.442,0.294 c -9.925,6.594 -11.881,12.605 -11.96,12.857 l -0.126,0.407 12.577,6.215 0.227,-0.428 c 1.654,-3.109 6.575,-6.57 6.624,-6.604 l 0.378,-0.264 z m -17.32,22.511 -0.104,0.519 c -2.356,11.681 0.512,17.315 0.635,17.548 l 0.198,0.378 13.288,-4.498 -0.142,-0.465 c -1.028,-3.364 0.003,-9.294 0.014,-9.354 l 0.08,-0.453 z m 3.965,28.603 c 6.594,9.926 12.605,11.883 12.858,11.961 l 0.407,0.127 6.215,-12.578 -0.429,-0.228 c -3.106,-1.652 -6.569,-6.574 -6.603,-6.623 l -0.265,-0.378 -12.477,7.278 z m 22.736,16.982 c 11.677,2.355 17.314,-0.51 17.549,-0.634 l 0.377,-0.199 -4.499,-13.288 -0.464,0.142 c -3.366,1.031 -9.294,-0.003 -9.354,-0.014 l -0.453,-0.08 -3.676,13.969 z m 27.643,-3.774 0.442,-0.294 c 9.925,-6.594 11.881,-12.605 11.96,-12.857 l 0.126,-0.409 -12.577,-6.213 -0.227,0.428 c -1.654,3.109 -6.575,6.57 -6.624,6.604 l -0.378,0.264 z m -18.513,13.013 c -24.909,0 -45.173,-20.265 -45.173,-45.174 0,-24.909 20.264,-45.174 45.173,-45.174 24.91,0 45.175,20.265 45.175,45.174 0,24.909 -20.265,45.174 -45.175,45.174"
             style="fill:#6d6d6c;fill-opacity:1;fill-rule:nonzero;stroke:none"
             id="path10252"
             inkscape:connector-curvature="0" />
        </g>
        <g
           id="g10254"
           transform="translate(358.981,329.8942)">
          <path
             d="M 0,0 C -4.972,0 -12.672,-6.384 -16.235,-15.655 H 30.61 C 25.052,-6.7 6.418,0 0,0"
             style="fill:#db942c;fill-opacity:1;fill-rule:nonzero;stroke:none"
             id="path10256"
             inkscape:connector-curvature="0" />
        </g>
        <g
           id="g10258"
           transform="translate(399.6886,331.7541)">
          <path
             d="m 0,0 -0.017,-0.004 c -2.251,9.463 -9.117,16.844 -20.991,22.565 -5.574,2.685 -11.992,2.536 -17.166,-0.403 -4.198,-2.384 -7.903,-6.203 -10.753,-11.044 3.418,-3.501 6.029,-7.616 7.738,-11.51 0.16,0.011 0.326,0.036 0.481,0.036 6.076,0 26.764,-6.725 32.338,-17.155 h 3.162 C -5.081,-11.556 -3.108,-5.427 0,0"
             style="fill:#db942c;fill-opacity:1;fill-rule:nonzero;stroke:none"
             id="path10260"
             inkscape:connector-curvature="0" />
        </g>
        <g
           id="g10262"
           transform="translate(356.9644,331.1242)">
          <path
             d="m 0,0 c -4.049,8.947 -12.979,18.985 -25.521,18.985 -14.544,0 -26.659,-13.291 -29.506,-26.241 1.053,0.227 2.069,0.35 3.027,0.35 6.051,0 13.73,-3.911 19.648,-9.979 h 16.529 C -12.511,-7.762 -5.508,-1.333 0,0"
             style="fill:#db942c;fill-opacity:1;fill-rule:nonzero;stroke:none"
             id="path10264"
             inkscape:connector-curvature="0" />
        </g>
        <g
           id="g10266"
           transform="translate(395.9801,314.2394)">
          <path
             d="M 0,0 H 54.575 C 53.755,19.018 34.742,31.63 27.305,33.326 14.43,33.253 0.353,15.975 0,0"
             style="fill:#db942c;fill-opacity:1;fill-rule:nonzero;stroke:none"
             id="path10268"
             inkscape:connector-curvature="0" />
        </g>
        <g
           id="g10270"
           transform="translate(322.4786,314.2394)">
          <path
             d="M 0,0 C -5.476,5.191 -12.196,8.479 -17.514,8.479 -22.172,8.479 -28.536,5.263 -34.429,0 Z"
             style="fill:#db942c;fill-opacity:1;fill-rule:nonzero;stroke:none"
             id="path10272"
             inkscape:connector-curvature="0" />
        </g>
        <g
           id="g10274"
           transform="translate(398.4996,115.405)">
          <path
             d="m 0,0 -3.909,-11.544 c 1.414,-0.565 6.687,-2.246 15.978,-0.473 L 8.896,0.04 C 7.472,-0.18 3.07,-0.751 0,0"
             style="fill:#363636;fill-opacity:1;fill-rule:nonzero;stroke:none"
             id="path10276"
             inkscape:connector-curvature="0" />
        </g>
        <g
           id="g10278"
           transform="translate(379.1139,142.1022)">
          <path
             d="M 0,0 -11.544,3.908 C -12.109,2.495 -13.79,-2.78 -12.017,-12.069 L 0.04,-8.896 C -0.179,-7.472 -0.748,-3.067 0,0"
             style="fill:#363636;fill-opacity:1;fill-rule:nonzero;stroke:none"
             id="path10280"
             inkscape:connector-curvature="0" />
        </g>
        <g
           id="g10282"
           transform="translate(415.8629,119.568)">
          <path
             d="m 0,0 5.398,-10.927 c 1.4,0.6 6.319,3.142 11.633,10.965 L 6.263,6.319 C 5.409,5.157 2.698,1.64 0,0"
             style="fill:#363636;fill-opacity:1;fill-rule:nonzero;stroke:none"
             id="path10284"
             inkscape:connector-curvature="0" />
        </g>
        <g
           id="g10286"
           transform="translate(388.4478,157.3239)">
          <path
             d="m 0,0 -5.398,10.927 c -1.4,-0.6 -6.319,-3.142 -11.633,-10.965 l 10.768,-6.28 C -5.409,-5.157 -2.698,-1.64 0,0"
             style="fill:#363636;fill-opacity:1;fill-rule:nonzero;stroke:none"
             id="path10288"
             inkscape:connector-curvature="0" />
        </g>
        <g
           id="g10290"
           transform="translate(383.2769,124.738)">
          <path
             d="m 0,0 -10.926,-5.398 c 0.6,-1.4 3.141,-6.318 10.964,-11.633 L 6.319,-6.263 C 5.157,-5.409 1.64,-2.697 0,0"
             style="fill:#363636;fill-opacity:1;fill-rule:nonzero;stroke:none"
             id="path10292"
             inkscape:connector-curvature="0" />
        </g>
        <g
           id="g10294"
           transform="translate(402.1549,151.2614)">
          <path
             d="m 0,0 c -7.065,0 -12.814,-5.749 -12.814,-12.815 0,-7.067 5.749,-12.816 12.814,-12.816 7.066,0 12.815,5.749 12.815,12.816 C 12.815,-5.749 7.066,0 0,0"
             style="fill:#6d6d6c;fill-opacity:1;fill-rule:nonzero;stroke:none"
             id="path10296"
             inkscape:connector-curvature="0" />
        </g>
        <g
           id="g10298"
           transform="translate(367.1197,357.4508)">
          <path
             d="m 0,0 c 4.049,0.674 8.321,0.089 12.211,-1.784 11.714,-5.644 18.729,-12.905 21.415,-22.154 4.255,6.689 10.208,12.077 16.388,14.362 -2.262,10.297 -9.279,17.97 -23.3,25.493 -4.502,2.415 -9.901,2.691 -14.443,0.741 C 5.398,13.704 1.071,7.804 0,0"
             style="fill:#db942c;fill-opacity:1;fill-rule:nonzero;stroke:none"
             id="path10300"
             inkscape:connector-curvature="0" />
        </g>
        <g
           id="g10302"
           transform="translate(490.8643,284.7448)">
          <path
             d="m 0,0 h -291.549 c 0.198,-4.482 3.897,-8.07 8.427,-8.07 H -8.426 c 4.53,0 8.228,3.588 8.426,8.07"
             style="fill:#3a3c3f;fill-opacity:1;fill-rule:nonzero;stroke:none"
             id="path10304"
             inkscape:connector-curvature="0" />
        </g>
        <g
           id="g10306"
           transform="translate(232.9723,364.0402)">
          <path
             d="m 0,0 c 6.191,1.845 11.269,4.942 16.641,8.219 1.546,0.944 3.142,1.918 4.788,2.874 -0.795,1.367 -2.512,2.129 -3.942,2.393 L 17.478,13.392 9.73,9.513 C 8.796,9.174 7.914,8.761 6.98,8.323 5.124,7.453 3.205,6.552 1.237,6.446 1.067,6.437 0.898,6.433 0.729,6.433 c -2.32,0 -4.621,0.825 -6.85,1.625 -0.888,0.317 -1.805,0.647 -2.687,0.907 l -10.457,3.092 -0.011,0.075 C -21.19,11.49 -22.248,10.737 -22.244,9.996 -22.227,6.696 -6.796,2.051 -1.726,0.525 -1.023,0.313 -0.437,0.137 0,0"
             style="fill:#3a3c3f;fill-opacity:1;fill-rule:nonzero;stroke:none"
             id="path10308"
             inkscape:connector-curvature="0" />
        </g>
        <g
           id="g10310"
           transform="translate(191.1236,128.3278)">
          <path
             d="m 0,0 c 0.927,-0.6 2.082,-0.687 3.087,-0.235 l 8.131,3.654 C 12.38,3.94 13.13,5.1 13.13,6.373 v 23.423 c 0,1.184 -0.646,2.273 -1.686,2.842 l -8.131,4.444 c -0.49,0.268 -1.023,0.401 -1.554,0.401 -0.57,0 -1.138,-0.152 -1.652,-0.457 -0.994,-0.589 -1.586,-1.63 -1.586,-2.786 V 2.719 C -1.479,1.615 -0.927,0.599 0,0"
             style="fill:#3a3c3f;fill-opacity:1;fill-rule:nonzero;stroke:none"
             id="path10312"
             inkscape:connector-curvature="0" />
        </g>
        <g
           id="g10314"
           transform="translate(224.4478,373.9645)">
          <path
             d="m 0,0 c 0.91,-0.269 1.841,-0.603 2.74,-0.925 2.299,-0.825 4.683,-1.681 6.967,-1.554 1.774,0.095 3.604,0.953 5.373,1.783 0.914,0.428 1.858,0.871 2.782,1.202 L 25.061,4.114 29.657,51.5 26.586,51.216 26.889,51.187 22.838,9.133 10.324,4.522 -8.139,9.301 l -6.573,40.769 -2.311,0.051 7.175,-47.21 z"
             style="fill:#3a3c3f;fill-opacity:1;fill-rule:nonzero;stroke:none"
             id="path10316"
             inkscape:connector-curvature="0" />
        </g>
        <g
           id="g10318"
           transform="translate(233.5553,424.5597)">
          <path
             d="M 0,0 0.674,18.396 -23.568,18.336 -32.287,0.66 -0.432,-0.04 Z"
             style="fill:#3a3c3f;fill-opacity:1;fill-rule:nonzero;stroke:none"
             id="path10320"
             inkscape:connector-curvature="0" />
        </g>
        <g
           id="g10322"
           transform="translate(235.1988,121.4567)">
          <path
             d="M 0,0 H 10.265 C 8.221,5.275 7.087,11.001 7.087,16.989 c 0,9.994 3.133,19.266 8.455,26.903 L 0,43.892 c -4.333,0 -7.858,-3.526 -7.858,-7.859 V 7.859 C -7.858,3.525 -4.333,0 0,0"
             style="fill:#3a3c3f;fill-opacity:1;fill-rule:nonzero;stroke:none"
             id="path10324"
             inkscape:connector-curvature="0" />
        </g>
        <g
           id="g10326"
           transform="translate(268.9605,180.9274)">
          <path
             d="m 0,0 c -3.774,31.172 -12.969,65.07 -21.532,94.247 h -26.361 c 10.575,-36.059 20.549,-74.042 22.61,-108.326 h 8.146 C -12.639,-8.134 -6.77,-3.28 0,0"
             style="fill:#6d3c1b;fill-opacity:1;fill-rule:nonzero;stroke:none"
             id="path10328"
             inkscape:connector-curvature="0" />
        </g>
        <g
           id="g10330"
           transform="translate(490.8834,285.4948)">
          <path
             d="m 0,0 v 18.799 c 0,4.657 -3.788,8.446 -8.445,8.446 h -246.722 l -0.012,-0.004 c 0,0.001 0,0.002 -0.001,0.004 h -27.961 c -4.657,0 -8.446,-3.789 -8.446,-8.446 V 0 Z"
             style="fill:#3a3c3f;fill-opacity:1;fill-rule:nonzero;stroke:none"
             id="path10332"
             inkscape:connector-curvature="0" />
        </g>
        <g
           id="g10334"
           transform="translate(234.7887,318.6398)">
          <path
             d="m 0,0 c 0,3.711 1.552,7.562 3.995,11.228 v 17.256 c -2.022,-1.386 -4.007,-1.881 -5.796,-1.881 -2.73,0 -4.998,1.13 -6.261,1.928 V -4.4 H 0.496 C 0.169,-3.003 0,-1.531 0,0"
             style="fill:#3a3c3f;fill-opacity:1;fill-rule:nonzero;stroke:none"
             id="path10336"
             inkscape:connector-curvature="0" />
        </g>
        <g
           id="g10338"
           transform="translate(232.6163,423.5334)">
          <path
             d="m 0,0 c -0.639,0.014 -1.279,0.028 -1.918,0.042 -1.044,0.023 -2.087,0.046 -3.131,0.069 -0.282,0.006 -0.556,0.001 -0.827,0.059 -0.187,0.04 -0.382,0.017 -0.572,0.055 -0.36,0.071 -0.72,0.073 -1.084,0.103 -0.151,0.012 -0.536,0.078 -0.656,-0.049 -0.147,-0.154 0.105,-0.642 0.213,-0.815 0.118,-0.185 0.238,-0.36 0.288,-0.579 0.075,-0.324 0.012,-0.663 0.126,-0.98 0.105,-0.292 0.273,-0.545 0.409,-0.82 0.075,-0.152 0.048,-0.324 0.261,-0.338 0.089,-0.007 0.183,0.015 0.275,0.01 0.152,-0.008 0.304,-0.019 0.456,-0.028 l 1.352,-0.085 c 1.086,-0.069 2.171,-0.137 3.256,-0.206 0.096,-0.005 1.684,-0.08 1.685,-0.105 C 0.133,-3.667 0,0 0,0"
             style="fill:#c1a89f;fill-opacity:1;fill-rule:nonzero;stroke:none"
             id="path10340"
             inkscape:connector-curvature="0" />
        </g>
        <g
           id="g10342"
           transform="translate(238.7838,361.0504)">
          <path
             d="M 0,0 V 4.102 C -1.807,3.298 -3.677,2.575 -5.676,1.987 L -5.822,1.944 -5.968,1.99 c -0.444,0.142 -1.079,0.333 -1.857,0.567 -1.416,0.426 -2.834,0.862 -4.232,1.307 V 0.003 C -10.574,-1.089 -5.442,-4.214 0,0"
             style="fill:#a8a19e;fill-opacity:1;fill-rule:nonzero;stroke:none"
             id="path10344"
             inkscape:connector-curvature="0" />
        </g>
        <g
           id="g10346"
           transform="translate(238.7838,348.3576)">
          <path
             d="M 0,0 V 5.614 C -2.022,4.229 -4.007,3.733 -5.796,3.733 c -2.73,0 -4.998,1.131 -6.261,1.928 V 0.003 C -10.574,-1.089 -5.442,-4.214 0,0"
             style="fill:#a8a19e;fill-opacity:1;fill-rule:nonzero;stroke:none"
             id="path10348"
             inkscape:connector-curvature="0" />
        </g>
        <g
           id="g10350"
           transform="translate(226.7271,359.8629)">
          <path
             d="m 0,0 v -4.654 c 1.483,-1.092 6.614,-4.218 12.057,-0.003 v 4.611 C 10.035,-1.432 8.05,-1.928 6.261,-1.928 3.53,-1.928 1.263,-0.797 0,0"
             style="fill:#a8a19e;fill-opacity:1;fill-rule:nonzero;stroke:none"
             id="path10352"
             inkscape:connector-curvature="0" />
        </g>
        <g
           id="g10354"
           transform="translate(297.5455,322.3947)">
          <path
             d="M 0,0 C 0.944,0.42 1.872,0.773 2.775,1.05 5.341,14.271 17.342,28.07 32.069,29.14 29.78,41.734 11.868,54.308 4.891,55.682 -8.152,55.626 -22.442,40.518 -22.442,26.756 c 0,-0.501 0.037,-0.985 0.074,-1.466 C -10.756,21.525 -2.072,10.642 0,0"
             style="fill:#db942c;fill-opacity:1;fill-rule:nonzero;stroke:none"
             id="path10356"
             inkscape:connector-curvature="0" />
        </g>
        <g
           id="g10358"
           transform="translate(234.5602,424.653)">
          <path
             d="M 0,0 25.336,2.354 17.539,18.347 0.67,18.306 Z"
             style="fill:#3a3c3f;fill-opacity:1;fill-rule:nonzero;stroke:none"
             id="path10360"
             inkscape:connector-curvature="0" />
        </g>
        <g
           id="g10362"
           transform="translate(240.1925,329.2702)">
          <path
             d="m 0,0 c -2.383,-3.499 -3.904,-7.154 -3.904,-10.63 0,-1.543 0.189,-3.016 0.546,-4.401 h 49.004 c 3.39,3.225 6.928,5.773 10.306,7.489 C 53.689,5.123 41.545,18.295 26.343,18.295 20.083,18.295 6.768,9.836 0.091,0.133 V 0 Z"
             style="fill:#db942c;fill-opacity:1;fill-rule:nonzero;stroke:none"
             id="path10364"
             inkscape:connector-curvature="0" />
        </g>
        <g
           id="g10366"
           transform="translate(236.2686,423.8102)">
          <path
             d="m 0,0 -2.625,-0.244 0.133,-3.652 2.517,0.313 C -0.336,-2.417 -0.324,-1.201 0,0"
             style="fill:#c1a89f;fill-opacity:1;fill-rule:nonzero;stroke:none"
             id="path10368"
             inkscape:connector-curvature="0" />
        </g>
        <g
           id="g10370"
           transform="translate(221.69,410.0011)">
          <path
             d="M 0,0 C -0.157,-0.669 -0.263,-1.348 -0.296,-2.035 -0.354,-3.207 -0.206,-4.363 0.208,-5.463 1.543,-9 5.412,-10.998 9.03,-11.2 c 0.933,-0.052 1.869,0.022 2.787,0.186 L 11.116,8.316 4,8.763 C 3.75,6.555 2.649,4.346 1.443,2.541 0.884,1.704 0.234,0.995 0,0"
             style="fill:#c1a89f;fill-opacity:1;fill-rule:nonzero;stroke:none"
             id="path10372"
             inkscape:connector-curvature="0" />
        </g>
        <g
           id="g10374"
           transform="translate(331.1251,351.5998)">
          <path
             d="m 0,0 c 0.106,0.001 0.211,0.009 0.318,0.009 7.327,0 13.472,-3.211 18.221,-7.662 2.958,4.916 6.777,8.809 11.11,11.27 1.513,0.859 3.125,1.49 4.788,1.909 0.756,6.41 3.546,11.66 8.036,15.258 C 37.446,36.042 31.655,44.912 25.71,46.444 13.194,46.378 -8.203,32.929 -10.512,16.909 -5.362,12.042 -1.028,6.072 0,0"
             style="fill:#db942c;fill-opacity:1;fill-rule:nonzero;stroke:none"
             id="path10376"
             inkscape:connector-curvature="0" />
        </g>
        <g
           id="g10378"
           transform="translate(241.2979,404.0758)">
          <path
             d="m 0,0 c 1.165,1.858 2.321,4.239 1.861,6.487 -0.378,1.845 -1.675,3.304 -2.974,4.588 -1.134,1.12 -2.35,2.238 -3.195,3.608 L -7.465,14.291 -6.771,-4.851 C -4.021,-4.113 -1.533,-2.446 0,0"
             style="fill:#c1a89f;fill-opacity:1;fill-rule:nonzero;stroke:none"
             id="path10380"
             inkscape:connector-curvature="0" />
        </g>
        <g
           id="g10382"
           transform="translate(237.2457,420.3444)">
          <path
             d="M 0,0 12.747,1.581 13.054,4.768 0.11,3.566 C -0.369,2.229 -0.343,1.062 0,0"
             style="fill:#ffffff;fill-opacity:1;fill-rule:nonzero;stroke:none"
             id="path10384"
             inkscape:connector-curvature="0" />
        </g>
        <g
           id="g10386"
           transform="translate(224.1368,423.7194)">
          <path
             d="M 0,0 -13.356,0.292 -12.906,-2.5 0.817,-3.363 C 0.749,-2.38 0.516,-1.4 0.162,-0.395 0.088,-0.273 0.036,-0.14 0,0"
             style="fill:#ffffff;fill-opacity:1;fill-rule:nonzero;stroke:none"
             id="path10388"
             inkscape:connector-curvature="0" />
        </g>
        <g
           id="g10390"
           transform="translate(234.2071,379.696)">
          <path
             d="m 0,0 -0.642,17.699 c -1.51,-0.254 -3.074,-0.255 -4.602,0.008 -3.955,0.683 -7.522,3.375 -8.444,7.413 -0.45,1.97 0.119,5 1.168,6.789 0.575,0.978 0.822,1.647 1.427,2.619 0.545,0.874 1.029,1.793 1.376,2.764 0.222,0.62 0.615,1.478 0.687,2.077 l -13.694,0.593 5.734,-35.565 z"
             style="fill:#ffffff;fill-opacity:1;fill-rule:nonzero;stroke:none"
             id="path10392"
             inkscape:connector-curvature="0" />
        </g>
        <g
           id="g10394"
           transform="translate(249.8414,420.3512)">
          <path
             d="m 0,0 -11.909,-1.476 c 1.253,-2.043 3.459,-3.773 4.84,-5.808 1.108,-1.63 1.48,-3.516 1.01,-5.439 -0.291,-1.193 -0.86,-2.338 -1.363,-3.453 -0.48,-1.064 -1.111,-2.047 -1.867,-2.937 -1.576,-1.857 -3.684,-3.037 -5.967,-3.615 l 0.648,-17.871 11.091,4.086 z"
             style="fill:#ffffff;fill-opacity:1;fill-rule:nonzero;stroke:none"
             id="path10396"
             inkscape:connector-curvature="0" />
        </g>
        <g
           id="g10398">
          <g
             id="g10400" />
          <g
             id="g10424">
            <g
               clip-path="url(#clipPath10404-5)"
               id="g10422"
               style="opacity:0.78999299">
              <g
                 transform="translate(237.2457,420.3444)"
                 id="g10408">
                <path
                   d="M 0,0 12.747,1.581 13.054,4.768 0.11,3.566 C -0.369,2.229 -0.343,1.062 0,0"
                   style="fill:#754c29;fill-opacity:1;fill-rule:nonzero;stroke:none"
                   id="path10406"
                   inkscape:connector-curvature="0" />
              </g>
              <g
                 transform="translate(224.1368,423.7194)"
                 id="g10412">
                <path
                   d="M 0,0 -13.356,0.292 -12.906,-2.5 0.817,-3.363 C 0.749,-2.38 0.516,-1.4 0.162,-0.395 0.088,-0.273 0.036,-0.14 0,0"
                   style="fill:#754c29;fill-opacity:1;fill-rule:nonzero;stroke:none"
                   id="path10410"
                   inkscape:connector-curvature="0" />
              </g>
              <g
                 transform="translate(234.2071,379.696)"
                 id="g10416">
                <path
                   d="m 0,0 -0.642,17.699 c -1.51,-0.254 -3.074,-0.255 -4.602,0.008 -3.955,0.683 -7.522,3.375 -8.444,7.413 -0.45,1.97 0.119,5 1.168,6.789 0.575,0.978 0.822,1.647 1.427,2.619 0.545,0.874 1.029,1.793 1.376,2.764 0.222,0.62 0.615,1.478 0.687,2.077 l -13.694,0.593 5.734,-35.565 z"
                   style="fill:#754c29;fill-opacity:1;fill-rule:nonzero;stroke:none"
                   id="path10414"
                   inkscape:connector-curvature="0" />
              </g>
              <g
                 transform="translate(249.8414,420.3512)"
                 id="g10420">
                <path
                   d="m 0,0 -11.909,-1.476 c 1.253,-2.043 3.459,-3.773 4.84,-5.808 1.108,-1.63 1.48,-3.516 1.01,-5.439 -0.291,-1.193 -0.86,-2.338 -1.363,-3.453 -0.48,-1.064 -1.111,-2.047 -1.867,-2.937 -1.576,-1.857 -3.684,-3.037 -5.967,-3.615 l 0.648,-17.871 11.091,4.086 z"
                   style="fill:#754c29;fill-opacity:1;fill-rule:nonzero;stroke:none"
                   id="path10418"
                   inkscape:connector-curvature="0" />
              </g>
            </g>
          </g>
        </g>
        <g
           id="g10426"
           transform="translate(488.4254,132.4176)">
          <path
             d="m 0,0 8.131,-3.654 c 1.007,-0.453 2.161,-0.366 3.087,0.235 0.927,0.599 1.479,1.615 1.479,2.719 v 31.521 c 0,1.156 -0.593,2.198 -1.587,2.786 -0.992,0.589 -2.19,0.61 -3.205,0.056 L -0.227,29.219 C -1.266,28.65 -1.911,27.562 -1.911,26.377 V 2.954 C -1.911,1.681 -1.161,0.521 0,0"
             style="fill:#3a3c3f;fill-opacity:1;fill-rule:nonzero;stroke:none"
             id="path10428"
             inkscape:connector-curvature="0" />
        </g>
        <g
           id="g10430"
           transform="translate(308.3375,152.154)">
          <path
             d="m 0,0 10.927,5.398 c -0.6,1.4 -3.142,6.319 -10.965,11.633 L -6.318,6.263 C -5.157,5.409 -1.64,2.697 0,0"
             style="fill:#363636;fill-opacity:1;fill-rule:nonzero;stroke:none"
             id="path10432"
             inkscape:connector-curvature="0" />
        </g>
        <path
           d="M 225.84,154.848 H 205.753 V 137.761 H 225.84 Z"
           style="fill:#3a3c3f;fill-opacity:1;fill-rule:nonzero;stroke:none"
           id="path10434"
           inkscape:connector-curvature="0" />
        <g
           id="g10436"
           transform="translate(293.1158,161.487)">
          <path
             d="m 0,0 3.908,11.544 c -1.413,0.565 -6.688,2.243 -15.977,0.473 L -8.896,-0.04 C -7.471,0.179 -3.066,0.747 0,0"
             style="fill:#363636;fill-opacity:1;fill-rule:nonzero;stroke:none"
             id="path10438"
             inkscape:connector-curvature="0" />
        </g>
        <g
           id="g10440"
           transform="translate(266.4185,142.1022)">
          <path
             d="M 0,0 -11.544,3.908 C -12.109,2.495 -13.79,-2.78 -12.017,-12.069 L 0.04,-8.896 C -0.179,-7.472 -0.748,-3.067 0,0"
             style="fill:#363636;fill-opacity:1;fill-rule:nonzero;stroke:none"
             id="path10442"
             inkscape:connector-curvature="0" />
        </g>
        <g
           id="g10444"
           transform="translate(275.7516,157.3239)">
          <path
             d="m 0,0 -5.398,10.927 c -1.4,-0.6 -6.318,-3.142 -11.633,-10.965 l 10.768,-6.28 C -5.409,-5.157 -2.697,-1.64 0,0"
             style="fill:#363636;fill-opacity:1;fill-rule:nonzero;stroke:none"
             id="path10446"
             inkscape:connector-curvature="0" />
        </g>
        <g
           id="g10448"
           transform="translate(270.5816,124.738)">
          <path
             d="m 0,0 -10.927,-5.398 c 0.6,-1.4 3.142,-6.318 10.965,-11.633 L 6.319,-6.263 C 5.157,-5.409 1.64,-2.697 0,0"
             style="fill:#363636;fill-opacity:1;fill-rule:nonzero;stroke:none"
             id="path10450"
             inkscape:connector-curvature="0" />
        </g>
        <g
           id="g10452"
           transform="translate(421.0338,152.154)">
          <path
             d="m 0,0 10.926,5.398 c -0.6,1.4 -3.141,6.319 -10.964,11.633 L -6.319,6.263 C -5.157,5.409 -1.64,2.697 0,0"
             style="fill:#363636;fill-opacity:1;fill-rule:nonzero;stroke:none"
             id="path10454"
             inkscape:connector-curvature="0" />
        </g>
        <g
           id="g10456"
           transform="translate(312.4605,143.6862)">
          <path
             d="m 0,0 c 0.219,-1.425 0.789,-5.829 0.04,-8.896 l 11.544,-3.909 c 0.565,1.413 2.247,6.689 0.473,15.979 z"
             style="fill:#363636;fill-opacity:1;fill-rule:nonzero;stroke:none"
             id="path10458"
             inkscape:connector-curvature="0" />
        </g>
        <g
           id="g10460"
           transform="translate(363.4366,165.3483)">
          <path
             d="m 0,0 h -35.259 c 5.323,-7.637 8.456,-16.908 8.456,-26.902 0,-5.989 -1.134,-11.714 -3.178,-16.99 h 24.703 c -2.044,5.276 -3.178,11.001 -3.178,16.99 0,9.994 3.134,19.265 8.456,26.902"
             style="fill:#3a3c3f;fill-opacity:1;fill-rule:nonzero;stroke:none"
             id="path10462"
             inkscape:connector-curvature="0" />
        </g>
        <g
           id="g10464"
           transform="translate(289.4596,185.6198)">
          <path
             d="M 0,0 C 15.355,0 29.017,-7.378 37.636,-18.771 H 75.059 C 83.679,-7.378 97.34,0 112.695,0 c 7.326,0 14.267,-1.679 20.459,-4.672 0.971,8.051 2.303,16.28 3.891,24.564 H -22.88 C -21.333,11.823 -20.034,3.81 -19.07,-4.041 -13.234,-1.451 -6.785,0 0,0"
             style="fill:#6d3c1b;fill-opacity:1;fill-rule:nonzero;stroke:none"
             id="path10466"
             inkscape:connector-curvature="0" />
        </g>
        <g
           id="g10468"
           transform="translate(324.5621,129.651)">
          <path
             d="m 0,0 -13.288,4.498 0.142,0.465 c 1.028,3.365 -0.003,9.294 -0.014,9.353 l -0.08,0.454 13.969,3.676 0.104,-0.519 C 3.189,6.245 0.321,0.611 0.198,0.377 Z m -3.235,-10.158 c -6.594,-9.926 -12.605,-11.883 -12.858,-11.961 l -0.407,-0.127 -6.215,12.578 0.429,0.228 c 3.108,1.654 6.569,6.575 6.603,6.624 l 0.264,0.378 12.478,-7.279 z m -31.868,4.638 c -7.893,0 -14.315,6.421 -14.315,14.315 0,7.893 6.422,14.315 14.315,14.315 7.894,0 14.316,-6.422 14.316,-14.315 0,-7.894 -6.422,-14.315 -14.316,-14.315 m 9.132,-21.621 c -3.38,-0.681 -6.255,-0.925 -8.637,-0.925 -5.853,0 -8.746,1.472 -8.912,1.56 l -0.377,0.198 4.498,13.288 0.464,-0.141 c 3.366,-1.029 9.294,0.004 9.354,0.014 l 0.453,0.08 3.677,-13.969 z m -27.643,3.775 -0.442,0.294 c -9.925,6.594 -11.882,12.604 -11.961,12.857 l -0.127,0.407 12.579,6.215 0.227,-0.428 c 1.654,-3.109 6.575,-6.57 6.624,-6.604 l 0.378,-0.264 z m -17.32,22.511 -0.104,0.519 c -2.356,11.681 0.512,17.315 0.635,17.548 l 0.198,0.378 13.288,-4.498 -0.142,-0.465 c -1.028,-3.364 0.003,-9.294 0.014,-9.354 l 0.08,-0.453 z m 3.964,28.603 c 6.595,9.926 12.605,11.883 12.858,11.961 l 0.407,0.127 6.215,-12.578 -0.429,-0.228 c -3.105,-1.652 -6.569,-6.574 -6.603,-6.623 l -0.265,-0.378 -12.477,7.278 z m 22.737,16.982 c 11.68,2.358 17.313,-0.51 17.548,-0.634 l 0.377,-0.199 -4.498,-13.288 -0.465,0.142 c -3.364,1.031 -9.293,-0.003 -9.353,-0.014 l -0.453,-0.08 -3.676,13.969 z m 27.642,-3.774 0.442,-0.294 C -6.224,34.068 -4.267,28.058 -4.188,27.805 l 0.126,-0.408 -12.578,-6.214 -0.227,0.428 c -1.653,3.106 -6.574,6.57 -6.623,6.604 l -0.378,0.264 z m -18.512,13.013 c -24.909,0 -45.173,-20.265 -45.173,-45.174 0,-24.909 20.264,-45.174 45.173,-45.174 24.91,0 45.174,20.265 45.174,45.174 0,24.909 -20.264,45.174 -45.174,45.174"
             style="fill:#6d6d6c;fill-opacity:1;fill-rule:nonzero;stroke:none"
             id="path10470"
             inkscape:connector-curvature="0" />
        </g>
        <g
           id="g10472"
           transform="translate(248.9913,275.1745)">
          <path
             d="m 0,0 c 2.833,-9.661 5.728,-19.835 8.477,-30.255 h 178.148 c 2.749,10.42 5.644,20.594 8.477,30.255 z"
             style="fill:#6d3c1b;fill-opacity:1;fill-rule:nonzero;stroke:none"
             id="path10474"
             inkscape:connector-curvature="0" />
        </g>
        <g
           id="g10476"
           transform="translate(426.7013,206.5114)">
          <path
             d="m 0,0 c 2.428,12.509 5.428,25.119 8.652,37.408 h -177.623 c 3.225,-12.289 6.224,-24.899 8.653,-37.408 z"
             style="fill:#6d3c1b;fill-opacity:1;fill-rule:nonzero;stroke:none"
             id="path10478"
             inkscape:connector-curvature="0" />
        </g>
        <g
           id="g10480"
           transform="translate(405.8111,161.487)">
          <path
             d="m 0,0 3.909,11.544 c -1.414,0.564 -6.69,2.245 -15.978,0.473 L -8.896,-0.04 C -7.472,0.179 -3.069,0.749 0,0"
             style="fill:#363636;fill-opacity:1;fill-rule:nonzero;stroke:none"
             id="path10482"
             inkscape:connector-curvature="0" />
        </g>
        <g
           id="g10484"
           transform="translate(285.8033,115.405)">
          <path
             d="m 0,0 -3.908,-11.544 c 1.414,-0.565 6.687,-2.246 15.978,-0.473 L 8.896,0.04 C 7.474,-0.18 3.069,-0.748 0,0"
             style="fill:#363636;fill-opacity:1;fill-rule:nonzero;stroke:none"
             id="path10486"
             inkscape:connector-curvature="0" />
        </g>
        <g
           id="g10488"
           transform="translate(303.1676,119.568)">
          <path
             d="m 0,0 5.398,-10.927 c 1.4,0.6 6.319,3.142 11.633,10.965 L 6.263,6.319 C 5.409,5.157 2.697,1.64 0,0"
             style="fill:#363636;fill-opacity:1;fill-rule:nonzero;stroke:none"
             id="path10490"
             inkscape:connector-curvature="0" />
        </g>
        <g
           id="g10492"
           transform="translate(289.4596,151.2614)">
          <path
             d="m 0,0 c -7.066,0 -12.815,-5.749 -12.815,-12.815 0,-7.067 5.749,-12.816 12.815,-12.816 7.066,0 12.815,5.749 12.815,12.816 C 12.815,-5.749 7.066,0 0,0"
             style="fill:#6d6d6c;fill-opacity:1;fill-rule:nonzero;stroke:none"
             id="path10494"
             inkscape:connector-curvature="0" />
        </g>
      </g>
      <g
         transform="translate(233.7013,370.4728)"
         id="g10966">
        <path
           inkscape:connector-curvature="0"
           id="path10968"
           style="fill:#000000;fill-opacity:1;fill-rule:nonzero;stroke:none"
           d="m 0,0 c -2.32,0 -4.621,0.825 -6.851,1.625 -0.886,0.318 -1.803,0.647 -2.685,0.908 l -10.458,3.092 -0.048,0.313 -7.224,47.534 0.988,0.15 7.177,-47.219 9.848,-2.911 c 0.91,-0.269 1.84,-0.603 2.74,-0.926 2.299,-0.824 4.67,-1.677 6.967,-1.554 1.775,0.095 3.605,0.954 5.375,1.784 0.912,0.429 1.856,0.871 2.78,1.202 L 15.807,7.606 20.435,55.305 21.43,55.208 16.749,6.959 9.001,3.08 C 8.067,2.742 7.186,2.329 6.253,1.891 4.396,1.02 2.477,0.12 0.508,0.013 0.338,0.004 0.169,0 0,0" />
      </g>
      <g
         transform="translate(201.2682,425.2199)"
         id="g10970">
        <path
           inkscape:connector-curvature="0"
           id="path10972"
           style="fill:#000000;fill-opacity:1;fill-rule:nonzero;stroke:none"
           d="M 0,0 31.856,-0.7 58.629,1.787 50.832,17.78 8.719,17.676 Z m 31.892,-1.698 -33.483,0.733 9.688,19.639 43.359,0.108 8.706,-17.857 z" />
      </g>
      <g
         transform="translate(234.2325,379.0065)"
         id="g10974">
        <path
           inkscape:connector-curvature="0"
           id="path10976"
           style="fill:#000000;fill-opacity:1;fill-rule:nonzero;stroke:none"
           d="M 0,0 -1.633,44.995 -0.605,45.032 1.027,0.037 Z" />
      </g>
      <g
         transform="translate(234.773,378.487)"
         id="g10978">
        <path
           inkscape:connector-curvature="0"
           id="path10980"
           style="fill:#000000;fill-opacity:1;fill-rule:nonzero;stroke:none"
           d="m 0,0 -18.464,4.779 -6.612,41.006 1.015,0.164 6.505,-40.343 17.502,-4.53 11.605,4.276 3.99,41.411 1.023,-0.099 L 12.513,4.61 Z" />
      </g>
      <g
         transform="translate(234.5406,424.1247)"
         id="g10982">
        <path
           inkscape:connector-curvature="0"
           id="path10984"
           style="fill:#000000;fill-opacity:1;fill-rule:nonzero;stroke:none"
           d="m 0,0 -0.999,0.036 0.705,19.253 0.999,-0.037 z" />
      </g>
      <g
         transform="translate(223.9615,423.9733)"
         id="g10986">
        <path
           inkscape:connector-curvature="0"
           id="path10988"
           style="fill:#000000;fill-opacity:1;fill-rule:nonzero;stroke:none"
           d="m 0,0 c 0.655,-1.747 1.26,-3.344 0.966,-5.263 -0.328,-2.144 -1.475,-4.086 -2.721,-5.821 -0.478,-0.666 -1.111,-1.251 -1.361,-2.039 -0.208,-0.652 -0.359,-1.322 -0.46,-1.999 -0.164,-1.099 -0.177,-2.209 -0.014,-3.308 0.62,-4.195 4.034,-7.159 8.058,-8.035 4.234,-0.921 8.882,0.185 11.851,3.438 1.606,1.759 2.82,4.184 3.446,6.476 0.525,1.921 0.223,3.842 -0.863,5.507 -2.361,3.618 -7.425,6.218 -5.429,11.224 0.238,0.599 -0.757,0.886 -0.976,0.27 -0.642,-1.798 -0.616,-3.649 0.314,-5.339 0.87,-1.583 2.271,-2.8 3.535,-4.057 1.294,-1.287 2.566,-2.772 2.885,-4.629 0.396,-2.303 -0.864,-4.829 -2.12,-6.686 -2.346,-3.47 -6.692,-5.264 -10.81,-4.879 -3.731,0.348 -7.526,2.637 -8.575,6.399 -0.331,1.19 -0.371,2.432 -0.203,3.652 0.101,0.729 0.219,1.578 0.624,2.199 0.594,0.909 1.263,1.755 1.81,2.696 1.894,3.263 2.687,7.082 0.307,10.305 C 0.176,0.231 -0.063,0.167 0,0" />
      </g>
      <g
         transform="translate(232.961,362.9943)"
         id="g10990">
        <path
           inkscape:connector-curvature="0"
           id="path10992"
           style="fill:#000000;fill-opacity:1;fill-rule:nonzero;stroke:none"
           d="m 0,0 -0.146,0.046 c -0.444,0.142 -1.08,0.333 -1.859,0.568 -10.486,3.157 -21.209,6.864 -21.228,10.423 -0.007,1.315 1.301,2.364 3.999,3.207 l 0.297,-0.954 c -2.129,-0.665 -3.3,-1.464 -3.296,-2.248 0.018,-3.3 15.446,-7.944 20.516,-9.471 0.703,-0.211 1.291,-0.388 1.728,-0.525 6.192,1.845 11.268,4.942 16.64,8.219 1.548,0.944 3.143,1.917 4.789,2.874 -0.797,1.37 -2.52,2.132 -3.951,2.395 l 0.18,0.983 c 1.82,-0.333 4.06,-1.397 4.888,-3.384 l 0.17,-0.406 -0.382,-0.22 C 20.567,10.482 18.841,9.429 17.172,8.411 11.7,5.073 6.531,1.92 0.147,0.043 Z" />
      </g>
      <g
         transform="translate(233.2184,418.2907)"
         id="g10994">
        <path
           inkscape:connector-curvature="0"
           id="path10996"
           style="fill:#000000;fill-opacity:1;fill-rule:nonzero;stroke:none"
           d="m 0,0 -0.072,0.005 -22.426,1.411 0.097,1.539 22.354,-1.406 16.995,2.107 0.189,-1.531 z" />
      </g>
      <g
         transform="translate(207.7423,312.7394)"
         id="g10998">
        <path
           inkscape:connector-curvature="0"
           id="path11000"
           style="fill:#000000;fill-opacity:1;fill-rule:nonzero;stroke:none"
           d="M 0,0 C -4.657,0 -8.445,-3.789 -8.445,-8.445 V -27.62 c 0,-4.657 3.788,-8.445 8.445,-8.445 h 274.696 c 4.657,0 8.446,3.788 8.446,8.445 v 19.175 c 0,4.656 -3.789,8.445 -8.446,8.445 z M 274.696,-37.565 H 0 c -5.484,0 -9.945,4.462 -9.945,9.945 V -8.445 C -9.945,-2.961 -5.484,1.5 0,1.5 h 274.696 c 5.484,0 9.946,-4.461 9.946,-9.945 V -27.62 c 0,-5.483 -4.462,-9.945 -9.946,-9.945" />
      </g>
      <g
         transform="translate(289.4601,183.6198)"
         id="g11002">
        <path
           inkscape:connector-curvature="0"
           id="path11004"
           style="fill:#000000;fill-opacity:1;fill-rule:nonzero;stroke:none"
           d="m 0,0 c -24.909,0 -45.174,-20.265 -45.174,-45.174 0,-24.909 20.265,-45.174 45.174,-45.174 24.909,0 45.174,20.265 45.174,45.174 C 45.174,-20.265 24.909,0 0,0 m 0,-92.348 c -26.012,0 -47.174,21.162 -47.174,47.174 C -47.174,-19.162 -26.012,2 0,2 26.012,2 47.174,-19.162 47.174,-45.174 47.174,-71.186 26.012,-92.348 0,-92.348" />
      </g>
      <g
         transform="translate(289.4601,151.2614)"
         id="g11006">
        <path
           inkscape:connector-curvature="0"
           id="path11008"
           style="fill:#000000;fill-opacity:1;fill-rule:nonzero;stroke:none"
           d="m 0,0 c -7.066,0 -12.815,-5.749 -12.815,-12.815 0,-7.067 5.749,-12.816 12.815,-12.816 7.066,0 12.815,5.749 12.815,12.816 C 12.815,-5.749 7.066,0 0,0 m 0,-27.131 c -7.894,0 -14.315,6.422 -14.315,14.316 0,7.893 6.421,14.315 14.315,14.315 7.893,0 14.315,-6.422 14.315,-14.315 0,-7.894 -6.422,-14.316 -14.315,-14.316" />
      </g>
      <g
         transform="translate(242.2633,165.5465)"
         id="g11010">
        <path
           inkscape:connector-curvature="0"
           id="path11012"
           style="fill:#000000;fill-opacity:1;fill-rule:nonzero;stroke:none"
           d="m 0,0 c -1.902,34.748 -12.137,73.483 -22.915,110.167 l 1.44,0.422 C -10.673,73.819 -0.413,34.982 1.498,0.082 Z" />
      </g>
      <g
         transform="translate(269.0611,180.151)"
         id="g11014">
        <path
           inkscape:connector-curvature="0"
           id="path11016"
           style="fill:#000000;fill-opacity:1;fill-rule:nonzero;stroke:none"
           d="m 0,0 c -3.737,31.571 -13.112,66.024 -21.79,95.563 l 1.439,0.421 C -11.655,66.387 -2.261,31.858 1.489,0.176 Z" />
      </g>
      <g
         transform="translate(450.8214,165.5465)"
         id="g11018">
        <path
           inkscape:connector-curvature="0"
           id="path11020"
           style="fill:#000000;fill-opacity:1;fill-rule:nonzero;stroke:none"
           d="m 0,0 -1.498,0.082 c 1.911,34.9 12.171,73.737 22.973,110.507 l 1.44,-0.422 C 12.137,73.483 1.902,34.748 0,0" />
      </g>
      <g
         transform="translate(424.024,180.151)"
         id="g11022">
        <path
           inkscape:connector-curvature="0"
           id="path11024"
           style="fill:#000000;fill-opacity:1;fill-rule:nonzero;stroke:none"
           d="M 0,0 -1.489,0.176 C 2.26,31.857 11.655,66.387 20.35,95.984 l 1.44,-0.421 C 13.111,66.023 3.736,31.571 0,0" />
      </g>
      <g
         transform="translate(246.8185,119.9567)"
         id="g11026">
        <path
           inkscape:connector-curvature="0"
           id="path11028"
           style="fill:#000000;fill-opacity:1;fill-rule:nonzero;stroke:none"
           d="m 0,0 h -11.62 c -5.16,0 -9.358,4.198 -9.358,9.359 v 28.174 c 0,5.16 4.198,9.359 9.358,9.359 H 5.66 v -1.5 h -17.28 c -4.333,0 -7.858,-3.526 -7.858,-7.859 V 9.359 c 0,-4.334 3.525,-7.859 7.858,-7.859 H 0 Z" />
      </g>
      <path
         inkscape:connector-curvature="0"
         id="path11030"
         style="fill:#000000;fill-opacity:1;fill-rule:nonzero;stroke:none"
         d="m 359.513,119.957 h -27.411 v 1.5 h 27.411 z" />
      <g
         transform="translate(454.8512,119.9567)"
         id="g11032">
        <path
           inkscape:connector-curvature="0"
           id="path11034"
           style="fill:#000000;fill-opacity:1;fill-rule:nonzero;stroke:none"
           d="M 0,0 H -10.053 V 1.5 H 0 c 4.333,0 7.859,3.525 7.859,7.859 v 28.174 c 0,4.333 -3.526,7.859 -7.859,7.859 h -15.715 v 1.5 H 0 c 5.161,0 9.359,-4.199 9.359,-9.359 V 9.359 C 9.359,4.198 5.161,0 0,0" />
      </g>
      <path
         inkscape:connector-curvature="0"
         id="path11036"
         style="fill:#000000;fill-opacity:1;fill-rule:nonzero;stroke:none"
         d="m 365.175,165.348 h -38.736 v 1.5 h 38.736 z" />
      <path
         inkscape:connector-curvature="0"
         id="path11038"
         style="fill:#000000;fill-opacity:1;fill-rule:nonzero;stroke:none"
         d="m 226.59,154.848 h -21.587 v 1.5 h 21.587 z" />
      <path
         inkscape:connector-curvature="0"
         id="path11040"
         style="fill:#000000;fill-opacity:1;fill-rule:nonzero;stroke:none"
         d="m 226.59,136.261 h -21.587 v 1.5 h 21.587 z" />
      <g
         transform="translate(192.8819,165.8112)"
         id="g11042">
        <path
           inkscape:connector-curvature="0"
           id="path11044"
           style="fill:#000000;fill-opacity:1;fill-rule:nonzero;stroke:none"
           d="m 0,0 c -0.569,0 -1.137,-0.152 -1.65,-0.457 -0.994,-0.59 -1.587,-1.631 -1.587,-2.786 v -31.522 c 0,-1.103 0.553,-2.12 1.479,-2.719 0.926,-0.597 2.079,-0.687 3.087,-0.235 l 8.131,3.655 c 1.162,0.521 1.912,1.68 1.912,2.954 v 23.423 c 0,1.184 -0.646,2.273 -1.686,2.841 v 0 L 1.555,-0.401 C 1.065,-0.134 0.532,0 0,0 m -0.001,-39.506 c -0.898,0 -1.79,0.257 -2.572,0.763 -1.355,0.877 -2.164,2.364 -2.164,3.978 v 31.522 c 0,1.69 0.867,3.214 2.321,4.076 1.454,0.862 3.207,0.892 4.69,0.082 l 8.131,-4.444 c 1.521,-0.831 2.467,-2.425 2.467,-4.158 V -31.11 c 0,-1.864 -1.098,-3.56 -2.797,-4.324 l -8.131,-3.654 c -0.624,-0.279 -1.286,-0.418 -1.945,-0.418" />
      </g>
      <path
         inkscape:connector-curvature="0"
         id="path11046"
         style="fill:#000000;fill-opacity:1;fill-rule:nonzero;stroke:none"
         d="m 485.764,155.519 h -21.587 v 1.5 h 21.587 z" />
      <path
         inkscape:connector-curvature="0"
         id="path11048"
         style="fill:#000000;fill-opacity:1;fill-rule:nonzero;stroke:none"
         d="m 485.764,136.932 h -21.587 v 1.5 h 21.587 z" />
      <g
         transform="translate(497.8853,166.4821)"
         id="g11050">
        <path
           inkscape:connector-curvature="0"
           id="path11052"
           style="fill:#000000;fill-opacity:1;fill-rule:nonzero;stroke:none"
           d="m 0,0 c -0.532,0 -1.064,-0.134 -1.554,-0.401 l -8.132,-4.445 c -1.039,-0.568 -1.685,-1.657 -1.685,-2.841 V -31.11 c 0,-1.274 0.75,-2.433 1.911,-2.954 l 8.131,-3.655 c 1.006,-0.451 2.16,-0.364 3.087,0.235 0.926,0.599 1.479,1.616 1.479,2.719 v 31.522 c 0,1.155 -0.593,2.197 -1.587,2.786 C 1.137,-0.152 0.569,0 0,0 m 0.001,-39.506 c -0.659,0 -1.321,0.139 -1.944,0.418 l -8.132,3.654 c -1.698,0.764 -2.796,2.461 -2.796,4.324 v 23.423 c 0,1.733 0.945,3.327 2.466,4.158 v 0 l 8.131,4.444 c 1.482,0.811 3.235,0.779 4.69,-0.082 1.453,-0.862 2.321,-2.386 2.321,-4.076 v -31.522 c 0,-1.614 -0.809,-3.101 -2.164,-3.978 -0.782,-0.506 -1.674,-0.763 -2.572,-0.763" />
      </g>
      <g
         transform="translate(281.0465,173.5036)"
         id="g11054">
        <path
           inkscape:connector-curvature="0"
           id="path11056"
           style="fill:#000000;fill-opacity:1;fill-rule:nonzero;stroke:none"
           d="m 0,0 3.173,-12.057 c 1.425,0.219 5.829,0.788 8.896,0.04 l 3.909,11.544 C 14.564,0.093 9.289,1.772 0,0 m 12.709,-13.243 -0.463,0.141 c -3.367,1.031 -9.295,-0.002 -9.354,-0.013 l -0.454,-0.08 -3.676,13.968 0.52,0.105 C 10.962,3.233 16.597,0.367 16.831,0.243 l 0.377,-0.198 z" />
      </g>
      <g
         transform="translate(258.7208,157.2858)"
         id="g11058">
        <path
           inkscape:connector-curvature="0"
           id="path11060"
           style="fill:#000000;fill-opacity:1;fill-rule:nonzero;stroke:none"
           d="m 0,0 10.769,-6.28 c 0.853,1.161 3.564,4.678 6.263,6.318 l -5.4,10.927 C 10.233,10.365 5.314,7.823 0,0 m 11.055,-7.605 -12.477,7.277 0.294,0.441 c 6.593,9.926 12.605,11.883 12.857,11.961 l 0.408,0.127 6.215,-12.578 -0.429,-0.227 c -3.109,-1.655 -6.569,-6.575 -6.604,-6.624 z" />
      </g>
      <g
         transform="translate(254.8746,146.0104)"
         id="g11062">
        <path
           inkscape:connector-curvature="0"
           id="path11064"
           style="fill:#000000;fill-opacity:1;fill-rule:nonzero;stroke:none"
           d="m 0,0 c -0.565,-1.413 -2.247,-6.688 -0.472,-15.978 l 12.056,3.173 c -0.218,1.425 -0.789,5.829 -0.04,8.897 z m -1.246,-17.215 -0.105,0.52 c -2.356,11.68 0.512,17.314 0.635,17.548 l 0.199,0.377 13.288,-4.498 -0.143,-0.464 c -1.027,-3.365 0.004,-9.294 0.015,-9.354 l 0.08,-0.453 z" />
      </g>
      <g
         transform="translate(259.6554,119.3395)"
         id="g11066">
        <path
           inkscape:connector-curvature="0"
           id="path11068"
           style="fill:#000000;fill-opacity:1;fill-rule:nonzero;stroke:none"
           d="m 0,0 c 0.6,-1.399 3.141,-6.317 10.964,-11.633 l 6.282,10.769 c -1.162,0.853 -4.68,3.565 -6.319,6.262 z m 11.292,-13.055 -0.441,0.294 C 0.925,-6.166 -1.031,-0.155 -1.109,0.097 L -1.236,0.504 11.341,6.719 11.569,6.29 c 1.654,-3.108 6.575,-6.569 6.624,-6.603 l 0.378,-0.264 z" />
      </g>
      <g
         transform="translate(281.8956,103.861)"
         id="g11070">
        <path
           inkscape:connector-curvature="0"
           id="path11072"
           style="fill:#000000;fill-opacity:1;fill-rule:nonzero;stroke:none"
           d="m 0,0 c 1.413,-0.564 6.688,-2.244 15.978,-0.473 l -3.173,12.057 c -1.425,-0.22 -5.83,-0.788 -8.896,-0.04 z m 8.058,-2.276 c -5.852,0 -8.745,1.472 -8.912,1.56 l -0.377,0.198 4.499,13.289 0.464,-0.142 c 3.364,-1.029 9.294,0.004 9.353,0.014 l 0.454,0.08 3.676,-13.969 -0.52,-0.105 c -3.38,-0.681 -6.254,-0.925 -8.637,-0.925" />
      </g>
      <g
         transform="translate(303.1671,119.568)"
         id="g11074">
        <path
           inkscape:connector-curvature="0"
           id="path11076"
           style="fill:#000000;fill-opacity:1;fill-rule:nonzero;stroke:none"
           d="m 0,0 5.399,-10.927 c 1.399,0.6 6.318,3.142 11.633,10.965 L 6.263,6.319 C 5.41,5.157 2.698,1.64 0,0 M 4.895,-12.163 -1.32,0.415 -0.892,0.643 c 3.107,1.652 6.57,6.575 6.605,6.624 L 5.977,7.645 18.454,0.366 18.16,-0.075 C 11.566,-10.001 5.555,-11.958 5.302,-12.036 Z" />
      </g>
      <g
         transform="translate(312.5011,134.7897)"
         id="g11078">
        <path
           inkscape:connector-curvature="0"
           id="path11080"
           style="fill:#000000;fill-opacity:1;fill-rule:nonzero;stroke:none"
           d="m 0,0 11.544,-3.908 c 0.565,1.413 2.247,6.688 0.472,15.978 L -0.04,8.896 C 0.178,7.472 0.749,3.067 0,0 m 12.061,-5.139 -13.288,4.498 0.143,0.465 c 1.027,3.365 -0.004,9.294 -0.015,9.354 l -0.08,0.453 13.969,3.677 0.105,-0.52 C 15.25,1.106 12.383,-4.527 12.26,-4.761 Z" />
      </g>
      <g
         transform="translate(302.0182,158.4167)"
         id="g11082">
        <path
           inkscape:connector-curvature="0"
           id="path11084"
           style="fill:#000000;fill-opacity:1;fill-rule:nonzero;stroke:none"
           d="m 0,0 c 1.162,-0.854 4.68,-3.565 6.319,-6.263 l 10.927,5.399 c -0.6,1.399 -3.141,6.318 -10.964,11.633 z m 5.905,-7.583 -0.228,0.429 c -1.654,3.108 -6.574,6.569 -6.624,6.603 L -1.325,-0.287 5.954,12.19 6.396,11.896 C 16.321,5.303 18.277,-0.709 18.355,-0.961 l 0.127,-0.407 z" />
      </g>
      <g
         transform="translate(402.1554,183.6198)"
         id="g11086">
        <path
           inkscape:connector-curvature="0"
           id="path11088"
           style="fill:#000000;fill-opacity:1;fill-rule:nonzero;stroke:none"
           d="m 0,0 c -24.909,0 -45.174,-20.265 -45.174,-45.174 0,-24.909 20.265,-45.174 45.174,-45.174 24.909,0 45.174,20.265 45.174,45.174 C 45.174,-20.265 24.909,0 0,0 m 0,-92.348 c -26.012,0 -47.174,21.162 -47.174,47.174 C -47.174,-19.162 -26.012,2 0,2 26.012,2 47.174,-19.162 47.174,-45.174 47.174,-71.186 26.012,-92.348 0,-92.348" />
      </g>
      <g
         transform="translate(402.1554,151.2614)"
         id="g11090">
        <path
           inkscape:connector-curvature="0"
           id="path11092"
           style="fill:#000000;fill-opacity:1;fill-rule:nonzero;stroke:none"
           d="m 0,0 c -7.066,0 -12.815,-5.749 -12.815,-12.815 0,-7.067 5.749,-12.816 12.815,-12.816 7.066,0 12.815,5.749 12.815,12.816 C 12.815,-5.749 7.066,0 0,0 m 0,-27.131 c -7.893,0 -14.315,6.422 -14.315,14.316 0,7.893 6.422,14.315 14.315,14.315 7.894,0 14.315,-6.422 14.315,-14.315 0,-7.894 -6.421,-14.316 -14.315,-14.316" />
      </g>
      <g
         transform="translate(393.7418,173.5036)"
         id="g11094">
        <path
           inkscape:connector-curvature="0"
           id="path11096"
           style="fill:#000000;fill-opacity:1;fill-rule:nonzero;stroke:none"
           d="m 0,0 3.173,-12.057 c 1.425,0.219 5.83,0.788 8.896,0.04 l 3.909,11.544 C 14.564,0.094 9.289,1.774 0,0 m 12.71,-13.243 -0.464,0.141 c -3.366,1.031 -9.294,-0.002 -9.353,-0.013 l -0.454,-0.08 -3.677,13.968 0.52,0.105 C 10.964,3.233 16.598,0.367 16.832,0.243 l 0.377,-0.198 z" />
      </g>
      <g
         transform="translate(371.4166,157.2858)"
         id="g11098">
        <path
           inkscape:connector-curvature="0"
           id="path11100"
           style="fill:#000000;fill-opacity:1;fill-rule:nonzero;stroke:none"
           d="m 0,0 10.769,-6.28 c 0.853,1.161 3.564,4.678 6.262,6.318 L 11.632,10.965 C 10.233,10.365 5.314,7.823 0,0 m 11.055,-7.605 -12.477,7.277 0.294,0.441 c 6.593,9.926 12.605,11.883 12.857,11.961 l 0.408,0.127 6.214,-12.578 -0.428,-0.227 c -3.106,-1.653 -6.569,-6.575 -6.604,-6.624 z" />
      </g>
      <g
         transform="translate(367.5704,146.0104)"
         id="g11102">
        <path
           inkscape:connector-curvature="0"
           id="path11104"
           style="fill:#000000;fill-opacity:1;fill-rule:nonzero;stroke:none"
           d="m 0,0 c -0.565,-1.413 -2.247,-6.688 -0.472,-15.978 l 12.056,3.173 c -0.218,1.425 -0.789,5.829 -0.04,8.897 z m -1.246,-17.215 -0.105,0.52 c -2.356,11.68 0.512,17.314 0.635,17.548 l 0.199,0.377 13.288,-4.498 -0.143,-0.464 c -1.027,-3.365 0.004,-9.294 0.015,-9.354 l 0.08,-0.453 z" />
      </g>
      <g
         transform="translate(372.3512,119.3395)"
         id="g11106">
        <path
           inkscape:connector-curvature="0"
           id="path11108"
           style="fill:#000000;fill-opacity:1;fill-rule:nonzero;stroke:none"
           d="m 0,0 c 0.6,-1.399 3.141,-6.317 10.964,-11.633 l 6.282,10.769 c -1.163,0.853 -4.68,3.565 -6.319,6.262 z m 11.292,-13.055 -0.441,0.294 C 0.925,-6.166 -1.031,-0.155 -1.109,0.097 L -1.236,0.504 11.341,6.719 11.569,6.29 c 1.654,-3.108 6.574,-6.569 6.624,-6.603 l 0.377,-0.265 z" />
      </g>
      <g
         transform="translate(394.5914,103.861)"
         id="g11110">
        <path
           inkscape:connector-curvature="0"
           id="path11112"
           style="fill:#000000;fill-opacity:1;fill-rule:nonzero;stroke:none"
           d="m 0,0 c 1.413,-0.564 6.687,-2.244 15.978,-0.473 l -3.173,12.057 c -1.426,-0.218 -5.83,-0.786 -8.896,-0.04 z m 8.058,-2.276 c -5.852,0 -8.745,1.472 -8.912,1.56 l -0.377,0.198 4.499,13.289 0.464,-0.142 c 3.366,-1.03 9.295,0.003 9.353,0.014 l 0.454,0.08 3.676,-13.969 -0.52,-0.105 c -3.38,-0.681 -6.254,-0.925 -8.637,-0.925" />
      </g>
      <g
         transform="translate(415.8629,119.568)"
         id="g11114">
        <path
           inkscape:connector-curvature="0"
           id="path11116"
           style="fill:#000000;fill-opacity:1;fill-rule:nonzero;stroke:none"
           d="m 0,0 5.399,-10.927 c 1.399,0.6 6.318,3.142 11.633,10.965 L 6.262,6.319 C 5.409,5.157 2.698,1.64 0,0 M 4.895,-12.163 -1.32,0.415 -0.892,0.643 c 3.106,1.652 6.57,6.575 6.604,6.624 L 5.976,7.645 18.454,0.366 18.16,-0.075 C 11.566,-10.001 5.555,-11.958 5.302,-12.036 Z" />
      </g>
      <g
         transform="translate(425.1969,134.7897)"
         id="g11118">
        <path
           inkscape:connector-curvature="0"
           id="path11120"
           style="fill:#000000;fill-opacity:1;fill-rule:nonzero;stroke:none"
           d="m 0,0 11.544,-3.908 c 0.565,1.413 2.246,6.688 0.472,15.978 L -0.04,8.896 C 0.178,7.472 0.749,3.067 0,0 m 12.061,-5.139 -13.288,4.498 0.143,0.465 c 1.027,3.365 -0.004,9.294 -0.015,9.354 l -0.08,0.453 13.969,3.677 0.105,-0.52 C 15.25,1.106 12.383,-4.527 12.26,-4.761 Z" />
      </g>
      <g
         transform="translate(414.714,158.4167)"
         id="g11122">
        <path
           inkscape:connector-curvature="0"
           id="path11124"
           style="fill:#000000;fill-opacity:1;fill-rule:nonzero;stroke:none"
           d="m 0,0 c 1.162,-0.854 4.68,-3.565 6.319,-6.263 l 10.927,5.399 c -0.6,1.399 -3.141,6.318 -10.964,11.633 z m 5.905,-7.583 -0.228,0.429 c -1.654,3.108 -6.574,6.569 -6.624,6.603 L -1.325,-0.287 5.953,12.19 6.395,11.896 C 16.321,5.303 18.277,-0.709 18.355,-0.961 l 0.127,-0.407 z" />
      </g>
      <path
         inkscape:connector-curvature="0"
         id="path11126"
         style="fill:#000000;fill-opacity:1;fill-rule:nonzero;stroke:none"
         d="M 436.97,243.92 H 256.818 v 1 H 436.97 Z" />
      <path
         inkscape:connector-curvature="0"
         id="path11128"
         style="fill:#000000;fill-opacity:1;fill-rule:nonzero;stroke:none"
         d="M 427.361,205.511 H 266.003 v 1 h 161.358 z" />
      <g
         transform="translate(235.7057,312.735)"
         id="g11130">
        <path
           inkscape:connector-curvature="0"
           id="path11132"
           style="fill:#000000;fill-opacity:1;fill-rule:nonzero;stroke:none"
           d="m 0,0 c -0.608,1.825 -0.917,3.812 -0.917,5.905 0,14.185 22.535,30.426 31.747,30.426 16.386,0 29.392,-14.551 31.258,-28.14 L 60.602,7.987 C 58.822,20.951 46.434,34.831 30.83,34.831 22.287,34.831 0.583,19.076 0.583,5.905 c 0,-1.932 0.283,-3.759 0.84,-5.43 z" />
      </g>
      <g
         transform="translate(273.7091,347.0529)"
         id="g11134">
        <path
           inkscape:connector-curvature="0"
           id="path11136"
           style="fill:#000000;fill-opacity:1;fill-rule:nonzero;stroke:none"
           d="m 0,0 c -0.07,0.683 -0.106,1.389 -0.106,2.098 0,14.502 15.127,30.425 28.903,30.425 L 28.936,32.51 C 36.517,31.083 55.689,17.687 57.519,3.953 L 56.032,3.755 C 54.322,16.587 35.838,29.624 28.727,31.023 15.685,30.968 1.394,15.859 1.394,2.098 1.394,1.44 1.427,0.786 1.492,0.153 Z" />
      </g>
      <g
         transform="translate(452.0948,312.9723)"
         id="g11138">
        <path
           inkscape:connector-curvature="0"
           id="path11140"
           style="fill:#000000;fill-opacity:1;fill-rule:nonzero;stroke:none"
           d="m 0,0 h -1.5 c 0,19.726 -19.708,32.859 -27.31,34.593 C -41.849,34.52 -56.131,16.798 -56.131,0.656 h -1.5 c 0,16.891 15.127,35.437 28.903,35.437 l 0.162,-0.017 C -20.699,34.344 0,20.629 0,0" />
      </g>
      <g
         transform="translate(320.5479,368.1022)"
         id="g11142">
        <path
           inkscape:connector-curvature="0"
           id="path11144"
           style="fill:#000000;fill-opacity:1;fill-rule:nonzero;stroke:none"
           d="M 0,0 -1.488,0.184 C 0.604,17.137 23.26,31.442 36.379,31.442 L 36.558,31.42 C 44.81,29.393 50.894,15.687 54.544,4.545 L 53.119,4.079 C 48.078,19.463 42.259,28.402 36.288,29.941 23.666,29.875 2,16.199 0,0" />
      </g>
      <g
         transform="translate(301.6402,322.3429)"
         id="g11146">
        <path
           inkscape:connector-curvature="0"
           id="path11148"
           style="fill:#000000;fill-opacity:1;fill-rule:nonzero;stroke:none"
           d="m 0,0 -1.48,0.241 c 2.288,14.017 15.404,29.025 31.283,29.025 13.671,0 23.236,-11.174 27.272,-20.743 L 55.693,7.94 C 51.835,17.086 42.739,27.766 29.803,27.766 14.687,27.766 2.189,13.409 0,0" />
      </g>
      <g
         transform="translate(399.6715,331.7502)"
         id="g11150">
        <path
           inkscape:connector-curvature="0"
           id="path11152"
           style="fill:#000000;fill-opacity:1;fill-rule:nonzero;stroke:none"
           d="m 0,0 c -2.251,9.463 -9.117,16.844 -20.992,22.565 -5.575,2.686 -11.992,2.535 -17.164,-0.403 -4.332,-2.46 -8.145,-6.435 -11.029,-11.497 l -1.303,0.742 c 3.017,5.297 7.025,9.467 11.591,12.06 5.601,3.18 12.538,3.348 18.557,0.45 12.307,-5.93 19.437,-13.64 21.799,-23.57 z" />
      </g>
      <g
         transform="translate(417.3316,346.9894)"
         id="g11154">
        <path
           inkscape:connector-curvature="0"
           id="path11156"
           style="fill:#000000;fill-opacity:1;fill-rule:nonzero;stroke:none"
           d="m 0,0 c -2.047,10.75 -9.074,18.639 -23.498,26.378 -4.501,2.416 -9.899,2.692 -14.442,0.741 -7.108,-3.054 -11.504,-9.254 -12.38,-17.457 l -1.492,0.159 c 0.936,8.766 5.652,15.399 13.28,18.676 4.959,2.13 10.844,1.832 15.743,-0.797 C -8.121,19.83 -0.638,11.373 1.474,0.28 Z" />
      </g>
      <g
         transform="translate(286.6549,312.9503)"
         id="g11158">
        <path
           inkscape:connector-curvature="0"
           id="path11160"
           style="fill:#000000;fill-opacity:1;fill-rule:nonzero;stroke:none"
           d="m 0,0 -1.04,1.081 c 6.634,6.378 13.867,10.187 19.35,10.187 6.129,0 13.932,-4.008 19.879,-10.21 L 37.106,0.02 C 31.428,5.941 24.05,9.768 18.31,9.768 13.282,9.768 6.266,6.025 0,0" />
      </g>
      <g
         transform="translate(390.1993,313.1588)"
         id="g11162">
        <path
           inkscape:connector-curvature="0"
           id="path11164"
           style="fill:#000000;fill-opacity:1;fill-rule:nonzero;stroke:none"
           d="m 0,0 c -4.653,9.492 -24.543,16.735 -31.218,16.735 -5.15,0 -13.239,-6.837 -16.614,-16.647 l -1.418,0.488 c 3.634,10.563 12.257,17.659 18.032,17.659 6.157,0 27.335,-6.904 32.565,-17.575 z" />
      </g>
      <path
         inkscape:connector-curvature="0"
         id="path11166"
         style="fill:#000000;fill-opacity:1;fill-rule:nonzero;stroke:none"
         d="m 226.728,313.489 h -1.5 v 52.181 h 1.5 z" />
      <path
         inkscape:connector-curvature="0"
         id="path11168"
         style="fill:#000000;fill-opacity:1;fill-rule:nonzero;stroke:none"
         d="m 240.284,329.27 h -1.5 v 36.761 h 1.5 z" />
      <g
         transform="translate(232.9889,352.0905)"
         id="g11170">
        <path
           inkscape:connector-curvature="0"
           id="path11172"
           style="fill:#000000;fill-opacity:1;fill-rule:nonzero;stroke:none"
           d="M 0,0 C -4.181,0 -7.293,2.656 -7.34,2.697 L -6.683,3.45 C -6.424,3.225 -0.25,-2.012 6.223,3.455 L 6.868,2.691 C 4.479,0.673 2.104,0 0,0" />
      </g>
      <g
         transform="translate(232.9889,345.2423)"
         id="g11174">
        <path
           inkscape:connector-curvature="0"
           id="path11176"
           style="fill:#000000;fill-opacity:1;fill-rule:nonzero;stroke:none"
           d="M 0,0 C -4.181,0 -7.293,2.656 -7.34,2.697 L -6.683,3.45 C -6.424,3.225 -0.25,-2.011 6.223,3.455 L 6.868,2.691 C 4.479,0.673 2.104,0 0,0" />
      </g>
      <g
         transform="translate(232.9889,357.9352)"
         id="g11178">
        <path
           inkscape:connector-curvature="0"
           id="path11180"
           style="fill:#000000;fill-opacity:1;fill-rule:nonzero;stroke:none"
           d="M 0,0 C -4.181,0 -7.293,2.656 -7.34,2.697 L -6.683,3.45 C -6.424,3.225 -0.25,-2.009 6.223,3.455 L 6.868,2.691 C 4.479,0.673 2.104,0 0,0" />
      </g>
      <path
         inkscape:connector-curvature="0"
         id="path11182"
         style="fill:#000000;fill-opacity:1;fill-rule:nonzero;stroke:none"
         d="M 491.634,284.745 H 198.547 v 0.75 h 293.087 z" />
    </g>
  </g>
</svg>
